<svg version="1.0" xmlns="http://www.w3.org/2000/svg" width="1800" height="666" viewBox="0 0 1800 666" preserveAspectRatio="xMidYMid meet"><g transform="translate(0 666) scale(.1-.1)" fill="#000" stroke="none"><path d="M0 3330l0-3330 9000 0 9000 0 0 3330 0 3330-9000 0-9000 0 0-3330zm1089 2802c48-22 90-70 112-128 18-47 19-118 19-2089 0-1122 4-2046 8-2053 6-8 22 21 47 85 22 54 43 103 47 109 4 6 21 46 36 90 32 87 117 307 164 424 17 41 36 91 43 110 21 57 105 261 131 318 13 29 24 55 24 58 0 27 225 469 281 552 16 24 29 45 29 48 0 17 128 172 205 250 164 164 353 263 635 331 59 14 115 18 265 18 173-1 195-3 250-24 117-44 161-115 153-250-5-94-32-144-101-188-41-27-44-27-229-29-282-2-400-30-542-129-78-53-219-218-292-338-74-123-86-144-101-177-19-43-97-216-170-377-30-67-52-126-48-132 3-7 41-11 89-11 81 0 213-22 248-41 10-5 24-9 31-9 23 0 166-80 228-126 133-101 233-222 307-369 63-126 122-253 122-263 0-5 9-31 21-58 11-27 24-58 28-69 5-11 14-33 21-50 7-16 30-75 52-130 22-55 67-154 101-220 75-148 150-229 246-265 80-29 223-26 286 7 108 57 160 133 228 333 45 133 53 161 76 301 31 188 42 338 45 654 3 311 3 314 58 570 10 50 30 117 43 150 14 33 25 65 25 71 0 7 12 38 26 70 69 155 97 210 124 251 17 24 30 46 30 49 0 3 23 35 50 71 88 116 243 267 384 374 162 122 433 245 641 290 292 63 288 63 535 63 268 0 294-3 611-87 162-43 379-151 534-264 293-215 565-592 634-878 8-36 39-44 73-21 12 9 28 16 35 16 14 0 238 131 373 218 96 62 172 120 310 237 52 44 108 91 124 103 15 12 56 48 91 79 63 58 106 95 180 153 22 18 42 35 45 39 10 15 167 129 225 163 33 20 87 48 120 63 33 14 79 35 101 46 131 61 328 109 534 130 129 14 404 5 485-14 33-8 96-23 140-33 44-10 112-31 150-46 39-15 74-28 79-28 17 0 205-99 274-145 111-73 289-231 365-325 37-47 73-85 78-85 7 0 10 407 9 1180-1 1286-3 1234 56 1310 92 117 300 119 383 4 65-90 61 85 64-2404 3-2049 5-2270 20-2368 29-189 51-239 127-292 35-24 50-28 109-28 55 0 76 5 110 25 138 82 222 345 272 848 6 63 9 149 6 190-4 41-10 162-13 268-11 310 22 503 141 821 49 133 157 328 240 432 70 89 243 259 330 325 78 60 226 149 315 192 84 39 308 111 452 143 141 33 147 33 388 33 212 0 259-3 345-22 55-12 132-28 171-36 74-16 208-58 261-82 17-8 34-14 38-14 15 0 195-95 260-138 185-122 436-377 530-537 129-221 183-370 251-690l28-130 1-725c2-780 2-789 53-843 52-55 62-57 315-57 294 0 323-8 384-103 75-119 31-283-92-339-48-22-63-23-340-26-316-4-402 4-493 44-53 23-117 68-158 108-26 26-86 130-103 176-16 44-40 209-41 273 0 55-21 64-44 18-21-40-223-230-331-311-214-161-482-260-824-305-458-60-1003 76-1346 337-115 88-269 237-308 299-27 42-53 38-61-8-26-145-131-347-235-453-34-34-109-85-188-127-109-58-298-77-474-47-209 35-362 150-467 350-30 56-70 191-82 278-5 32-11 61-14 64-8 8-45-28-71-68-33-52-229-245-315-310-120-90-250-165-348-199-32-11-69-24-82-29-90-34-239-68-394-88-201-26-491-10-668 36-362 96-592 219-813 437-250 245-407 511-485 818-81 322-98 559-60 805 11 69 21 134 22 145 4 28-19 22-89-24-82-54-281-161-300-161-4 0-31-10-60-22-40-16-53-27-53-42 1-110-11-384-19-431-56-334-192-649-393-910-58-75-228-236-338-320-83-63-281-174-348-195-15-5-52-18-82-29-174-66-498-121-721-121-387 0-806 116-1094 305-127 83-358 300-407 382-31 51-67 51-68 0 0-41-55-177-106-264-105-178-270-321-436-378-141-47-331-59-486-30-193 37-353 137-491 310-104 130-159 226-222 389-22 56-44 110-49 121-4 11-13 34-18 50-6 17-27 68-46 115-20 46-36 88-36 92 0 16-126 264-157 309-18 25-57 69-87 96-105 96-187 123-378 123-117 0-129-2-153-23-25-21-59-96-166-367-28-69-57-140-65-158-8-18-14-37-14-42 0-5-11-33-24-62-40-86-133-310-149-358-18-54-97-241-107-255-5-5-13-26-18-45-28-95-67-174-114-230-23-28-82-58-137-69-150-31-282 39-323 173-13 42-11 5258 2 5307 11 42 70 113 111 134 67 35 170 38 238 7z" fill="#fff"/><path d="M6063 3775c-103-16-139-30-181-69-55-51-73-96-74-186-1-144 57-267 182-388 104-101 277-204 430-256 172-58 434-92 635-83 134 7 313 29 334 41 17 11 14 41-10 94-11 26-26 61-34 77-66 152-131 255-226 360-65 72-87 90-219 183-176 124-409 211-605 227-44 3-96 8-115 10-19 2-72-2-117-10z" fill="#fff"/><path d="M14585 3783c-229-20-353-52-544-140-261-122-483-358-605-645-87-204-115-340-123-590-6-185 3-270 48-450 54-216 181-440 339-598 144-145 317-249 525-318 137-45 179-53 325-63 360-26 652 44 913 217 138 93 232 188 344 351 35 52 121 216 143 275 116 310 118 727 4 1086-29 92-121 267-189 357-217 292-586 489-950 510-60 3-128 7-150 9-22 1-58 1-80-1z" fill="#fff"/><path d="M10090 3769c-181-21-365-92-550-212-83-55-270-240-325-322-79-119-174-341-208-485-34-141-47-448-26-592 24-172 36-220 93-373 54-148 159-313 268-425 66-68 188-170 202-170 4 0 23-12 44-27 79-57 261-131 403-164 81-19 123-22 309-22 173 0 228 4 280 18 104 28 194 55 212 66 10 5 24 9 31 9 16 0 164 75 246 126 93 56 266 231 337 339 169 256 244 516 244 843 0 241-32 395-124 611-128 298-313 503-583 648-64 34-186 80-283 107-122 34-390 45-570 25z" fill="#fff"/><path d="M5239 3532c-172-123-284-250-379-435-74-144-113-260-141-417-29-158-24-506 9-646 56-240 158-449 302-618 72-85 198-188 290-237 30-16 69-38 85-48 58-35 211-89 340-121 124-31 140-32 335-33 202-1 287 9 395 45 17 6 46 14 65 18 92 22 250 96 365 172 44 29 123 95 175 148 234 234 356 506 391 869 11 116 11 125-6 137-10 7-21 11-25 9-4-3-70-14-146-25-254-37-591-22-824 35-36 9-90 22-120 29-344 82-638 280-831 560-121 177-177 323-187 495-4 58-11 106-17 107-5 1-40-19-76-44z" fill="#fff"/></g></svg>