M48
; DRILL file {KiCad 9.0.3} date 2026-04-27T13:41:01+0800
; FORMAT={-:-/ absolute / metric / decimal}
; #@! TF.CreationDate,2026-04-27T13:41:01+08:00
; #@! TF.GenerationSoftware,Kicad,Pcbnew,9.0.3
; #@! TF.FileFunction,Plated,1,2,PTH
FMAT,2
METRIC
; #@! TA.AperFunction,Plated,PTH,ViaDrill
T1C0.300
; #@! TA.AperFunction,Plated,PTH,ViaDrill
T2C0.400
; #@! TA.AperFunction,Plated,PTH,ComponentDrill
T3C0.700
; #@! TA.AperFunction,Plated,PTH,ViaDrill
T4C0.800
; #@! TA.AperFunction,Plated,PTH,ViaDrill
T5C0.900
%
G90
G05
T1
X90.05Y-71.95
X90.3Y-51.46
X90.3Y-55.15
X92.0Y-50.625
X92.71Y-67.01
X93.24Y-55.64
X93.5Y-58.1
X94.5Y-53.15
X94.75Y-48.9
X95.0Y-54.5
X95.005Y-47.145
X95.28Y-58.76
X95.45Y-60.25
X95.5Y-62.5
X105.0Y-79.5
X105.0Y-80.5
X105.0Y-81.5
X105.0Y-83.2
X107.04Y-60.85
X107.3Y-56.95
X107.6Y-60.07
X107.65Y-50.0
X109.35Y-70.25
X109.4Y-87.6
X109.9Y-56.95
X110.35Y-47.85
X110.75Y-61.87
X110.75Y-63.04
X114.5Y-56.55
X115.6Y-70.6
X115.6Y-72.4
X117.4Y-75.55
X120.25Y-80.65
X123.95Y-81.35
X126.08Y-80.08
X128.75Y-80.5
X131.5Y-82.6
X131.75Y-80.0
X133.0Y-75.0
X134.5Y-73.5
X136.25Y-56.5
X137.55Y-73.95
X137.8Y-82.2
X138.4Y-54.95
X139.8Y-76.5
X140.0Y-82.0
X140.95Y-76.6
X141.25Y-80.75
X141.7Y-75.4
X142.65Y-75.6
X145.7Y-54.45
X151.25Y-84.0
X152.75Y-54.45
X154.2Y-82.15
X156.05Y-84.0
X158.95Y-85.35
X160.35Y-46.6
X162.4Y-82.5
T2
X104.3Y-47.45
T4
X105.65Y-52.7
X108.7Y-52.7
T5
X88.835Y-44.665
X91.355Y-44.645
X93.6Y-42.75
X96.14Y-42.75
X98.68Y-42.75
X101.22Y-42.75
X103.76Y-42.75
X106.3Y-42.75
X108.84Y-42.75
X111.38Y-42.75
X111.76Y-85.0
X114.3Y-85.0
X116.84Y-85.0
X118.46Y-52.9
X118.46Y-78.5
X119.38Y-85.0
X121.0Y-52.9
X121.0Y-78.5
X121.92Y-85.0
X123.54Y-52.9
X123.54Y-78.5
X124.46Y-85.0
X126.08Y-52.9
X126.08Y-78.5
X128.62Y-52.9
X128.62Y-78.5
X131.16Y-49.0
X131.16Y-52.9
X131.16Y-78.5
X133.7Y-49.0
X133.7Y-52.9
X133.7Y-78.5
X133.7Y-85.0
X136.24Y-49.0
X136.24Y-52.9
X136.24Y-78.5
X136.24Y-85.0
X138.78Y-49.0
X138.78Y-52.9
X138.78Y-78.5
X138.78Y-85.0
X141.32Y-49.0
X141.32Y-52.9
X141.32Y-78.5
X141.32Y-85.0
X143.86Y-49.0
X143.86Y-52.9
X143.86Y-78.5
X143.86Y-85.0
X146.4Y-49.0
X146.4Y-52.9
X146.4Y-78.5
X146.4Y-85.0
X148.94Y-49.0
X148.94Y-52.9
X148.94Y-78.5
X148.94Y-85.0
X151.48Y-49.0
X151.48Y-52.9
X151.48Y-78.5
X154.02Y-49.0
X154.02Y-52.9
X154.02Y-78.5
X156.56Y-49.0
X156.56Y-52.9
X156.56Y-78.5
X159.1Y-49.0
X159.1Y-52.9
X159.1Y-78.5
X161.64Y-49.0
X161.64Y-52.9
X161.64Y-78.5
X164.18Y-49.0
X164.18Y-52.9
X164.18Y-78.5
X166.72Y-49.0
X166.72Y-52.9
X166.72Y-78.5
X169.26Y-49.0
X169.26Y-52.9
X169.26Y-78.5
X171.8Y-49.0
X171.8Y-52.9
X171.8Y-78.5
T3
G00X116.2Y-43.05
M15
G01X116.2Y-42.55
M16
G05
G00X116.2Y-46.85
M15
G01X116.2Y-46.35
M16
G05
G00X124.84Y-43.05
M15
G01X124.84Y-42.55
M16
G05
G00X124.84Y-46.85
M15
G01X124.84Y-46.35
M16
G05
M30
