G04 #@! TF.GenerationSoftware,KiCad,Pcbnew,9.0.3*
G04 #@! TF.CreationDate,2026-04-27T13:40:57+08:00*
G04 #@! TF.ProjectId,phantomware,7068616e-746f-46d7-9761-72652e6b6963,rev?*
G04 #@! TF.SameCoordinates,Original*
G04 #@! TF.FileFunction,Paste,Top*
G04 #@! TF.FilePolarity,Positive*
%FSLAX46Y46*%
G04 Gerber Fmt 4.6, Leading zero omitted, Abs format (unit mm)*
G04 Created by KiCad (PCBNEW 9.0.3) date 2026-04-27 13:40:57*
%MOMM*%
%LPD*%
G01*
G04 APERTURE LIST*
G04 Aperture macros list*
%AMRoundRect*
0 Rectangle with rounded corners*
0 $1 Rounding radius*
0 $2 $3 $4 $5 $6 $7 $8 $9 X,Y pos of 4 corners*
0 Add a 4 corners polygon primitive as box body*
4,1,4,$2,$3,$4,$5,$6,$7,$8,$9,$2,$3,0*
0 Add four circle primitives for the rounded corners*
1,1,$1+$1,$2,$3*
1,1,$1+$1,$4,$5*
1,1,$1+$1,$6,$7*
1,1,$1+$1,$8,$9*
0 Add four rect primitives between the rounded corners*
20,1,$1+$1,$2,$3,$4,$5,0*
20,1,$1+$1,$4,$5,$6,$7,0*
20,1,$1+$1,$6,$7,$8,$9,0*
20,1,$1+$1,$8,$9,$2,$3,0*%
G04 Aperture macros list end*
%ADD10C,0.000000*%
%ADD11RoundRect,0.218750X0.256250X-0.218750X0.256250X0.218750X-0.256250X0.218750X-0.256250X-0.218750X0*%
%ADD12R,1.070000X0.600000*%
%ADD13RoundRect,0.135000X-0.185000X0.135000X-0.185000X-0.135000X0.185000X-0.135000X0.185000X0.135000X0*%
%ADD14RoundRect,0.135000X-0.135000X-0.185000X0.135000X-0.185000X0.135000X0.185000X-0.135000X0.185000X0*%
%ADD15RoundRect,0.135000X0.135000X0.185000X-0.135000X0.185000X-0.135000X-0.185000X0.135000X-0.185000X0*%
%ADD16R,1.250000X0.650000*%
%ADD17R,1.200000X0.600000*%
%ADD18R,2.400000X3.300000*%
%ADD19RoundRect,0.135000X0.185000X-0.135000X0.185000X0.135000X-0.185000X0.135000X-0.185000X-0.135000X0*%
%ADD20RoundRect,0.225000X-0.225000X-0.250000X0.225000X-0.250000X0.225000X0.250000X-0.225000X0.250000X0*%
%ADD21O,0.685000X0.200000*%
%ADD22R,1.300000X1.400000*%
%ADD23R,1.800000X0.800000*%
%ADD24R,0.700000X1.200000*%
%ADD25R,0.800000X1.200000*%
%ADD26RoundRect,0.150000X0.587500X0.150000X-0.587500X0.150000X-0.587500X-0.150000X0.587500X-0.150000X0*%
%ADD27R,1.193800X1.346200*%
%ADD28RoundRect,0.140000X-0.170000X0.140000X-0.170000X-0.140000X0.170000X-0.140000X0.170000X0.140000X0*%
%ADD29R,1.230000X1.360000*%
%ADD30RoundRect,0.250000X-0.250000X-1.450000X0.250000X-1.450000X0.250000X1.450000X-0.250000X1.450000X0*%
%ADD31R,1.000000X1.900000*%
%ADD32RoundRect,0.225000X-0.250000X0.225000X-0.250000X-0.225000X0.250000X-0.225000X0.250000X0.225000X0*%
%ADD33R,0.700000X1.400000*%
%ADD34R,1.600000X1.400000*%
%ADD35R,1.200000X2.200000*%
G04 APERTURE END LIST*
D10*
G36*
X118220000Y-47450000D02*
G01*
X117420000Y-47450000D01*
X117420000Y-46250000D01*
X118220000Y-46250000D01*
X118220000Y-47450000D01*
G37*
G36*
X119370000Y-47450000D02*
G01*
X118670000Y-47450000D01*
X118670000Y-46250000D01*
X119370000Y-46250000D01*
X119370000Y-47450000D01*
G37*
G36*
X120370000Y-47450000D02*
G01*
X119670000Y-47450000D01*
X119670000Y-46250000D01*
X120370000Y-46250000D01*
X120370000Y-47450000D01*
G37*
G36*
X121370000Y-47450000D02*
G01*
X120670000Y-47450000D01*
X120670000Y-46250000D01*
X121370000Y-46250000D01*
X121370000Y-47450000D01*
G37*
G36*
X122370000Y-47450000D02*
G01*
X121670000Y-47450000D01*
X121670000Y-46250000D01*
X122370000Y-46250000D01*
X122370000Y-47450000D01*
G37*
G36*
X123620000Y-47450000D02*
G01*
X122820000Y-47450000D01*
X122820000Y-46250000D01*
X123620000Y-46250000D01*
X123620000Y-47450000D01*
G37*
G36*
X116241000Y-41951500D02*
G01*
X116268500Y-41954000D01*
X116295500Y-41958500D01*
X116322500Y-41964000D01*
X116349000Y-41970500D01*
X116375500Y-41978500D01*
X116401000Y-41988000D01*
X116426500Y-41998500D01*
X116451000Y-42010500D01*
X116475000Y-42023500D01*
X116498500Y-42038000D01*
X116521000Y-42053500D01*
X116543000Y-42070000D01*
X116564000Y-42087500D01*
X116584000Y-42106500D01*
X116603500Y-42126000D01*
X116621500Y-42146500D01*
X116638500Y-42168000D01*
X116654500Y-42190000D01*
X116669500Y-42213000D01*
X116683000Y-42237000D01*
X116695500Y-42261500D01*
X116707000Y-42286500D01*
X116717000Y-42312000D01*
X116725500Y-42338000D01*
X116733000Y-42364500D01*
X116739000Y-42391000D01*
X116744000Y-42418000D01*
X116747500Y-42445000D01*
X116749500Y-42472500D01*
X116750000Y-42500000D01*
X116750000Y-43100000D01*
X116749500Y-43127500D01*
X116747500Y-43154500D01*
X116744000Y-43182000D01*
X116739000Y-43209000D01*
X116733000Y-43235500D01*
X116725500Y-43262000D01*
X116717000Y-43288000D01*
X116707000Y-43313500D01*
X116695500Y-43338500D01*
X116683000Y-43363000D01*
X116669500Y-43387000D01*
X116654500Y-43410000D01*
X116638500Y-43432000D01*
X116621500Y-43453500D01*
X116603500Y-43474000D01*
X116584000Y-43493500D01*
X116564000Y-43512500D01*
X116543000Y-43530000D01*
X116521000Y-43546500D01*
X116498500Y-43562000D01*
X116475000Y-43576500D01*
X116451000Y-43589500D01*
X116426500Y-43601500D01*
X116401000Y-43612000D01*
X116375500Y-43621500D01*
X116349000Y-43629500D01*
X116322500Y-43636000D01*
X116295500Y-43641500D01*
X116268500Y-43645500D01*
X116241000Y-43648500D01*
X116214000Y-43650000D01*
X116186500Y-43650000D01*
X116159000Y-43648500D01*
X116131500Y-43645500D01*
X116104500Y-43641500D01*
X116077500Y-43636000D01*
X116051000Y-43629500D01*
X116025000Y-43621500D01*
X115999000Y-43612000D01*
X115974000Y-43601500D01*
X115949000Y-43589500D01*
X115925000Y-43576500D01*
X115901500Y-43562000D01*
X115879000Y-43546500D01*
X115857000Y-43530000D01*
X115836000Y-43512500D01*
X115816000Y-43493500D01*
X115797000Y-43474000D01*
X115779000Y-43453500D01*
X115761500Y-43432000D01*
X115745500Y-43410000D01*
X115731000Y-43387000D01*
X115717000Y-43363000D01*
X115704500Y-43338500D01*
X115693500Y-43313500D01*
X115683500Y-43288000D01*
X115674500Y-43262000D01*
X115667000Y-43235500D01*
X115661000Y-43209000D01*
X115656000Y-43182000D01*
X115653000Y-43154500D01*
X115651000Y-43127500D01*
X115650000Y-43100000D01*
X115650000Y-42500000D01*
X115651000Y-42472500D01*
X115653000Y-42445000D01*
X115656000Y-42418000D01*
X115661000Y-42391000D01*
X115667000Y-42364500D01*
X115674500Y-42338000D01*
X115683500Y-42312000D01*
X115693500Y-42286500D01*
X115704500Y-42261500D01*
X115717000Y-42237000D01*
X115731000Y-42213000D01*
X115745500Y-42190000D01*
X115761500Y-42168000D01*
X115779000Y-42146500D01*
X115797000Y-42126000D01*
X115816000Y-42106500D01*
X115836000Y-42087500D01*
X115857000Y-42070000D01*
X115879000Y-42053500D01*
X115901500Y-42038000D01*
X115925000Y-42023500D01*
X115949000Y-42010500D01*
X115974000Y-41998500D01*
X115999000Y-41988000D01*
X116025000Y-41978500D01*
X116051000Y-41970500D01*
X116077500Y-41964000D01*
X116104500Y-41958500D01*
X116131500Y-41954000D01*
X116159000Y-41951500D01*
X116186500Y-41950000D01*
X116214000Y-41950000D01*
X116241000Y-41951500D01*
G37*
G36*
X116241000Y-45751500D02*
G01*
X116268500Y-45754500D01*
X116295500Y-45758500D01*
X116322500Y-45764000D01*
X116349000Y-45770500D01*
X116375500Y-45778500D01*
X116401000Y-45788000D01*
X116426500Y-45798500D01*
X116451000Y-45810500D01*
X116475000Y-45824000D01*
X116498500Y-45838000D01*
X116521000Y-45853500D01*
X116543000Y-45870000D01*
X116564000Y-45887500D01*
X116584000Y-45906500D01*
X116603500Y-45926000D01*
X116621500Y-45946500D01*
X116638500Y-45968000D01*
X116654500Y-45990500D01*
X116669500Y-46013500D01*
X116683000Y-46037000D01*
X116695500Y-46061500D01*
X116707000Y-46086500D01*
X116717000Y-46112000D01*
X116725500Y-46138000D01*
X116733000Y-46164500D01*
X116739000Y-46191000D01*
X116744000Y-46218000D01*
X116747500Y-46245500D01*
X116749500Y-46272500D01*
X116750000Y-46300000D01*
X116750000Y-46900000D01*
X116749500Y-46927500D01*
X116747500Y-46955000D01*
X116744000Y-46982000D01*
X116739000Y-47009000D01*
X116733000Y-47036000D01*
X116725500Y-47062000D01*
X116717000Y-47088000D01*
X116707000Y-47113500D01*
X116695500Y-47138500D01*
X116683000Y-47163000D01*
X116669500Y-47187000D01*
X116654500Y-47210000D01*
X116638500Y-47232000D01*
X116621500Y-47253500D01*
X116603500Y-47274000D01*
X116584000Y-47294000D01*
X116564000Y-47312500D01*
X116543000Y-47330000D01*
X116521000Y-47346500D01*
X116498500Y-47362000D01*
X116475000Y-47376500D01*
X116451000Y-47389500D01*
X116426500Y-47401500D01*
X116401000Y-47412000D01*
X116375500Y-47421500D01*
X116349000Y-47429500D01*
X116322500Y-47436500D01*
X116295500Y-47441500D01*
X116268500Y-47446000D01*
X116241000Y-47448500D01*
X116214000Y-47450000D01*
X116186500Y-47450000D01*
X116159000Y-47448500D01*
X116131500Y-47446000D01*
X116104500Y-47441500D01*
X116077500Y-47436500D01*
X116051000Y-47429500D01*
X116025000Y-47421500D01*
X115999000Y-47412000D01*
X115974000Y-47401500D01*
X115949000Y-47389500D01*
X115925000Y-47376500D01*
X115901500Y-47362000D01*
X115879000Y-47346500D01*
X115857000Y-47330000D01*
X115836000Y-47312500D01*
X115816000Y-47294000D01*
X115797000Y-47274000D01*
X115779000Y-47253500D01*
X115761500Y-47232000D01*
X115745500Y-47210000D01*
X115731000Y-47187000D01*
X115717000Y-47163000D01*
X115704500Y-47138500D01*
X115693500Y-47113500D01*
X115683500Y-47088000D01*
X115674500Y-47062000D01*
X115667000Y-47036000D01*
X115661000Y-47009000D01*
X115656000Y-46982000D01*
X115653000Y-46955000D01*
X115651000Y-46927500D01*
X115650000Y-46900000D01*
X115650000Y-46300000D01*
X115651000Y-46272500D01*
X115653000Y-46245500D01*
X115656000Y-46218000D01*
X115661000Y-46191000D01*
X115667000Y-46164500D01*
X115674500Y-46138000D01*
X115683500Y-46112000D01*
X115693500Y-46086500D01*
X115704500Y-46061500D01*
X115717000Y-46037000D01*
X115731000Y-46013500D01*
X115745500Y-45990500D01*
X115761500Y-45968000D01*
X115779000Y-45946500D01*
X115797000Y-45926000D01*
X115816000Y-45906500D01*
X115836000Y-45887500D01*
X115857000Y-45870000D01*
X115879000Y-45853500D01*
X115901500Y-45838000D01*
X115925000Y-45824000D01*
X115949000Y-45810500D01*
X115974000Y-45798500D01*
X115999000Y-45788000D01*
X116025000Y-45778500D01*
X116051000Y-45770500D01*
X116077500Y-45764000D01*
X116104500Y-45758500D01*
X116131500Y-45754500D01*
X116159000Y-45751500D01*
X116186500Y-45750000D01*
X116214000Y-45750000D01*
X116241000Y-45751500D01*
G37*
G36*
X124881000Y-41951500D02*
G01*
X124908500Y-41954000D01*
X124935500Y-41958500D01*
X124962500Y-41964000D01*
X124989000Y-41970500D01*
X125015000Y-41978500D01*
X125041000Y-41988000D01*
X125066000Y-41998500D01*
X125091000Y-42010500D01*
X125115000Y-42023500D01*
X125138500Y-42038000D01*
X125161000Y-42053500D01*
X125183000Y-42070000D01*
X125204000Y-42087500D01*
X125224000Y-42106500D01*
X125243000Y-42126000D01*
X125261000Y-42146500D01*
X125278500Y-42168000D01*
X125294500Y-42190000D01*
X125309000Y-42213000D01*
X125323000Y-42237000D01*
X125335500Y-42261500D01*
X125346500Y-42286500D01*
X125356500Y-42312000D01*
X125365500Y-42338000D01*
X125373000Y-42364500D01*
X125379000Y-42391000D01*
X125384000Y-42418000D01*
X125387000Y-42445000D01*
X125389000Y-42472500D01*
X125390000Y-42500000D01*
X125390000Y-43100000D01*
X125389000Y-43127500D01*
X125387000Y-43154500D01*
X125384000Y-43182000D01*
X125379000Y-43209000D01*
X125373000Y-43235500D01*
X125365500Y-43262000D01*
X125356500Y-43288000D01*
X125346500Y-43313500D01*
X125335500Y-43338500D01*
X125323000Y-43363000D01*
X125309000Y-43387000D01*
X125294500Y-43410000D01*
X125278500Y-43432000D01*
X125261000Y-43453500D01*
X125243000Y-43474000D01*
X125224000Y-43493500D01*
X125204000Y-43512500D01*
X125183000Y-43530000D01*
X125161000Y-43546500D01*
X125138500Y-43562000D01*
X125115000Y-43576500D01*
X125091000Y-43589500D01*
X125066000Y-43601500D01*
X125041000Y-43612000D01*
X125015000Y-43621500D01*
X124989000Y-43629500D01*
X124962500Y-43636000D01*
X124935500Y-43641500D01*
X124908500Y-43645500D01*
X124881000Y-43648500D01*
X124853500Y-43650000D01*
X124826000Y-43650000D01*
X124799000Y-43648500D01*
X124771500Y-43645500D01*
X124744500Y-43641500D01*
X124717500Y-43636000D01*
X124691000Y-43629500D01*
X124664500Y-43621500D01*
X124639000Y-43612000D01*
X124613500Y-43601500D01*
X124589000Y-43589500D01*
X124565000Y-43576500D01*
X124541500Y-43562000D01*
X124519000Y-43546500D01*
X124497000Y-43530000D01*
X124476000Y-43512500D01*
X124456000Y-43493500D01*
X124436500Y-43474000D01*
X124418500Y-43453500D01*
X124401500Y-43432000D01*
X124385500Y-43410000D01*
X124370500Y-43387000D01*
X124357000Y-43363000D01*
X124344500Y-43338500D01*
X124333000Y-43313500D01*
X124323000Y-43288000D01*
X124314500Y-43262000D01*
X124307000Y-43235500D01*
X124301000Y-43209000D01*
X124296000Y-43182000D01*
X124292500Y-43154500D01*
X124290500Y-43127500D01*
X124290000Y-43100000D01*
X124290000Y-42500000D01*
X124290500Y-42472500D01*
X124292500Y-42445000D01*
X124296000Y-42418000D01*
X124301000Y-42391000D01*
X124307000Y-42364500D01*
X124314500Y-42338000D01*
X124323000Y-42312000D01*
X124333000Y-42286500D01*
X124344500Y-42261500D01*
X124357000Y-42237000D01*
X124370500Y-42213000D01*
X124385500Y-42190000D01*
X124401500Y-42168000D01*
X124418500Y-42146500D01*
X124436500Y-42126000D01*
X124456000Y-42106500D01*
X124476000Y-42087500D01*
X124497000Y-42070000D01*
X124519000Y-42053500D01*
X124541500Y-42038000D01*
X124565000Y-42023500D01*
X124589000Y-42010500D01*
X124613500Y-41998500D01*
X124639000Y-41988000D01*
X124664500Y-41978500D01*
X124691000Y-41970500D01*
X124717500Y-41964000D01*
X124744500Y-41958500D01*
X124771500Y-41954000D01*
X124799000Y-41951500D01*
X124826000Y-41950000D01*
X124853500Y-41950000D01*
X124881000Y-41951500D01*
G37*
G36*
X124881000Y-45751500D02*
G01*
X124908500Y-45754500D01*
X124935500Y-45758500D01*
X124962500Y-45764000D01*
X124989000Y-45770500D01*
X125015000Y-45778500D01*
X125041000Y-45788000D01*
X125066000Y-45798500D01*
X125091000Y-45810500D01*
X125115000Y-45824000D01*
X125138500Y-45838000D01*
X125161000Y-45853500D01*
X125183000Y-45870000D01*
X125204000Y-45887500D01*
X125224000Y-45906500D01*
X125243000Y-45926000D01*
X125261000Y-45946500D01*
X125278500Y-45968000D01*
X125294500Y-45990500D01*
X125309000Y-46013500D01*
X125323000Y-46037000D01*
X125335500Y-46061500D01*
X125346500Y-46086500D01*
X125356500Y-46112000D01*
X125365500Y-46138000D01*
X125373000Y-46164500D01*
X125379000Y-46191000D01*
X125384000Y-46218000D01*
X125387000Y-46245500D01*
X125389000Y-46272500D01*
X125390000Y-46300000D01*
X125390000Y-46900000D01*
X125389000Y-46927500D01*
X125387000Y-46955000D01*
X125384000Y-46982000D01*
X125379000Y-47009000D01*
X125373000Y-47036000D01*
X125365500Y-47062000D01*
X125356500Y-47088000D01*
X125346500Y-47113500D01*
X125335500Y-47138500D01*
X125323000Y-47163000D01*
X125309000Y-47187000D01*
X125294500Y-47210000D01*
X125278500Y-47232000D01*
X125261000Y-47253500D01*
X125243000Y-47274000D01*
X125224000Y-47294000D01*
X125204000Y-47312500D01*
X125183000Y-47330000D01*
X125161000Y-47346500D01*
X125138500Y-47362000D01*
X125115000Y-47376500D01*
X125091000Y-47389500D01*
X125066000Y-47401500D01*
X125041000Y-47412000D01*
X125015000Y-47421500D01*
X124989000Y-47429500D01*
X124962500Y-47436500D01*
X124935500Y-47441500D01*
X124908500Y-47446000D01*
X124881000Y-47448500D01*
X124853500Y-47450000D01*
X124826000Y-47450000D01*
X124799000Y-47448500D01*
X124771500Y-47446000D01*
X124744500Y-47441500D01*
X124717500Y-47436500D01*
X124691000Y-47429500D01*
X124664500Y-47421500D01*
X124639000Y-47412000D01*
X124613500Y-47401500D01*
X124589000Y-47389500D01*
X124565000Y-47376500D01*
X124541500Y-47362000D01*
X124519000Y-47346500D01*
X124497000Y-47330000D01*
X124476000Y-47312500D01*
X124456000Y-47294000D01*
X124436500Y-47274000D01*
X124418500Y-47253500D01*
X124401500Y-47232000D01*
X124385500Y-47210000D01*
X124370500Y-47187000D01*
X124357000Y-47163000D01*
X124344500Y-47138500D01*
X124333000Y-47113500D01*
X124323000Y-47088000D01*
X124314500Y-47062000D01*
X124307000Y-47036000D01*
X124301000Y-47009000D01*
X124296000Y-46982000D01*
X124292500Y-46955000D01*
X124290500Y-46927500D01*
X124290000Y-46900000D01*
X124290000Y-46300000D01*
X124290500Y-46272500D01*
X124292500Y-46245500D01*
X124296000Y-46218000D01*
X124301000Y-46191000D01*
X124307000Y-46164500D01*
X124314500Y-46138000D01*
X124323000Y-46112000D01*
X124333000Y-46086500D01*
X124344500Y-46061500D01*
X124357000Y-46037000D01*
X124370500Y-46013500D01*
X124385500Y-45990500D01*
X124401500Y-45968000D01*
X124418500Y-45946500D01*
X124436500Y-45926000D01*
X124456000Y-45906500D01*
X124476000Y-45887500D01*
X124497000Y-45870000D01*
X124519000Y-45853500D01*
X124541500Y-45838000D01*
X124565000Y-45824000D01*
X124589000Y-45810500D01*
X124613500Y-45798500D01*
X124639000Y-45788000D01*
X124664500Y-45778500D01*
X124691000Y-45770500D01*
X124717500Y-45764000D01*
X124744500Y-45758500D01*
X124771500Y-45754500D01*
X124799000Y-45751500D01*
X124826000Y-45750000D01*
X124853500Y-45750000D01*
X124881000Y-45751500D01*
G37*
D11*
X128500000Y-46037500D03*
X128500000Y-44462500D03*
D12*
X106885000Y-70250000D03*
X106885000Y-68350000D03*
X104415000Y-69300000D03*
D13*
X128500000Y-42160000D03*
X128500000Y-43180000D03*
D14*
X112290000Y-66250000D03*
X113310000Y-66250000D03*
D15*
X112800000Y-61870000D03*
X111780000Y-61870000D03*
D14*
X105240000Y-49750000D03*
X106260000Y-49750000D03*
D15*
X89010000Y-70500000D03*
X87990000Y-70500000D03*
D16*
X96950000Y-60550000D03*
X96950000Y-62450000D03*
X99050000Y-61500000D03*
D15*
X112800000Y-63040000D03*
X111780000Y-63040000D03*
D17*
X103108500Y-50005000D03*
X103108500Y-48735000D03*
X103108500Y-47465000D03*
X103108500Y-46195000D03*
X97291500Y-46195000D03*
X97291500Y-47465000D03*
X97291500Y-48735000D03*
X97291500Y-50005000D03*
D18*
X100200000Y-48100000D03*
D19*
X119950000Y-49210000D03*
X119950000Y-48190000D03*
D15*
X89010000Y-59900000D03*
X87990000Y-59900000D03*
D19*
X91000000Y-67010000D03*
X91000000Y-65990000D03*
D15*
X89010000Y-65900000D03*
X87990000Y-65900000D03*
D20*
X106975000Y-46195000D03*
X108525000Y-46195000D03*
D19*
X158950000Y-87260000D03*
X158950000Y-86240000D03*
D21*
X106067500Y-61350000D03*
X106067500Y-60950000D03*
X106067500Y-60550000D03*
X106067500Y-60150000D03*
X106067500Y-59750000D03*
X103632500Y-59750000D03*
X103632500Y-60150000D03*
X103632500Y-60550000D03*
X103632500Y-60950000D03*
X103632500Y-61350000D03*
D22*
X104850000Y-60550000D03*
D13*
X109850000Y-64490000D03*
X109850000Y-65510000D03*
D20*
X96225000Y-57400000D03*
X97775000Y-57400000D03*
D19*
X126750000Y-43180000D03*
X126750000Y-42160000D03*
D23*
X87900000Y-54000000D03*
X87900000Y-52730000D03*
X87900000Y-51460000D03*
X87900000Y-50190000D03*
D24*
X121020000Y-46850000D03*
X119020000Y-46850000D03*
D25*
X117820000Y-46850000D03*
D24*
X120020000Y-46850000D03*
X122020000Y-46850000D03*
D25*
X123220000Y-46850000D03*
D26*
X90937500Y-64450000D03*
X90937500Y-62550000D03*
X89062500Y-63500000D03*
D27*
X86500000Y-60181100D03*
X86500000Y-57818900D03*
D15*
X116010000Y-81200000D03*
X114990000Y-81200000D03*
D11*
X158950000Y-90037500D03*
X158950000Y-88462500D03*
D28*
X92250000Y-53770000D03*
X92250000Y-54730000D03*
D19*
X90600000Y-54010000D03*
X90600000Y-52990000D03*
D29*
X89800000Y-74450000D03*
X85430000Y-74450000D03*
D27*
X86500000Y-65181100D03*
X86500000Y-62818900D03*
D14*
X92990000Y-64500000D03*
X94010000Y-64500000D03*
D30*
X104309000Y-57100000D03*
X105809000Y-57100000D03*
D31*
X101650000Y-72850000D03*
X101650000Y-69350000D03*
X98150000Y-72850000D03*
D19*
X160950000Y-87260000D03*
X160950000Y-86240000D03*
D32*
X98050000Y-53275000D03*
X98050000Y-54825000D03*
D11*
X160950000Y-90037500D03*
X160950000Y-88462500D03*
D33*
X96975000Y-77400000D03*
X95875000Y-77400000D03*
X94775000Y-77400000D03*
X93675000Y-77400000D03*
X92575000Y-77400000D03*
X91475000Y-77400000D03*
X90375000Y-77400000D03*
X89275000Y-77400000D03*
X88175000Y-77400000D03*
D34*
X86725000Y-78000000D03*
X101575000Y-78000000D03*
D35*
X86975000Y-87600000D03*
X102475000Y-87600000D03*
D27*
X86500000Y-70181100D03*
X86500000Y-67818900D03*
D13*
X121100000Y-48190000D03*
X121100000Y-49210000D03*
D11*
X126750000Y-46037500D03*
X126750000Y-44462500D03*
M02*
