G04 #@! TF.GenerationSoftware,KiCad,Pcbnew,9.0.3*
G04 #@! TF.CreationDate,2026-04-27T13:40:57+08:00*
G04 #@! TF.ProjectId,phantomware,7068616e-746f-46d7-9761-72652e6b6963,rev?*
G04 #@! TF.SameCoordinates,Original*
G04 #@! TF.FileFunction,Copper,L2,Bot*
G04 #@! TF.FilePolarity,Positive*
%FSLAX46Y46*%
G04 Gerber Fmt 4.6, Leading zero omitted, Abs format (unit mm)*
G04 Created by KiCad (PCBNEW 9.0.3) date 2026-04-27 13:40:57*
%MOMM*%
%LPD*%
G01*
G04 APERTURE LIST*
G04 #@! TA.AperFunction,ComponentPad*
%ADD10O,1.100000X1.700000*%
G04 #@! TD*
G04 #@! TA.AperFunction,ViaPad*
%ADD11C,1.700000*%
G04 #@! TD*
G04 #@! TA.AperFunction,ViaPad*
%ADD12C,1.600000*%
G04 #@! TD*
G04 #@! TA.AperFunction,ViaPad*
%ADD13C,1.200000*%
G04 #@! TD*
G04 #@! TA.AperFunction,ViaPad*
%ADD14C,1.100000*%
G04 #@! TD*
G04 #@! TA.AperFunction,ViaPad*
%ADD15C,0.900000*%
G04 #@! TD*
G04 #@! TA.AperFunction,ViaPad*
%ADD16C,1.800000*%
G04 #@! TD*
G04 #@! TA.AperFunction,ViaPad*
%ADD17C,0.700000*%
G04 #@! TD*
G04 #@! TA.AperFunction,ViaPad*
%ADD18C,1.300000*%
G04 #@! TD*
G04 #@! TA.AperFunction,ViaPad*
%ADD19C,0.800000*%
G04 #@! TD*
G04 #@! TA.AperFunction,ViaPad*
%ADD20C,1.000000*%
G04 #@! TD*
G04 #@! TA.AperFunction,Conductor*
%ADD21C,0.600000*%
G04 #@! TD*
G04 #@! TA.AperFunction,Conductor*
%ADD22C,0.400000*%
G04 #@! TD*
G04 #@! TA.AperFunction,Conductor*
%ADD23C,1.000000*%
G04 #@! TD*
G04 #@! TA.AperFunction,Conductor*
%ADD24C,1.200000*%
G04 #@! TD*
G04 #@! TA.AperFunction,Conductor*
%ADD25C,0.800000*%
G04 #@! TD*
G04 #@! TA.AperFunction,Conductor*
%ADD26C,0.200000*%
G04 #@! TD*
G04 #@! TA.AperFunction,Conductor*
%ADD27C,0.300000*%
G04 #@! TD*
G04 #@! TA.AperFunction,Conductor*
%ADD28C,0.500000*%
G04 #@! TD*
G04 #@! TA.AperFunction,Conductor*
%ADD29C,0.700000*%
G04 #@! TD*
G04 APERTURE END LIST*
D10*
X124840000Y-46600000D03*
X124840000Y-42800000D03*
X116200000Y-46600000D03*
X116200000Y-42800000D03*
D11*
X123540000Y-52900000D03*
X121000000Y-52900000D03*
X169260000Y-52900000D03*
D12*
X171800000Y-49000000D03*
X133700000Y-85000000D03*
D13*
X114500000Y-56550000D03*
D11*
X171800000Y-78500000D03*
D13*
X95000000Y-54500000D03*
D14*
X107300000Y-56950000D03*
D13*
X109900000Y-56950000D03*
D11*
X118460000Y-52900000D03*
D12*
X124460000Y-85000000D03*
D11*
X171800000Y-52900000D03*
D15*
X109400000Y-87600000D03*
D12*
X93600000Y-42750000D03*
D16*
X91355000Y-44645000D03*
D11*
X105650000Y-52700000D03*
X126080000Y-52900000D03*
D14*
X92710000Y-67010000D03*
D11*
X164180000Y-78500000D03*
D12*
X148940000Y-85000000D03*
X108840000Y-42750000D03*
D11*
X156560000Y-78500000D03*
X161640000Y-78500000D03*
D12*
X98680000Y-42750000D03*
D15*
X160350000Y-46600000D03*
X90300000Y-51460000D03*
D17*
X90300000Y-55150000D03*
D11*
X128620000Y-52900000D03*
D12*
X101220000Y-42750000D03*
D11*
X159100000Y-78500000D03*
D12*
X119380000Y-85000000D03*
D11*
X141320000Y-52900000D03*
D15*
X95005000Y-47145000D03*
X94500000Y-53150000D03*
D12*
X111380000Y-42750000D03*
D15*
X95450000Y-60250000D03*
D12*
X154020000Y-49000000D03*
D11*
X118460000Y-78500000D03*
D18*
X117400000Y-75550000D03*
D12*
X96140000Y-42750000D03*
X121920000Y-85000000D03*
D15*
X92000000Y-50625000D03*
D19*
X152750000Y-54450000D03*
D15*
X95280000Y-58760000D03*
X93500000Y-58100000D03*
D11*
X108700000Y-52700000D03*
D19*
X123950000Y-81350000D03*
D11*
X121000000Y-78500000D03*
D15*
X93240000Y-55640000D03*
X94750000Y-48900000D03*
X145700000Y-54450000D03*
D11*
X143860000Y-52900000D03*
D12*
X114300000Y-85000000D03*
X146400000Y-49000000D03*
D19*
X105000000Y-83200000D03*
D12*
X148940000Y-49000000D03*
D19*
X105000000Y-81500000D03*
D12*
X111760000Y-85000000D03*
D11*
X146400000Y-52900000D03*
X148940000Y-52900000D03*
D12*
X116840000Y-85000000D03*
D19*
X105000000Y-80500000D03*
D12*
X151480000Y-49000000D03*
D17*
X131500000Y-82600000D03*
D19*
X105000000Y-79500000D03*
D11*
X136240000Y-78500000D03*
X166720000Y-78500000D03*
X148940000Y-78500000D03*
D17*
X151250000Y-84000000D03*
D12*
X136240000Y-85000000D03*
D17*
X140950000Y-76600000D03*
D12*
X103760000Y-42750000D03*
D11*
X141320000Y-78500000D03*
D17*
X142650000Y-75600000D03*
X141700000Y-75400000D03*
D11*
X138780000Y-78500000D03*
D12*
X106300000Y-42750000D03*
D17*
X139800000Y-76500000D03*
D12*
X146400000Y-85000000D03*
D11*
X133700000Y-78500000D03*
D17*
X131750000Y-80000000D03*
D12*
X143860000Y-85000000D03*
D11*
X131160000Y-78500000D03*
D17*
X141250000Y-80750000D03*
X128750000Y-80500000D03*
D12*
X141320000Y-85000000D03*
D17*
X140000000Y-82000000D03*
D11*
X128620000Y-78500000D03*
D17*
X137800000Y-82200000D03*
D11*
X126080000Y-78500000D03*
D17*
X126080000Y-80080000D03*
D12*
X138780000Y-85000000D03*
D15*
X95500000Y-62500000D03*
D11*
X143860000Y-78500000D03*
D15*
X109350000Y-70250000D03*
D11*
X151480000Y-78500000D03*
D15*
X137550000Y-73950000D03*
D12*
X136240000Y-49000000D03*
D15*
X110750000Y-61870000D03*
D17*
X107600000Y-60070000D03*
D15*
X115600000Y-72400000D03*
D11*
X146400000Y-78500000D03*
D15*
X133000000Y-75000000D03*
D12*
X138780000Y-49000000D03*
D15*
X110750000Y-63040000D03*
X134500000Y-73500000D03*
X115600000Y-70600000D03*
D11*
X154020000Y-78500000D03*
D17*
X107040000Y-60850000D03*
D16*
X88835000Y-44665000D03*
D20*
X110350000Y-47850000D03*
X107650000Y-50000000D03*
D19*
X104300000Y-47450000D03*
D11*
X136240000Y-52900000D03*
D12*
X131160000Y-49000000D03*
D11*
X133700000Y-52900000D03*
D15*
X162400000Y-82500000D03*
X138400000Y-54950000D03*
X156050000Y-84000000D03*
X158950000Y-85350000D03*
X136250000Y-56500000D03*
D11*
X131160000Y-52900000D03*
D15*
X154200000Y-82150000D03*
D12*
X166720000Y-49000000D03*
D11*
X166720000Y-52900000D03*
X164180000Y-52900000D03*
D12*
X164180000Y-49000000D03*
D11*
X161640000Y-52900000D03*
D12*
X161640000Y-49000000D03*
X159100000Y-49000000D03*
D11*
X159100000Y-52900000D03*
X156560000Y-52900000D03*
D12*
X156560000Y-49000000D03*
X143860000Y-49000000D03*
D11*
X154020000Y-52900000D03*
D12*
X141320000Y-49000000D03*
D11*
X151480000Y-52900000D03*
D12*
X133700000Y-49000000D03*
D11*
X138780000Y-52900000D03*
D12*
X169260000Y-49000000D03*
D11*
X169260000Y-78500000D03*
X123540000Y-78500000D03*
D15*
X90050000Y-71950000D03*
X120250000Y-80650000D03*
D21*
X110100000Y-56750000D02*
X109900000Y-56950000D01*
D22*
X133700000Y-85000000D02*
X133700000Y-83250000D01*
X133700000Y-83250000D02*
X167050000Y-83250000D01*
D23*
X114300000Y-56750000D02*
X110100000Y-56750000D01*
D24*
X171800000Y-52900000D02*
X171800000Y-49000000D01*
D25*
X116860000Y-54500000D02*
X95000000Y-54500000D01*
D21*
X114500000Y-56550000D02*
X114300000Y-56750000D01*
D22*
X133700000Y-83250000D02*
X126210000Y-83250000D01*
X167050000Y-83250000D02*
X171800000Y-78500000D01*
X109400000Y-87600000D02*
X121860000Y-87600000D01*
D25*
X116860000Y-54500000D02*
X118460000Y-52900000D01*
D26*
X133700000Y-85000000D02*
X133500000Y-84800000D01*
D24*
X169260000Y-52900000D02*
X171800000Y-52900000D01*
D22*
X126210000Y-83250000D02*
X124460000Y-85000000D01*
X121860000Y-87600000D02*
X124460000Y-85000000D01*
D23*
X109900000Y-56950000D02*
X107300000Y-56950000D01*
D22*
X94670000Y-55580000D02*
X123400000Y-55580000D01*
X92710000Y-67010000D02*
X92450000Y-66750000D01*
X92450000Y-66750000D02*
X92450000Y-57800000D01*
X92450000Y-57800000D02*
X94670000Y-55580000D01*
X123400000Y-55580000D02*
X126080000Y-52900000D01*
D27*
X108840000Y-42940000D02*
X111100000Y-45200000D01*
X109220000Y-42750000D02*
X109220000Y-43320000D01*
X111100000Y-45200000D02*
X152100000Y-45200000D01*
X156560000Y-77360000D02*
X156560000Y-78500000D01*
X152100000Y-45200000D02*
X155300000Y-48400000D01*
X155300000Y-48400000D02*
X155300000Y-76100000D01*
X108840000Y-42750000D02*
X108840000Y-42940000D01*
X155300000Y-76100000D02*
X156560000Y-77360000D01*
D26*
X109220000Y-42500000D02*
X109500000Y-42500000D01*
D27*
X100137000Y-40663000D02*
X98680000Y-42120000D01*
X160350000Y-46600000D02*
X160350000Y-46300000D01*
X160350000Y-46600000D02*
X154413000Y-40663000D01*
X98680000Y-42120000D02*
X98680000Y-42750000D01*
X154413000Y-40663000D02*
X100137000Y-40663000D01*
D22*
X90340000Y-51420000D02*
X127140000Y-51420000D01*
X127140000Y-51420000D02*
X128620000Y-52900000D01*
X90300000Y-51460000D02*
X90300000Y-55150000D01*
X90300000Y-51460000D02*
X90340000Y-51420000D01*
D27*
X110100000Y-41900000D02*
X109325000Y-41125000D01*
X159100000Y-78500000D02*
X157850000Y-77250000D01*
X109325000Y-41125000D02*
X102845000Y-41125000D01*
X157850000Y-48200000D02*
X154150000Y-44500000D01*
X157850000Y-77250000D02*
X157850000Y-48200000D01*
X102845000Y-41125000D02*
X101220000Y-42750000D01*
X154150000Y-44500000D02*
X111275000Y-44500000D01*
X110100000Y-43325000D02*
X110100000Y-41900000D01*
X111275000Y-44500000D02*
X110100000Y-43325000D01*
D28*
X121100000Y-78600000D02*
X121100000Y-78500000D01*
D26*
X121100000Y-78500000D02*
X121000000Y-78500000D01*
D28*
X93700000Y-58100000D02*
X93500000Y-58100000D01*
X96520000Y-45130000D02*
X96520000Y-42750000D01*
D24*
X118460000Y-78500000D02*
X121000000Y-78500000D01*
D23*
X118460000Y-76610000D02*
X117400000Y-75550000D01*
D28*
X95280000Y-58760000D02*
X94360000Y-58760000D01*
D23*
X95450000Y-60250000D02*
X110800000Y-75600000D01*
D28*
X95005000Y-46645000D02*
X96520000Y-45130000D01*
X117350000Y-75600000D02*
X117400000Y-75550000D01*
X94360000Y-58760000D02*
X93700000Y-58100000D01*
D29*
X145700000Y-54450000D02*
X152750000Y-54450000D01*
D28*
X123850000Y-81350000D02*
X121100000Y-78600000D01*
X93725000Y-48900000D02*
X94750000Y-48900000D01*
D23*
X118460000Y-78500000D02*
X118460000Y-76610000D01*
X110800000Y-75600000D02*
X117350000Y-75600000D01*
D28*
X95005000Y-47145000D02*
X95005000Y-46645000D01*
X93500000Y-54210000D02*
X94500000Y-53210000D01*
X123950000Y-81350000D02*
X123850000Y-81350000D01*
X92000000Y-50625000D02*
X93725000Y-48900000D01*
X94500000Y-53210000D02*
X94500000Y-53150000D01*
X93240000Y-55640000D02*
X93500000Y-55380000D01*
X93500000Y-55380000D02*
X93500000Y-54210000D01*
D27*
X112700000Y-86600000D02*
X114300000Y-85000000D01*
X105000000Y-83200000D02*
X105400000Y-83200000D01*
D25*
X146400000Y-50360000D02*
X146400000Y-49000000D01*
X143860000Y-52900000D02*
X146400000Y-50360000D01*
D27*
X105400000Y-83200000D02*
X108800000Y-86600000D01*
X108800000Y-86600000D02*
X112700000Y-86600000D01*
X108700000Y-85000000D02*
X111760000Y-85000000D01*
D25*
X146400000Y-52900000D02*
X148940000Y-50360000D01*
D27*
X105200000Y-81500000D02*
X108700000Y-85000000D01*
X105000000Y-81500000D02*
X105200000Y-81500000D01*
D25*
X148940000Y-50360000D02*
X148940000Y-49000000D01*
D27*
X105150000Y-80500000D02*
X107850000Y-83200000D01*
X105000000Y-80500000D02*
X105150000Y-80500000D01*
D25*
X151480000Y-50360000D02*
X151480000Y-49000000D01*
X148940000Y-52900000D02*
X151480000Y-50360000D01*
D27*
X107850000Y-83200000D02*
X115040000Y-83200000D01*
X115040000Y-83200000D02*
X116840000Y-85000000D01*
X131500000Y-82600000D02*
X108250000Y-82600000D01*
X108250000Y-82600000D02*
X105150000Y-79500000D01*
X105150000Y-79500000D02*
X105000000Y-79500000D01*
X151250000Y-84000000D02*
X151250000Y-85000000D01*
X149450000Y-86800000D02*
X138040000Y-86800000D01*
X138040000Y-86800000D02*
X136240000Y-85000000D01*
X151250000Y-85000000D02*
X149450000Y-86800000D01*
X108700000Y-43900000D02*
X108000000Y-43900000D01*
X140950000Y-78130000D02*
X140950000Y-76600000D01*
X132450000Y-51950000D02*
X130476322Y-49976322D01*
X142650000Y-75380000D02*
X132450000Y-65180000D01*
X107200000Y-41600000D02*
X104910000Y-41600000D01*
X130476322Y-49976322D02*
X114776322Y-49976322D01*
X141320000Y-78500000D02*
X140950000Y-78130000D01*
X142650000Y-75600000D02*
X142650000Y-75380000D01*
X108000000Y-43900000D02*
X107600000Y-43500000D01*
X114776322Y-49976322D02*
X108700000Y-43900000D01*
D26*
X141250000Y-78430000D02*
X141320000Y-78500000D01*
D27*
X107600000Y-43500000D02*
X107600000Y-42000000D01*
X132450000Y-65180000D02*
X132450000Y-51950000D01*
X107600000Y-42000000D02*
X107200000Y-41600000D01*
X104910000Y-41600000D02*
X103760000Y-42750000D01*
X138780000Y-78500000D02*
X138780000Y-77520000D01*
X128600831Y-50650831D02*
X114450831Y-50650831D01*
X108200000Y-44400000D02*
X107200000Y-44400000D01*
X141700000Y-75400000D02*
X129900000Y-63600000D01*
X107200000Y-44400000D02*
X106300000Y-43500000D01*
X138780000Y-77520000D02*
X139800000Y-76500000D01*
X129900000Y-63600000D02*
X129900000Y-51950000D01*
X129900000Y-51950000D02*
X128600831Y-50650831D01*
X114450831Y-50650831D02*
X108200000Y-44400000D01*
X106300000Y-43500000D02*
X106300000Y-42750000D01*
X140500000Y-80000000D02*
X141250000Y-80750000D01*
X131750000Y-80000000D02*
X140500000Y-80000000D01*
X138830000Y-80830000D02*
X129080000Y-80830000D01*
X129080000Y-80830000D02*
X128750000Y-80500000D01*
X140000000Y-82000000D02*
X138830000Y-80830000D01*
X137040000Y-81440000D02*
X137800000Y-82200000D01*
X127440000Y-81440000D02*
X137040000Y-81440000D01*
X126080000Y-80080000D02*
X127440000Y-81440000D01*
X94610000Y-59850000D02*
X94990000Y-59470000D01*
X124830000Y-59470000D02*
X143860000Y-78500000D01*
X94610000Y-61610000D02*
X94610000Y-59850000D01*
X95500000Y-62500000D02*
X94610000Y-61610000D01*
X94990000Y-59470000D02*
X124830000Y-59470000D01*
X133400000Y-69800000D02*
X137550000Y-73950000D01*
X109800000Y-69800000D02*
X133400000Y-69800000D01*
X109350000Y-70250000D02*
X109800000Y-69800000D01*
X135000000Y-65900000D02*
X135000000Y-50240000D01*
X107730000Y-60200000D02*
X109080000Y-60200000D01*
X115750000Y-72250000D02*
X130250000Y-72250000D01*
X115600000Y-72400000D02*
X115750000Y-72250000D01*
X146400000Y-77300000D02*
X135000000Y-65900000D01*
X135000000Y-50240000D02*
X136240000Y-49000000D01*
X146400000Y-78500000D02*
X146400000Y-77300000D01*
X109080000Y-60200000D02*
X110750000Y-61870000D01*
X107600000Y-60070000D02*
X107730000Y-60200000D01*
X130250000Y-72250000D02*
X133000000Y-75000000D01*
X107040000Y-60850000D02*
X108560000Y-60850000D01*
X154020000Y-77420000D02*
X137550000Y-60950000D01*
X115600000Y-70600000D02*
X131600000Y-70600000D01*
X108560000Y-60850000D02*
X110750000Y-63040000D01*
X137550000Y-60950000D02*
X137550000Y-50230000D01*
X131600000Y-70600000D02*
X134500000Y-73500000D01*
X154020000Y-78500000D02*
X154020000Y-77420000D01*
X137550000Y-50230000D02*
X138780000Y-49000000D01*
D21*
X105250000Y-48400000D02*
X104300000Y-47450000D01*
X109800000Y-48400000D02*
X108700000Y-48400000D01*
X110350000Y-47850000D02*
X109800000Y-48400000D01*
X108700000Y-48400000D02*
X105250000Y-48400000D01*
X91810000Y-48000000D02*
X103750000Y-48000000D01*
D28*
X107650000Y-50000000D02*
X108700000Y-48950000D01*
X124840000Y-42800000D02*
X116200000Y-42800000D01*
D21*
X103750000Y-48000000D02*
X104300000Y-47450000D01*
X88835000Y-45025000D02*
X91810000Y-48000000D01*
X88835000Y-44665000D02*
X88835000Y-45025000D01*
D28*
X124840000Y-46600000D02*
X116200000Y-46600000D01*
X108700000Y-48950000D02*
X108700000Y-48400000D01*
D27*
X162400000Y-82500000D02*
X161950000Y-82050000D01*
X157550000Y-82050000D02*
X155300000Y-79800000D01*
X138400000Y-60600000D02*
X138400000Y-54950000D01*
X155300000Y-77500000D02*
X138400000Y-60600000D01*
X161950000Y-82050000D02*
X157550000Y-82050000D01*
X155300000Y-79800000D02*
X155300000Y-77500000D01*
X156050000Y-84000000D02*
X156050000Y-84200000D01*
X136250000Y-56500000D02*
X136250000Y-61299999D01*
X156050000Y-84200000D02*
X157200000Y-85350000D01*
X152750000Y-80700000D02*
X154200000Y-82150000D01*
X136250000Y-61299999D02*
X152750000Y-77799999D01*
X152750000Y-77799999D02*
X152750000Y-80700000D01*
X157200000Y-85350000D02*
X158950000Y-85350000D01*
D24*
X166720000Y-49000000D02*
X166720000Y-52900000D01*
D26*
X166720000Y-49060000D02*
X166780000Y-49000000D01*
D24*
X164180000Y-52900000D02*
X164180000Y-49000000D01*
D26*
X164240000Y-52840000D02*
X164180000Y-52900000D01*
D24*
X161640000Y-49000000D02*
X161640000Y-52900000D01*
D26*
X161640000Y-49060000D02*
X161700000Y-49000000D01*
X159100000Y-49060000D02*
X159160000Y-49000000D01*
D24*
X159100000Y-52900000D02*
X159100000Y-49000000D01*
D26*
X156620000Y-52840000D02*
X156560000Y-52900000D01*
D24*
X156560000Y-49000000D02*
X156560000Y-52900000D01*
D22*
X154020000Y-52900000D02*
X152800000Y-51680000D01*
X152800000Y-51680000D02*
X152800000Y-48250000D01*
X152200000Y-47650000D02*
X145210000Y-47650000D01*
X152800000Y-48250000D02*
X152200000Y-47650000D01*
X145210000Y-47650000D02*
X143860000Y-49000000D01*
D28*
X168000000Y-55000000D02*
X169000000Y-56000000D01*
X169260000Y-49000000D02*
X168000000Y-50260000D01*
X169000000Y-78160000D02*
X169300000Y-78460000D01*
X168000000Y-50260000D02*
X168000000Y-55000000D01*
X169000000Y-56000000D02*
X169000000Y-78160000D01*
D22*
X90050000Y-71950000D02*
X102200000Y-71950000D01*
X102200000Y-71950000D02*
X108000000Y-77750000D01*
X112850000Y-77750000D02*
X115750000Y-80650000D01*
X115750000Y-80650000D02*
X120250000Y-80650000D01*
X108000000Y-77750000D02*
X112850000Y-77750000D01*
G04 #@! TA.AperFunction,Conductor*
G36*
X99559495Y-40532185D02*
G01*
X99605250Y-40584989D01*
X99615194Y-40654147D01*
X99586169Y-40717703D01*
X99580137Y-40724181D01*
X98574799Y-41729517D01*
X98513476Y-41763002D01*
X98511310Y-41763453D01*
X98388170Y-41787947D01*
X98388160Y-41787950D01*
X98206092Y-41863364D01*
X98206079Y-41863371D01*
X98042218Y-41972860D01*
X98042214Y-41972863D01*
X97902863Y-42112214D01*
X97902860Y-42112218D01*
X97793371Y-42276079D01*
X97793364Y-42276092D01*
X97717950Y-42458160D01*
X97717947Y-42458170D01*
X97679500Y-42651456D01*
X97679500Y-42651459D01*
X97679500Y-42848541D01*
X97679500Y-42848543D01*
X97679499Y-42848543D01*
X97717947Y-43041829D01*
X97717950Y-43041839D01*
X97793364Y-43223907D01*
X97793371Y-43223920D01*
X97902860Y-43387781D01*
X97902863Y-43387785D01*
X98042214Y-43527136D01*
X98042218Y-43527139D01*
X98206079Y-43636628D01*
X98206092Y-43636635D01*
X98368168Y-43703768D01*
X98388165Y-43712051D01*
X98388169Y-43712051D01*
X98388170Y-43712052D01*
X98581456Y-43750500D01*
X98581459Y-43750500D01*
X98778543Y-43750500D01*
X98912930Y-43723768D01*
X98971835Y-43712051D01*
X99133405Y-43645127D01*
X99153907Y-43636635D01*
X99153907Y-43636634D01*
X99153914Y-43636632D01*
X99317782Y-43527139D01*
X99457139Y-43387782D01*
X99566632Y-43223914D01*
X99642051Y-43041835D01*
X99680500Y-42848541D01*
X99680500Y-42651459D01*
X99680500Y-42651456D01*
X99642052Y-42458170D01*
X99642051Y-42458169D01*
X99642051Y-42458165D01*
X99593863Y-42341828D01*
X99566635Y-42276092D01*
X99566628Y-42276079D01*
X99457139Y-42112218D01*
X99457136Y-42112214D01*
X99407982Y-42063060D01*
X99374497Y-42001737D01*
X99379481Y-41932045D01*
X99407980Y-41887701D01*
X100245863Y-41049819D01*
X100307186Y-41016334D01*
X100333544Y-41013500D01*
X102161456Y-41013500D01*
X102228495Y-41033185D01*
X102274250Y-41085989D01*
X102284194Y-41155147D01*
X102255169Y-41218703D01*
X102249137Y-41225181D01*
X101693835Y-41780481D01*
X101632512Y-41813966D01*
X101562820Y-41808982D01*
X101558703Y-41807362D01*
X101553874Y-41805361D01*
X101511835Y-41787949D01*
X101511831Y-41787948D01*
X101511828Y-41787947D01*
X101318543Y-41749500D01*
X101318541Y-41749500D01*
X101121459Y-41749500D01*
X101121457Y-41749500D01*
X100928170Y-41787947D01*
X100928160Y-41787950D01*
X100746092Y-41863364D01*
X100746079Y-41863371D01*
X100582218Y-41972860D01*
X100582214Y-41972863D01*
X100442863Y-42112214D01*
X100442860Y-42112218D01*
X100333371Y-42276079D01*
X100333364Y-42276092D01*
X100257950Y-42458160D01*
X100257947Y-42458170D01*
X100219500Y-42651456D01*
X100219500Y-42651459D01*
X100219500Y-42848541D01*
X100219500Y-42848543D01*
X100219499Y-42848543D01*
X100257947Y-43041829D01*
X100257950Y-43041839D01*
X100333364Y-43223907D01*
X100333371Y-43223920D01*
X100442860Y-43387781D01*
X100442863Y-43387785D01*
X100582214Y-43527136D01*
X100582218Y-43527139D01*
X100746079Y-43636628D01*
X100746092Y-43636635D01*
X100908168Y-43703768D01*
X100928165Y-43712051D01*
X100928169Y-43712051D01*
X100928170Y-43712052D01*
X101121456Y-43750500D01*
X101121459Y-43750500D01*
X101318543Y-43750500D01*
X101452930Y-43723768D01*
X101511835Y-43712051D01*
X101673405Y-43645127D01*
X101693907Y-43636635D01*
X101693907Y-43636634D01*
X101693914Y-43636632D01*
X101857782Y-43527139D01*
X101997139Y-43387782D01*
X102106632Y-43223914D01*
X102182051Y-43041835D01*
X102220500Y-42848541D01*
X102220500Y-42651459D01*
X102220500Y-42651456D01*
X102182052Y-42458170D01*
X102182051Y-42458169D01*
X102182051Y-42458165D01*
X102162636Y-42411294D01*
X102155168Y-42341828D01*
X102186442Y-42279349D01*
X102189487Y-42276193D01*
X102953863Y-41511819D01*
X103015186Y-41478334D01*
X103041544Y-41475500D01*
X104239455Y-41475500D01*
X104306494Y-41495185D01*
X104352249Y-41547989D01*
X104362193Y-41617147D01*
X104333168Y-41680703D01*
X104327143Y-41687173D01*
X104279030Y-41735287D01*
X104233835Y-41780482D01*
X104172511Y-41813966D01*
X104102820Y-41808982D01*
X104098703Y-41807362D01*
X104093874Y-41805361D01*
X104051835Y-41787949D01*
X104051831Y-41787948D01*
X104051828Y-41787947D01*
X103858543Y-41749500D01*
X103858541Y-41749500D01*
X103661459Y-41749500D01*
X103661457Y-41749500D01*
X103468170Y-41787947D01*
X103468160Y-41787950D01*
X103286092Y-41863364D01*
X103286079Y-41863371D01*
X103122218Y-41972860D01*
X103122214Y-41972863D01*
X102982863Y-42112214D01*
X102982860Y-42112218D01*
X102873371Y-42276079D01*
X102873364Y-42276092D01*
X102797950Y-42458160D01*
X102797947Y-42458170D01*
X102759500Y-42651456D01*
X102759500Y-42651459D01*
X102759500Y-42848541D01*
X102759500Y-42848543D01*
X102759499Y-42848543D01*
X102797947Y-43041829D01*
X102797950Y-43041839D01*
X102873364Y-43223907D01*
X102873371Y-43223920D01*
X102982860Y-43387781D01*
X102982863Y-43387785D01*
X103122214Y-43527136D01*
X103122218Y-43527139D01*
X103286079Y-43636628D01*
X103286092Y-43636635D01*
X103448168Y-43703768D01*
X103468165Y-43712051D01*
X103468169Y-43712051D01*
X103468170Y-43712052D01*
X103661456Y-43750500D01*
X103661459Y-43750500D01*
X103858543Y-43750500D01*
X103992930Y-43723768D01*
X104051835Y-43712051D01*
X104213405Y-43645127D01*
X104233907Y-43636635D01*
X104233907Y-43636634D01*
X104233914Y-43636632D01*
X104397782Y-43527139D01*
X104537139Y-43387782D01*
X104646632Y-43223914D01*
X104722051Y-43041835D01*
X104760500Y-42848541D01*
X104760500Y-42651459D01*
X104760500Y-42651456D01*
X104722052Y-42458170D01*
X104722051Y-42458169D01*
X104722051Y-42458165D01*
X104702636Y-42411294D01*
X104695168Y-42341828D01*
X104726442Y-42279349D01*
X104729457Y-42276223D01*
X105018864Y-41986816D01*
X105080186Y-41953334D01*
X105106544Y-41950500D01*
X105398929Y-41950500D01*
X105465968Y-41970185D01*
X105511723Y-42022989D01*
X105521667Y-42092147D01*
X105502031Y-42143391D01*
X105413371Y-42276079D01*
X105413364Y-42276092D01*
X105337950Y-42458160D01*
X105337947Y-42458170D01*
X105299500Y-42651456D01*
X105299500Y-42651459D01*
X105299500Y-42848541D01*
X105299500Y-42848543D01*
X105299499Y-42848543D01*
X105337947Y-43041829D01*
X105337950Y-43041839D01*
X105413364Y-43223907D01*
X105413371Y-43223920D01*
X105522860Y-43387781D01*
X105522863Y-43387785D01*
X105662214Y-43527136D01*
X105662218Y-43527139D01*
X105826079Y-43636628D01*
X105826092Y-43636635D01*
X105999382Y-43708413D01*
X106039611Y-43735293D01*
X106984788Y-44680470D01*
X107064712Y-44726614D01*
X107153856Y-44750500D01*
X108003456Y-44750500D01*
X108070495Y-44770185D01*
X108091137Y-44786819D01*
X110261106Y-46956788D01*
X110294591Y-47018111D01*
X110289607Y-47087803D01*
X110247735Y-47143736D01*
X110197619Y-47166086D01*
X110145674Y-47176419D01*
X110145667Y-47176421D01*
X110018195Y-47229221D01*
X110018182Y-47229228D01*
X109903458Y-47305885D01*
X109903454Y-47305888D01*
X109805888Y-47403454D01*
X109805885Y-47403458D01*
X109729228Y-47518182D01*
X109729221Y-47518195D01*
X109676421Y-47645667D01*
X109676418Y-47645677D01*
X109649499Y-47781004D01*
X109648903Y-47787067D01*
X109646182Y-47786799D01*
X109629815Y-47842539D01*
X109577011Y-47888294D01*
X109525500Y-47899500D01*
X105508676Y-47899500D01*
X105441637Y-47879815D01*
X105420995Y-47863181D01*
X104913651Y-47355837D01*
X104881557Y-47300250D01*
X104859577Y-47218216D01*
X104829480Y-47166086D01*
X104780524Y-47081290D01*
X104780518Y-47081282D01*
X104668717Y-46969481D01*
X104668709Y-46969475D01*
X104531790Y-46890426D01*
X104531786Y-46890424D01*
X104531784Y-46890423D01*
X104379057Y-46849500D01*
X104220943Y-46849500D01*
X104068216Y-46890423D01*
X104068209Y-46890426D01*
X103931290Y-46969475D01*
X103931282Y-46969481D01*
X103819481Y-47081282D01*
X103819475Y-47081290D01*
X103740426Y-47218209D01*
X103740422Y-47218218D01*
X103718440Y-47300251D01*
X103710423Y-47314135D01*
X103707499Y-47327581D01*
X103686348Y-47355835D01*
X103579005Y-47463180D01*
X103517682Y-47496666D01*
X103491323Y-47499500D01*
X95747717Y-47499500D01*
X95680678Y-47479815D01*
X95634923Y-47427011D01*
X95624979Y-47357853D01*
X95629058Y-47339499D01*
X95630496Y-47334754D01*
X95630501Y-47334744D01*
X95646266Y-47255492D01*
X95655500Y-47209071D01*
X95655500Y-47080928D01*
X95630502Y-46955261D01*
X95630501Y-46955260D01*
X95630501Y-46955256D01*
X95599579Y-46880605D01*
X95581467Y-46836877D01*
X95579108Y-46832465D01*
X95564860Y-46764064D01*
X95589854Y-46698817D01*
X95600772Y-46686329D01*
X96880490Y-45406613D01*
X96939799Y-45303886D01*
X96962762Y-45218186D01*
X96970500Y-45189309D01*
X96970500Y-43345536D01*
X96990185Y-43278497D01*
X96991399Y-43276644D01*
X97026627Y-43223922D01*
X97026628Y-43223919D01*
X97026632Y-43223914D01*
X97102051Y-43041835D01*
X97140500Y-42848541D01*
X97140500Y-42651459D01*
X97140500Y-42651456D01*
X97102052Y-42458170D01*
X97102051Y-42458169D01*
X97102051Y-42458165D01*
X97053863Y-42341828D01*
X97026635Y-42276092D01*
X97026628Y-42276079D01*
X96917139Y-42112218D01*
X96917136Y-42112214D01*
X96777785Y-41972863D01*
X96777781Y-41972860D01*
X96613920Y-41863371D01*
X96613907Y-41863364D01*
X96431839Y-41787950D01*
X96431829Y-41787947D01*
X96238543Y-41749500D01*
X96238541Y-41749500D01*
X96041459Y-41749500D01*
X96041457Y-41749500D01*
X95848170Y-41787947D01*
X95848160Y-41787950D01*
X95666092Y-41863364D01*
X95666079Y-41863371D01*
X95502218Y-41972860D01*
X95502214Y-41972863D01*
X95362863Y-42112214D01*
X95362860Y-42112218D01*
X95253371Y-42276079D01*
X95253364Y-42276092D01*
X95177950Y-42458160D01*
X95177947Y-42458170D01*
X95139500Y-42651456D01*
X95139500Y-42651459D01*
X95139500Y-42848541D01*
X95139500Y-42848543D01*
X95139499Y-42848543D01*
X95177947Y-43041829D01*
X95177950Y-43041839D01*
X95253364Y-43223907D01*
X95253371Y-43223920D01*
X95362860Y-43387781D01*
X95362863Y-43387785D01*
X95502214Y-43527136D01*
X95502218Y-43527139D01*
X95666079Y-43636628D01*
X95666092Y-43636635D01*
X95828168Y-43703768D01*
X95848165Y-43712051D01*
X95969691Y-43736224D01*
X96031602Y-43768608D01*
X96066176Y-43829324D01*
X96069500Y-43857841D01*
X96069500Y-44892035D01*
X96049815Y-44959074D01*
X96033181Y-44979716D01*
X94644513Y-46368383D01*
X94644509Y-46368389D01*
X94585201Y-46471112D01*
X94585200Y-46471117D01*
X94554500Y-46585691D01*
X94554500Y-46624192D01*
X94534815Y-46691231D01*
X94518181Y-46711873D01*
X94499726Y-46730327D01*
X94499723Y-46730331D01*
X94428538Y-46836866D01*
X94428533Y-46836875D01*
X94379499Y-46955255D01*
X94379497Y-46955261D01*
X94354500Y-47080928D01*
X94354500Y-47080931D01*
X94354500Y-47209069D01*
X94354500Y-47209071D01*
X94354499Y-47209071D01*
X94379497Y-47334737D01*
X94380942Y-47339499D01*
X94381569Y-47409366D01*
X94344323Y-47468481D01*
X94281031Y-47498075D01*
X94262283Y-47499500D01*
X92068676Y-47499500D01*
X92001637Y-47479815D01*
X91980995Y-47463181D01*
X89834323Y-45316509D01*
X89800838Y-45255186D01*
X89805822Y-45185494D01*
X89811519Y-45172534D01*
X89854870Y-45087450D01*
X89854873Y-45087445D01*
X89908402Y-44922701D01*
X89935500Y-44751611D01*
X89935500Y-44578389D01*
X89932332Y-44558389D01*
X90254500Y-44558389D01*
X90254500Y-44731610D01*
X90279908Y-44892035D01*
X90281598Y-44902701D01*
X90335127Y-45067445D01*
X90413768Y-45221788D01*
X90515586Y-45361928D01*
X90638072Y-45484414D01*
X90778212Y-45586232D01*
X90932555Y-45664873D01*
X91097299Y-45718402D01*
X91268389Y-45745500D01*
X91268390Y-45745500D01*
X91441610Y-45745500D01*
X91441611Y-45745500D01*
X91612701Y-45718402D01*
X91777445Y-45664873D01*
X91931788Y-45586232D01*
X92071928Y-45484414D01*
X92194414Y-45361928D01*
X92296232Y-45221788D01*
X92374873Y-45067445D01*
X92428402Y-44902701D01*
X92455500Y-44731611D01*
X92455500Y-44558389D01*
X92428402Y-44387299D01*
X92374873Y-44222555D01*
X92296232Y-44068212D01*
X92194414Y-43928072D01*
X92071928Y-43805586D01*
X91931788Y-43703768D01*
X91777445Y-43625127D01*
X91612701Y-43571598D01*
X91612699Y-43571597D01*
X91612698Y-43571597D01*
X91473180Y-43549500D01*
X91441611Y-43544500D01*
X91268389Y-43544500D01*
X91236820Y-43549500D01*
X91097302Y-43571597D01*
X90932552Y-43625128D01*
X90778211Y-43703768D01*
X90733540Y-43736224D01*
X90638072Y-43805586D01*
X90638070Y-43805588D01*
X90638069Y-43805588D01*
X90515588Y-43928069D01*
X90515588Y-43928070D01*
X90515586Y-43928072D01*
X90471859Y-43988256D01*
X90413768Y-44068211D01*
X90335128Y-44222552D01*
X90281597Y-44387302D01*
X90254500Y-44558389D01*
X89932332Y-44558389D01*
X89908402Y-44407299D01*
X89854873Y-44242555D01*
X89776232Y-44088212D01*
X89674414Y-43948072D01*
X89551928Y-43825586D01*
X89411788Y-43723768D01*
X89257445Y-43645127D01*
X89092701Y-43591598D01*
X89092699Y-43591597D01*
X89092698Y-43591597D01*
X88961271Y-43570781D01*
X88921611Y-43564500D01*
X88748389Y-43564500D01*
X88708728Y-43570781D01*
X88577302Y-43591597D01*
X88577299Y-43591598D01*
X88438691Y-43636635D01*
X88412552Y-43645128D01*
X88258211Y-43723768D01*
X88201341Y-43765087D01*
X88118072Y-43825586D01*
X88118070Y-43825588D01*
X88118069Y-43825588D01*
X87995588Y-43948069D01*
X87995588Y-43948070D01*
X87995586Y-43948072D01*
X87951859Y-44008256D01*
X87893768Y-44088211D01*
X87815128Y-44242552D01*
X87815127Y-44242554D01*
X87815127Y-44242555D01*
X87788362Y-44324927D01*
X87761597Y-44407302D01*
X87734500Y-44578389D01*
X87734500Y-44751610D01*
X87761095Y-44919530D01*
X87761598Y-44922701D01*
X87815127Y-45087445D01*
X87893768Y-45241788D01*
X87995586Y-45381928D01*
X88118072Y-45504414D01*
X88258212Y-45606232D01*
X88412555Y-45684873D01*
X88577299Y-45738402D01*
X88748389Y-45765500D01*
X88816324Y-45765500D01*
X88883363Y-45785185D01*
X88904005Y-45801819D01*
X91409500Y-48307314D01*
X91502686Y-48400500D01*
X91581742Y-48446143D01*
X91581743Y-48446144D01*
X91616808Y-48466389D01*
X91616809Y-48466389D01*
X91616814Y-48466392D01*
X91744107Y-48500500D01*
X91744108Y-48500500D01*
X93188035Y-48500500D01*
X93255074Y-48520185D01*
X93300829Y-48572989D01*
X93310773Y-48642147D01*
X93281748Y-48705703D01*
X93275716Y-48712181D01*
X92049716Y-49938181D01*
X91988393Y-49971666D01*
X91962035Y-49974500D01*
X91935929Y-49974500D01*
X91810261Y-49999497D01*
X91810255Y-49999499D01*
X91691875Y-50048533D01*
X91691866Y-50048538D01*
X91585331Y-50119723D01*
X91585327Y-50119726D01*
X91494726Y-50210327D01*
X91494723Y-50210331D01*
X91423538Y-50316866D01*
X91423533Y-50316875D01*
X91374499Y-50435255D01*
X91374497Y-50435261D01*
X91349500Y-50560928D01*
X91349500Y-50560931D01*
X91349500Y-50689069D01*
X91349500Y-50689071D01*
X91349499Y-50689071D01*
X91374497Y-50814738D01*
X91374499Y-50814744D01*
X91385176Y-50840521D01*
X91388294Y-50848047D01*
X91395763Y-50917516D01*
X91364488Y-50979995D01*
X91304400Y-51015648D01*
X91273733Y-51019500D01*
X90830808Y-51019500D01*
X90763769Y-50999815D01*
X90743127Y-50983181D01*
X90714672Y-50954726D01*
X90714668Y-50954723D01*
X90608133Y-50883538D01*
X90608124Y-50883533D01*
X90489744Y-50834499D01*
X90489738Y-50834497D01*
X90364071Y-50809500D01*
X90364069Y-50809500D01*
X90235931Y-50809500D01*
X90235929Y-50809500D01*
X90110261Y-50834497D01*
X90110255Y-50834499D01*
X89991875Y-50883533D01*
X89991866Y-50883538D01*
X89885331Y-50954723D01*
X89885327Y-50954726D01*
X89794726Y-51045327D01*
X89794723Y-51045331D01*
X89723538Y-51151866D01*
X89723533Y-51151875D01*
X89674499Y-51270255D01*
X89674497Y-51270261D01*
X89649500Y-51395928D01*
X89649500Y-51395931D01*
X89649500Y-51524069D01*
X89649500Y-51524071D01*
X89649499Y-51524071D01*
X89674497Y-51649738D01*
X89674499Y-51649744D01*
X89723533Y-51768124D01*
X89723538Y-51768133D01*
X89794722Y-51874667D01*
X89794723Y-51874668D01*
X89794724Y-51874669D01*
X89863182Y-51943127D01*
X89896666Y-52004448D01*
X89899500Y-52030807D01*
X89899500Y-54720614D01*
X89879815Y-54787653D01*
X89863181Y-54808295D01*
X89859493Y-54811982D01*
X89859488Y-54811988D01*
X89787017Y-54937511D01*
X89787016Y-54937515D01*
X89749500Y-55077525D01*
X89749500Y-55222475D01*
X89778814Y-55331875D01*
X89787017Y-55362488D01*
X89859488Y-55488011D01*
X89859490Y-55488013D01*
X89859491Y-55488015D01*
X89961985Y-55590509D01*
X89961986Y-55590510D01*
X89961988Y-55590511D01*
X90087511Y-55662982D01*
X90087512Y-55662982D01*
X90087515Y-55662984D01*
X90227525Y-55700500D01*
X90227528Y-55700500D01*
X90372472Y-55700500D01*
X90372475Y-55700500D01*
X90512485Y-55662984D01*
X90638015Y-55590509D01*
X90740509Y-55488015D01*
X90812984Y-55362485D01*
X90850500Y-55222475D01*
X90850500Y-55077525D01*
X90812984Y-54937515D01*
X90808945Y-54930520D01*
X90740511Y-54811988D01*
X90740506Y-54811982D01*
X90736819Y-54808295D01*
X90703334Y-54746972D01*
X90700500Y-54720614D01*
X90700500Y-52030807D01*
X90708840Y-52002401D01*
X90714614Y-51973352D01*
X90719206Y-51967100D01*
X90720185Y-51963768D01*
X90735252Y-51944721D01*
X90736014Y-51943930D01*
X90805276Y-51874669D01*
X90810806Y-51866392D01*
X90818502Y-51858414D01*
X90839610Y-51846389D01*
X90858255Y-51830806D01*
X90871982Y-51827947D01*
X90879212Y-51823829D01*
X90889199Y-51824362D01*
X90907750Y-51820500D01*
X104744505Y-51820500D01*
X104811544Y-51840185D01*
X104857299Y-51892989D01*
X104867243Y-51962147D01*
X104838218Y-52025703D01*
X104834966Y-52029194D01*
X104834024Y-52030342D01*
X104719058Y-52202403D01*
X104639870Y-52393579D01*
X104639868Y-52393587D01*
X104599500Y-52596530D01*
X104599500Y-52803469D01*
X104630687Y-52960255D01*
X104639870Y-53006420D01*
X104719059Y-53197598D01*
X104730066Y-53214071D01*
X104834024Y-53369657D01*
X104980342Y-53515975D01*
X104980345Y-53515977D01*
X105152402Y-53630941D01*
X105343580Y-53710130D01*
X105521373Y-53745495D01*
X105546530Y-53750499D01*
X105546534Y-53750500D01*
X105546535Y-53750500D01*
X105753466Y-53750500D01*
X105753467Y-53750499D01*
X105956420Y-53710130D01*
X106147598Y-53630941D01*
X106319655Y-53515977D01*
X106465977Y-53369655D01*
X106580941Y-53197598D01*
X106660130Y-53006420D01*
X106700500Y-52803465D01*
X106700500Y-52596535D01*
X106660130Y-52393580D01*
X106580941Y-52202402D01*
X106465977Y-52030345D01*
X106465975Y-52030342D01*
X106462112Y-52025635D01*
X106463581Y-52024429D01*
X106434329Y-51970858D01*
X106439313Y-51901166D01*
X106481185Y-51845233D01*
X106546649Y-51820816D01*
X106555495Y-51820500D01*
X107794505Y-51820500D01*
X107861544Y-51840185D01*
X107907299Y-51892989D01*
X107917243Y-51962147D01*
X107888218Y-52025703D01*
X107884966Y-52029194D01*
X107884024Y-52030342D01*
X107769058Y-52202403D01*
X107689870Y-52393579D01*
X107689868Y-52393587D01*
X107649500Y-52596530D01*
X107649500Y-52803469D01*
X107680687Y-52960255D01*
X107689870Y-53006420D01*
X107769059Y-53197598D01*
X107780066Y-53214071D01*
X107884024Y-53369657D01*
X108030342Y-53515975D01*
X108030345Y-53515977D01*
X108202402Y-53630941D01*
X108393580Y-53710130D01*
X108571373Y-53745495D01*
X108596530Y-53750499D01*
X108596534Y-53750500D01*
X108596535Y-53750500D01*
X108803466Y-53750500D01*
X108803467Y-53750499D01*
X109006420Y-53710130D01*
X109197598Y-53630941D01*
X109369655Y-53515977D01*
X109515977Y-53369655D01*
X109630941Y-53197598D01*
X109710130Y-53006420D01*
X109750500Y-52803465D01*
X109750500Y-52596535D01*
X109710130Y-52393580D01*
X109630941Y-52202402D01*
X109515977Y-52030345D01*
X109515975Y-52030342D01*
X109512112Y-52025635D01*
X109513581Y-52024429D01*
X109484329Y-51970858D01*
X109489313Y-51901166D01*
X109531185Y-51845233D01*
X109596649Y-51820816D01*
X109605495Y-51820500D01*
X120315962Y-51820500D01*
X120383001Y-51840185D01*
X120428756Y-51892989D01*
X120438700Y-51962147D01*
X120409675Y-52025703D01*
X120384852Y-52047603D01*
X120330342Y-52084024D01*
X120184024Y-52230342D01*
X120069058Y-52402403D01*
X119989870Y-52593579D01*
X119989868Y-52593587D01*
X119949500Y-52796530D01*
X119949500Y-53003469D01*
X119989868Y-53206412D01*
X119989870Y-53206420D01*
X120060499Y-53376934D01*
X120069059Y-53397598D01*
X120100500Y-53444653D01*
X120184024Y-53569657D01*
X120330342Y-53715975D01*
X120330345Y-53715977D01*
X120502402Y-53830941D01*
X120693580Y-53910130D01*
X120810497Y-53933386D01*
X120896530Y-53950499D01*
X120896534Y-53950500D01*
X120896535Y-53950500D01*
X121103466Y-53950500D01*
X121103467Y-53950499D01*
X121306420Y-53910130D01*
X121497598Y-53830941D01*
X121669655Y-53715977D01*
X121815977Y-53569655D01*
X121930941Y-53397598D01*
X122010130Y-53206420D01*
X122050500Y-53003465D01*
X122050500Y-52796535D01*
X122010130Y-52593580D01*
X121930941Y-52402402D01*
X121815977Y-52230345D01*
X121815975Y-52230342D01*
X121669657Y-52084024D01*
X121615148Y-52047603D01*
X121570342Y-51993991D01*
X121561635Y-51924666D01*
X121591789Y-51861638D01*
X121651232Y-51824918D01*
X121684038Y-51820500D01*
X122855962Y-51820500D01*
X122923001Y-51840185D01*
X122968756Y-51892989D01*
X122978700Y-51962147D01*
X122949675Y-52025703D01*
X122924852Y-52047603D01*
X122870342Y-52084024D01*
X122724024Y-52230342D01*
X122609058Y-52402403D01*
X122529870Y-52593579D01*
X122529868Y-52593587D01*
X122489500Y-52796530D01*
X122489500Y-53003469D01*
X122529868Y-53206412D01*
X122529870Y-53206420D01*
X122600499Y-53376934D01*
X122609059Y-53397598D01*
X122640500Y-53444653D01*
X122724024Y-53569657D01*
X122870342Y-53715975D01*
X122870345Y-53715977D01*
X123042402Y-53830941D01*
X123233580Y-53910130D01*
X123350497Y-53933386D01*
X123436530Y-53950499D01*
X123436534Y-53950500D01*
X123436535Y-53950500D01*
X123643466Y-53950500D01*
X123643467Y-53950499D01*
X123846420Y-53910130D01*
X124037598Y-53830941D01*
X124209655Y-53715977D01*
X124355977Y-53569655D01*
X124470941Y-53397598D01*
X124550130Y-53206420D01*
X124590500Y-53003465D01*
X124590500Y-52796535D01*
X124550130Y-52593580D01*
X124470941Y-52402402D01*
X124355977Y-52230345D01*
X124355975Y-52230342D01*
X124209657Y-52084024D01*
X124155148Y-52047603D01*
X124110342Y-51993991D01*
X124101635Y-51924666D01*
X124131789Y-51861638D01*
X124191232Y-51824918D01*
X124224038Y-51820500D01*
X125395962Y-51820500D01*
X125463001Y-51840185D01*
X125508756Y-51892989D01*
X125518700Y-51962147D01*
X125489675Y-52025703D01*
X125464852Y-52047603D01*
X125410342Y-52084024D01*
X125264024Y-52230342D01*
X125149058Y-52402403D01*
X125069870Y-52593579D01*
X125069868Y-52593587D01*
X125029500Y-52796530D01*
X125029500Y-53003469D01*
X125069868Y-53206412D01*
X125069870Y-53206420D01*
X125078382Y-53226969D01*
X125085851Y-53296438D01*
X125054576Y-53358917D01*
X125051502Y-53362103D01*
X123270426Y-55143181D01*
X123209103Y-55176666D01*
X123182745Y-55179500D01*
X94617273Y-55179500D01*
X94515410Y-55206793D01*
X94424087Y-55259520D01*
X94424084Y-55259522D01*
X94162181Y-55521425D01*
X94100858Y-55554910D01*
X94031166Y-55549926D01*
X93975233Y-55508054D01*
X93950816Y-55442590D01*
X93950500Y-55433744D01*
X93950500Y-54447965D01*
X93970185Y-54380926D01*
X93986819Y-54360284D01*
X94205237Y-54141866D01*
X94515669Y-53831433D01*
X94576990Y-53797950D01*
X94579156Y-53797499D01*
X94609598Y-53791443D01*
X94689744Y-53775501D01*
X94808127Y-53726465D01*
X94914669Y-53655276D01*
X95005276Y-53564669D01*
X95076465Y-53458127D01*
X95125501Y-53339744D01*
X95141420Y-53259715D01*
X95150500Y-53214071D01*
X95150500Y-53085928D01*
X95125502Y-52960261D01*
X95125501Y-52960260D01*
X95125501Y-52960256D01*
X95076465Y-52841873D01*
X95076464Y-52841872D01*
X95076461Y-52841866D01*
X95005276Y-52735331D01*
X95005273Y-52735327D01*
X94914672Y-52644726D01*
X94914668Y-52644723D01*
X94808133Y-52573538D01*
X94808124Y-52573533D01*
X94689744Y-52524499D01*
X94689738Y-52524497D01*
X94564071Y-52499500D01*
X94564069Y-52499500D01*
X94435931Y-52499500D01*
X94435929Y-52499500D01*
X94310261Y-52524497D01*
X94310255Y-52524499D01*
X94191875Y-52573533D01*
X94191866Y-52573538D01*
X94085331Y-52644723D01*
X94085327Y-52644726D01*
X93994726Y-52735327D01*
X93994723Y-52735331D01*
X93923538Y-52841866D01*
X93923533Y-52841875D01*
X93874499Y-52960255D01*
X93874497Y-52960261D01*
X93849500Y-53085928D01*
X93849500Y-53172034D01*
X93829815Y-53239073D01*
X93813181Y-53259715D01*
X93139513Y-53933383D01*
X93139509Y-53933389D01*
X93080201Y-54036112D01*
X93080200Y-54036117D01*
X93049500Y-54150691D01*
X93049500Y-54931957D01*
X93029815Y-54998996D01*
X92977011Y-55044751D01*
X92972955Y-55046517D01*
X92931878Y-55063532D01*
X92931866Y-55063538D01*
X92825331Y-55134723D01*
X92825327Y-55134726D01*
X92734726Y-55225327D01*
X92734723Y-55225331D01*
X92663538Y-55331866D01*
X92663533Y-55331875D01*
X92614499Y-55450255D01*
X92614497Y-55450261D01*
X92589500Y-55575928D01*
X92589500Y-55575931D01*
X92589500Y-55704069D01*
X92589500Y-55704071D01*
X92589499Y-55704071D01*
X92614497Y-55829738D01*
X92614499Y-55829744D01*
X92663533Y-55948124D01*
X92663538Y-55948133D01*
X92734723Y-56054668D01*
X92734726Y-56054672D01*
X92825327Y-56145273D01*
X92825331Y-56145276D01*
X92931866Y-56216461D01*
X92931872Y-56216464D01*
X92931873Y-56216465D01*
X93050256Y-56265501D01*
X93102601Y-56275913D01*
X93129544Y-56281273D01*
X93191455Y-56313658D01*
X93226029Y-56374374D01*
X93222290Y-56444143D01*
X93193034Y-56490571D01*
X92129522Y-57554084D01*
X92129520Y-57554087D01*
X92076794Y-57645410D01*
X92051581Y-57739508D01*
X92051580Y-57739512D01*
X92049500Y-57747273D01*
X92049500Y-66618773D01*
X92040061Y-66666226D01*
X91988342Y-66791086D01*
X91988340Y-66791092D01*
X91959500Y-66936079D01*
X91959500Y-66936082D01*
X91959500Y-67083918D01*
X91959500Y-67083920D01*
X91959499Y-67083920D01*
X91988340Y-67228907D01*
X91988343Y-67228917D01*
X92044912Y-67365488D01*
X92044919Y-67365501D01*
X92127048Y-67488415D01*
X92127051Y-67488419D01*
X92231580Y-67592948D01*
X92231584Y-67592951D01*
X92354498Y-67675080D01*
X92354511Y-67675087D01*
X92491082Y-67731656D01*
X92491087Y-67731658D01*
X92491091Y-67731658D01*
X92491092Y-67731659D01*
X92636079Y-67760500D01*
X92636082Y-67760500D01*
X92783920Y-67760500D01*
X92881462Y-67741096D01*
X92928913Y-67731658D01*
X93065495Y-67675084D01*
X93188416Y-67592951D01*
X93292951Y-67488416D01*
X93375084Y-67365495D01*
X93431658Y-67228913D01*
X93460500Y-67083918D01*
X93460500Y-66936082D01*
X93460500Y-66936079D01*
X93431659Y-66791092D01*
X93431658Y-66791091D01*
X93431658Y-66791087D01*
X93379939Y-66666226D01*
X93375087Y-66654511D01*
X93375080Y-66654498D01*
X93292951Y-66531584D01*
X93292948Y-66531580D01*
X93188419Y-66427051D01*
X93188415Y-66427048D01*
X93065501Y-66344919D01*
X93065492Y-66344914D01*
X92927047Y-66287569D01*
X92872644Y-66243728D01*
X92850579Y-66177434D01*
X92850500Y-66173008D01*
X92850500Y-58669808D01*
X92870185Y-58602769D01*
X92922989Y-58557014D01*
X92992147Y-58547070D01*
X93055703Y-58576095D01*
X93062181Y-58582127D01*
X93085327Y-58605273D01*
X93085331Y-58605276D01*
X93191866Y-58676461D01*
X93191872Y-58676464D01*
X93191873Y-58676465D01*
X93310256Y-58725501D01*
X93310260Y-58725501D01*
X93310261Y-58725502D01*
X93435928Y-58750500D01*
X93435931Y-58750500D01*
X93564070Y-58750500D01*
X93592316Y-58744881D01*
X93623614Y-58738655D01*
X93693206Y-58744881D01*
X93735488Y-58772591D01*
X94083386Y-59120489D01*
X94186113Y-59179799D01*
X94210321Y-59186284D01*
X94210324Y-59186286D01*
X94210325Y-59186286D01*
X94222421Y-59189527D01*
X94300691Y-59210500D01*
X94454456Y-59210500D01*
X94521495Y-59230185D01*
X94567250Y-59282989D01*
X94577194Y-59352147D01*
X94548169Y-59415703D01*
X94542137Y-59422181D01*
X94329531Y-59634786D01*
X94329529Y-59634788D01*
X94300419Y-59685211D01*
X94300417Y-59685214D01*
X94283386Y-59714709D01*
X94259500Y-59803856D01*
X94259500Y-61656145D01*
X94275380Y-61715412D01*
X94283384Y-61745283D01*
X94283387Y-61745290D01*
X94329527Y-61825208D01*
X94329531Y-61825213D01*
X94817689Y-62313371D01*
X94851174Y-62374694D01*
X94851626Y-62425240D01*
X94849500Y-62435929D01*
X94849500Y-62435931D01*
X94849500Y-62564069D01*
X94849500Y-62564071D01*
X94849499Y-62564071D01*
X94874497Y-62689738D01*
X94874499Y-62689744D01*
X94923533Y-62808124D01*
X94923538Y-62808133D01*
X94994723Y-62914668D01*
X94994726Y-62914672D01*
X95085327Y-63005273D01*
X95085331Y-63005276D01*
X95191866Y-63076461D01*
X95191872Y-63076464D01*
X95191873Y-63076465D01*
X95310256Y-63125501D01*
X95310260Y-63125501D01*
X95310261Y-63125502D01*
X95435928Y-63150500D01*
X95435931Y-63150500D01*
X95564071Y-63150500D01*
X95648615Y-63133682D01*
X95689744Y-63125501D01*
X95808127Y-63076465D01*
X95914669Y-63005276D01*
X96005276Y-62914669D01*
X96076465Y-62808127D01*
X96125501Y-62689744D01*
X96150500Y-62564069D01*
X96150500Y-62435931D01*
X96150500Y-62435929D01*
X96150500Y-62435928D01*
X96125502Y-62310261D01*
X96125501Y-62310260D01*
X96125501Y-62310256D01*
X96085391Y-62213424D01*
X96077923Y-62143955D01*
X96109198Y-62081476D01*
X96169287Y-62045824D01*
X96239112Y-62048318D01*
X96287634Y-62078291D01*
X110353453Y-76144111D01*
X110353454Y-76144112D01*
X110353457Y-76144114D01*
X110468189Y-76220775D01*
X110595671Y-76273580D01*
X110618838Y-76278188D01*
X110665728Y-76287515D01*
X110731005Y-76300500D01*
X110731007Y-76300500D01*
X116964739Y-76300500D01*
X116968606Y-76301151D01*
X116970703Y-76300644D01*
X116986177Y-76304110D01*
X117005356Y-76307341D01*
X117008814Y-76308539D01*
X117151918Y-76367816D01*
X117217316Y-76380824D01*
X117225375Y-76383618D01*
X117247155Y-76399144D01*
X117270859Y-76411544D01*
X117272439Y-76413096D01*
X117723181Y-76863837D01*
X117756666Y-76925160D01*
X117759500Y-76951518D01*
X117759500Y-77663505D01*
X117739815Y-77730544D01*
X117723181Y-77751186D01*
X117644025Y-77830341D01*
X117644024Y-77830342D01*
X117529058Y-78002403D01*
X117449870Y-78193579D01*
X117449868Y-78193587D01*
X117409500Y-78396530D01*
X117409500Y-78603469D01*
X117447990Y-78796971D01*
X117449870Y-78806420D01*
X117529059Y-78997598D01*
X117586541Y-79083626D01*
X117644024Y-79169657D01*
X117790342Y-79315975D01*
X117790345Y-79315977D01*
X117962402Y-79430941D01*
X118153580Y-79510130D01*
X118356530Y-79550499D01*
X118356534Y-79550500D01*
X118356535Y-79550500D01*
X118563466Y-79550500D01*
X118563467Y-79550499D01*
X118766420Y-79510130D01*
X118957598Y-79430941D01*
X118957599Y-79430940D01*
X118957600Y-79430940D01*
X119121543Y-79321398D01*
X119188220Y-79300520D01*
X119190433Y-79300500D01*
X120269567Y-79300500D01*
X120336606Y-79320185D01*
X120338457Y-79321398D01*
X120502400Y-79430940D01*
X120502401Y-79430940D01*
X120502402Y-79430941D01*
X120693580Y-79510130D01*
X120896530Y-79550499D01*
X120896534Y-79550500D01*
X120896535Y-79550500D01*
X121103466Y-79550500D01*
X121103467Y-79550499D01*
X121160490Y-79539156D01*
X121296971Y-79512010D01*
X121366563Y-79518237D01*
X121408843Y-79545946D01*
X123347068Y-81484171D01*
X123379161Y-81539757D01*
X123390421Y-81581779D01*
X123390426Y-81581790D01*
X123469475Y-81718709D01*
X123469479Y-81718714D01*
X123469480Y-81718716D01*
X123581284Y-81830520D01*
X123581286Y-81830521D01*
X123581290Y-81830524D01*
X123716979Y-81908863D01*
X123718216Y-81909577D01*
X123870943Y-81950500D01*
X123870945Y-81950500D01*
X124029055Y-81950500D01*
X124029057Y-81950500D01*
X124181784Y-81909577D01*
X124318716Y-81830520D01*
X124430520Y-81718716D01*
X124509577Y-81581784D01*
X124550500Y-81429057D01*
X124550500Y-81270943D01*
X124509577Y-81118216D01*
X124481633Y-81069815D01*
X124430524Y-80981290D01*
X124430518Y-80981282D01*
X124318717Y-80869481D01*
X124318709Y-80869475D01*
X124181790Y-80790426D01*
X124181786Y-80790424D01*
X124181784Y-80790423D01*
X124029057Y-80749500D01*
X124029056Y-80749500D01*
X123937965Y-80749500D01*
X123870926Y-80729815D01*
X123850284Y-80713181D01*
X122045946Y-78908843D01*
X122012461Y-78847520D01*
X122012010Y-78796971D01*
X122050499Y-78603469D01*
X122050500Y-78603466D01*
X122050500Y-78396534D01*
X122050499Y-78396530D01*
X122489500Y-78396530D01*
X122489500Y-78603469D01*
X122527990Y-78796971D01*
X122529870Y-78806420D01*
X122609059Y-78997598D01*
X122666541Y-79083626D01*
X122724024Y-79169657D01*
X122870342Y-79315975D01*
X122870345Y-79315977D01*
X123042402Y-79430941D01*
X123233580Y-79510130D01*
X123436530Y-79550499D01*
X123436534Y-79550500D01*
X123436535Y-79550500D01*
X123643466Y-79550500D01*
X123643467Y-79550499D01*
X123846420Y-79510130D01*
X124037598Y-79430941D01*
X124209655Y-79315977D01*
X124355977Y-79169655D01*
X124470941Y-78997598D01*
X124550130Y-78806420D01*
X124590500Y-78603465D01*
X124590500Y-78396535D01*
X124550130Y-78193580D01*
X124470941Y-78002402D01*
X124355977Y-77830345D01*
X124355975Y-77830342D01*
X124209657Y-77684024D01*
X124120579Y-77624505D01*
X124037598Y-77569059D01*
X124036241Y-77568497D01*
X123846420Y-77489870D01*
X123846412Y-77489868D01*
X123643469Y-77449500D01*
X123643465Y-77449500D01*
X123436535Y-77449500D01*
X123436530Y-77449500D01*
X123233587Y-77489868D01*
X123233579Y-77489870D01*
X123042403Y-77569058D01*
X122870342Y-77684024D01*
X122724024Y-77830342D01*
X122609058Y-78002403D01*
X122529870Y-78193579D01*
X122529868Y-78193587D01*
X122489500Y-78396530D01*
X122050499Y-78396530D01*
X122010131Y-78193587D01*
X122010130Y-78193580D01*
X121930941Y-78002402D01*
X121815977Y-77830345D01*
X121815975Y-77830342D01*
X121669657Y-77684024D01*
X121580579Y-77624505D01*
X121497598Y-77569059D01*
X121496241Y-77568497D01*
X121306420Y-77489870D01*
X121306412Y-77489868D01*
X121103469Y-77449500D01*
X121103465Y-77449500D01*
X120896535Y-77449500D01*
X120896530Y-77449500D01*
X120693587Y-77489868D01*
X120693579Y-77489870D01*
X120502400Y-77569059D01*
X120502399Y-77569059D01*
X120338457Y-77678602D01*
X120271780Y-77699480D01*
X120269567Y-77699500D01*
X119284500Y-77699500D01*
X119217461Y-77679815D01*
X119171706Y-77627011D01*
X119160500Y-77575500D01*
X119160500Y-76541004D01*
X119133581Y-76405677D01*
X119133580Y-76405676D01*
X119133580Y-76405672D01*
X119117900Y-76367816D01*
X119080778Y-76278195D01*
X119080771Y-76278182D01*
X119004115Y-76163459D01*
X118984767Y-76144111D01*
X118906542Y-76065886D01*
X118263096Y-75422439D01*
X118229611Y-75361116D01*
X118229174Y-75359021D01*
X118217816Y-75301918D01*
X118153703Y-75147137D01*
X118110816Y-75082952D01*
X118060626Y-75007837D01*
X117942162Y-74889373D01*
X117802860Y-74796295D01*
X117648082Y-74732184D01*
X117648074Y-74732182D01*
X117483771Y-74699500D01*
X117483767Y-74699500D01*
X117316233Y-74699500D01*
X117316228Y-74699500D01*
X117151925Y-74732182D01*
X117151917Y-74732184D01*
X116997139Y-74796295D01*
X116873959Y-74878602D01*
X116807281Y-74899480D01*
X116805068Y-74899500D01*
X111141519Y-74899500D01*
X111074480Y-74879815D01*
X111053838Y-74863181D01*
X108654728Y-72464071D01*
X114949499Y-72464071D01*
X114974497Y-72589738D01*
X114974499Y-72589744D01*
X115023533Y-72708124D01*
X115023538Y-72708133D01*
X115094723Y-72814668D01*
X115094726Y-72814672D01*
X115185327Y-72905273D01*
X115185331Y-72905276D01*
X115291866Y-72976461D01*
X115291872Y-72976464D01*
X115291873Y-72976465D01*
X115410256Y-73025501D01*
X115410260Y-73025501D01*
X115410261Y-73025502D01*
X115535928Y-73050500D01*
X115535931Y-73050500D01*
X115664071Y-73050500D01*
X115748615Y-73033682D01*
X115789744Y-73025501D01*
X115908127Y-72976465D01*
X116014669Y-72905276D01*
X116105276Y-72814669D01*
X116176465Y-72708127D01*
X116189339Y-72677047D01*
X116233180Y-72622644D01*
X116299474Y-72600579D01*
X116303900Y-72600500D01*
X130053456Y-72600500D01*
X130120495Y-72620185D01*
X130141137Y-72636819D01*
X132317689Y-74813370D01*
X132351174Y-74874693D01*
X132351626Y-74925237D01*
X132349500Y-74935924D01*
X132349500Y-74935931D01*
X132349500Y-75064069D01*
X132349500Y-75064071D01*
X132349499Y-75064071D01*
X132374497Y-75189738D01*
X132374499Y-75189744D01*
X132423533Y-75308124D01*
X132423538Y-75308133D01*
X132494723Y-75414668D01*
X132494726Y-75414672D01*
X132585327Y-75505273D01*
X132585331Y-75505276D01*
X132691866Y-75576461D01*
X132691872Y-75576464D01*
X132691873Y-75576465D01*
X132810256Y-75625501D01*
X132810260Y-75625501D01*
X132810261Y-75625502D01*
X132935928Y-75650500D01*
X132935931Y-75650500D01*
X133064071Y-75650500D01*
X133148615Y-75633682D01*
X133189744Y-75625501D01*
X133308127Y-75576465D01*
X133414669Y-75505276D01*
X133505276Y-75414669D01*
X133576465Y-75308127D01*
X133625501Y-75189744D01*
X133633976Y-75147137D01*
X133650500Y-75064071D01*
X133650500Y-74935928D01*
X133625502Y-74810261D01*
X133625501Y-74810260D01*
X133625501Y-74810256D01*
X133576465Y-74691873D01*
X133576464Y-74691872D01*
X133576461Y-74691866D01*
X133505276Y-74585331D01*
X133505273Y-74585327D01*
X133414672Y-74494726D01*
X133414668Y-74494723D01*
X133308133Y-74423538D01*
X133308124Y-74423533D01*
X133189744Y-74374499D01*
X133189738Y-74374497D01*
X133064071Y-74349500D01*
X133064069Y-74349500D01*
X132935931Y-74349500D01*
X132935924Y-74349500D01*
X132925237Y-74351626D01*
X132855646Y-74345396D01*
X132813370Y-74317689D01*
X130465213Y-71969531D01*
X130465208Y-71969527D01*
X130385290Y-71923387D01*
X130385289Y-71923386D01*
X130385288Y-71923386D01*
X130296144Y-71899500D01*
X130296143Y-71899500D01*
X116059432Y-71899500D01*
X115992393Y-71879815D01*
X115990541Y-71878602D01*
X115908133Y-71823538D01*
X115908124Y-71823533D01*
X115789744Y-71774499D01*
X115789738Y-71774497D01*
X115664071Y-71749500D01*
X115664069Y-71749500D01*
X115535931Y-71749500D01*
X115535929Y-71749500D01*
X115410261Y-71774497D01*
X115410255Y-71774499D01*
X115291875Y-71823533D01*
X115291866Y-71823538D01*
X115185331Y-71894723D01*
X115185327Y-71894726D01*
X115094726Y-71985327D01*
X115094723Y-71985331D01*
X115023538Y-72091866D01*
X115023533Y-72091875D01*
X114974499Y-72210255D01*
X114974497Y-72210261D01*
X114949500Y-72335928D01*
X114949500Y-72335931D01*
X114949500Y-72464069D01*
X114949500Y-72464071D01*
X114949499Y-72464071D01*
X108654728Y-72464071D01*
X106504728Y-70314071D01*
X108699499Y-70314071D01*
X108724497Y-70439738D01*
X108724499Y-70439744D01*
X108773533Y-70558124D01*
X108773538Y-70558133D01*
X108844723Y-70664668D01*
X108844726Y-70664672D01*
X108935327Y-70755273D01*
X108935331Y-70755276D01*
X109041866Y-70826461D01*
X109041872Y-70826464D01*
X109041873Y-70826465D01*
X109160256Y-70875501D01*
X109160260Y-70875501D01*
X109160261Y-70875502D01*
X109285928Y-70900500D01*
X109285931Y-70900500D01*
X109414071Y-70900500D01*
X109498615Y-70883682D01*
X109539744Y-70875501D01*
X109658127Y-70826465D01*
X109764669Y-70755276D01*
X109855276Y-70664669D01*
X109926465Y-70558127D01*
X109975501Y-70439744D01*
X110000500Y-70314069D01*
X110000500Y-70274500D01*
X110020185Y-70207461D01*
X110072989Y-70161706D01*
X110124500Y-70150500D01*
X114896514Y-70150500D01*
X114963553Y-70170185D01*
X115009308Y-70222989D01*
X115019252Y-70292147D01*
X115011075Y-70321952D01*
X114974500Y-70410251D01*
X114974497Y-70410261D01*
X114949500Y-70535928D01*
X114949500Y-70535931D01*
X114949500Y-70664069D01*
X114949500Y-70664071D01*
X114949499Y-70664071D01*
X114974497Y-70789738D01*
X114974499Y-70789744D01*
X115023533Y-70908124D01*
X115023538Y-70908133D01*
X115094723Y-71014668D01*
X115094726Y-71014672D01*
X115185327Y-71105273D01*
X115185331Y-71105276D01*
X115291866Y-71176461D01*
X115291872Y-71176464D01*
X115291873Y-71176465D01*
X115410256Y-71225501D01*
X115410260Y-71225501D01*
X115410261Y-71225502D01*
X115535928Y-71250500D01*
X115535931Y-71250500D01*
X115664071Y-71250500D01*
X115748615Y-71233682D01*
X115789744Y-71225501D01*
X115908127Y-71176465D01*
X116014669Y-71105276D01*
X116105276Y-71014669D01*
X116111330Y-71005609D01*
X116164942Y-70960804D01*
X116214432Y-70950500D01*
X131403456Y-70950500D01*
X131470495Y-70970185D01*
X131491137Y-70986819D01*
X133817689Y-73313370D01*
X133851174Y-73374693D01*
X133851626Y-73425237D01*
X133849500Y-73435924D01*
X133849500Y-73435931D01*
X133849500Y-73564069D01*
X133849500Y-73564071D01*
X133849499Y-73564071D01*
X133874497Y-73689738D01*
X133874499Y-73689744D01*
X133923533Y-73808124D01*
X133923538Y-73808133D01*
X133994723Y-73914668D01*
X133994726Y-73914672D01*
X134085327Y-74005273D01*
X134085331Y-74005276D01*
X134191866Y-74076461D01*
X134191872Y-74076464D01*
X134191873Y-74076465D01*
X134310256Y-74125501D01*
X134310260Y-74125501D01*
X134310261Y-74125502D01*
X134435928Y-74150500D01*
X134435931Y-74150500D01*
X134564071Y-74150500D01*
X134648615Y-74133682D01*
X134689744Y-74125501D01*
X134808127Y-74076465D01*
X134914669Y-74005276D01*
X135005276Y-73914669D01*
X135076465Y-73808127D01*
X135125501Y-73689744D01*
X135150500Y-73564069D01*
X135150500Y-73435931D01*
X135150500Y-73435928D01*
X135125502Y-73310261D01*
X135125501Y-73310260D01*
X135125501Y-73310256D01*
X135076465Y-73191873D01*
X135076464Y-73191872D01*
X135076461Y-73191866D01*
X135005276Y-73085331D01*
X135005273Y-73085327D01*
X134914672Y-72994726D01*
X134914668Y-72994723D01*
X134808133Y-72923538D01*
X134808124Y-72923533D01*
X134689744Y-72874499D01*
X134689738Y-72874497D01*
X134564071Y-72849500D01*
X134564069Y-72849500D01*
X134435931Y-72849500D01*
X134435924Y-72849500D01*
X134425237Y-72851626D01*
X134355646Y-72845396D01*
X134313370Y-72817689D01*
X131857863Y-70362181D01*
X131824378Y-70300858D01*
X131829362Y-70231166D01*
X131871234Y-70175233D01*
X131936698Y-70150816D01*
X131945544Y-70150500D01*
X133203456Y-70150500D01*
X133270495Y-70170185D01*
X133291137Y-70186819D01*
X136867689Y-73763370D01*
X136901174Y-73824693D01*
X136901626Y-73875237D01*
X136899500Y-73885924D01*
X136899500Y-73885931D01*
X136899500Y-74014069D01*
X136899500Y-74014071D01*
X136899499Y-74014071D01*
X136924497Y-74139738D01*
X136924499Y-74139744D01*
X136973533Y-74258124D01*
X136973538Y-74258133D01*
X137044723Y-74364668D01*
X137044726Y-74364672D01*
X137135327Y-74455273D01*
X137135331Y-74455276D01*
X137241866Y-74526461D01*
X137241872Y-74526464D01*
X137241873Y-74526465D01*
X137360256Y-74575501D01*
X137360260Y-74575501D01*
X137360261Y-74575502D01*
X137485928Y-74600500D01*
X137485931Y-74600500D01*
X137614071Y-74600500D01*
X137698615Y-74583682D01*
X137739744Y-74575501D01*
X137858127Y-74526465D01*
X137964669Y-74455276D01*
X138055276Y-74364669D01*
X138126465Y-74258127D01*
X138175501Y-74139744D01*
X138200500Y-74014069D01*
X138200500Y-73885931D01*
X138200500Y-73885928D01*
X138175502Y-73760261D01*
X138175501Y-73760260D01*
X138175501Y-73760256D01*
X138126465Y-73641873D01*
X138126464Y-73641872D01*
X138126461Y-73641866D01*
X138068065Y-73554471D01*
X138068064Y-73554470D01*
X138055276Y-73535331D01*
X137964669Y-73444724D01*
X137945529Y-73431935D01*
X137945527Y-73431933D01*
X137858133Y-73373538D01*
X137858124Y-73373533D01*
X137739744Y-73324499D01*
X137739738Y-73324497D01*
X137614071Y-73299500D01*
X137614069Y-73299500D01*
X137485931Y-73299500D01*
X137485924Y-73299500D01*
X137475237Y-73301626D01*
X137405646Y-73295396D01*
X137363370Y-73267689D01*
X133615213Y-69519531D01*
X133615208Y-69519527D01*
X133535290Y-69473387D01*
X133535289Y-69473386D01*
X133535288Y-69473386D01*
X133446144Y-69449500D01*
X109753856Y-69449500D01*
X109664712Y-69473386D01*
X109664709Y-69473387D01*
X109584786Y-69519530D01*
X109536626Y-69567690D01*
X109475303Y-69601174D01*
X109424755Y-69601625D01*
X109414073Y-69599500D01*
X109414069Y-69599500D01*
X109285931Y-69599500D01*
X109285929Y-69599500D01*
X109160261Y-69624497D01*
X109160255Y-69624499D01*
X109041875Y-69673533D01*
X109041866Y-69673538D01*
X108935331Y-69744723D01*
X108935327Y-69744726D01*
X108844726Y-69835327D01*
X108844723Y-69835331D01*
X108773538Y-69941866D01*
X108773533Y-69941875D01*
X108724499Y-70060255D01*
X108724497Y-70060261D01*
X108699500Y-70185928D01*
X108699500Y-70185931D01*
X108699500Y-70314069D01*
X108699500Y-70314071D01*
X108699499Y-70314071D01*
X106504728Y-70314071D01*
X96222838Y-60032181D01*
X96189353Y-59970858D01*
X96194337Y-59901166D01*
X96236209Y-59845233D01*
X96301673Y-59820816D01*
X96310519Y-59820500D01*
X106935334Y-59820500D01*
X107002373Y-59840185D01*
X107048128Y-59892989D01*
X107059317Y-59946566D01*
X107059062Y-59961837D01*
X107049500Y-59997525D01*
X107049500Y-60142475D01*
X107055669Y-60165499D01*
X107055380Y-60182872D01*
X107049943Y-60200306D01*
X107049509Y-60218561D01*
X107039759Y-60232965D01*
X107034581Y-60249574D01*
X107020581Y-60261301D01*
X107010347Y-60276424D01*
X106990023Y-60286901D01*
X106981022Y-60294443D01*
X106973561Y-60295389D01*
X106963491Y-60300581D01*
X106827511Y-60337017D01*
X106701988Y-60409488D01*
X106701982Y-60409493D01*
X106599493Y-60511982D01*
X106599488Y-60511988D01*
X106527017Y-60637511D01*
X106527016Y-60637515D01*
X106489500Y-60777525D01*
X106489500Y-60922475D01*
X106527016Y-61062485D01*
X106527017Y-61062488D01*
X106599488Y-61188011D01*
X106599490Y-61188013D01*
X106599491Y-61188015D01*
X106701985Y-61290509D01*
X106701986Y-61290510D01*
X106701988Y-61290511D01*
X106827511Y-61362982D01*
X106827512Y-61362982D01*
X106827515Y-61362984D01*
X106967525Y-61400500D01*
X106967528Y-61400500D01*
X107112472Y-61400500D01*
X107112475Y-61400500D01*
X107252485Y-61362984D01*
X107378015Y-61290509D01*
X107431705Y-61236819D01*
X107493028Y-61203334D01*
X107519386Y-61200500D01*
X108363456Y-61200500D01*
X108430495Y-61220185D01*
X108451137Y-61236819D01*
X110067689Y-62853371D01*
X110101174Y-62914694D01*
X110101626Y-62965240D01*
X110099500Y-62975929D01*
X110099500Y-62975931D01*
X110099500Y-63104069D01*
X110099500Y-63104071D01*
X110099499Y-63104071D01*
X110124497Y-63229738D01*
X110124499Y-63229744D01*
X110173533Y-63348124D01*
X110173538Y-63348133D01*
X110244723Y-63454668D01*
X110244726Y-63454672D01*
X110335327Y-63545273D01*
X110335331Y-63545276D01*
X110441866Y-63616461D01*
X110441872Y-63616464D01*
X110441873Y-63616465D01*
X110560256Y-63665501D01*
X110560260Y-63665501D01*
X110560261Y-63665502D01*
X110685928Y-63690500D01*
X110685931Y-63690500D01*
X110814071Y-63690500D01*
X110898615Y-63673682D01*
X110939744Y-63665501D01*
X111058127Y-63616465D01*
X111164669Y-63545276D01*
X111255276Y-63454669D01*
X111326465Y-63348127D01*
X111375501Y-63229744D01*
X111400500Y-63104069D01*
X111400500Y-62975931D01*
X111400500Y-62975929D01*
X111400500Y-62975928D01*
X111375502Y-62850261D01*
X111375501Y-62850260D01*
X111375501Y-62850256D01*
X111326465Y-62731873D01*
X111326464Y-62731872D01*
X111326461Y-62731866D01*
X111255276Y-62625331D01*
X111255273Y-62625327D01*
X111172627Y-62542681D01*
X111139142Y-62481358D01*
X111144126Y-62411666D01*
X111172627Y-62367319D01*
X111255273Y-62284672D01*
X111255276Y-62284669D01*
X111326465Y-62178127D01*
X111375501Y-62059744D01*
X111400500Y-61934069D01*
X111400500Y-61805931D01*
X111400500Y-61805928D01*
X111375502Y-61680261D01*
X111375501Y-61680260D01*
X111375501Y-61680256D01*
X111326465Y-61561873D01*
X111326464Y-61561872D01*
X111326461Y-61561866D01*
X111255276Y-61455331D01*
X111255273Y-61455327D01*
X111164672Y-61364726D01*
X111164668Y-61364723D01*
X111058133Y-61293538D01*
X111058124Y-61293533D01*
X110939744Y-61244499D01*
X110939738Y-61244497D01*
X110814071Y-61219500D01*
X110814069Y-61219500D01*
X110685931Y-61219500D01*
X110685930Y-61219500D01*
X110675240Y-61221626D01*
X110605648Y-61215397D01*
X110563371Y-61187689D01*
X109407863Y-60032181D01*
X109374378Y-59970858D01*
X109379362Y-59901166D01*
X109421234Y-59845233D01*
X109486698Y-59820816D01*
X109495544Y-59820500D01*
X124633456Y-59820500D01*
X124700495Y-59840185D01*
X124721137Y-59856819D01*
X140758802Y-75894484D01*
X140792287Y-75955807D01*
X140787303Y-76025499D01*
X140745431Y-76081432D01*
X140733122Y-76089552D01*
X140611985Y-76159491D01*
X140611982Y-76159493D01*
X140509493Y-76261982D01*
X140504543Y-76268434D01*
X140502743Y-76267053D01*
X140460658Y-76307160D01*
X140392047Y-76320364D01*
X140327189Y-76294379D01*
X140296480Y-76258929D01*
X140282829Y-76235286D01*
X140240509Y-76161985D01*
X140138015Y-76059491D01*
X140138013Y-76059490D01*
X140138011Y-76059488D01*
X140012488Y-75987017D01*
X140012489Y-75987017D01*
X140001006Y-75983940D01*
X139872475Y-75949500D01*
X139727525Y-75949500D01*
X139598993Y-75983940D01*
X139587511Y-75987017D01*
X139461988Y-76059488D01*
X139461982Y-76059493D01*
X139359493Y-76161982D01*
X139359488Y-76161988D01*
X139287017Y-76287511D01*
X139287016Y-76287515D01*
X139249500Y-76427525D01*
X139249500Y-76427527D01*
X139249500Y-76503456D01*
X139229815Y-76570495D01*
X139213181Y-76591137D01*
X138499531Y-77304786D01*
X138499527Y-77304791D01*
X138478644Y-77340962D01*
X138478641Y-77340968D01*
X138473716Y-77349500D01*
X138453386Y-77384712D01*
X138433340Y-77459523D01*
X138431054Y-77465507D01*
X138413615Y-77488417D01*
X138398631Y-77513001D01*
X138391424Y-77517572D01*
X138388736Y-77521104D01*
X138381979Y-77523562D01*
X138362677Y-77535806D01*
X138282407Y-77569056D01*
X138282395Y-77569062D01*
X138110344Y-77684022D01*
X137964024Y-77830342D01*
X137849058Y-78002403D01*
X137769870Y-78193579D01*
X137769868Y-78193587D01*
X137729500Y-78396530D01*
X137729500Y-78603469D01*
X137767990Y-78796971D01*
X137769870Y-78806420D01*
X137849059Y-78997598D01*
X137906541Y-79083626D01*
X137964024Y-79169657D01*
X138110341Y-79315974D01*
X138110349Y-79315980D01*
X138269615Y-79422398D01*
X138314421Y-79476010D01*
X138323128Y-79545335D01*
X138292974Y-79608362D01*
X138233531Y-79645082D01*
X138200725Y-79649500D01*
X136819275Y-79649500D01*
X136752236Y-79629815D01*
X136706481Y-79577011D01*
X136696537Y-79507853D01*
X136725562Y-79444297D01*
X136750385Y-79422398D01*
X136867262Y-79344302D01*
X136909655Y-79315977D01*
X137055977Y-79169655D01*
X137170941Y-78997598D01*
X137250130Y-78806420D01*
X137290500Y-78603465D01*
X137290500Y-78396535D01*
X137250130Y-78193580D01*
X137170941Y-78002402D01*
X137055977Y-77830345D01*
X137055975Y-77830342D01*
X136909657Y-77684024D01*
X136820579Y-77624505D01*
X136737598Y-77569059D01*
X136736241Y-77568497D01*
X136546420Y-77489870D01*
X136546412Y-77489868D01*
X136343469Y-77449500D01*
X136343465Y-77449500D01*
X136136535Y-77449500D01*
X136136530Y-77449500D01*
X135933587Y-77489868D01*
X135933579Y-77489870D01*
X135742403Y-77569058D01*
X135570342Y-77684024D01*
X135424024Y-77830342D01*
X135309058Y-78002403D01*
X135229870Y-78193579D01*
X135229868Y-78193587D01*
X135189500Y-78396530D01*
X135189500Y-78603469D01*
X135227990Y-78796971D01*
X135229870Y-78806420D01*
X135309059Y-78997598D01*
X135366541Y-79083626D01*
X135424024Y-79169657D01*
X135570341Y-79315974D01*
X135570349Y-79315980D01*
X135729615Y-79422398D01*
X135774421Y-79476010D01*
X135783128Y-79545335D01*
X135752974Y-79608362D01*
X135693531Y-79645082D01*
X135660725Y-79649500D01*
X134279275Y-79649500D01*
X134212236Y-79629815D01*
X134166481Y-79577011D01*
X134156537Y-79507853D01*
X134185562Y-79444297D01*
X134210385Y-79422398D01*
X134327262Y-79344302D01*
X134369655Y-79315977D01*
X134515977Y-79169655D01*
X134630941Y-78997598D01*
X134710130Y-78806420D01*
X134750500Y-78603465D01*
X134750500Y-78396535D01*
X134710130Y-78193580D01*
X134630941Y-78002402D01*
X134515977Y-77830345D01*
X134515975Y-77830342D01*
X134369657Y-77684024D01*
X134280579Y-77624505D01*
X134197598Y-77569059D01*
X134196241Y-77568497D01*
X134006420Y-77489870D01*
X134006412Y-77489868D01*
X133803469Y-77449500D01*
X133803465Y-77449500D01*
X133596535Y-77449500D01*
X133596530Y-77449500D01*
X133393587Y-77489868D01*
X133393579Y-77489870D01*
X133202403Y-77569058D01*
X133030342Y-77684024D01*
X132884024Y-77830342D01*
X132769058Y-78002403D01*
X132689870Y-78193579D01*
X132689868Y-78193587D01*
X132649500Y-78396530D01*
X132649500Y-78603469D01*
X132687990Y-78796971D01*
X132689870Y-78806420D01*
X132769059Y-78997598D01*
X132826541Y-79083626D01*
X132884024Y-79169657D01*
X133030341Y-79315974D01*
X133030349Y-79315980D01*
X133189615Y-79422398D01*
X133234421Y-79476010D01*
X133243128Y-79545335D01*
X133212974Y-79608362D01*
X133153531Y-79645082D01*
X133120725Y-79649500D01*
X132229386Y-79649500D01*
X132162347Y-79629815D01*
X132141705Y-79613181D01*
X132088017Y-79559493D01*
X132088011Y-79559488D01*
X131962487Y-79487017D01*
X131962486Y-79487016D01*
X131962485Y-79487016D01*
X131930285Y-79478388D01*
X131870626Y-79442024D01*
X131840097Y-79379177D01*
X131848392Y-79309802D01*
X131874696Y-79270935D01*
X131975977Y-79169655D01*
X132090941Y-78997598D01*
X132170130Y-78806420D01*
X132210500Y-78603465D01*
X132210500Y-78396535D01*
X132170130Y-78193580D01*
X132090941Y-78002402D01*
X131975977Y-77830345D01*
X131975975Y-77830342D01*
X131829657Y-77684024D01*
X131740579Y-77624505D01*
X131657598Y-77569059D01*
X131656241Y-77568497D01*
X131466420Y-77489870D01*
X131466412Y-77489868D01*
X131263469Y-77449500D01*
X131263465Y-77449500D01*
X131056535Y-77449500D01*
X131056530Y-77449500D01*
X130853587Y-77489868D01*
X130853579Y-77489870D01*
X130662403Y-77569058D01*
X130490342Y-77684024D01*
X130344024Y-77830342D01*
X130229058Y-78002403D01*
X130149870Y-78193579D01*
X130149868Y-78193587D01*
X130109500Y-78396530D01*
X130109500Y-78603469D01*
X130147990Y-78796971D01*
X130149870Y-78806420D01*
X130229059Y-78997598D01*
X130286541Y-79083626D01*
X130344024Y-79169657D01*
X130490342Y-79315975D01*
X130490345Y-79315977D01*
X130662402Y-79430941D01*
X130853580Y-79510130D01*
X131056530Y-79550499D01*
X131056534Y-79550500D01*
X131159082Y-79550500D01*
X131226121Y-79570185D01*
X131271876Y-79622989D01*
X131281820Y-79692147D01*
X131266469Y-79736500D01*
X131237017Y-79787511D01*
X131237016Y-79787515D01*
X131199500Y-79927525D01*
X131199500Y-80072475D01*
X131237016Y-80212485D01*
X131283206Y-80292488D01*
X131283790Y-80293499D01*
X131300263Y-80361400D01*
X131277411Y-80427427D01*
X131222490Y-80470617D01*
X131176403Y-80479500D01*
X129409575Y-80479500D01*
X129342536Y-80459815D01*
X129296781Y-80407011D01*
X129289800Y-80387594D01*
X129262984Y-80287515D01*
X129233828Y-80237016D01*
X129190511Y-80161988D01*
X129190506Y-80161982D01*
X129088017Y-80059493D01*
X129088011Y-80059488D01*
X128962488Y-79987017D01*
X128962489Y-79987017D01*
X128938242Y-79980520D01*
X128822475Y-79949500D01*
X128677525Y-79949500D01*
X128561758Y-79980520D01*
X128537511Y-79987017D01*
X128411988Y-80059488D01*
X128411982Y-80059493D01*
X128309493Y-80161982D01*
X128309488Y-80161988D01*
X128237017Y-80287511D01*
X128237016Y-80287515D01*
X128199500Y-80427525D01*
X128199500Y-80572475D01*
X128227649Y-80677527D01*
X128237017Y-80712488D01*
X128309488Y-80838011D01*
X128309493Y-80838017D01*
X128349295Y-80877819D01*
X128382780Y-80939142D01*
X128377796Y-81008834D01*
X128335924Y-81064767D01*
X128270460Y-81089184D01*
X128261614Y-81089500D01*
X127636544Y-81089500D01*
X127569505Y-81069815D01*
X127548863Y-81053181D01*
X126666819Y-80171137D01*
X126633334Y-80109814D01*
X126630500Y-80083456D01*
X126630500Y-80007527D01*
X126630500Y-80007525D01*
X126592984Y-79867515D01*
X126580645Y-79846144D01*
X126520511Y-79741988D01*
X126520506Y-79741982D01*
X126448513Y-79669989D01*
X126415028Y-79608666D01*
X126420012Y-79538974D01*
X126461884Y-79483041D01*
X126488741Y-79467747D01*
X126489017Y-79467632D01*
X126577598Y-79430941D01*
X126749655Y-79315977D01*
X126895977Y-79169655D01*
X127010941Y-78997598D01*
X127090130Y-78806420D01*
X127130500Y-78603465D01*
X127130500Y-78396535D01*
X127130499Y-78396530D01*
X127569500Y-78396530D01*
X127569500Y-78603469D01*
X127607990Y-78796971D01*
X127609870Y-78806420D01*
X127689059Y-78997598D01*
X127746541Y-79083626D01*
X127804024Y-79169657D01*
X127950342Y-79315975D01*
X127950345Y-79315977D01*
X128122402Y-79430941D01*
X128313580Y-79510130D01*
X128516530Y-79550499D01*
X128516534Y-79550500D01*
X128516535Y-79550500D01*
X128723466Y-79550500D01*
X128723467Y-79550499D01*
X128926420Y-79510130D01*
X129117598Y-79430941D01*
X129289655Y-79315977D01*
X129435977Y-79169655D01*
X129550941Y-78997598D01*
X129630130Y-78806420D01*
X129670500Y-78603465D01*
X129670500Y-78396535D01*
X129630130Y-78193580D01*
X129550941Y-78002402D01*
X129435977Y-77830345D01*
X129435975Y-77830342D01*
X129289657Y-77684024D01*
X129200579Y-77624505D01*
X129117598Y-77569059D01*
X129116241Y-77568497D01*
X128926420Y-77489870D01*
X128926412Y-77489868D01*
X128723469Y-77449500D01*
X128723465Y-77449500D01*
X128516535Y-77449500D01*
X128516530Y-77449500D01*
X128313587Y-77489868D01*
X128313579Y-77489870D01*
X128122403Y-77569058D01*
X127950342Y-77684024D01*
X127804024Y-77830342D01*
X127689058Y-78002403D01*
X127609870Y-78193579D01*
X127609868Y-78193587D01*
X127569500Y-78396530D01*
X127130499Y-78396530D01*
X127090130Y-78193580D01*
X127010941Y-78002402D01*
X126895977Y-77830345D01*
X126895975Y-77830342D01*
X126749657Y-77684024D01*
X126660579Y-77624505D01*
X126577598Y-77569059D01*
X126576241Y-77568497D01*
X126386420Y-77489870D01*
X126386412Y-77489868D01*
X126183469Y-77449500D01*
X126183465Y-77449500D01*
X125976535Y-77449500D01*
X125976530Y-77449500D01*
X125773587Y-77489868D01*
X125773579Y-77489870D01*
X125582403Y-77569058D01*
X125410342Y-77684024D01*
X125264024Y-77830342D01*
X125149058Y-78002403D01*
X125069870Y-78193579D01*
X125069868Y-78193587D01*
X125029500Y-78396530D01*
X125029500Y-78603469D01*
X125067990Y-78796971D01*
X125069870Y-78806420D01*
X125149059Y-78997598D01*
X125206541Y-79083626D01*
X125264024Y-79169657D01*
X125410342Y-79315975D01*
X125410345Y-79315977D01*
X125582402Y-79430941D01*
X125582403Y-79430941D01*
X125582404Y-79430942D01*
X125671258Y-79467747D01*
X125725661Y-79511588D01*
X125747726Y-79577883D01*
X125730447Y-79645582D01*
X125711487Y-79669989D01*
X125639488Y-79741988D01*
X125567017Y-79867511D01*
X125567016Y-79867515D01*
X125529500Y-80007525D01*
X125529500Y-80152475D01*
X125554739Y-80246666D01*
X125567017Y-80292488D01*
X125639488Y-80418011D01*
X125639490Y-80418013D01*
X125639491Y-80418015D01*
X125741985Y-80520509D01*
X125741986Y-80520510D01*
X125741988Y-80520511D01*
X125867511Y-80592982D01*
X125867512Y-80592982D01*
X125867515Y-80592984D01*
X126007525Y-80630500D01*
X126083456Y-80630500D01*
X126150495Y-80650185D01*
X126171137Y-80666819D01*
X127224787Y-81720469D01*
X127250529Y-81735331D01*
X127292369Y-81759488D01*
X127304712Y-81766614D01*
X127393856Y-81790500D01*
X136843456Y-81790500D01*
X136910495Y-81810185D01*
X136931137Y-81826819D01*
X137213181Y-82108862D01*
X137246666Y-82170185D01*
X137249500Y-82196543D01*
X137249500Y-82272475D01*
X137283805Y-82400500D01*
X137287017Y-82412488D01*
X137359488Y-82538011D01*
X137359490Y-82538013D01*
X137359491Y-82538015D01*
X137461985Y-82640509D01*
X137461986Y-82640510D01*
X137461988Y-82640511D01*
X137587511Y-82712982D01*
X137587512Y-82712982D01*
X137587515Y-82712984D01*
X137727525Y-82750500D01*
X137727528Y-82750500D01*
X137872472Y-82750500D01*
X137872475Y-82750500D01*
X138012485Y-82712984D01*
X138138015Y-82640509D01*
X138240509Y-82538015D01*
X138312984Y-82412485D01*
X138350500Y-82272475D01*
X138350500Y-82127525D01*
X138312984Y-81987515D01*
X138308945Y-81980520D01*
X138240511Y-81861988D01*
X138240506Y-81861982D01*
X138138017Y-81759493D01*
X138138011Y-81759488D01*
X138012488Y-81687017D01*
X138012489Y-81687017D01*
X138001006Y-81683940D01*
X137872475Y-81649500D01*
X137872472Y-81649500D01*
X137796543Y-81649500D01*
X137729504Y-81629815D01*
X137708862Y-81613181D01*
X137487863Y-81392181D01*
X137454378Y-81330858D01*
X137459362Y-81261166D01*
X137501234Y-81205233D01*
X137566698Y-81180816D01*
X137575544Y-81180500D01*
X138633456Y-81180500D01*
X138700495Y-81200185D01*
X138721137Y-81216819D01*
X139413181Y-81908863D01*
X139446666Y-81970186D01*
X139449500Y-81996544D01*
X139449500Y-82072475D01*
X139487016Y-82212485D01*
X139487017Y-82212488D01*
X139559488Y-82338011D01*
X139559490Y-82338013D01*
X139559491Y-82338015D01*
X139661985Y-82440509D01*
X139661986Y-82440510D01*
X139661988Y-82440511D01*
X139787511Y-82512982D01*
X139787512Y-82512982D01*
X139787515Y-82512984D01*
X139927525Y-82550500D01*
X139927528Y-82550500D01*
X140072472Y-82550500D01*
X140072475Y-82550500D01*
X140212485Y-82512984D01*
X140338015Y-82440509D01*
X140440509Y-82338015D01*
X140512984Y-82212485D01*
X140550500Y-82072475D01*
X140550500Y-81927525D01*
X140512984Y-81787515D01*
X140502600Y-81769530D01*
X140440511Y-81661988D01*
X140440506Y-81661982D01*
X140338017Y-81559493D01*
X140338011Y-81559488D01*
X140212488Y-81487017D01*
X140212489Y-81487017D01*
X140201006Y-81483940D01*
X140072475Y-81449500D01*
X140072472Y-81449500D01*
X139996544Y-81449500D01*
X139929505Y-81429815D01*
X139908863Y-81413181D01*
X139057863Y-80562181D01*
X139024378Y-80500858D01*
X139029362Y-80431166D01*
X139071234Y-80375233D01*
X139136698Y-80350816D01*
X139145544Y-80350500D01*
X140303456Y-80350500D01*
X140370495Y-80370185D01*
X140391137Y-80386819D01*
X140663181Y-80658863D01*
X140696666Y-80720186D01*
X140699500Y-80746544D01*
X140699500Y-80822475D01*
X140735848Y-80958127D01*
X140737017Y-80962488D01*
X140809488Y-81088011D01*
X140809490Y-81088013D01*
X140809491Y-81088015D01*
X140911985Y-81190509D01*
X140911986Y-81190510D01*
X140911988Y-81190511D01*
X141037511Y-81262982D01*
X141037512Y-81262982D01*
X141037515Y-81262984D01*
X141177525Y-81300500D01*
X141177528Y-81300500D01*
X141322472Y-81300500D01*
X141322475Y-81300500D01*
X141462485Y-81262984D01*
X141588015Y-81190509D01*
X141690509Y-81088015D01*
X141762984Y-80962485D01*
X141800500Y-80822475D01*
X141800500Y-80677525D01*
X141762984Y-80537515D01*
X141724360Y-80470617D01*
X141690511Y-80411988D01*
X141690506Y-80411982D01*
X141588017Y-80309493D01*
X141588011Y-80309488D01*
X141462488Y-80237017D01*
X141462489Y-80237017D01*
X141451006Y-80233940D01*
X141322475Y-80199500D01*
X141322472Y-80199500D01*
X141246544Y-80199500D01*
X141179505Y-80179815D01*
X141158863Y-80163181D01*
X140715213Y-79719531D01*
X140715208Y-79719527D01*
X140635290Y-79673387D01*
X140635289Y-79673386D01*
X140635288Y-79673386D01*
X140546144Y-79649500D01*
X140546143Y-79649500D01*
X139359275Y-79649500D01*
X139292236Y-79629815D01*
X139246481Y-79577011D01*
X139236537Y-79507853D01*
X139265562Y-79444297D01*
X139290385Y-79422398D01*
X139407262Y-79344302D01*
X139449655Y-79315977D01*
X139595977Y-79169655D01*
X139710941Y-78997598D01*
X139790130Y-78806420D01*
X139830500Y-78603465D01*
X139830500Y-78396535D01*
X139790130Y-78193580D01*
X139710941Y-78002402D01*
X139595977Y-77830345D01*
X139595975Y-77830342D01*
X139449658Y-77684025D01*
X139449654Y-77684022D01*
X139372670Y-77632583D01*
X139327865Y-77578971D01*
X139319158Y-77509646D01*
X139349312Y-77446619D01*
X139353857Y-77441823D01*
X139708863Y-77086819D01*
X139770186Y-77053334D01*
X139796544Y-77050500D01*
X139872472Y-77050500D01*
X139872475Y-77050500D01*
X140012485Y-77012984D01*
X140138015Y-76940509D01*
X140240509Y-76838015D01*
X140240513Y-76838007D01*
X140245457Y-76831566D01*
X140247261Y-76832950D01*
X140263426Y-76817536D01*
X140287752Y-76793673D01*
X140288646Y-76793487D01*
X140289309Y-76792856D01*
X140322782Y-76786403D01*
X140356164Y-76779476D01*
X140357018Y-76779803D01*
X140357915Y-76779631D01*
X140389552Y-76792295D01*
X140421391Y-76804520D01*
X140422097Y-76805323D01*
X140422781Y-76805597D01*
X140446107Y-76829715D01*
X140450127Y-76835193D01*
X140509491Y-76938015D01*
X140569875Y-76998399D01*
X140575475Y-77006031D01*
X140584276Y-77030338D01*
X140596666Y-77053028D01*
X140598428Y-77069423D01*
X140599263Y-77071727D01*
X140598864Y-77073477D01*
X140599500Y-77079386D01*
X140599500Y-77683505D01*
X140579815Y-77750544D01*
X140563181Y-77771186D01*
X140504025Y-77830341D01*
X140504024Y-77830342D01*
X140389058Y-78002403D01*
X140309870Y-78193579D01*
X140309868Y-78193587D01*
X140269500Y-78396530D01*
X140269500Y-78603469D01*
X140307990Y-78796971D01*
X140309870Y-78806420D01*
X140389059Y-78997598D01*
X140446541Y-79083626D01*
X140504024Y-79169657D01*
X140650342Y-79315975D01*
X140650345Y-79315977D01*
X140822402Y-79430941D01*
X141013580Y-79510130D01*
X141216530Y-79550499D01*
X141216534Y-79550500D01*
X141216535Y-79550500D01*
X141423466Y-79550500D01*
X141423467Y-79550499D01*
X141626420Y-79510130D01*
X141817598Y-79430941D01*
X141989655Y-79315977D01*
X142135977Y-79169655D01*
X142250941Y-78997598D01*
X142330130Y-78806420D01*
X142370500Y-78603465D01*
X142370500Y-78396535D01*
X142330130Y-78193580D01*
X142250941Y-78002402D01*
X142135977Y-77830345D01*
X142135975Y-77830342D01*
X141989657Y-77684024D01*
X141900579Y-77624505D01*
X141817598Y-77569059D01*
X141816241Y-77568497D01*
X141626420Y-77489870D01*
X141626412Y-77489868D01*
X141423469Y-77449500D01*
X141417404Y-77448903D01*
X141417546Y-77447458D01*
X141415814Y-77446949D01*
X141406853Y-77448238D01*
X141382812Y-77437259D01*
X141357461Y-77429815D01*
X141351533Y-77422974D01*
X141343297Y-77419213D01*
X141329007Y-77396978D01*
X141311706Y-77377011D01*
X141309418Y-77366496D01*
X141305523Y-77360435D01*
X141300500Y-77325500D01*
X141300500Y-77079386D01*
X141320185Y-77012347D01*
X141336819Y-76991705D01*
X141390509Y-76938015D01*
X141460448Y-76816876D01*
X141511014Y-76768663D01*
X141579621Y-76755439D01*
X141644485Y-76781407D01*
X141655515Y-76791197D01*
X142852213Y-77987895D01*
X142885698Y-78049218D01*
X142880714Y-78118910D01*
X142879093Y-78123028D01*
X142849871Y-78193575D01*
X142849868Y-78193587D01*
X142809500Y-78396530D01*
X142809500Y-78603469D01*
X142847990Y-78796971D01*
X142849870Y-78806420D01*
X142929059Y-78997598D01*
X142986541Y-79083626D01*
X143044024Y-79169657D01*
X143190342Y-79315975D01*
X143190345Y-79315977D01*
X143362402Y-79430941D01*
X143553580Y-79510130D01*
X143756530Y-79550499D01*
X143756534Y-79550500D01*
X143756535Y-79550500D01*
X143963466Y-79550500D01*
X143963467Y-79550499D01*
X144166420Y-79510130D01*
X144357598Y-79430941D01*
X144529655Y-79315977D01*
X144675977Y-79169655D01*
X144790941Y-78997598D01*
X144870130Y-78806420D01*
X144910500Y-78603465D01*
X144910500Y-78396535D01*
X144870130Y-78193580D01*
X144790941Y-78002402D01*
X144675977Y-77830345D01*
X144675975Y-77830342D01*
X144529657Y-77684024D01*
X144440579Y-77624505D01*
X144357598Y-77569059D01*
X144356241Y-77568497D01*
X144166420Y-77489870D01*
X144166412Y-77489868D01*
X143963469Y-77449500D01*
X143963465Y-77449500D01*
X143756535Y-77449500D01*
X143756530Y-77449500D01*
X143553587Y-77489868D01*
X143553575Y-77489871D01*
X143483028Y-77519093D01*
X143413559Y-77526562D01*
X143351080Y-77495287D01*
X143347895Y-77492213D01*
X141935575Y-76079893D01*
X141902090Y-76018570D01*
X141907074Y-75948878D01*
X141948946Y-75892945D01*
X141961244Y-75884832D01*
X142017014Y-75852633D01*
X142084914Y-75836161D01*
X142150940Y-75859014D01*
X142186399Y-75898019D01*
X142209491Y-75938015D01*
X142311985Y-76040509D01*
X142311986Y-76040510D01*
X142311988Y-76040511D01*
X142437511Y-76112982D01*
X142437512Y-76112982D01*
X142437515Y-76112984D01*
X142577525Y-76150500D01*
X142577528Y-76150500D01*
X142722472Y-76150500D01*
X142722475Y-76150500D01*
X142862485Y-76112984D01*
X142988015Y-76040509D01*
X143090509Y-75938015D01*
X143162984Y-75812485D01*
X143200500Y-75672475D01*
X143200500Y-75527525D01*
X143162984Y-75387515D01*
X143147742Y-75361116D01*
X143090511Y-75261988D01*
X143090506Y-75261982D01*
X142988017Y-75159493D01*
X142988011Y-75159488D01*
X142855447Y-75082952D01*
X142856354Y-75081380D01*
X142828333Y-75062652D01*
X132836819Y-65071137D01*
X132803334Y-65009814D01*
X132800500Y-64983456D01*
X132800500Y-53785495D01*
X132820185Y-53718456D01*
X132872989Y-53672701D01*
X132942147Y-53662757D01*
X133005703Y-53691782D01*
X133012181Y-53697814D01*
X133030342Y-53715975D01*
X133030345Y-53715977D01*
X133202402Y-53830941D01*
X133393580Y-53910130D01*
X133510497Y-53933386D01*
X133596530Y-53950499D01*
X133596534Y-53950500D01*
X133596535Y-53950500D01*
X133803466Y-53950500D01*
X133803467Y-53950499D01*
X134006420Y-53910130D01*
X134197598Y-53830941D01*
X134369655Y-53715977D01*
X134402931Y-53682701D01*
X134437819Y-53647814D01*
X134499142Y-53614329D01*
X134568834Y-53619313D01*
X134624767Y-53661185D01*
X134649184Y-53726649D01*
X134649500Y-53735495D01*
X134649500Y-65946143D01*
X134673386Y-66035287D01*
X134673387Y-66035290D01*
X134719527Y-66115208D01*
X134719531Y-66115213D01*
X145962785Y-77358467D01*
X145996270Y-77419790D01*
X145991286Y-77489482D01*
X145949414Y-77545415D01*
X145922562Y-77560707D01*
X145902406Y-77569056D01*
X145902395Y-77569062D01*
X145730344Y-77684022D01*
X145584024Y-77830342D01*
X145469058Y-78002403D01*
X145389870Y-78193579D01*
X145389868Y-78193587D01*
X145349500Y-78396530D01*
X145349500Y-78603469D01*
X145387990Y-78796971D01*
X145389870Y-78806420D01*
X145469059Y-78997598D01*
X145526541Y-79083626D01*
X145584024Y-79169657D01*
X145730342Y-79315975D01*
X145730345Y-79315977D01*
X145902402Y-79430941D01*
X146093580Y-79510130D01*
X146296530Y-79550499D01*
X146296534Y-79550500D01*
X146296535Y-79550500D01*
X146503466Y-79550500D01*
X146503467Y-79550499D01*
X146706420Y-79510130D01*
X146897598Y-79430941D01*
X147069655Y-79315977D01*
X147215977Y-79169655D01*
X147330941Y-78997598D01*
X147410130Y-78806420D01*
X147450500Y-78603465D01*
X147450500Y-78396535D01*
X147450499Y-78396530D01*
X147889500Y-78396530D01*
X147889500Y-78603469D01*
X147927990Y-78796971D01*
X147929870Y-78806420D01*
X148009059Y-78997598D01*
X148066541Y-79083626D01*
X148124024Y-79169657D01*
X148270342Y-79315975D01*
X148270345Y-79315977D01*
X148442402Y-79430941D01*
X148633580Y-79510130D01*
X148836530Y-79550499D01*
X148836534Y-79550500D01*
X148836535Y-79550500D01*
X149043466Y-79550500D01*
X149043467Y-79550499D01*
X149246420Y-79510130D01*
X149437598Y-79430941D01*
X149609655Y-79315977D01*
X149755977Y-79169655D01*
X149870941Y-78997598D01*
X149950130Y-78806420D01*
X149990500Y-78603465D01*
X149990500Y-78396535D01*
X149950130Y-78193580D01*
X149870941Y-78002402D01*
X149755977Y-77830345D01*
X149755975Y-77830342D01*
X149609657Y-77684024D01*
X149520579Y-77624505D01*
X149437598Y-77569059D01*
X149436241Y-77568497D01*
X149246420Y-77489870D01*
X149246412Y-77489868D01*
X149043469Y-77449500D01*
X149043465Y-77449500D01*
X148836535Y-77449500D01*
X148836530Y-77449500D01*
X148633587Y-77489868D01*
X148633579Y-77489870D01*
X148442403Y-77569058D01*
X148270342Y-77684024D01*
X148124024Y-77830342D01*
X148009058Y-78002403D01*
X147929870Y-78193579D01*
X147929868Y-78193587D01*
X147889500Y-78396530D01*
X147450499Y-78396530D01*
X147410130Y-78193580D01*
X147330941Y-78002402D01*
X147215977Y-77830345D01*
X147215975Y-77830342D01*
X147069655Y-77684022D01*
X146897604Y-77569062D01*
X146897598Y-77569059D01*
X146861552Y-77554128D01*
X146827045Y-77539834D01*
X146772643Y-77495993D01*
X146750579Y-77429699D01*
X146750500Y-77425274D01*
X146750500Y-77253858D01*
X146750500Y-77253856D01*
X146726614Y-77164712D01*
X146715111Y-77144788D01*
X146680470Y-77084788D01*
X135386819Y-65791137D01*
X135353334Y-65729814D01*
X135350500Y-65703456D01*
X135350500Y-53795495D01*
X135370185Y-53728456D01*
X135422989Y-53682701D01*
X135492147Y-53672757D01*
X135555703Y-53701782D01*
X135562181Y-53707814D01*
X135570342Y-53715975D01*
X135570345Y-53715977D01*
X135742402Y-53830941D01*
X135933580Y-53910130D01*
X136050497Y-53933386D01*
X136136530Y-53950499D01*
X136136534Y-53950500D01*
X136136535Y-53950500D01*
X136343466Y-53950500D01*
X136343467Y-53950499D01*
X136546420Y-53910130D01*
X136737598Y-53830941D01*
X136909655Y-53715977D01*
X136944447Y-53681185D01*
X136987819Y-53637814D01*
X137049142Y-53604329D01*
X137118834Y-53609313D01*
X137174767Y-53651185D01*
X137199184Y-53716649D01*
X137199500Y-53725495D01*
X137199500Y-60996143D01*
X137217275Y-61062483D01*
X137223385Y-61085285D01*
X137223387Y-61085290D01*
X137269527Y-61165208D01*
X137269531Y-61165213D01*
X153506065Y-77401746D01*
X153539550Y-77463069D01*
X153534566Y-77532761D01*
X153492694Y-77588694D01*
X153487275Y-77592529D01*
X153350345Y-77684022D01*
X153290409Y-77743958D01*
X153261888Y-77759530D01*
X153234044Y-77776256D01*
X153231403Y-77776176D01*
X153229085Y-77777442D01*
X153196688Y-77775124D01*
X153164207Y-77774141D01*
X153162027Y-77772645D01*
X153159394Y-77772457D01*
X153133389Y-77752990D01*
X153106599Y-77734604D01*
X153105216Y-77731900D01*
X153103460Y-77730586D01*
X153088426Y-77704349D01*
X153085144Y-77696545D01*
X153076614Y-77664711D01*
X153062618Y-77640470D01*
X153030470Y-77584787D01*
X136636819Y-61191136D01*
X136603334Y-61129813D01*
X136600500Y-61103455D01*
X136600500Y-57114431D01*
X136620185Y-57047392D01*
X136655610Y-57011328D01*
X136664669Y-57005276D01*
X136755276Y-56914669D01*
X136826465Y-56808127D01*
X136875501Y-56689744D01*
X136900500Y-56564069D01*
X136900500Y-56435931D01*
X136900500Y-56435928D01*
X136875502Y-56310261D01*
X136875501Y-56310260D01*
X136875501Y-56310256D01*
X136826465Y-56191873D01*
X136826464Y-56191872D01*
X136826461Y-56191866D01*
X136755276Y-56085331D01*
X136755273Y-56085327D01*
X136664672Y-55994726D01*
X136664668Y-55994723D01*
X136558133Y-55923538D01*
X136558124Y-55923533D01*
X136439744Y-55874499D01*
X136439738Y-55874497D01*
X136314071Y-55849500D01*
X136314069Y-55849500D01*
X136185931Y-55849500D01*
X136185929Y-55849500D01*
X136060261Y-55874497D01*
X136060255Y-55874499D01*
X135941875Y-55923533D01*
X135941866Y-55923538D01*
X135835331Y-55994723D01*
X135835327Y-55994726D01*
X135744726Y-56085327D01*
X135744723Y-56085331D01*
X135673538Y-56191866D01*
X135673533Y-56191875D01*
X135624499Y-56310255D01*
X135624497Y-56310261D01*
X135599500Y-56435928D01*
X135599500Y-56435931D01*
X135599500Y-56564069D01*
X135599500Y-56564071D01*
X135599499Y-56564071D01*
X135624497Y-56689738D01*
X135624499Y-56689744D01*
X135673533Y-56808124D01*
X135673538Y-56808133D01*
X135744723Y-56914668D01*
X135744726Y-56914672D01*
X135835325Y-57005271D01*
X135835328Y-57005273D01*
X135835331Y-57005276D01*
X135844388Y-57011327D01*
X135889193Y-57064935D01*
X135899500Y-57114431D01*
X135899500Y-61346142D01*
X135914065Y-61400501D01*
X135923384Y-61435282D01*
X135923387Y-61435289D01*
X135969527Y-61515207D01*
X135969531Y-61515212D01*
X151694317Y-77239998D01*
X151727802Y-77301321D01*
X151722818Y-77371013D01*
X151680946Y-77426946D01*
X151615482Y-77451363D01*
X151589562Y-77449743D01*
X151589528Y-77450097D01*
X151583466Y-77449500D01*
X151583465Y-77449500D01*
X151376535Y-77449500D01*
X151376530Y-77449500D01*
X151173587Y-77489868D01*
X151173579Y-77489870D01*
X150982403Y-77569058D01*
X150810342Y-77684024D01*
X150664024Y-77830342D01*
X150549058Y-78002403D01*
X150469870Y-78193579D01*
X150469868Y-78193587D01*
X150429500Y-78396530D01*
X150429500Y-78603469D01*
X150467990Y-78796971D01*
X150469870Y-78806420D01*
X150549059Y-78997598D01*
X150606541Y-79083626D01*
X150664024Y-79169657D01*
X150810342Y-79315975D01*
X150810345Y-79315977D01*
X150982402Y-79430941D01*
X151173580Y-79510130D01*
X151376530Y-79550499D01*
X151376534Y-79550500D01*
X151376535Y-79550500D01*
X151583466Y-79550500D01*
X151583467Y-79550499D01*
X151786420Y-79510130D01*
X151977598Y-79430941D01*
X152149655Y-79315977D01*
X152167176Y-79298456D01*
X152187819Y-79277814D01*
X152249142Y-79244329D01*
X152318834Y-79249313D01*
X152374767Y-79291185D01*
X152399184Y-79356649D01*
X152399500Y-79365495D01*
X152399500Y-80746143D01*
X152411365Y-80790426D01*
X152415160Y-80804587D01*
X152423386Y-80835288D01*
X152424962Y-80838017D01*
X152469527Y-80915208D01*
X152469531Y-80915213D01*
X153517689Y-81963371D01*
X153551174Y-82024694D01*
X153551626Y-82075240D01*
X153549500Y-82085929D01*
X153549500Y-82085931D01*
X153549500Y-82214069D01*
X153549500Y-82214071D01*
X153549499Y-82214071D01*
X153574497Y-82339738D01*
X153574499Y-82339744D01*
X153623533Y-82458124D01*
X153623538Y-82458133D01*
X153694723Y-82564668D01*
X153694726Y-82564672D01*
X153785327Y-82655273D01*
X153785331Y-82655276D01*
X153891866Y-82726461D01*
X153891872Y-82726464D01*
X153891873Y-82726465D01*
X154010256Y-82775501D01*
X154010260Y-82775501D01*
X154010261Y-82775502D01*
X154135928Y-82800500D01*
X154135931Y-82800500D01*
X154264071Y-82800500D01*
X154348615Y-82783682D01*
X154389744Y-82775501D01*
X154508127Y-82726465D01*
X154614669Y-82655276D01*
X154705276Y-82564669D01*
X154776465Y-82458127D01*
X154825501Y-82339744D01*
X154850500Y-82214069D01*
X154850500Y-82085931D01*
X154850500Y-82085929D01*
X154850500Y-82085928D01*
X154825502Y-81960261D01*
X154825501Y-81960260D01*
X154825501Y-81960256D01*
X154776465Y-81841873D01*
X154776464Y-81841872D01*
X154776461Y-81841866D01*
X154705274Y-81735328D01*
X154614672Y-81644726D01*
X154614668Y-81644723D01*
X154508133Y-81573538D01*
X154508124Y-81573533D01*
X154389744Y-81524499D01*
X154389738Y-81524497D01*
X154264071Y-81499500D01*
X154264069Y-81499500D01*
X154135931Y-81499500D01*
X154135930Y-81499500D01*
X154125240Y-81501626D01*
X154055648Y-81495397D01*
X154013371Y-81467689D01*
X153136819Y-80591137D01*
X153103334Y-80529814D01*
X153100500Y-80503456D01*
X153100500Y-79365495D01*
X153120185Y-79298456D01*
X153172989Y-79252701D01*
X153242147Y-79242757D01*
X153305703Y-79271782D01*
X153312181Y-79277814D01*
X153350342Y-79315975D01*
X153350345Y-79315977D01*
X153522402Y-79430941D01*
X153713580Y-79510130D01*
X153916530Y-79550499D01*
X153916534Y-79550500D01*
X153916535Y-79550500D01*
X154123466Y-79550500D01*
X154123467Y-79550499D01*
X154326420Y-79510130D01*
X154517598Y-79430941D01*
X154689655Y-79315977D01*
X154707176Y-79298456D01*
X154737819Y-79267814D01*
X154799142Y-79234329D01*
X154868834Y-79239313D01*
X154924767Y-79281185D01*
X154949184Y-79346649D01*
X154949500Y-79355495D01*
X154949500Y-79846144D01*
X154963797Y-79899501D01*
X154973385Y-79935286D01*
X155019527Y-80015208D01*
X155019529Y-80015211D01*
X155019530Y-80015212D01*
X157334788Y-82330470D01*
X157408811Y-82373207D01*
X157414712Y-82376614D01*
X157503856Y-82400500D01*
X157503857Y-82400500D01*
X157596144Y-82400500D01*
X161625500Y-82400500D01*
X161692539Y-82420185D01*
X161738294Y-82472989D01*
X161749500Y-82524500D01*
X161749500Y-82564069D01*
X161749500Y-82564071D01*
X161749499Y-82564071D01*
X161774497Y-82689738D01*
X161774499Y-82689744D01*
X161823533Y-82808124D01*
X161823538Y-82808133D01*
X161894723Y-82914668D01*
X161894726Y-82914672D01*
X161985327Y-83005273D01*
X161985331Y-83005276D01*
X162091866Y-83076461D01*
X162091872Y-83076464D01*
X162091873Y-83076465D01*
X162210256Y-83125501D01*
X162210260Y-83125501D01*
X162210261Y-83125502D01*
X162335928Y-83150500D01*
X162335931Y-83150500D01*
X162464071Y-83150500D01*
X162548615Y-83133682D01*
X162589744Y-83125501D01*
X162708127Y-83076465D01*
X162814669Y-83005276D01*
X162905276Y-82914669D01*
X162976465Y-82808127D01*
X163025501Y-82689744D01*
X163050500Y-82564069D01*
X163050500Y-82435931D01*
X163050500Y-82435928D01*
X163025502Y-82310261D01*
X163025501Y-82310260D01*
X163025501Y-82310256D01*
X162985003Y-82212485D01*
X162976466Y-82191875D01*
X162976461Y-82191866D01*
X162905276Y-82085331D01*
X162905273Y-82085327D01*
X162814672Y-81994726D01*
X162814668Y-81994723D01*
X162708133Y-81923538D01*
X162708124Y-81923533D01*
X162589744Y-81874499D01*
X162589738Y-81874497D01*
X162464071Y-81849500D01*
X162464069Y-81849500D01*
X162335931Y-81849500D01*
X162335930Y-81849500D01*
X162325240Y-81851626D01*
X162255648Y-81845397D01*
X162213371Y-81817689D01*
X162165213Y-81769531D01*
X162165208Y-81769527D01*
X162085291Y-81723387D01*
X162085288Y-81723386D01*
X162084616Y-81723206D01*
X162084616Y-81723205D01*
X162015961Y-81704810D01*
X161996144Y-81699500D01*
X161996143Y-81699500D01*
X157746544Y-81699500D01*
X157679505Y-81679815D01*
X157658863Y-81663181D01*
X155686819Y-79691137D01*
X155672115Y-79664209D01*
X155655523Y-79638391D01*
X155654631Y-79632190D01*
X155653334Y-79629814D01*
X155650500Y-79603456D01*
X155650500Y-79375495D01*
X155670185Y-79308456D01*
X155722989Y-79262701D01*
X155792147Y-79252757D01*
X155855703Y-79281782D01*
X155862181Y-79287814D01*
X155890342Y-79315975D01*
X155890345Y-79315977D01*
X156062402Y-79430941D01*
X156253580Y-79510130D01*
X156456530Y-79550499D01*
X156456534Y-79550500D01*
X156456535Y-79550500D01*
X156663466Y-79550500D01*
X156663467Y-79550499D01*
X156866420Y-79510130D01*
X157057598Y-79430941D01*
X157229655Y-79315977D01*
X157375977Y-79169655D01*
X157490941Y-78997598D01*
X157570130Y-78806420D01*
X157610500Y-78603465D01*
X157610500Y-78396535D01*
X157570130Y-78193580D01*
X157490941Y-78002402D01*
X157375977Y-77830345D01*
X157375975Y-77830342D01*
X157229655Y-77684022D01*
X157057604Y-77569062D01*
X157057598Y-77569059D01*
X157021552Y-77554128D01*
X156987045Y-77539834D01*
X156932643Y-77495993D01*
X156910579Y-77429699D01*
X156910500Y-77425274D01*
X156910500Y-77313858D01*
X156910500Y-77313856D01*
X156886614Y-77224712D01*
X156868528Y-77193386D01*
X156840470Y-77144788D01*
X155686819Y-75991137D01*
X155653334Y-75929814D01*
X155650500Y-75903456D01*
X155650500Y-53775495D01*
X155670185Y-53708456D01*
X155722989Y-53662701D01*
X155792147Y-53652757D01*
X155855703Y-53681782D01*
X155862181Y-53687814D01*
X155890342Y-53715975D01*
X155890345Y-53715977D01*
X156062402Y-53830941D01*
X156253580Y-53910130D01*
X156370497Y-53933386D01*
X156456530Y-53950499D01*
X156456534Y-53950500D01*
X156456535Y-53950500D01*
X156663466Y-53950500D01*
X156663467Y-53950499D01*
X156866420Y-53910130D01*
X157057598Y-53830941D01*
X157229655Y-53715977D01*
X157257818Y-53687814D01*
X157287819Y-53657814D01*
X157349142Y-53624329D01*
X157418834Y-53629313D01*
X157474767Y-53671185D01*
X157499184Y-53736649D01*
X157499500Y-53745495D01*
X157499500Y-77296144D01*
X157513796Y-77349499D01*
X157513797Y-77349501D01*
X157523385Y-77385286D01*
X157569527Y-77465208D01*
X157569531Y-77465213D01*
X158092213Y-77987895D01*
X158125698Y-78049218D01*
X158120714Y-78118910D01*
X158119093Y-78123028D01*
X158089871Y-78193575D01*
X158089868Y-78193587D01*
X158049500Y-78396530D01*
X158049500Y-78603469D01*
X158087990Y-78796971D01*
X158089870Y-78806420D01*
X158169059Y-78997598D01*
X158226541Y-79083626D01*
X158284024Y-79169657D01*
X158430342Y-79315975D01*
X158430345Y-79315977D01*
X158602402Y-79430941D01*
X158793580Y-79510130D01*
X158996530Y-79550499D01*
X158996534Y-79550500D01*
X158996535Y-79550500D01*
X159203466Y-79550500D01*
X159203467Y-79550499D01*
X159406420Y-79510130D01*
X159597598Y-79430941D01*
X159769655Y-79315977D01*
X159915977Y-79169655D01*
X160030941Y-78997598D01*
X160110130Y-78806420D01*
X160150500Y-78603465D01*
X160150500Y-78396535D01*
X160150499Y-78396530D01*
X160589500Y-78396530D01*
X160589500Y-78603469D01*
X160627990Y-78796971D01*
X160629870Y-78806420D01*
X160709059Y-78997598D01*
X160766541Y-79083626D01*
X160824024Y-79169657D01*
X160970342Y-79315975D01*
X160970345Y-79315977D01*
X161142402Y-79430941D01*
X161333580Y-79510130D01*
X161536530Y-79550499D01*
X161536534Y-79550500D01*
X161536535Y-79550500D01*
X161743466Y-79550500D01*
X161743467Y-79550499D01*
X161946420Y-79510130D01*
X162137598Y-79430941D01*
X162309655Y-79315977D01*
X162455977Y-79169655D01*
X162570941Y-78997598D01*
X162650130Y-78806420D01*
X162690500Y-78603465D01*
X162690500Y-78396535D01*
X162690499Y-78396530D01*
X163129500Y-78396530D01*
X163129500Y-78603469D01*
X163167990Y-78796971D01*
X163169870Y-78806420D01*
X163249059Y-78997598D01*
X163306541Y-79083626D01*
X163364024Y-79169657D01*
X163510342Y-79315975D01*
X163510345Y-79315977D01*
X163682402Y-79430941D01*
X163873580Y-79510130D01*
X164076530Y-79550499D01*
X164076534Y-79550500D01*
X164076535Y-79550500D01*
X164283466Y-79550500D01*
X164283467Y-79550499D01*
X164486420Y-79510130D01*
X164677598Y-79430941D01*
X164849655Y-79315977D01*
X164995977Y-79169655D01*
X165110941Y-78997598D01*
X165190130Y-78806420D01*
X165230500Y-78603465D01*
X165230500Y-78396535D01*
X165230499Y-78396530D01*
X165669500Y-78396530D01*
X165669500Y-78603469D01*
X165707990Y-78796971D01*
X165709870Y-78806420D01*
X165789059Y-78997598D01*
X165846541Y-79083626D01*
X165904024Y-79169657D01*
X166050342Y-79315975D01*
X166050345Y-79315977D01*
X166222402Y-79430941D01*
X166413580Y-79510130D01*
X166616530Y-79550499D01*
X166616534Y-79550500D01*
X166616535Y-79550500D01*
X166823466Y-79550500D01*
X166823467Y-79550499D01*
X167026420Y-79510130D01*
X167217598Y-79430941D01*
X167389655Y-79315977D01*
X167535977Y-79169655D01*
X167650941Y-78997598D01*
X167730130Y-78806420D01*
X167770500Y-78603465D01*
X167770500Y-78396535D01*
X167730130Y-78193580D01*
X167650941Y-78002402D01*
X167535977Y-77830345D01*
X167535975Y-77830342D01*
X167389657Y-77684024D01*
X167300579Y-77624505D01*
X167217598Y-77569059D01*
X167216241Y-77568497D01*
X167026420Y-77489870D01*
X167026412Y-77489868D01*
X166823469Y-77449500D01*
X166823465Y-77449500D01*
X166616535Y-77449500D01*
X166616530Y-77449500D01*
X166413587Y-77489868D01*
X166413579Y-77489870D01*
X166222403Y-77569058D01*
X166050342Y-77684024D01*
X165904024Y-77830342D01*
X165789058Y-78002403D01*
X165709870Y-78193579D01*
X165709868Y-78193587D01*
X165669500Y-78396530D01*
X165230499Y-78396530D01*
X165190130Y-78193580D01*
X165110941Y-78002402D01*
X164995977Y-77830345D01*
X164995975Y-77830342D01*
X164849657Y-77684024D01*
X164760579Y-77624505D01*
X164677598Y-77569059D01*
X164676241Y-77568497D01*
X164486420Y-77489870D01*
X164486412Y-77489868D01*
X164283469Y-77449500D01*
X164283465Y-77449500D01*
X164076535Y-77449500D01*
X164076530Y-77449500D01*
X163873587Y-77489868D01*
X163873579Y-77489870D01*
X163682403Y-77569058D01*
X163510342Y-77684024D01*
X163364024Y-77830342D01*
X163249058Y-78002403D01*
X163169870Y-78193579D01*
X163169868Y-78193587D01*
X163129500Y-78396530D01*
X162690499Y-78396530D01*
X162650130Y-78193580D01*
X162570941Y-78002402D01*
X162455977Y-77830345D01*
X162455975Y-77830342D01*
X162309657Y-77684024D01*
X162220579Y-77624505D01*
X162137598Y-77569059D01*
X162136241Y-77568497D01*
X161946420Y-77489870D01*
X161946412Y-77489868D01*
X161743469Y-77449500D01*
X161743465Y-77449500D01*
X161536535Y-77449500D01*
X161536530Y-77449500D01*
X161333587Y-77489868D01*
X161333579Y-77489870D01*
X161142403Y-77569058D01*
X160970342Y-77684024D01*
X160824024Y-77830342D01*
X160709058Y-78002403D01*
X160629870Y-78193579D01*
X160629868Y-78193587D01*
X160589500Y-78396530D01*
X160150499Y-78396530D01*
X160110130Y-78193580D01*
X160030941Y-78002402D01*
X159915977Y-77830345D01*
X159915975Y-77830342D01*
X159769657Y-77684024D01*
X159680579Y-77624505D01*
X159597598Y-77569059D01*
X159596241Y-77568497D01*
X159406420Y-77489870D01*
X159406412Y-77489868D01*
X159203469Y-77449500D01*
X159203465Y-77449500D01*
X158996535Y-77449500D01*
X158996530Y-77449500D01*
X158793587Y-77489868D01*
X158793575Y-77489871D01*
X158723028Y-77519093D01*
X158653559Y-77526562D01*
X158591080Y-77495287D01*
X158587895Y-77492213D01*
X158236819Y-77141137D01*
X158203334Y-77079814D01*
X158200500Y-77053456D01*
X158200500Y-53785495D01*
X158220185Y-53718456D01*
X158272989Y-53672701D01*
X158342147Y-53662757D01*
X158405703Y-53691782D01*
X158412181Y-53697814D01*
X158430342Y-53715975D01*
X158430345Y-53715977D01*
X158602402Y-53830941D01*
X158793580Y-53910130D01*
X158910497Y-53933386D01*
X158996530Y-53950499D01*
X158996534Y-53950500D01*
X158996535Y-53950500D01*
X159203466Y-53950500D01*
X159203467Y-53950499D01*
X159406420Y-53910130D01*
X159597598Y-53830941D01*
X159769655Y-53715977D01*
X159915977Y-53569655D01*
X160030941Y-53397598D01*
X160110130Y-53206420D01*
X160150500Y-53003465D01*
X160150500Y-52796535D01*
X160150499Y-52796530D01*
X160589500Y-52796530D01*
X160589500Y-53003469D01*
X160629868Y-53206412D01*
X160629870Y-53206420D01*
X160700499Y-53376934D01*
X160709059Y-53397598D01*
X160740500Y-53444653D01*
X160824024Y-53569657D01*
X160970342Y-53715975D01*
X160970345Y-53715977D01*
X161142402Y-53830941D01*
X161333580Y-53910130D01*
X161450497Y-53933386D01*
X161536530Y-53950499D01*
X161536534Y-53950500D01*
X161536535Y-53950500D01*
X161743466Y-53950500D01*
X161743467Y-53950499D01*
X161946420Y-53910130D01*
X162137598Y-53830941D01*
X162309655Y-53715977D01*
X162455977Y-53569655D01*
X162570941Y-53397598D01*
X162650130Y-53206420D01*
X162690500Y-53003465D01*
X162690500Y-52796535D01*
X162690499Y-52796530D01*
X163129500Y-52796530D01*
X163129500Y-53003469D01*
X163169868Y-53206412D01*
X163169870Y-53206420D01*
X163240499Y-53376934D01*
X163249059Y-53397598D01*
X163280500Y-53444653D01*
X163364024Y-53569657D01*
X163510342Y-53715975D01*
X163510345Y-53715977D01*
X163682402Y-53830941D01*
X163873580Y-53910130D01*
X163990497Y-53933386D01*
X164076530Y-53950499D01*
X164076534Y-53950500D01*
X164076535Y-53950500D01*
X164283466Y-53950500D01*
X164283467Y-53950499D01*
X164486420Y-53910130D01*
X164677598Y-53830941D01*
X164849655Y-53715977D01*
X164995977Y-53569655D01*
X165110941Y-53397598D01*
X165190130Y-53206420D01*
X165230500Y-53003465D01*
X165230500Y-52796535D01*
X165230499Y-52796530D01*
X165669500Y-52796530D01*
X165669500Y-53003469D01*
X165709868Y-53206412D01*
X165709870Y-53206420D01*
X165780499Y-53376934D01*
X165789059Y-53397598D01*
X165820500Y-53444653D01*
X165904024Y-53569657D01*
X166050342Y-53715975D01*
X166050345Y-53715977D01*
X166222402Y-53830941D01*
X166413580Y-53910130D01*
X166530497Y-53933386D01*
X166616530Y-53950499D01*
X166616534Y-53950500D01*
X166616535Y-53950500D01*
X166823466Y-53950500D01*
X166823467Y-53950499D01*
X167026420Y-53910130D01*
X167217598Y-53830941D01*
X167356610Y-53738056D01*
X167423287Y-53717179D01*
X167490667Y-53735664D01*
X167537357Y-53787643D01*
X167549500Y-53841159D01*
X167549500Y-55059309D01*
X167553839Y-55075501D01*
X167569698Y-55134690D01*
X167569705Y-55134713D01*
X167569708Y-55134724D01*
X167580201Y-55173887D01*
X167639511Y-55276614D01*
X167639513Y-55276616D01*
X168513181Y-56150284D01*
X168546666Y-56211607D01*
X168549500Y-56237965D01*
X168549500Y-77673505D01*
X168529815Y-77740544D01*
X168513181Y-77761186D01*
X168444025Y-77830341D01*
X168444024Y-77830342D01*
X168329058Y-78002403D01*
X168249870Y-78193579D01*
X168249868Y-78193587D01*
X168209500Y-78396530D01*
X168209500Y-78603469D01*
X168247990Y-78796971D01*
X168249870Y-78806420D01*
X168329059Y-78997598D01*
X168386541Y-79083626D01*
X168444024Y-79169657D01*
X168590342Y-79315975D01*
X168590345Y-79315977D01*
X168762402Y-79430941D01*
X168953580Y-79510130D01*
X169156530Y-79550499D01*
X169156534Y-79550500D01*
X169156535Y-79550500D01*
X169363466Y-79550500D01*
X169363467Y-79550499D01*
X169566420Y-79510130D01*
X169757598Y-79430941D01*
X169929655Y-79315977D01*
X170075977Y-79169655D01*
X170190941Y-78997598D01*
X170270130Y-78806420D01*
X170310500Y-78603465D01*
X170310500Y-78396535D01*
X170270130Y-78193580D01*
X170190941Y-78002402D01*
X170075977Y-77830345D01*
X170075975Y-77830342D01*
X169929657Y-77684024D01*
X169840579Y-77624505D01*
X169757598Y-77569059D01*
X169756241Y-77568497D01*
X169566420Y-77489870D01*
X169550304Y-77486664D01*
X169488395Y-77454276D01*
X169453823Y-77393559D01*
X169450500Y-77365047D01*
X169450500Y-55940693D01*
X169450500Y-55940691D01*
X169419799Y-55826114D01*
X169401597Y-55794587D01*
X169360490Y-55723387D01*
X168486819Y-54849716D01*
X168453334Y-54788393D01*
X168450500Y-54762035D01*
X168450500Y-50497964D01*
X168470185Y-50430925D01*
X168486815Y-50410287D01*
X168893680Y-50003421D01*
X168955001Y-49969938D01*
X169005548Y-49969487D01*
X169079972Y-49984291D01*
X169161457Y-50000500D01*
X169161459Y-50000500D01*
X169358543Y-50000500D01*
X169489250Y-49974500D01*
X169551835Y-49962051D01*
X169733914Y-49886632D01*
X169897782Y-49777139D01*
X170037139Y-49637782D01*
X170146632Y-49473914D01*
X170222051Y-49291835D01*
X170238702Y-49208124D01*
X170260500Y-49098543D01*
X170260500Y-48901456D01*
X170222052Y-48708170D01*
X170222051Y-48708169D01*
X170222051Y-48708165D01*
X170219639Y-48702342D01*
X170146635Y-48526092D01*
X170146628Y-48526079D01*
X170037139Y-48362218D01*
X170037136Y-48362214D01*
X169897785Y-48222863D01*
X169897781Y-48222860D01*
X169733920Y-48113371D01*
X169733907Y-48113364D01*
X169551839Y-48037950D01*
X169551829Y-48037947D01*
X169358543Y-47999500D01*
X169358541Y-47999500D01*
X169161459Y-47999500D01*
X169161457Y-47999500D01*
X168968170Y-48037947D01*
X168968160Y-48037950D01*
X168786092Y-48113364D01*
X168786079Y-48113371D01*
X168622218Y-48222860D01*
X168622214Y-48222863D01*
X168482863Y-48362214D01*
X168482860Y-48362218D01*
X168373371Y-48526079D01*
X168373364Y-48526092D01*
X168297950Y-48708160D01*
X168297947Y-48708170D01*
X168259500Y-48901456D01*
X168259500Y-49098545D01*
X168290511Y-49254448D01*
X168284284Y-49324039D01*
X168256575Y-49366320D01*
X167732181Y-49890715D01*
X167712744Y-49901327D01*
X167696011Y-49915828D01*
X167682679Y-49917744D01*
X167670858Y-49924200D01*
X167648771Y-49922620D01*
X167626853Y-49925772D01*
X167614601Y-49920176D01*
X167601167Y-49919216D01*
X167583440Y-49905946D01*
X167563297Y-49896747D01*
X167556015Y-49885416D01*
X167545233Y-49877345D01*
X167537494Y-49856597D01*
X167525523Y-49837969D01*
X167522371Y-49816050D01*
X167520816Y-49811880D01*
X167520500Y-49803034D01*
X167520500Y-49640434D01*
X167540185Y-49573395D01*
X167541398Y-49571543D01*
X167553485Y-49553454D01*
X167606632Y-49473914D01*
X167682051Y-49291835D01*
X167698702Y-49208124D01*
X167720500Y-49098543D01*
X167720500Y-48901456D01*
X167682052Y-48708170D01*
X167682051Y-48708169D01*
X167682051Y-48708165D01*
X167679639Y-48702342D01*
X167606635Y-48526092D01*
X167606628Y-48526079D01*
X167497139Y-48362218D01*
X167497136Y-48362214D01*
X167357785Y-48222863D01*
X167357781Y-48222860D01*
X167193920Y-48113371D01*
X167193907Y-48113364D01*
X167011839Y-48037950D01*
X167011829Y-48037947D01*
X166818543Y-47999500D01*
X166818541Y-47999500D01*
X166621459Y-47999500D01*
X166621457Y-47999500D01*
X166428170Y-48037947D01*
X166428160Y-48037950D01*
X166246092Y-48113364D01*
X166246079Y-48113371D01*
X166082218Y-48222860D01*
X166082214Y-48222863D01*
X165942863Y-48362214D01*
X165942860Y-48362218D01*
X165833371Y-48526079D01*
X165833364Y-48526092D01*
X165757950Y-48708160D01*
X165757947Y-48708170D01*
X165719500Y-48901456D01*
X165719500Y-48901459D01*
X165719500Y-49098541D01*
X165719500Y-49098543D01*
X165719499Y-49098543D01*
X165757947Y-49291829D01*
X165757950Y-49291839D01*
X165833364Y-49473907D01*
X165833371Y-49473919D01*
X165898602Y-49571543D01*
X165919480Y-49638220D01*
X165919500Y-49640434D01*
X165919500Y-52169566D01*
X165899815Y-52236605D01*
X165898603Y-52238456D01*
X165789058Y-52402403D01*
X165709870Y-52593579D01*
X165709868Y-52593587D01*
X165669500Y-52796530D01*
X165230499Y-52796530D01*
X165190130Y-52593580D01*
X165110941Y-52402402D01*
X165001397Y-52238456D01*
X164980520Y-52171778D01*
X164980500Y-52169566D01*
X164980500Y-49640434D01*
X165000185Y-49573395D01*
X165001398Y-49571543D01*
X165013485Y-49553454D01*
X165066632Y-49473914D01*
X165142051Y-49291835D01*
X165158702Y-49208124D01*
X165180500Y-49098543D01*
X165180500Y-48901456D01*
X165142052Y-48708170D01*
X165142051Y-48708169D01*
X165142051Y-48708165D01*
X165139639Y-48702342D01*
X165066635Y-48526092D01*
X165066628Y-48526079D01*
X164957139Y-48362218D01*
X164957136Y-48362214D01*
X164817785Y-48222863D01*
X164817781Y-48222860D01*
X164653920Y-48113371D01*
X164653907Y-48113364D01*
X164471839Y-48037950D01*
X164471829Y-48037947D01*
X164278543Y-47999500D01*
X164278541Y-47999500D01*
X164081459Y-47999500D01*
X164081457Y-47999500D01*
X163888170Y-48037947D01*
X163888160Y-48037950D01*
X163706092Y-48113364D01*
X163706079Y-48113371D01*
X163542218Y-48222860D01*
X163542214Y-48222863D01*
X163402863Y-48362214D01*
X163402860Y-48362218D01*
X163293371Y-48526079D01*
X163293364Y-48526092D01*
X163217950Y-48708160D01*
X163217947Y-48708170D01*
X163179500Y-48901456D01*
X163179500Y-48901459D01*
X163179500Y-49098541D01*
X163179500Y-49098543D01*
X163179499Y-49098543D01*
X163217947Y-49291829D01*
X163217950Y-49291839D01*
X163293364Y-49473907D01*
X163293371Y-49473919D01*
X163358602Y-49571543D01*
X163379480Y-49638220D01*
X163379500Y-49640434D01*
X163379500Y-52169566D01*
X163359815Y-52236605D01*
X163358603Y-52238456D01*
X163249058Y-52402403D01*
X163169870Y-52593579D01*
X163169868Y-52593587D01*
X163129500Y-52796530D01*
X162690499Y-52796530D01*
X162650130Y-52593580D01*
X162570941Y-52402402D01*
X162461397Y-52238456D01*
X162440520Y-52171778D01*
X162440500Y-52169566D01*
X162440500Y-49640434D01*
X162460185Y-49573395D01*
X162461398Y-49571543D01*
X162473485Y-49553454D01*
X162526632Y-49473914D01*
X162602051Y-49291835D01*
X162618702Y-49208124D01*
X162640500Y-49098543D01*
X162640500Y-48901456D01*
X162602052Y-48708170D01*
X162602051Y-48708169D01*
X162602051Y-48708165D01*
X162599639Y-48702342D01*
X162526635Y-48526092D01*
X162526628Y-48526079D01*
X162417139Y-48362218D01*
X162417136Y-48362214D01*
X162277785Y-48222863D01*
X162277781Y-48222860D01*
X162113920Y-48113371D01*
X162113907Y-48113364D01*
X161931839Y-48037950D01*
X161931829Y-48037947D01*
X161738543Y-47999500D01*
X161738541Y-47999500D01*
X161541459Y-47999500D01*
X161541457Y-47999500D01*
X161348170Y-48037947D01*
X161348160Y-48037950D01*
X161166092Y-48113364D01*
X161166079Y-48113371D01*
X161002218Y-48222860D01*
X161002214Y-48222863D01*
X160862863Y-48362214D01*
X160862860Y-48362218D01*
X160753371Y-48526079D01*
X160753364Y-48526092D01*
X160677950Y-48708160D01*
X160677947Y-48708170D01*
X160639500Y-48901456D01*
X160639500Y-48901459D01*
X160639500Y-49098541D01*
X160639500Y-49098543D01*
X160639499Y-49098543D01*
X160677947Y-49291829D01*
X160677950Y-49291839D01*
X160753364Y-49473907D01*
X160753371Y-49473919D01*
X160818602Y-49571543D01*
X160839480Y-49638220D01*
X160839500Y-49640434D01*
X160839500Y-52169566D01*
X160819815Y-52236605D01*
X160818603Y-52238456D01*
X160709058Y-52402403D01*
X160629870Y-52593579D01*
X160629868Y-52593587D01*
X160589500Y-52796530D01*
X160150499Y-52796530D01*
X160110130Y-52593580D01*
X160030941Y-52402402D01*
X159921397Y-52238456D01*
X159900520Y-52171778D01*
X159900500Y-52169566D01*
X159900500Y-49640434D01*
X159920185Y-49573395D01*
X159921398Y-49571543D01*
X159933485Y-49553454D01*
X159986632Y-49473914D01*
X160062051Y-49291835D01*
X160078702Y-49208124D01*
X160100500Y-49098543D01*
X160100500Y-48901456D01*
X160062052Y-48708170D01*
X160062051Y-48708169D01*
X160062051Y-48708165D01*
X160059639Y-48702342D01*
X159986635Y-48526092D01*
X159986628Y-48526079D01*
X159877139Y-48362218D01*
X159877136Y-48362214D01*
X159737785Y-48222863D01*
X159737781Y-48222860D01*
X159573920Y-48113371D01*
X159573907Y-48113364D01*
X159391839Y-48037950D01*
X159391829Y-48037947D01*
X159198543Y-47999500D01*
X159198541Y-47999500D01*
X159001459Y-47999500D01*
X159001457Y-47999500D01*
X158808170Y-48037947D01*
X158808160Y-48037950D01*
X158626092Y-48113364D01*
X158626079Y-48113371D01*
X158462218Y-48222860D01*
X158462214Y-48222863D01*
X158412181Y-48272897D01*
X158350858Y-48306382D01*
X158281166Y-48301398D01*
X158225233Y-48259526D01*
X158205336Y-48219507D01*
X158200500Y-48202701D01*
X158200500Y-48153856D01*
X158176614Y-48064712D01*
X158152651Y-48023207D01*
X158130470Y-47984788D01*
X154365212Y-44219530D01*
X154365211Y-44219529D01*
X154365208Y-44219527D01*
X154285290Y-44173387D01*
X154285289Y-44173386D01*
X154285288Y-44173386D01*
X154196144Y-44149500D01*
X154196143Y-44149500D01*
X111471544Y-44149500D01*
X111404505Y-44129815D01*
X111383863Y-44113181D01*
X111232863Y-43962181D01*
X111199378Y-43900858D01*
X111204362Y-43831166D01*
X111246234Y-43775233D01*
X111311698Y-43750816D01*
X111320544Y-43750500D01*
X111478543Y-43750500D01*
X111612930Y-43723768D01*
X111671835Y-43712051D01*
X111833405Y-43645127D01*
X111853907Y-43636635D01*
X111853907Y-43636634D01*
X111853914Y-43636632D01*
X112017782Y-43527139D01*
X112157139Y-43387782D01*
X112266632Y-43223914D01*
X112287340Y-43173920D01*
X115449499Y-43173920D01*
X115478340Y-43318907D01*
X115478343Y-43318917D01*
X115534912Y-43455488D01*
X115534919Y-43455501D01*
X115617048Y-43578415D01*
X115617051Y-43578419D01*
X115721580Y-43682948D01*
X115721584Y-43682951D01*
X115844498Y-43765080D01*
X115844511Y-43765087D01*
X115981082Y-43821656D01*
X115981087Y-43821658D01*
X115981091Y-43821658D01*
X115981092Y-43821659D01*
X116126079Y-43850500D01*
X116126082Y-43850500D01*
X116273920Y-43850500D01*
X116380374Y-43829324D01*
X116418913Y-43821658D01*
X116555495Y-43765084D01*
X116678416Y-43682951D01*
X116782951Y-43578416D01*
X116865084Y-43455495D01*
X116907200Y-43353818D01*
X116918289Y-43327047D01*
X116962130Y-43272644D01*
X117028424Y-43250579D01*
X117032850Y-43250500D01*
X124007150Y-43250500D01*
X124074189Y-43270185D01*
X124119944Y-43322989D01*
X124121711Y-43327047D01*
X124174914Y-43455492D01*
X124174919Y-43455501D01*
X124257048Y-43578415D01*
X124257051Y-43578419D01*
X124361580Y-43682948D01*
X124361584Y-43682951D01*
X124484498Y-43765080D01*
X124484511Y-43765087D01*
X124621082Y-43821656D01*
X124621087Y-43821658D01*
X124621091Y-43821658D01*
X124621092Y-43821659D01*
X124766079Y-43850500D01*
X124766082Y-43850500D01*
X124913920Y-43850500D01*
X125020374Y-43829324D01*
X125058913Y-43821658D01*
X125195495Y-43765084D01*
X125318416Y-43682951D01*
X125422951Y-43578416D01*
X125505084Y-43455495D01*
X125561658Y-43318913D01*
X125575267Y-43250500D01*
X125590500Y-43173920D01*
X125590500Y-42426079D01*
X125561659Y-42281092D01*
X125561658Y-42281091D01*
X125561658Y-42281087D01*
X125559970Y-42277011D01*
X125505087Y-42144511D01*
X125505080Y-42144498D01*
X125422951Y-42021584D01*
X125422948Y-42021580D01*
X125318419Y-41917051D01*
X125318415Y-41917048D01*
X125195501Y-41834919D01*
X125195488Y-41834912D01*
X125058917Y-41778343D01*
X125058907Y-41778340D01*
X124913920Y-41749500D01*
X124913918Y-41749500D01*
X124766082Y-41749500D01*
X124766080Y-41749500D01*
X124621092Y-41778340D01*
X124621082Y-41778343D01*
X124484511Y-41834912D01*
X124484498Y-41834919D01*
X124361584Y-41917048D01*
X124361580Y-41917051D01*
X124257051Y-42021580D01*
X124257048Y-42021584D01*
X124174919Y-42144498D01*
X124174914Y-42144507D01*
X124121711Y-42272953D01*
X124077870Y-42327356D01*
X124011576Y-42349421D01*
X124007150Y-42349500D01*
X117032850Y-42349500D01*
X116965811Y-42329815D01*
X116920056Y-42277011D01*
X116918289Y-42272953D01*
X116865085Y-42144507D01*
X116865080Y-42144498D01*
X116782951Y-42021584D01*
X116782948Y-42021580D01*
X116678419Y-41917051D01*
X116678415Y-41917048D01*
X116555501Y-41834919D01*
X116555488Y-41834912D01*
X116418917Y-41778343D01*
X116418907Y-41778340D01*
X116273920Y-41749500D01*
X116273918Y-41749500D01*
X116126082Y-41749500D01*
X116126080Y-41749500D01*
X115981092Y-41778340D01*
X115981082Y-41778343D01*
X115844511Y-41834912D01*
X115844498Y-41834919D01*
X115721584Y-41917048D01*
X115721580Y-41917051D01*
X115617051Y-42021580D01*
X115617048Y-42021584D01*
X115534919Y-42144498D01*
X115534912Y-42144511D01*
X115478343Y-42281082D01*
X115478340Y-42281092D01*
X115449500Y-42426079D01*
X115449500Y-42426082D01*
X115449500Y-43173918D01*
X115449500Y-43173920D01*
X115449499Y-43173920D01*
X112287340Y-43173920D01*
X112342051Y-43041835D01*
X112380500Y-42848541D01*
X112380500Y-42651459D01*
X112380500Y-42651456D01*
X112342053Y-42458174D01*
X112342052Y-42458170D01*
X112342051Y-42458165D01*
X112290931Y-42334750D01*
X112266635Y-42276092D01*
X112266628Y-42276079D01*
X112157139Y-42112218D01*
X112157136Y-42112214D01*
X112017785Y-41972863D01*
X112017781Y-41972860D01*
X111853920Y-41863371D01*
X111853907Y-41863364D01*
X111671839Y-41787950D01*
X111671829Y-41787947D01*
X111478543Y-41749500D01*
X111478541Y-41749500D01*
X111281459Y-41749500D01*
X111281457Y-41749500D01*
X111088170Y-41787947D01*
X111088160Y-41787950D01*
X110906092Y-41863364D01*
X110906079Y-41863371D01*
X110742218Y-41972860D01*
X110742214Y-41972863D01*
X110662181Y-42052897D01*
X110600858Y-42086382D01*
X110531166Y-42081398D01*
X110475233Y-42039526D01*
X110450816Y-41974062D01*
X110450500Y-41965216D01*
X110450500Y-41853858D01*
X110450500Y-41853856D01*
X110426614Y-41764712D01*
X110425887Y-41763453D01*
X110409627Y-41735289D01*
X110409625Y-41735287D01*
X110380470Y-41684788D01*
X109920863Y-41225181D01*
X109887378Y-41163858D01*
X109892362Y-41094166D01*
X109934234Y-41038233D01*
X109999698Y-41013816D01*
X110008544Y-41013500D01*
X154216456Y-41013500D01*
X154283495Y-41033185D01*
X154304137Y-41049819D01*
X159667689Y-46413371D01*
X159701174Y-46474694D01*
X159701626Y-46525240D01*
X159699500Y-46535929D01*
X159699500Y-46535931D01*
X159699500Y-46664069D01*
X159699500Y-46664071D01*
X159699499Y-46664071D01*
X159724497Y-46789738D01*
X159724499Y-46789744D01*
X159773533Y-46908124D01*
X159773538Y-46908133D01*
X159844723Y-47014668D01*
X159844726Y-47014672D01*
X159935327Y-47105273D01*
X159935331Y-47105276D01*
X160041866Y-47176461D01*
X160041872Y-47176464D01*
X160041873Y-47176465D01*
X160160256Y-47225501D01*
X160160260Y-47225501D01*
X160160261Y-47225502D01*
X160285928Y-47250500D01*
X160285931Y-47250500D01*
X160414071Y-47250500D01*
X160498615Y-47233682D01*
X160539744Y-47225501D01*
X160658127Y-47176465D01*
X160764669Y-47105276D01*
X160855276Y-47014669D01*
X160926465Y-46908127D01*
X160975501Y-46789744D01*
X160996074Y-46686321D01*
X161000500Y-46664071D01*
X161000500Y-46535928D01*
X160975502Y-46410261D01*
X160975501Y-46410260D01*
X160975501Y-46410256D01*
X160926465Y-46291873D01*
X160926464Y-46291872D01*
X160926461Y-46291866D01*
X160855276Y-46185331D01*
X160855273Y-46185327D01*
X160764672Y-46094726D01*
X160764668Y-46094723D01*
X160658133Y-46023538D01*
X160658124Y-46023533D01*
X160539744Y-45974499D01*
X160539738Y-45974497D01*
X160414071Y-45949500D01*
X160414069Y-45949500D01*
X160285931Y-45949500D01*
X160285930Y-45949500D01*
X160275240Y-45951626D01*
X160205648Y-45945397D01*
X160163371Y-45917689D01*
X154969863Y-40724181D01*
X154936378Y-40662858D01*
X154941362Y-40593166D01*
X154983234Y-40537233D01*
X155048698Y-40512816D01*
X155057544Y-40512500D01*
X173180500Y-40512500D01*
X173247539Y-40532185D01*
X173293294Y-40584989D01*
X173304500Y-40636500D01*
X173304500Y-91587500D01*
X173284815Y-91654539D01*
X173232011Y-91700294D01*
X173180500Y-91711500D01*
X84929500Y-91711500D01*
X84862461Y-91691815D01*
X84816706Y-91639011D01*
X84805500Y-91587500D01*
X84805500Y-88068995D01*
X89074499Y-88068995D01*
X89101418Y-88204322D01*
X89101421Y-88204332D01*
X89154221Y-88331804D01*
X89154228Y-88331817D01*
X89230885Y-88446541D01*
X89230888Y-88446545D01*
X89328454Y-88544111D01*
X89328458Y-88544114D01*
X89443182Y-88620771D01*
X89443195Y-88620778D01*
X89570667Y-88673578D01*
X89570672Y-88673580D01*
X89570676Y-88673580D01*
X89570677Y-88673581D01*
X89706004Y-88700500D01*
X89706007Y-88700500D01*
X89843995Y-88700500D01*
X89935041Y-88682389D01*
X89979328Y-88673580D01*
X90106811Y-88620775D01*
X90221542Y-88544114D01*
X90319114Y-88446542D01*
X90395775Y-88331811D01*
X90448580Y-88204328D01*
X90475500Y-88068995D01*
X97074499Y-88068995D01*
X97101418Y-88204322D01*
X97101421Y-88204332D01*
X97154221Y-88331804D01*
X97154228Y-88331817D01*
X97230885Y-88446541D01*
X97230888Y-88446545D01*
X97328454Y-88544111D01*
X97328458Y-88544114D01*
X97443182Y-88620771D01*
X97443195Y-88620778D01*
X97570667Y-88673578D01*
X97570672Y-88673580D01*
X97570676Y-88673580D01*
X97570677Y-88673581D01*
X97706004Y-88700500D01*
X97706007Y-88700500D01*
X97843995Y-88700500D01*
X97935041Y-88682389D01*
X97979328Y-88673580D01*
X98106811Y-88620775D01*
X98221542Y-88544114D01*
X98319114Y-88446542D01*
X98395775Y-88331811D01*
X98448580Y-88204328D01*
X98475500Y-88068993D01*
X98475500Y-87931007D01*
X98475500Y-87931004D01*
X98448581Y-87795677D01*
X98448580Y-87795676D01*
X98448580Y-87795672D01*
X98448578Y-87795667D01*
X98395778Y-87668195D01*
X98395771Y-87668182D01*
X98319114Y-87553458D01*
X98319111Y-87553454D01*
X98221545Y-87455888D01*
X98221541Y-87455885D01*
X98106817Y-87379228D01*
X98106804Y-87379221D01*
X97979332Y-87326421D01*
X97979322Y-87326418D01*
X97843995Y-87299500D01*
X97843993Y-87299500D01*
X97706007Y-87299500D01*
X97706005Y-87299500D01*
X97570677Y-87326418D01*
X97570667Y-87326421D01*
X97443195Y-87379221D01*
X97443182Y-87379228D01*
X97328458Y-87455885D01*
X97328454Y-87455888D01*
X97230888Y-87553454D01*
X97230885Y-87553458D01*
X97154228Y-87668182D01*
X97154221Y-87668195D01*
X97101421Y-87795667D01*
X97101418Y-87795677D01*
X97074500Y-87931004D01*
X97074500Y-87931007D01*
X97074500Y-88068993D01*
X97074500Y-88068995D01*
X97074499Y-88068995D01*
X90475500Y-88068995D01*
X90475500Y-88068993D01*
X90475500Y-87931007D01*
X90475500Y-87931004D01*
X90448581Y-87795677D01*
X90448580Y-87795676D01*
X90448580Y-87795672D01*
X90448578Y-87795667D01*
X90395778Y-87668195D01*
X90395771Y-87668182D01*
X90319114Y-87553458D01*
X90319111Y-87553454D01*
X90221545Y-87455888D01*
X90221541Y-87455885D01*
X90106817Y-87379228D01*
X90106804Y-87379221D01*
X89979332Y-87326421D01*
X89979322Y-87326418D01*
X89843995Y-87299500D01*
X89843993Y-87299500D01*
X89706007Y-87299500D01*
X89706005Y-87299500D01*
X89570677Y-87326418D01*
X89570667Y-87326421D01*
X89443195Y-87379221D01*
X89443182Y-87379228D01*
X89328458Y-87455885D01*
X89328454Y-87455888D01*
X89230888Y-87553454D01*
X89230885Y-87553458D01*
X89154228Y-87668182D01*
X89154221Y-87668195D01*
X89101421Y-87795667D01*
X89101418Y-87795677D01*
X89074500Y-87931004D01*
X89074500Y-87931007D01*
X89074500Y-88068993D01*
X89074500Y-88068995D01*
X89074499Y-88068995D01*
X84805500Y-88068995D01*
X84805500Y-83120943D01*
X104399500Y-83120943D01*
X104399500Y-83279057D01*
X104438214Y-83423538D01*
X104440423Y-83431783D01*
X104440426Y-83431790D01*
X104519475Y-83568709D01*
X104519479Y-83568714D01*
X104519480Y-83568716D01*
X104631284Y-83680520D01*
X104631286Y-83680521D01*
X104631290Y-83680524D01*
X104737595Y-83741898D01*
X104768216Y-83759577D01*
X104920943Y-83800500D01*
X104920945Y-83800500D01*
X105079055Y-83800500D01*
X105079057Y-83800500D01*
X105231784Y-83759577D01*
X105296536Y-83722192D01*
X105364434Y-83705719D01*
X105430461Y-83728571D01*
X105446216Y-83741898D01*
X108584788Y-86880470D01*
X108664712Y-86926614D01*
X108753856Y-86950500D01*
X108753858Y-86950500D01*
X112746142Y-86950500D01*
X112746144Y-86950500D01*
X112835288Y-86926614D01*
X112915212Y-86880470D01*
X113826165Y-85969515D01*
X113887486Y-85936032D01*
X113957177Y-85941016D01*
X113961244Y-85942615D01*
X114008165Y-85962051D01*
X114008169Y-85962051D01*
X114008170Y-85962052D01*
X114201456Y-86000500D01*
X114201459Y-86000500D01*
X114398543Y-86000500D01*
X114569765Y-85966441D01*
X114591835Y-85962051D01*
X114773914Y-85886632D01*
X114937782Y-85777139D01*
X115077139Y-85637782D01*
X115186632Y-85473914D01*
X115262051Y-85291835D01*
X115288224Y-85160255D01*
X115300500Y-85098543D01*
X115300500Y-84901456D01*
X115262052Y-84708170D01*
X115262051Y-84708169D01*
X115262051Y-84708165D01*
X115258462Y-84699500D01*
X115186635Y-84526092D01*
X115186628Y-84526079D01*
X115077139Y-84362218D01*
X115077136Y-84362214D01*
X114937785Y-84222863D01*
X114937781Y-84222860D01*
X114773920Y-84113371D01*
X114773907Y-84113364D01*
X114591839Y-84037950D01*
X114591829Y-84037947D01*
X114398543Y-83999500D01*
X114398541Y-83999500D01*
X114201459Y-83999500D01*
X114201457Y-83999500D01*
X114008170Y-84037947D01*
X114008160Y-84037950D01*
X113826092Y-84113364D01*
X113826079Y-84113371D01*
X113662218Y-84222860D01*
X113662214Y-84222863D01*
X113522863Y-84362214D01*
X113522860Y-84362218D01*
X113413371Y-84526079D01*
X113413364Y-84526092D01*
X113337950Y-84708160D01*
X113337947Y-84708170D01*
X113299500Y-84901456D01*
X113299500Y-84901459D01*
X113299500Y-85098541D01*
X113299500Y-85098543D01*
X113299499Y-85098543D01*
X113337947Y-85291828D01*
X113337948Y-85291831D01*
X113337949Y-85291835D01*
X113352354Y-85326612D01*
X113357362Y-85338703D01*
X113364829Y-85408173D01*
X113333553Y-85470652D01*
X113330481Y-85473835D01*
X112591137Y-86213181D01*
X112529814Y-86246666D01*
X112503456Y-86249500D01*
X108996544Y-86249500D01*
X108929505Y-86229815D01*
X108908863Y-86213181D01*
X105615213Y-82919531D01*
X105615208Y-82919527D01*
X105535285Y-82873383D01*
X105533055Y-82872460D01*
X105531140Y-82870990D01*
X105528250Y-82869322D01*
X105528469Y-82868941D01*
X105486536Y-82836763D01*
X105486268Y-82837032D01*
X105484227Y-82834991D01*
X105482130Y-82833382D01*
X105480521Y-82831285D01*
X105424736Y-82775500D01*
X105368716Y-82719480D01*
X105368713Y-82719478D01*
X105368709Y-82719475D01*
X105231790Y-82640426D01*
X105231786Y-82640424D01*
X105231784Y-82640423D01*
X105079057Y-82599500D01*
X104920943Y-82599500D01*
X104768216Y-82640423D01*
X104768209Y-82640426D01*
X104631290Y-82719475D01*
X104631282Y-82719481D01*
X104519481Y-82831282D01*
X104519475Y-82831290D01*
X104440426Y-82968209D01*
X104440423Y-82968216D01*
X104399500Y-83120943D01*
X84805500Y-83120943D01*
X84805500Y-79420943D01*
X104399500Y-79420943D01*
X104399500Y-79579057D01*
X104429803Y-79692147D01*
X104440423Y-79731783D01*
X104440426Y-79731790D01*
X104519475Y-79868709D01*
X104519481Y-79868717D01*
X104563083Y-79912319D01*
X104596568Y-79973642D01*
X104591584Y-80043334D01*
X104563083Y-80087681D01*
X104519481Y-80131282D01*
X104519475Y-80131290D01*
X104440426Y-80268209D01*
X104440423Y-80268216D01*
X104399500Y-80420943D01*
X104399500Y-80579057D01*
X104439896Y-80729815D01*
X104440423Y-80731783D01*
X104440426Y-80731790D01*
X104519475Y-80868709D01*
X104519481Y-80868717D01*
X104563083Y-80912319D01*
X104596568Y-80973642D01*
X104591584Y-81043334D01*
X104563083Y-81087681D01*
X104519481Y-81131282D01*
X104519475Y-81131290D01*
X104440426Y-81268209D01*
X104440423Y-81268216D01*
X104399500Y-81420943D01*
X104399500Y-81579057D01*
X104438125Y-81723205D01*
X104440423Y-81731783D01*
X104440426Y-81731790D01*
X104519475Y-81868709D01*
X104519479Y-81868714D01*
X104519480Y-81868716D01*
X104631284Y-81980520D01*
X104631286Y-81980521D01*
X104631290Y-81980524D01*
X104707796Y-82024694D01*
X104768216Y-82059577D01*
X104920943Y-82100500D01*
X104920945Y-82100500D01*
X105079054Y-82100500D01*
X105079057Y-82100500D01*
X105187961Y-82071319D01*
X105257805Y-82072982D01*
X105307731Y-82103413D01*
X108484787Y-85280469D01*
X108525296Y-85303857D01*
X108525297Y-85303858D01*
X108564706Y-85326611D01*
X108564707Y-85326611D01*
X108564712Y-85326614D01*
X108653856Y-85350500D01*
X110739395Y-85350500D01*
X110806434Y-85370185D01*
X110852189Y-85422989D01*
X110853939Y-85427009D01*
X110870051Y-85465906D01*
X110873367Y-85473912D01*
X110873371Y-85473919D01*
X110982860Y-85637782D01*
X111122214Y-85777136D01*
X111122218Y-85777139D01*
X111286079Y-85886628D01*
X111286092Y-85886635D01*
X111468160Y-85962049D01*
X111468165Y-85962051D01*
X111468169Y-85962051D01*
X111468170Y-85962052D01*
X111661456Y-86000500D01*
X111661459Y-86000500D01*
X111858543Y-86000500D01*
X112029765Y-85966441D01*
X112051835Y-85962051D01*
X112233914Y-85886632D01*
X112397782Y-85777139D01*
X112537139Y-85637782D01*
X112646632Y-85473914D01*
X112722051Y-85291835D01*
X112748224Y-85160255D01*
X112760500Y-85098543D01*
X112760500Y-84901456D01*
X112722052Y-84708170D01*
X112722051Y-84708169D01*
X112722051Y-84708165D01*
X112718462Y-84699500D01*
X112646635Y-84526092D01*
X112646628Y-84526079D01*
X112537139Y-84362218D01*
X112537136Y-84362214D01*
X112397785Y-84222863D01*
X112397781Y-84222860D01*
X112233920Y-84113371D01*
X112233907Y-84113364D01*
X112051839Y-84037950D01*
X112051829Y-84037947D01*
X111858543Y-83999500D01*
X111858541Y-83999500D01*
X111661459Y-83999500D01*
X111661457Y-83999500D01*
X111468170Y-84037947D01*
X111468160Y-84037950D01*
X111286092Y-84113364D01*
X111286079Y-84113371D01*
X111122218Y-84222860D01*
X111122214Y-84222863D01*
X110982860Y-84362217D01*
X110873371Y-84526080D01*
X110873367Y-84526087D01*
X110865351Y-84545438D01*
X110853955Y-84572953D01*
X110810116Y-84627355D01*
X110743822Y-84649421D01*
X110739395Y-84649500D01*
X108896544Y-84649500D01*
X108829505Y-84629815D01*
X108808863Y-84613181D01*
X107957863Y-83762181D01*
X107924378Y-83700858D01*
X107929362Y-83631166D01*
X107971234Y-83575233D01*
X108036698Y-83550816D01*
X108045544Y-83550500D01*
X114843456Y-83550500D01*
X114910495Y-83570185D01*
X114931137Y-83586819D01*
X115870482Y-84526164D01*
X115903967Y-84587487D01*
X115898983Y-84657179D01*
X115897362Y-84661297D01*
X115877949Y-84708163D01*
X115877947Y-84708171D01*
X115839500Y-84901456D01*
X115839500Y-84901459D01*
X115839500Y-85098541D01*
X115839500Y-85098543D01*
X115839499Y-85098543D01*
X115877947Y-85291829D01*
X115877950Y-85291839D01*
X115953364Y-85473907D01*
X115953371Y-85473920D01*
X116062860Y-85637781D01*
X116062863Y-85637785D01*
X116202214Y-85777136D01*
X116202218Y-85777139D01*
X116366079Y-85886628D01*
X116366092Y-85886635D01*
X116548160Y-85962049D01*
X116548165Y-85962051D01*
X116548169Y-85962051D01*
X116548170Y-85962052D01*
X116741456Y-86000500D01*
X116741459Y-86000500D01*
X116938543Y-86000500D01*
X117109765Y-85966441D01*
X117131835Y-85962051D01*
X117313914Y-85886632D01*
X117477782Y-85777139D01*
X117617139Y-85637782D01*
X117726632Y-85473914D01*
X117802051Y-85291835D01*
X117828224Y-85160255D01*
X117840500Y-85098543D01*
X118379499Y-85098543D01*
X118417947Y-85291829D01*
X118417950Y-85291839D01*
X118493364Y-85473907D01*
X118493371Y-85473920D01*
X118602860Y-85637781D01*
X118602863Y-85637785D01*
X118742214Y-85777136D01*
X118742218Y-85777139D01*
X118906079Y-85886628D01*
X118906092Y-85886635D01*
X119088160Y-85962049D01*
X119088165Y-85962051D01*
X119088169Y-85962051D01*
X119088170Y-85962052D01*
X119281456Y-86000500D01*
X119281459Y-86000500D01*
X119478543Y-86000500D01*
X119649765Y-85966441D01*
X119671835Y-85962051D01*
X119853914Y-85886632D01*
X120017782Y-85777139D01*
X120157139Y-85637782D01*
X120266632Y-85473914D01*
X120342051Y-85291835D01*
X120368224Y-85160255D01*
X120380500Y-85098543D01*
X120919499Y-85098543D01*
X120957947Y-85291829D01*
X120957950Y-85291839D01*
X121033364Y-85473907D01*
X121033371Y-85473920D01*
X121142860Y-85637781D01*
X121142863Y-85637785D01*
X121282214Y-85777136D01*
X121282218Y-85777139D01*
X121446079Y-85886628D01*
X121446092Y-85886635D01*
X121628160Y-85962049D01*
X121628165Y-85962051D01*
X121628169Y-85962051D01*
X121628170Y-85962052D01*
X121821456Y-86000500D01*
X121821459Y-86000500D01*
X122018543Y-86000500D01*
X122189765Y-85966441D01*
X122211835Y-85962051D01*
X122393914Y-85886632D01*
X122557782Y-85777139D01*
X122697139Y-85637782D01*
X122806632Y-85473914D01*
X122882051Y-85291835D01*
X122908224Y-85160255D01*
X122920500Y-85098543D01*
X135239499Y-85098543D01*
X135277947Y-85291829D01*
X135277950Y-85291839D01*
X135353364Y-85473907D01*
X135353371Y-85473920D01*
X135462860Y-85637781D01*
X135462863Y-85637785D01*
X135602214Y-85777136D01*
X135602218Y-85777139D01*
X135766079Y-85886628D01*
X135766092Y-85886635D01*
X135948160Y-85962049D01*
X135948165Y-85962051D01*
X135948169Y-85962051D01*
X135948170Y-85962052D01*
X136141456Y-86000500D01*
X136141459Y-86000500D01*
X136338543Y-86000500D01*
X136509765Y-85966441D01*
X136531835Y-85962051D01*
X136578702Y-85942637D01*
X136648168Y-85935168D01*
X136710648Y-85966441D01*
X136713835Y-85969517D01*
X137759531Y-87015212D01*
X137824788Y-87080469D01*
X137824791Y-87080470D01*
X137824794Y-87080473D01*
X137904706Y-87126611D01*
X137904707Y-87126611D01*
X137904712Y-87126614D01*
X137993856Y-87150500D01*
X137993858Y-87150500D01*
X149496142Y-87150500D01*
X149496144Y-87150500D01*
X149585288Y-87126614D01*
X149665212Y-87080470D01*
X151530469Y-85215212D01*
X151576614Y-85135288D01*
X151594233Y-85069531D01*
X151600500Y-85046144D01*
X151600500Y-84479386D01*
X151620185Y-84412347D01*
X151636819Y-84391705D01*
X151690509Y-84338015D01*
X151762984Y-84212485D01*
X151800500Y-84072475D01*
X151800500Y-84064071D01*
X155399499Y-84064071D01*
X155424497Y-84189738D01*
X155424499Y-84189744D01*
X155473533Y-84308124D01*
X155473538Y-84308133D01*
X155544723Y-84414668D01*
X155544726Y-84414672D01*
X155635327Y-84505273D01*
X155635331Y-84505276D01*
X155741866Y-84576461D01*
X155741872Y-84576464D01*
X155741873Y-84576465D01*
X155860256Y-84625501D01*
X155860260Y-84625501D01*
X155860261Y-84625502D01*
X155972617Y-84647852D01*
X156034528Y-84680237D01*
X156036106Y-84681788D01*
X156984788Y-85630470D01*
X157054085Y-85670478D01*
X157054087Y-85670480D01*
X157061342Y-85674668D01*
X157064712Y-85676614D01*
X157153856Y-85700500D01*
X157153857Y-85700500D01*
X157246144Y-85700500D01*
X158335568Y-85700500D01*
X158402607Y-85720185D01*
X158438670Y-85755609D01*
X158444723Y-85764669D01*
X158535327Y-85855273D01*
X158535331Y-85855276D01*
X158641866Y-85926461D01*
X158641872Y-85926464D01*
X158641873Y-85926465D01*
X158760256Y-85975501D01*
X158760260Y-85975501D01*
X158760261Y-85975502D01*
X158885928Y-86000500D01*
X158885931Y-86000500D01*
X159014071Y-86000500D01*
X159098615Y-85983682D01*
X159139744Y-85975501D01*
X159258127Y-85926465D01*
X159364669Y-85855276D01*
X159455276Y-85764669D01*
X159526465Y-85658127D01*
X159575501Y-85539744D01*
X159588597Y-85473907D01*
X159600500Y-85414071D01*
X159600500Y-85285928D01*
X159575502Y-85160261D01*
X159575501Y-85160260D01*
X159575501Y-85160256D01*
X159526465Y-85041873D01*
X159526464Y-85041872D01*
X159526461Y-85041866D01*
X159455276Y-84935331D01*
X159455273Y-84935327D01*
X159364672Y-84844726D01*
X159364668Y-84844723D01*
X159258133Y-84773538D01*
X159258124Y-84773533D01*
X159139744Y-84724499D01*
X159139738Y-84724497D01*
X159014071Y-84699500D01*
X159014069Y-84699500D01*
X158885931Y-84699500D01*
X158885929Y-84699500D01*
X158760261Y-84724497D01*
X158760255Y-84724499D01*
X158641875Y-84773533D01*
X158641866Y-84773538D01*
X158535331Y-84844723D01*
X158535327Y-84844726D01*
X158444723Y-84935330D01*
X158438670Y-84944391D01*
X158385058Y-84989196D01*
X158335568Y-84999500D01*
X157396544Y-84999500D01*
X157329505Y-84979815D01*
X157308863Y-84963181D01*
X156693060Y-84347378D01*
X156659575Y-84286055D01*
X156664559Y-84216363D01*
X156666163Y-84212284D01*
X156675501Y-84189744D01*
X156690694Y-84113368D01*
X156700500Y-84064071D01*
X156700500Y-83935928D01*
X156675502Y-83810261D01*
X156675501Y-83810260D01*
X156675501Y-83810256D01*
X156626465Y-83691873D01*
X156626464Y-83691872D01*
X156626461Y-83691866D01*
X156555276Y-83585331D01*
X156555273Y-83585327D01*
X156464672Y-83494726D01*
X156464668Y-83494723D01*
X156358133Y-83423538D01*
X156358124Y-83423533D01*
X156239744Y-83374499D01*
X156239738Y-83374497D01*
X156114071Y-83349500D01*
X156114069Y-83349500D01*
X155985931Y-83349500D01*
X155985929Y-83349500D01*
X155860261Y-83374497D01*
X155860255Y-83374499D01*
X155741875Y-83423533D01*
X155741866Y-83423538D01*
X155635331Y-83494723D01*
X155635327Y-83494726D01*
X155544726Y-83585327D01*
X155544723Y-83585331D01*
X155473538Y-83691866D01*
X155473533Y-83691875D01*
X155424499Y-83810255D01*
X155424497Y-83810261D01*
X155399500Y-83935928D01*
X155399500Y-83935931D01*
X155399500Y-84064069D01*
X155399500Y-84064071D01*
X155399499Y-84064071D01*
X151800500Y-84064071D01*
X151800500Y-83927525D01*
X151762984Y-83787515D01*
X151748357Y-83762181D01*
X151690511Y-83661988D01*
X151690506Y-83661982D01*
X151588017Y-83559493D01*
X151588011Y-83559488D01*
X151462488Y-83487017D01*
X151462489Y-83487017D01*
X151451006Y-83483940D01*
X151322475Y-83449500D01*
X151177525Y-83449500D01*
X151048993Y-83483940D01*
X151037511Y-83487017D01*
X150911988Y-83559488D01*
X150911982Y-83559493D01*
X150809493Y-83661982D01*
X150809488Y-83661988D01*
X150737017Y-83787511D01*
X150737016Y-83787515D01*
X150699500Y-83927525D01*
X150699500Y-84072475D01*
X150736950Y-84212239D01*
X150737017Y-84212488D01*
X150809488Y-84338011D01*
X150809493Y-84338017D01*
X150863181Y-84391705D01*
X150896666Y-84453028D01*
X150899500Y-84479386D01*
X150899500Y-84803456D01*
X150879815Y-84870495D01*
X150863181Y-84891137D01*
X149341137Y-86413181D01*
X149279814Y-86446666D01*
X149253456Y-86449500D01*
X138236543Y-86449500D01*
X138169504Y-86429815D01*
X138148862Y-86413181D01*
X137209517Y-85473835D01*
X137176032Y-85412512D01*
X137181016Y-85342820D01*
X137182615Y-85338757D01*
X137202051Y-85291835D01*
X137228224Y-85160255D01*
X137240500Y-85098543D01*
X137779499Y-85098543D01*
X137817947Y-85291829D01*
X137817950Y-85291839D01*
X137893364Y-85473907D01*
X137893371Y-85473920D01*
X138002860Y-85637781D01*
X138002863Y-85637785D01*
X138142214Y-85777136D01*
X138142218Y-85777139D01*
X138306079Y-85886628D01*
X138306092Y-85886635D01*
X138488160Y-85962049D01*
X138488165Y-85962051D01*
X138488169Y-85962051D01*
X138488170Y-85962052D01*
X138681456Y-86000500D01*
X138681459Y-86000500D01*
X138878543Y-86000500D01*
X139049765Y-85966441D01*
X139071835Y-85962051D01*
X139253914Y-85886632D01*
X139417782Y-85777139D01*
X139557139Y-85637782D01*
X139666632Y-85473914D01*
X139742051Y-85291835D01*
X139768224Y-85160255D01*
X139780500Y-85098543D01*
X140319499Y-85098543D01*
X140357947Y-85291829D01*
X140357950Y-85291839D01*
X140433364Y-85473907D01*
X140433371Y-85473920D01*
X140542860Y-85637781D01*
X140542863Y-85637785D01*
X140682214Y-85777136D01*
X140682218Y-85777139D01*
X140846079Y-85886628D01*
X140846092Y-85886635D01*
X141028160Y-85962049D01*
X141028165Y-85962051D01*
X141028169Y-85962051D01*
X141028170Y-85962052D01*
X141221456Y-86000500D01*
X141221459Y-86000500D01*
X141418543Y-86000500D01*
X141589765Y-85966441D01*
X141611835Y-85962051D01*
X141793914Y-85886632D01*
X141957782Y-85777139D01*
X142097139Y-85637782D01*
X142206632Y-85473914D01*
X142282051Y-85291835D01*
X142308224Y-85160255D01*
X142320500Y-85098543D01*
X142859499Y-85098543D01*
X142897947Y-85291829D01*
X142897950Y-85291839D01*
X142973364Y-85473907D01*
X142973371Y-85473920D01*
X143082860Y-85637781D01*
X143082863Y-85637785D01*
X143222214Y-85777136D01*
X143222218Y-85777139D01*
X143386079Y-85886628D01*
X143386092Y-85886635D01*
X143568160Y-85962049D01*
X143568165Y-85962051D01*
X143568169Y-85962051D01*
X143568170Y-85962052D01*
X143761456Y-86000500D01*
X143761459Y-86000500D01*
X143958543Y-86000500D01*
X144129765Y-85966441D01*
X144151835Y-85962051D01*
X144333914Y-85886632D01*
X144497782Y-85777139D01*
X144637139Y-85637782D01*
X144746632Y-85473914D01*
X144822051Y-85291835D01*
X144848224Y-85160255D01*
X144860500Y-85098543D01*
X145399499Y-85098543D01*
X145437947Y-85291829D01*
X145437950Y-85291839D01*
X145513364Y-85473907D01*
X145513371Y-85473920D01*
X145622860Y-85637781D01*
X145622863Y-85637785D01*
X145762214Y-85777136D01*
X145762218Y-85777139D01*
X145926079Y-85886628D01*
X145926092Y-85886635D01*
X146108160Y-85962049D01*
X146108165Y-85962051D01*
X146108169Y-85962051D01*
X146108170Y-85962052D01*
X146301456Y-86000500D01*
X146301459Y-86000500D01*
X146498543Y-86000500D01*
X146669765Y-85966441D01*
X146691835Y-85962051D01*
X146873914Y-85886632D01*
X147037782Y-85777139D01*
X147177139Y-85637782D01*
X147286632Y-85473914D01*
X147362051Y-85291835D01*
X147388224Y-85160255D01*
X147400500Y-85098543D01*
X147939499Y-85098543D01*
X147977947Y-85291829D01*
X147977950Y-85291839D01*
X148053364Y-85473907D01*
X148053371Y-85473920D01*
X148162860Y-85637781D01*
X148162863Y-85637785D01*
X148302214Y-85777136D01*
X148302218Y-85777139D01*
X148466079Y-85886628D01*
X148466092Y-85886635D01*
X148648160Y-85962049D01*
X148648165Y-85962051D01*
X148648169Y-85962051D01*
X148648170Y-85962052D01*
X148841456Y-86000500D01*
X148841459Y-86000500D01*
X149038543Y-86000500D01*
X149209765Y-85966441D01*
X149231835Y-85962051D01*
X149413914Y-85886632D01*
X149577782Y-85777139D01*
X149717139Y-85637782D01*
X149826632Y-85473914D01*
X149902051Y-85291835D01*
X149928224Y-85160255D01*
X149940500Y-85098543D01*
X149940500Y-84901456D01*
X149902052Y-84708170D01*
X149902051Y-84708169D01*
X149902051Y-84708165D01*
X149898462Y-84699500D01*
X149826635Y-84526092D01*
X149826628Y-84526079D01*
X149717139Y-84362218D01*
X149717136Y-84362214D01*
X149577785Y-84222863D01*
X149577781Y-84222860D01*
X149413920Y-84113371D01*
X149413907Y-84113364D01*
X149231839Y-84037950D01*
X149231829Y-84037947D01*
X149038543Y-83999500D01*
X149038541Y-83999500D01*
X148841459Y-83999500D01*
X148841457Y-83999500D01*
X148648170Y-84037947D01*
X148648160Y-84037950D01*
X148466092Y-84113364D01*
X148466079Y-84113371D01*
X148302218Y-84222860D01*
X148302214Y-84222863D01*
X148162863Y-84362214D01*
X148162860Y-84362218D01*
X148053371Y-84526079D01*
X148053364Y-84526092D01*
X147977950Y-84708160D01*
X147977947Y-84708170D01*
X147939500Y-84901456D01*
X147939500Y-84901459D01*
X147939500Y-85098541D01*
X147939500Y-85098543D01*
X147939499Y-85098543D01*
X147400500Y-85098543D01*
X147400500Y-84901456D01*
X147362052Y-84708170D01*
X147362051Y-84708169D01*
X147362051Y-84708165D01*
X147358462Y-84699500D01*
X147286635Y-84526092D01*
X147286628Y-84526079D01*
X147177139Y-84362218D01*
X147177136Y-84362214D01*
X147037785Y-84222863D01*
X147037781Y-84222860D01*
X146873920Y-84113371D01*
X146873907Y-84113364D01*
X146691839Y-84037950D01*
X146691829Y-84037947D01*
X146498543Y-83999500D01*
X146498541Y-83999500D01*
X146301459Y-83999500D01*
X146301457Y-83999500D01*
X146108170Y-84037947D01*
X146108160Y-84037950D01*
X145926092Y-84113364D01*
X145926079Y-84113371D01*
X145762218Y-84222860D01*
X145762214Y-84222863D01*
X145622863Y-84362214D01*
X145622860Y-84362218D01*
X145513371Y-84526079D01*
X145513364Y-84526092D01*
X145437950Y-84708160D01*
X145437947Y-84708170D01*
X145399500Y-84901456D01*
X145399500Y-84901459D01*
X145399500Y-85098541D01*
X145399500Y-85098543D01*
X145399499Y-85098543D01*
X144860500Y-85098543D01*
X144860500Y-84901456D01*
X144822052Y-84708170D01*
X144822051Y-84708169D01*
X144822051Y-84708165D01*
X144818462Y-84699500D01*
X144746635Y-84526092D01*
X144746628Y-84526079D01*
X144637139Y-84362218D01*
X144637136Y-84362214D01*
X144497785Y-84222863D01*
X144497781Y-84222860D01*
X144333920Y-84113371D01*
X144333907Y-84113364D01*
X144151839Y-84037950D01*
X144151829Y-84037947D01*
X143958543Y-83999500D01*
X143958541Y-83999500D01*
X143761459Y-83999500D01*
X143761457Y-83999500D01*
X143568170Y-84037947D01*
X143568160Y-84037950D01*
X143386092Y-84113364D01*
X143386079Y-84113371D01*
X143222218Y-84222860D01*
X143222214Y-84222863D01*
X143082863Y-84362214D01*
X143082860Y-84362218D01*
X142973371Y-84526079D01*
X142973364Y-84526092D01*
X142897950Y-84708160D01*
X142897947Y-84708170D01*
X142859500Y-84901456D01*
X142859500Y-84901459D01*
X142859500Y-85098541D01*
X142859500Y-85098543D01*
X142859499Y-85098543D01*
X142320500Y-85098543D01*
X142320500Y-84901456D01*
X142282052Y-84708170D01*
X142282051Y-84708169D01*
X142282051Y-84708165D01*
X142278462Y-84699500D01*
X142206635Y-84526092D01*
X142206628Y-84526079D01*
X142097139Y-84362218D01*
X142097136Y-84362214D01*
X141957785Y-84222863D01*
X141957781Y-84222860D01*
X141793920Y-84113371D01*
X141793907Y-84113364D01*
X141611839Y-84037950D01*
X141611829Y-84037947D01*
X141418543Y-83999500D01*
X141418541Y-83999500D01*
X141221459Y-83999500D01*
X141221457Y-83999500D01*
X141028170Y-84037947D01*
X141028160Y-84037950D01*
X140846092Y-84113364D01*
X140846079Y-84113371D01*
X140682218Y-84222860D01*
X140682214Y-84222863D01*
X140542863Y-84362214D01*
X140542860Y-84362218D01*
X140433371Y-84526079D01*
X140433364Y-84526092D01*
X140357950Y-84708160D01*
X140357947Y-84708170D01*
X140319500Y-84901456D01*
X140319500Y-84901459D01*
X140319500Y-85098541D01*
X140319500Y-85098543D01*
X140319499Y-85098543D01*
X139780500Y-85098543D01*
X139780500Y-84901456D01*
X139742052Y-84708170D01*
X139742051Y-84708169D01*
X139742051Y-84708165D01*
X139738462Y-84699500D01*
X139666635Y-84526092D01*
X139666628Y-84526079D01*
X139557139Y-84362218D01*
X139557136Y-84362214D01*
X139417785Y-84222863D01*
X139417781Y-84222860D01*
X139253920Y-84113371D01*
X139253907Y-84113364D01*
X139071839Y-84037950D01*
X139071829Y-84037947D01*
X138878543Y-83999500D01*
X138878541Y-83999500D01*
X138681459Y-83999500D01*
X138681457Y-83999500D01*
X138488170Y-84037947D01*
X138488160Y-84037950D01*
X138306092Y-84113364D01*
X138306079Y-84113371D01*
X138142218Y-84222860D01*
X138142214Y-84222863D01*
X138002863Y-84362214D01*
X138002860Y-84362218D01*
X137893371Y-84526079D01*
X137893364Y-84526092D01*
X137817950Y-84708160D01*
X137817947Y-84708170D01*
X137779500Y-84901456D01*
X137779500Y-84901459D01*
X137779500Y-85098541D01*
X137779500Y-85098543D01*
X137779499Y-85098543D01*
X137240500Y-85098543D01*
X137240500Y-84901456D01*
X137202052Y-84708170D01*
X137202051Y-84708169D01*
X137202051Y-84708165D01*
X137198462Y-84699500D01*
X137126635Y-84526092D01*
X137126628Y-84526079D01*
X137017139Y-84362218D01*
X137017136Y-84362214D01*
X136877785Y-84222863D01*
X136877781Y-84222860D01*
X136713920Y-84113371D01*
X136713907Y-84113364D01*
X136531839Y-84037950D01*
X136531829Y-84037947D01*
X136338543Y-83999500D01*
X136338541Y-83999500D01*
X136141459Y-83999500D01*
X136141457Y-83999500D01*
X135948170Y-84037947D01*
X135948160Y-84037950D01*
X135766092Y-84113364D01*
X135766079Y-84113371D01*
X135602218Y-84222860D01*
X135602214Y-84222863D01*
X135462863Y-84362214D01*
X135462860Y-84362218D01*
X135353371Y-84526079D01*
X135353364Y-84526092D01*
X135277950Y-84708160D01*
X135277947Y-84708170D01*
X135239500Y-84901456D01*
X135239500Y-84901459D01*
X135239500Y-85098541D01*
X135239500Y-85098543D01*
X135239499Y-85098543D01*
X122920500Y-85098543D01*
X122920500Y-84901456D01*
X122882052Y-84708170D01*
X122882051Y-84708169D01*
X122882051Y-84708165D01*
X122878462Y-84699500D01*
X122806635Y-84526092D01*
X122806628Y-84526079D01*
X122697139Y-84362218D01*
X122697136Y-84362214D01*
X122557785Y-84222863D01*
X122557781Y-84222860D01*
X122393920Y-84113371D01*
X122393907Y-84113364D01*
X122211839Y-84037950D01*
X122211829Y-84037947D01*
X122018543Y-83999500D01*
X122018541Y-83999500D01*
X121821459Y-83999500D01*
X121821457Y-83999500D01*
X121628170Y-84037947D01*
X121628160Y-84037950D01*
X121446092Y-84113364D01*
X121446079Y-84113371D01*
X121282218Y-84222860D01*
X121282214Y-84222863D01*
X121142863Y-84362214D01*
X121142860Y-84362218D01*
X121033371Y-84526079D01*
X121033364Y-84526092D01*
X120957950Y-84708160D01*
X120957947Y-84708170D01*
X120919500Y-84901456D01*
X120919500Y-84901459D01*
X120919500Y-85098541D01*
X120919500Y-85098543D01*
X120919499Y-85098543D01*
X120380500Y-85098543D01*
X120380500Y-84901456D01*
X120342052Y-84708170D01*
X120342051Y-84708169D01*
X120342051Y-84708165D01*
X120338462Y-84699500D01*
X120266635Y-84526092D01*
X120266628Y-84526079D01*
X120157139Y-84362218D01*
X120157136Y-84362214D01*
X120017785Y-84222863D01*
X120017781Y-84222860D01*
X119853920Y-84113371D01*
X119853907Y-84113364D01*
X119671839Y-84037950D01*
X119671829Y-84037947D01*
X119478543Y-83999500D01*
X119478541Y-83999500D01*
X119281459Y-83999500D01*
X119281457Y-83999500D01*
X119088170Y-84037947D01*
X119088160Y-84037950D01*
X118906092Y-84113364D01*
X118906079Y-84113371D01*
X118742218Y-84222860D01*
X118742214Y-84222863D01*
X118602863Y-84362214D01*
X118602860Y-84362218D01*
X118493371Y-84526079D01*
X118493364Y-84526092D01*
X118417950Y-84708160D01*
X118417947Y-84708170D01*
X118379500Y-84901456D01*
X118379500Y-84901459D01*
X118379500Y-85098541D01*
X118379500Y-85098543D01*
X118379499Y-85098543D01*
X117840500Y-85098543D01*
X117840500Y-84901456D01*
X117802052Y-84708170D01*
X117802051Y-84708169D01*
X117802051Y-84708165D01*
X117798462Y-84699500D01*
X117726635Y-84526092D01*
X117726628Y-84526079D01*
X117617139Y-84362218D01*
X117617136Y-84362214D01*
X117477785Y-84222863D01*
X117477781Y-84222860D01*
X117313920Y-84113371D01*
X117313907Y-84113364D01*
X117131839Y-84037950D01*
X117131829Y-84037947D01*
X116938543Y-83999500D01*
X116938541Y-83999500D01*
X116741459Y-83999500D01*
X116741457Y-83999500D01*
X116548171Y-84037947D01*
X116548163Y-84037949D01*
X116501297Y-84057362D01*
X116431827Y-84064831D01*
X116369348Y-84033555D01*
X116366164Y-84030482D01*
X115497863Y-83162181D01*
X115464378Y-83100858D01*
X115469362Y-83031166D01*
X115511234Y-82975233D01*
X115576698Y-82950816D01*
X115585544Y-82950500D01*
X131020614Y-82950500D01*
X131087653Y-82970185D01*
X131108295Y-82986819D01*
X131161985Y-83040509D01*
X131161986Y-83040510D01*
X131161988Y-83040511D01*
X131287511Y-83112982D01*
X131287512Y-83112982D01*
X131287515Y-83112984D01*
X131427525Y-83150500D01*
X131427528Y-83150500D01*
X131572472Y-83150500D01*
X131572475Y-83150500D01*
X131712485Y-83112984D01*
X131838015Y-83040509D01*
X131940509Y-82938015D01*
X132012984Y-82812485D01*
X132050500Y-82672475D01*
X132050500Y-82527525D01*
X132012984Y-82387515D01*
X132006690Y-82376614D01*
X131940511Y-82261988D01*
X131940506Y-82261982D01*
X131838017Y-82159493D01*
X131838011Y-82159488D01*
X131712488Y-82087017D01*
X131712489Y-82087017D01*
X131701006Y-82083940D01*
X131572475Y-82049500D01*
X131427525Y-82049500D01*
X131298993Y-82083940D01*
X131287511Y-82087017D01*
X131161988Y-82159488D01*
X131161982Y-82159493D01*
X131108295Y-82213181D01*
X131046972Y-82246666D01*
X131020614Y-82249500D01*
X108446544Y-82249500D01*
X108379505Y-82229815D01*
X108358863Y-82213181D01*
X105635399Y-79489717D01*
X105601914Y-79428394D01*
X105600830Y-79422178D01*
X105600500Y-79420946D01*
X105600500Y-79420943D01*
X105559577Y-79268216D01*
X105550652Y-79252757D01*
X105480524Y-79131290D01*
X105480518Y-79131282D01*
X105368717Y-79019481D01*
X105368709Y-79019475D01*
X105231790Y-78940426D01*
X105231786Y-78940424D01*
X105231784Y-78940423D01*
X105079057Y-78899500D01*
X104920943Y-78899500D01*
X104768216Y-78940423D01*
X104768209Y-78940426D01*
X104631290Y-79019475D01*
X104631282Y-79019481D01*
X104519481Y-79131282D01*
X104519475Y-79131290D01*
X104440426Y-79268209D01*
X104440423Y-79268216D01*
X104399500Y-79420943D01*
X84805500Y-79420943D01*
X84805500Y-72014071D01*
X89399499Y-72014071D01*
X89424497Y-72139738D01*
X89424499Y-72139744D01*
X89473533Y-72258124D01*
X89473538Y-72258133D01*
X89544723Y-72364668D01*
X89544726Y-72364672D01*
X89635327Y-72455273D01*
X89635331Y-72455276D01*
X89741866Y-72526461D01*
X89741872Y-72526464D01*
X89741873Y-72526465D01*
X89860256Y-72575501D01*
X89860260Y-72575501D01*
X89860261Y-72575502D01*
X89985928Y-72600500D01*
X89985931Y-72600500D01*
X90114071Y-72600500D01*
X90198615Y-72583682D01*
X90239744Y-72575501D01*
X90358127Y-72526465D01*
X90464669Y-72455276D01*
X90533127Y-72386817D01*
X90594448Y-72353334D01*
X90620807Y-72350500D01*
X101982745Y-72350500D01*
X102049784Y-72370185D01*
X102070426Y-72386819D01*
X107675179Y-77991571D01*
X107675189Y-77991582D01*
X107679519Y-77995912D01*
X107679520Y-77995913D01*
X107754087Y-78070480D01*
X107841280Y-78120821D01*
X107845413Y-78123207D01*
X107947273Y-78150501D01*
X107947275Y-78150501D01*
X108060323Y-78150501D01*
X108060339Y-78150500D01*
X112632745Y-78150500D01*
X112699784Y-78170185D01*
X112720426Y-78186819D01*
X115429519Y-80895912D01*
X115429520Y-80895913D01*
X115504087Y-80970480D01*
X115595413Y-81023207D01*
X115697273Y-81050500D01*
X119679193Y-81050500D01*
X119746232Y-81070185D01*
X119766869Y-81086814D01*
X119811337Y-81131282D01*
X119835332Y-81155277D01*
X119941866Y-81226461D01*
X119941872Y-81226464D01*
X119941873Y-81226465D01*
X120060256Y-81275501D01*
X120060260Y-81275501D01*
X120060261Y-81275502D01*
X120185928Y-81300500D01*
X120185931Y-81300500D01*
X120314071Y-81300500D01*
X120398615Y-81283682D01*
X120439744Y-81275501D01*
X120558127Y-81226465D01*
X120664669Y-81155276D01*
X120755276Y-81064669D01*
X120826465Y-80958127D01*
X120875501Y-80839744D01*
X120896976Y-80731784D01*
X120900500Y-80714071D01*
X120900500Y-80585928D01*
X120875502Y-80460261D01*
X120875501Y-80460260D01*
X120875501Y-80460256D01*
X120830169Y-80350816D01*
X120826466Y-80341875D01*
X120826461Y-80341866D01*
X120755276Y-80235331D01*
X120755273Y-80235327D01*
X120664672Y-80144726D01*
X120664668Y-80144723D01*
X120558133Y-80073538D01*
X120558124Y-80073533D01*
X120439744Y-80024499D01*
X120439738Y-80024497D01*
X120314071Y-79999500D01*
X120314069Y-79999500D01*
X120185931Y-79999500D01*
X120185929Y-79999500D01*
X120060261Y-80024497D01*
X120060255Y-80024499D01*
X119941875Y-80073533D01*
X119941866Y-80073538D01*
X119835332Y-80144722D01*
X119818073Y-80161982D01*
X119766872Y-80213182D01*
X119705552Y-80246666D01*
X119679193Y-80249500D01*
X115967255Y-80249500D01*
X115900216Y-80229815D01*
X115879574Y-80213181D01*
X113095915Y-77429522D01*
X113095913Y-77429520D01*
X113050250Y-77403156D01*
X113004589Y-77376793D01*
X112936193Y-77358467D01*
X112902727Y-77349500D01*
X112902726Y-77349500D01*
X108217254Y-77349500D01*
X108150215Y-77329815D01*
X108129573Y-77313181D01*
X102445915Y-71629522D01*
X102445914Y-71629521D01*
X102445913Y-71629520D01*
X102400250Y-71603156D01*
X102354589Y-71576793D01*
X102303657Y-71563146D01*
X102252727Y-71549500D01*
X102252726Y-71549500D01*
X90620807Y-71549500D01*
X90553768Y-71529815D01*
X90533130Y-71513185D01*
X90464669Y-71444724D01*
X90464668Y-71444723D01*
X90464667Y-71444722D01*
X90358133Y-71373538D01*
X90358124Y-71373533D01*
X90239744Y-71324499D01*
X90239738Y-71324497D01*
X90114071Y-71299500D01*
X90114069Y-71299500D01*
X89985931Y-71299500D01*
X89985929Y-71299500D01*
X89860261Y-71324497D01*
X89860255Y-71324499D01*
X89741875Y-71373533D01*
X89741866Y-71373538D01*
X89635331Y-71444723D01*
X89635327Y-71444726D01*
X89544726Y-71535327D01*
X89544723Y-71535331D01*
X89473538Y-71641866D01*
X89473533Y-71641875D01*
X89424499Y-71760255D01*
X89424497Y-71760261D01*
X89399500Y-71885928D01*
X89399500Y-71885931D01*
X89399500Y-72014069D01*
X89399500Y-72014071D01*
X89399499Y-72014071D01*
X84805500Y-72014071D01*
X84805500Y-40636500D01*
X84825185Y-40569461D01*
X84877989Y-40523706D01*
X84929500Y-40512500D01*
X99492456Y-40512500D01*
X99559495Y-40532185D01*
G37*
G04 #@! TD.AperFunction*
G04 #@! TA.AperFunction,Conductor*
G36*
X126989784Y-51840185D02*
G01*
X127010426Y-51856819D01*
X127591502Y-52437895D01*
X127624987Y-52499218D01*
X127620003Y-52568910D01*
X127618384Y-52573025D01*
X127609871Y-52593579D01*
X127609869Y-52593583D01*
X127609867Y-52593587D01*
X127569500Y-52796530D01*
X127569500Y-53003469D01*
X127609868Y-53206412D01*
X127609870Y-53206420D01*
X127680499Y-53376934D01*
X127689059Y-53397598D01*
X127720500Y-53444653D01*
X127804024Y-53569657D01*
X127950342Y-53715975D01*
X127950345Y-53715977D01*
X128122402Y-53830941D01*
X128313580Y-53910130D01*
X128430497Y-53933386D01*
X128516530Y-53950499D01*
X128516534Y-53950500D01*
X128516535Y-53950500D01*
X128723466Y-53950500D01*
X128723467Y-53950499D01*
X128926420Y-53910130D01*
X129117598Y-53830941D01*
X129289655Y-53715977D01*
X129312931Y-53692701D01*
X129337819Y-53667814D01*
X129399142Y-53634329D01*
X129468834Y-53639313D01*
X129524767Y-53681185D01*
X129549184Y-53746649D01*
X129549500Y-53755495D01*
X129549500Y-63394456D01*
X129529815Y-63461495D01*
X129477011Y-63507250D01*
X129407853Y-63517194D01*
X129344297Y-63488169D01*
X129337819Y-63482137D01*
X125045213Y-59189531D01*
X125045208Y-59189527D01*
X124965290Y-59143387D01*
X124965289Y-59143386D01*
X124965288Y-59143386D01*
X124876144Y-59119500D01*
X124876143Y-59119500D01*
X96020765Y-59119500D01*
X95953726Y-59099815D01*
X95907971Y-59047011D01*
X95898027Y-58977853D01*
X95904107Y-58955684D01*
X95903733Y-58955571D01*
X95905497Y-58949751D01*
X95905501Y-58949744D01*
X95930500Y-58824069D01*
X95930500Y-58695931D01*
X95930500Y-58695928D01*
X95905502Y-58570261D01*
X95905501Y-58570260D01*
X95905501Y-58570256D01*
X95856465Y-58451873D01*
X95856464Y-58451872D01*
X95856461Y-58451866D01*
X95785276Y-58345331D01*
X95785273Y-58345327D01*
X95694672Y-58254726D01*
X95694668Y-58254723D01*
X95588133Y-58183538D01*
X95588124Y-58183533D01*
X95469744Y-58134499D01*
X95469738Y-58134497D01*
X95344071Y-58109500D01*
X95344069Y-58109500D01*
X95215931Y-58109500D01*
X95215929Y-58109500D01*
X95090261Y-58134497D01*
X95090255Y-58134499D01*
X94971875Y-58183533D01*
X94971866Y-58183538D01*
X94865331Y-58254723D01*
X94865327Y-58254726D01*
X94846873Y-58273181D01*
X94819945Y-58287884D01*
X94794127Y-58304477D01*
X94787926Y-58305368D01*
X94785550Y-58306666D01*
X94759192Y-58309500D01*
X94597965Y-58309500D01*
X94530926Y-58289815D01*
X94510284Y-58273181D01*
X94127485Y-57890382D01*
X94100605Y-57850153D01*
X94076468Y-57791880D01*
X94076467Y-57791879D01*
X94076465Y-57791873D01*
X94046664Y-57747273D01*
X94005279Y-57685335D01*
X94005273Y-57685327D01*
X93914672Y-57594726D01*
X93914668Y-57594723D01*
X93808133Y-57523538D01*
X93808124Y-57523533D01*
X93689744Y-57474499D01*
X93689739Y-57474498D01*
X93627133Y-57462044D01*
X93565223Y-57429658D01*
X93530649Y-57368942D01*
X93534390Y-57299173D01*
X93563643Y-57252749D01*
X94799574Y-56016819D01*
X94860897Y-55983334D01*
X94887255Y-55980500D01*
X123452725Y-55980500D01*
X123452727Y-55980500D01*
X123554588Y-55953207D01*
X123645913Y-55900480D01*
X125617896Y-53928495D01*
X125679217Y-53895012D01*
X125748908Y-53899996D01*
X125753027Y-53901617D01*
X125773575Y-53910128D01*
X125773580Y-53910130D01*
X125890497Y-53933386D01*
X125976530Y-53950499D01*
X125976534Y-53950500D01*
X125976535Y-53950500D01*
X126183466Y-53950500D01*
X126183467Y-53950499D01*
X126386420Y-53910130D01*
X126577598Y-53830941D01*
X126749655Y-53715977D01*
X126895977Y-53569655D01*
X127010941Y-53397598D01*
X127090130Y-53206420D01*
X127130500Y-53003465D01*
X127130500Y-52796535D01*
X127090130Y-52593580D01*
X127010941Y-52402402D01*
X126895977Y-52230345D01*
X126895975Y-52230342D01*
X126749657Y-52084024D01*
X126695148Y-52047603D01*
X126650342Y-51993991D01*
X126641635Y-51924666D01*
X126671789Y-51861638D01*
X126731232Y-51824918D01*
X126764038Y-51820500D01*
X126922745Y-51820500D01*
X126989784Y-51840185D01*
G37*
G04 #@! TD.AperFunction*
M02*
