G04 #@! TF.GenerationSoftware,KiCad,Pcbnew,9.0.3*
G04 #@! TF.CreationDate,2026-04-27T13:40:57+08:00*
G04 #@! TF.ProjectId,phantomware,7068616e-746f-46d7-9761-72652e6b6963,rev?*
G04 #@! TF.SameCoordinates,Original*
G04 #@! TF.FileFunction,Legend,Bot*
G04 #@! TF.FilePolarity,Positive*
%FSLAX46Y46*%
G04 Gerber Fmt 4.6, Leading zero omitted, Abs format (unit mm)*
G04 Created by KiCad (PCBNEW 9.0.3) date 2026-04-27 13:40:57*
%MOMM*%
%LPD*%
G01*
G04 APERTURE LIST*
%ADD10C,0.200000*%
%ADD11C,0.175000*%
%ADD12C,0.162500*%
%ADD13C,0.375000*%
%ADD14C,0.250000*%
%ADD15C,0.580000*%
%ADD16C,0.000000*%
%ADD17O,1.100000X1.700000*%
%ADD18C,0.900000*%
%ADD19C,1.700000*%
%ADD20C,1.600000*%
%ADD21C,1.800000*%
G04 APERTURE END LIST*
D10*
X138780000Y-48000000D02*
X138780000Y-47600000D01*
X156560000Y-47600000D02*
X156560000Y-48000000D01*
X151500000Y-48000000D02*
X151500000Y-47600000D01*
X159100000Y-47600000D02*
X159100000Y-48000000D01*
X159100000Y-47600000D02*
X156560000Y-47600000D01*
X136240000Y-47600000D02*
X138780000Y-47600000D01*
X146400000Y-47600000D02*
X146400000Y-48000000D01*
X151500000Y-47600000D02*
X146400000Y-47600000D01*
X136240000Y-48000000D02*
X136240000Y-47600000D01*
D11*
X155053333Y-50405233D02*
X154619999Y-50405233D01*
X154619999Y-50405233D02*
X154853333Y-50671900D01*
X154853333Y-50671900D02*
X154753333Y-50671900D01*
X154753333Y-50671900D02*
X154686666Y-50705233D01*
X154686666Y-50705233D02*
X154653333Y-50738566D01*
X154653333Y-50738566D02*
X154619999Y-50805233D01*
X154619999Y-50805233D02*
X154619999Y-50971900D01*
X154619999Y-50971900D02*
X154653333Y-51038566D01*
X154653333Y-51038566D02*
X154686666Y-51071900D01*
X154686666Y-51071900D02*
X154753333Y-51105233D01*
X154753333Y-51105233D02*
X154953333Y-51105233D01*
X154953333Y-51105233D02*
X155019999Y-51071900D01*
X155019999Y-51071900D02*
X155053333Y-51038566D01*
X154319999Y-51038566D02*
X154286666Y-51071900D01*
X154286666Y-51071900D02*
X154319999Y-51105233D01*
X154319999Y-51105233D02*
X154353332Y-51071900D01*
X154353332Y-51071900D02*
X154319999Y-51038566D01*
X154319999Y-51038566D02*
X154319999Y-51105233D01*
X154053333Y-50405233D02*
X153619999Y-50405233D01*
X153619999Y-50405233D02*
X153853333Y-50671900D01*
X153853333Y-50671900D02*
X153753333Y-50671900D01*
X153753333Y-50671900D02*
X153686666Y-50705233D01*
X153686666Y-50705233D02*
X153653333Y-50738566D01*
X153653333Y-50738566D02*
X153619999Y-50805233D01*
X153619999Y-50805233D02*
X153619999Y-50971900D01*
X153619999Y-50971900D02*
X153653333Y-51038566D01*
X153653333Y-51038566D02*
X153686666Y-51071900D01*
X153686666Y-51071900D02*
X153753333Y-51105233D01*
X153753333Y-51105233D02*
X153953333Y-51105233D01*
X153953333Y-51105233D02*
X154019999Y-51071900D01*
X154019999Y-51071900D02*
X154053333Y-51038566D01*
X153419999Y-50405233D02*
X153186666Y-51105233D01*
X153186666Y-51105233D02*
X152953332Y-50405233D01*
X122033333Y-76355233D02*
X121599999Y-76355233D01*
X121599999Y-76355233D02*
X121833333Y-76621900D01*
X121833333Y-76621900D02*
X121733333Y-76621900D01*
X121733333Y-76621900D02*
X121666666Y-76655233D01*
X121666666Y-76655233D02*
X121633333Y-76688566D01*
X121633333Y-76688566D02*
X121599999Y-76755233D01*
X121599999Y-76755233D02*
X121599999Y-76921900D01*
X121599999Y-76921900D02*
X121633333Y-76988566D01*
X121633333Y-76988566D02*
X121666666Y-77021900D01*
X121666666Y-77021900D02*
X121733333Y-77055233D01*
X121733333Y-77055233D02*
X121933333Y-77055233D01*
X121933333Y-77055233D02*
X121999999Y-77021900D01*
X121999999Y-77021900D02*
X122033333Y-76988566D01*
X121299999Y-76988566D02*
X121266666Y-77021900D01*
X121266666Y-77021900D02*
X121299999Y-77055233D01*
X121299999Y-77055233D02*
X121333332Y-77021900D01*
X121333332Y-77021900D02*
X121299999Y-76988566D01*
X121299999Y-76988566D02*
X121299999Y-77055233D01*
X121033333Y-76355233D02*
X120599999Y-76355233D01*
X120599999Y-76355233D02*
X120833333Y-76621900D01*
X120833333Y-76621900D02*
X120733333Y-76621900D01*
X120733333Y-76621900D02*
X120666666Y-76655233D01*
X120666666Y-76655233D02*
X120633333Y-76688566D01*
X120633333Y-76688566D02*
X120599999Y-76755233D01*
X120599999Y-76755233D02*
X120599999Y-76921900D01*
X120599999Y-76921900D02*
X120633333Y-76988566D01*
X120633333Y-76988566D02*
X120666666Y-77021900D01*
X120666666Y-77021900D02*
X120733333Y-77055233D01*
X120733333Y-77055233D02*
X120933333Y-77055233D01*
X120933333Y-77055233D02*
X120999999Y-77021900D01*
X120999999Y-77021900D02*
X121033333Y-76988566D01*
X120399999Y-76355233D02*
X120166666Y-77055233D01*
X120166666Y-77055233D02*
X119933332Y-76355233D01*
X172333332Y-50438566D02*
X172399999Y-50405233D01*
X172399999Y-50405233D02*
X172499999Y-50405233D01*
X172499999Y-50405233D02*
X172599999Y-50438566D01*
X172599999Y-50438566D02*
X172666666Y-50505233D01*
X172666666Y-50505233D02*
X172699999Y-50571900D01*
X172699999Y-50571900D02*
X172733332Y-50705233D01*
X172733332Y-50705233D02*
X172733332Y-50805233D01*
X172733332Y-50805233D02*
X172699999Y-50938566D01*
X172699999Y-50938566D02*
X172666666Y-51005233D01*
X172666666Y-51005233D02*
X172599999Y-51071900D01*
X172599999Y-51071900D02*
X172499999Y-51105233D01*
X172499999Y-51105233D02*
X172433332Y-51105233D01*
X172433332Y-51105233D02*
X172333332Y-51071900D01*
X172333332Y-51071900D02*
X172299999Y-51038566D01*
X172299999Y-51038566D02*
X172299999Y-50805233D01*
X172299999Y-50805233D02*
X172433332Y-50805233D01*
X171999999Y-51105233D02*
X171999999Y-50405233D01*
X171999999Y-50405233D02*
X171599999Y-51105233D01*
X171599999Y-51105233D02*
X171599999Y-50405233D01*
X171266666Y-51105233D02*
X171266666Y-50405233D01*
X171266666Y-50405233D02*
X171099999Y-50405233D01*
X171099999Y-50405233D02*
X170999999Y-50438566D01*
X170999999Y-50438566D02*
X170933333Y-50505233D01*
X170933333Y-50505233D02*
X170899999Y-50571900D01*
X170899999Y-50571900D02*
X170866666Y-50705233D01*
X170866666Y-50705233D02*
X170866666Y-50805233D01*
X170866666Y-50805233D02*
X170899999Y-50938566D01*
X170899999Y-50938566D02*
X170933333Y-51005233D01*
X170933333Y-51005233D02*
X170999999Y-51071900D01*
X170999999Y-51071900D02*
X171099999Y-51105233D01*
X171099999Y-51105233D02*
X171266666Y-51105233D01*
X89215951Y-42937566D02*
X88454047Y-42937566D01*
X106833333Y-44805233D02*
X106833333Y-44105233D01*
X106833333Y-44105233D02*
X106666666Y-44105233D01*
X106666666Y-44105233D02*
X106566666Y-44138566D01*
X106566666Y-44138566D02*
X106500000Y-44205233D01*
X106500000Y-44205233D02*
X106466666Y-44271900D01*
X106466666Y-44271900D02*
X106433333Y-44405233D01*
X106433333Y-44405233D02*
X106433333Y-44505233D01*
X106433333Y-44505233D02*
X106466666Y-44638566D01*
X106466666Y-44638566D02*
X106500000Y-44705233D01*
X106500000Y-44705233D02*
X106566666Y-44771900D01*
X106566666Y-44771900D02*
X106666666Y-44805233D01*
X106666666Y-44805233D02*
X106833333Y-44805233D01*
X105733333Y-44738566D02*
X105766666Y-44771900D01*
X105766666Y-44771900D02*
X105866666Y-44805233D01*
X105866666Y-44805233D02*
X105933333Y-44805233D01*
X105933333Y-44805233D02*
X106033333Y-44771900D01*
X106033333Y-44771900D02*
X106100000Y-44705233D01*
X106100000Y-44705233D02*
X106133333Y-44638566D01*
X106133333Y-44638566D02*
X106166666Y-44505233D01*
X106166666Y-44505233D02*
X106166666Y-44405233D01*
X106166666Y-44405233D02*
X106133333Y-44271900D01*
X106133333Y-44271900D02*
X106100000Y-44205233D01*
X106100000Y-44205233D02*
X106033333Y-44138566D01*
X106033333Y-44138566D02*
X105933333Y-44105233D01*
X105933333Y-44105233D02*
X105866666Y-44105233D01*
X105866666Y-44105233D02*
X105766666Y-44138566D01*
X105766666Y-44138566D02*
X105733333Y-44171900D01*
D12*
X147119283Y-86881050D02*
X147026426Y-86912002D01*
X147026426Y-86912002D02*
X146871664Y-86912002D01*
X146871664Y-86912002D02*
X146809759Y-86881050D01*
X146809759Y-86881050D02*
X146778807Y-86850097D01*
X146778807Y-86850097D02*
X146747854Y-86788192D01*
X146747854Y-86788192D02*
X146747854Y-86726288D01*
X146747854Y-86726288D02*
X146778807Y-86664383D01*
X146778807Y-86664383D02*
X146809759Y-86633430D01*
X146809759Y-86633430D02*
X146871664Y-86602478D01*
X146871664Y-86602478D02*
X146995473Y-86571526D01*
X146995473Y-86571526D02*
X147057378Y-86540573D01*
X147057378Y-86540573D02*
X147088331Y-86509621D01*
X147088331Y-86509621D02*
X147119283Y-86447716D01*
X147119283Y-86447716D02*
X147119283Y-86385811D01*
X147119283Y-86385811D02*
X147088331Y-86323907D01*
X147088331Y-86323907D02*
X147057378Y-86292954D01*
X147057378Y-86292954D02*
X146995473Y-86262002D01*
X146995473Y-86262002D02*
X146840712Y-86262002D01*
X146840712Y-86262002D02*
X146747854Y-86292954D01*
X146469283Y-86571526D02*
X146252616Y-86571526D01*
X146159759Y-86912002D02*
X146469283Y-86912002D01*
X146469283Y-86912002D02*
X146469283Y-86262002D01*
X146469283Y-86262002D02*
X146159759Y-86262002D01*
X145571664Y-86912002D02*
X145881188Y-86912002D01*
X145881188Y-86912002D02*
X145881188Y-86262002D01*
D13*
X145592933Y-88674339D02*
X145378647Y-88745767D01*
X145378647Y-88745767D02*
X145307218Y-88817196D01*
X145307218Y-88817196D02*
X145235790Y-88960053D01*
X145235790Y-88960053D02*
X145235790Y-89174339D01*
X145235790Y-89174339D02*
X145307218Y-89317196D01*
X145307218Y-89317196D02*
X145378647Y-89388625D01*
X145378647Y-89388625D02*
X145521504Y-89460053D01*
X145521504Y-89460053D02*
X146092933Y-89460053D01*
X146092933Y-89460053D02*
X146092933Y-87960053D01*
X146092933Y-87960053D02*
X145592933Y-87960053D01*
X145592933Y-87960053D02*
X145450076Y-88031482D01*
X145450076Y-88031482D02*
X145378647Y-88102910D01*
X145378647Y-88102910D02*
X145307218Y-88245767D01*
X145307218Y-88245767D02*
X145307218Y-88388625D01*
X145307218Y-88388625D02*
X145378647Y-88531482D01*
X145378647Y-88531482D02*
X145450076Y-88602910D01*
X145450076Y-88602910D02*
X145592933Y-88674339D01*
X145592933Y-88674339D02*
X146092933Y-88674339D01*
X144592933Y-87960053D02*
X144592933Y-89174339D01*
X144592933Y-89174339D02*
X144521504Y-89317196D01*
X144521504Y-89317196D02*
X144450076Y-89388625D01*
X144450076Y-89388625D02*
X144307218Y-89460053D01*
X144307218Y-89460053D02*
X144021504Y-89460053D01*
X144021504Y-89460053D02*
X143878647Y-89388625D01*
X143878647Y-89388625D02*
X143807218Y-89317196D01*
X143807218Y-89317196D02*
X143735790Y-89174339D01*
X143735790Y-89174339D02*
X143735790Y-87960053D01*
X143235789Y-87960053D02*
X142378647Y-87960053D01*
X142807218Y-89460053D02*
X142807218Y-87960053D01*
X142092932Y-87960053D02*
X141235790Y-87960053D01*
X141664361Y-89460053D02*
X141664361Y-87960053D01*
X140450075Y-87960053D02*
X140164361Y-87960053D01*
X140164361Y-87960053D02*
X140021504Y-88031482D01*
X140021504Y-88031482D02*
X139878647Y-88174339D01*
X139878647Y-88174339D02*
X139807218Y-88460053D01*
X139807218Y-88460053D02*
X139807218Y-88960053D01*
X139807218Y-88960053D02*
X139878647Y-89245767D01*
X139878647Y-89245767D02*
X140021504Y-89388625D01*
X140021504Y-89388625D02*
X140164361Y-89460053D01*
X140164361Y-89460053D02*
X140450075Y-89460053D01*
X140450075Y-89460053D02*
X140592933Y-89388625D01*
X140592933Y-89388625D02*
X140735790Y-89245767D01*
X140735790Y-89245767D02*
X140807218Y-88960053D01*
X140807218Y-88960053D02*
X140807218Y-88460053D01*
X140807218Y-88460053D02*
X140735790Y-88174339D01*
X140735790Y-88174339D02*
X140592933Y-88031482D01*
X140592933Y-88031482D02*
X140450075Y-87960053D01*
X139164361Y-89460053D02*
X139164361Y-87960053D01*
X139164361Y-87960053D02*
X138307218Y-89460053D01*
X138307218Y-89460053D02*
X138307218Y-87960053D01*
X137664360Y-89388625D02*
X137450075Y-89460053D01*
X137450075Y-89460053D02*
X137092932Y-89460053D01*
X137092932Y-89460053D02*
X136950075Y-89388625D01*
X136950075Y-89388625D02*
X136878646Y-89317196D01*
X136878646Y-89317196D02*
X136807217Y-89174339D01*
X136807217Y-89174339D02*
X136807217Y-89031482D01*
X136807217Y-89031482D02*
X136878646Y-88888625D01*
X136878646Y-88888625D02*
X136950075Y-88817196D01*
X136950075Y-88817196D02*
X137092932Y-88745767D01*
X137092932Y-88745767D02*
X137378646Y-88674339D01*
X137378646Y-88674339D02*
X137521503Y-88602910D01*
X137521503Y-88602910D02*
X137592932Y-88531482D01*
X137592932Y-88531482D02*
X137664360Y-88388625D01*
X137664360Y-88388625D02*
X137664360Y-88245767D01*
X137664360Y-88245767D02*
X137592932Y-88102910D01*
X137592932Y-88102910D02*
X137521503Y-88031482D01*
X137521503Y-88031482D02*
X137378646Y-87960053D01*
X137378646Y-87960053D02*
X137021503Y-87960053D01*
X137021503Y-87960053D02*
X136807217Y-88031482D01*
D11*
X123923333Y-77055233D02*
X124156666Y-76721900D01*
X124323333Y-77055233D02*
X124323333Y-76355233D01*
X124323333Y-76355233D02*
X124056666Y-76355233D01*
X124056666Y-76355233D02*
X123990000Y-76388566D01*
X123990000Y-76388566D02*
X123956666Y-76421900D01*
X123956666Y-76421900D02*
X123923333Y-76488566D01*
X123923333Y-76488566D02*
X123923333Y-76588566D01*
X123923333Y-76588566D02*
X123956666Y-76655233D01*
X123956666Y-76655233D02*
X123990000Y-76688566D01*
X123990000Y-76688566D02*
X124056666Y-76721900D01*
X124056666Y-76721900D02*
X124323333Y-76721900D01*
X123656666Y-77021900D02*
X123556666Y-77055233D01*
X123556666Y-77055233D02*
X123390000Y-77055233D01*
X123390000Y-77055233D02*
X123323333Y-77021900D01*
X123323333Y-77021900D02*
X123290000Y-76988566D01*
X123290000Y-76988566D02*
X123256666Y-76921900D01*
X123256666Y-76921900D02*
X123256666Y-76855233D01*
X123256666Y-76855233D02*
X123290000Y-76788566D01*
X123290000Y-76788566D02*
X123323333Y-76755233D01*
X123323333Y-76755233D02*
X123390000Y-76721900D01*
X123390000Y-76721900D02*
X123523333Y-76688566D01*
X123523333Y-76688566D02*
X123590000Y-76655233D01*
X123590000Y-76655233D02*
X123623333Y-76621900D01*
X123623333Y-76621900D02*
X123656666Y-76555233D01*
X123656666Y-76555233D02*
X123656666Y-76488566D01*
X123656666Y-76488566D02*
X123623333Y-76421900D01*
X123623333Y-76421900D02*
X123590000Y-76388566D01*
X123590000Y-76388566D02*
X123523333Y-76355233D01*
X123523333Y-76355233D02*
X123356666Y-76355233D01*
X123356666Y-76355233D02*
X123256666Y-76388566D01*
X123056666Y-76355233D02*
X122656666Y-76355233D01*
X122856666Y-77055233D02*
X122856666Y-76355233D01*
D12*
X139428807Y-86912002D02*
X139738331Y-86912002D01*
X139738331Y-86912002D02*
X139738331Y-86262002D01*
X139212141Y-86571526D02*
X138995474Y-86571526D01*
X138902617Y-86912002D02*
X139212141Y-86912002D01*
X139212141Y-86912002D02*
X139212141Y-86262002D01*
X139212141Y-86262002D02*
X138902617Y-86262002D01*
X138407379Y-86571526D02*
X138624046Y-86571526D01*
X138624046Y-86912002D02*
X138624046Y-86262002D01*
X138624046Y-86262002D02*
X138314522Y-86262002D01*
X138159760Y-86262002D02*
X137788331Y-86262002D01*
X137974045Y-86912002D02*
X137974045Y-86262002D01*
D11*
X149839999Y-51071900D02*
X149739999Y-51105233D01*
X149739999Y-51105233D02*
X149573333Y-51105233D01*
X149573333Y-51105233D02*
X149506666Y-51071900D01*
X149506666Y-51071900D02*
X149473333Y-51038566D01*
X149473333Y-51038566D02*
X149439999Y-50971900D01*
X149439999Y-50971900D02*
X149439999Y-50905233D01*
X149439999Y-50905233D02*
X149473333Y-50838566D01*
X149473333Y-50838566D02*
X149506666Y-50805233D01*
X149506666Y-50805233D02*
X149573333Y-50771900D01*
X149573333Y-50771900D02*
X149706666Y-50738566D01*
X149706666Y-50738566D02*
X149773333Y-50705233D01*
X149773333Y-50705233D02*
X149806666Y-50671900D01*
X149806666Y-50671900D02*
X149839999Y-50605233D01*
X149839999Y-50605233D02*
X149839999Y-50538566D01*
X149839999Y-50538566D02*
X149806666Y-50471900D01*
X149806666Y-50471900D02*
X149773333Y-50438566D01*
X149773333Y-50438566D02*
X149706666Y-50405233D01*
X149706666Y-50405233D02*
X149539999Y-50405233D01*
X149539999Y-50405233D02*
X149439999Y-50438566D01*
X148739999Y-51038566D02*
X148773332Y-51071900D01*
X148773332Y-51071900D02*
X148873332Y-51105233D01*
X148873332Y-51105233D02*
X148939999Y-51105233D01*
X148939999Y-51105233D02*
X149039999Y-51071900D01*
X149039999Y-51071900D02*
X149106666Y-51005233D01*
X149106666Y-51005233D02*
X149139999Y-50938566D01*
X149139999Y-50938566D02*
X149173332Y-50805233D01*
X149173332Y-50805233D02*
X149173332Y-50705233D01*
X149173332Y-50705233D02*
X149139999Y-50571900D01*
X149139999Y-50571900D02*
X149106666Y-50505233D01*
X149106666Y-50505233D02*
X149039999Y-50438566D01*
X149039999Y-50438566D02*
X148939999Y-50405233D01*
X148939999Y-50405233D02*
X148873332Y-50405233D01*
X148873332Y-50405233D02*
X148773332Y-50438566D01*
X148773332Y-50438566D02*
X148739999Y-50471900D01*
X148439999Y-51105233D02*
X148439999Y-50405233D01*
X148039999Y-51105233D02*
X148339999Y-50705233D01*
X148039999Y-50405233D02*
X148439999Y-50805233D01*
X94133332Y-44138566D02*
X94199999Y-44105233D01*
X94199999Y-44105233D02*
X94299999Y-44105233D01*
X94299999Y-44105233D02*
X94399999Y-44138566D01*
X94399999Y-44138566D02*
X94466666Y-44205233D01*
X94466666Y-44205233D02*
X94499999Y-44271900D01*
X94499999Y-44271900D02*
X94533332Y-44405233D01*
X94533332Y-44405233D02*
X94533332Y-44505233D01*
X94533332Y-44505233D02*
X94499999Y-44638566D01*
X94499999Y-44638566D02*
X94466666Y-44705233D01*
X94466666Y-44705233D02*
X94399999Y-44771900D01*
X94399999Y-44771900D02*
X94299999Y-44805233D01*
X94299999Y-44805233D02*
X94233332Y-44805233D01*
X94233332Y-44805233D02*
X94133332Y-44771900D01*
X94133332Y-44771900D02*
X94099999Y-44738566D01*
X94099999Y-44738566D02*
X94099999Y-44505233D01*
X94099999Y-44505233D02*
X94233332Y-44505233D01*
X93799999Y-44805233D02*
X93799999Y-44105233D01*
X93799999Y-44105233D02*
X93399999Y-44805233D01*
X93399999Y-44805233D02*
X93399999Y-44105233D01*
X93066666Y-44805233D02*
X93066666Y-44105233D01*
X93066666Y-44105233D02*
X92899999Y-44105233D01*
X92899999Y-44105233D02*
X92799999Y-44138566D01*
X92799999Y-44138566D02*
X92733333Y-44205233D01*
X92733333Y-44205233D02*
X92699999Y-44271900D01*
X92699999Y-44271900D02*
X92666666Y-44405233D01*
X92666666Y-44405233D02*
X92666666Y-44505233D01*
X92666666Y-44505233D02*
X92699999Y-44638566D01*
X92699999Y-44638566D02*
X92733333Y-44705233D01*
X92733333Y-44705233D02*
X92799999Y-44771900D01*
X92799999Y-44771900D02*
X92899999Y-44805233D01*
X92899999Y-44805233D02*
X93066666Y-44805233D01*
X147499999Y-51105233D02*
X147499999Y-50405233D01*
X147499999Y-50405233D02*
X147266666Y-50905233D01*
X147266666Y-50905233D02*
X147033332Y-50405233D01*
X147033332Y-50405233D02*
X147033332Y-51105233D01*
X146699999Y-51105233D02*
X146699999Y-50405233D01*
X146399999Y-51071900D02*
X146299999Y-51105233D01*
X146299999Y-51105233D02*
X146133333Y-51105233D01*
X146133333Y-51105233D02*
X146066666Y-51071900D01*
X146066666Y-51071900D02*
X146033333Y-51038566D01*
X146033333Y-51038566D02*
X145999999Y-50971900D01*
X145999999Y-50971900D02*
X145999999Y-50905233D01*
X145999999Y-50905233D02*
X146033333Y-50838566D01*
X146033333Y-50838566D02*
X146066666Y-50805233D01*
X146066666Y-50805233D02*
X146133333Y-50771900D01*
X146133333Y-50771900D02*
X146266666Y-50738566D01*
X146266666Y-50738566D02*
X146333333Y-50705233D01*
X146333333Y-50705233D02*
X146366666Y-50671900D01*
X146366666Y-50671900D02*
X146399999Y-50605233D01*
X146399999Y-50605233D02*
X146399999Y-50538566D01*
X146399999Y-50538566D02*
X146366666Y-50471900D01*
X146366666Y-50471900D02*
X146333333Y-50438566D01*
X146333333Y-50438566D02*
X146266666Y-50405233D01*
X146266666Y-50405233D02*
X146099999Y-50405233D01*
X146099999Y-50405233D02*
X145999999Y-50438566D01*
X145566666Y-50405233D02*
X145433332Y-50405233D01*
X145433332Y-50405233D02*
X145366666Y-50438566D01*
X145366666Y-50438566D02*
X145299999Y-50505233D01*
X145299999Y-50505233D02*
X145266666Y-50638566D01*
X145266666Y-50638566D02*
X145266666Y-50871900D01*
X145266666Y-50871900D02*
X145299999Y-51005233D01*
X145299999Y-51005233D02*
X145366666Y-51071900D01*
X145366666Y-51071900D02*
X145433332Y-51105233D01*
X145433332Y-51105233D02*
X145566666Y-51105233D01*
X145566666Y-51105233D02*
X145633332Y-51071900D01*
X145633332Y-51071900D02*
X145699999Y-51005233D01*
X145699999Y-51005233D02*
X145733332Y-50871900D01*
X145733332Y-50871900D02*
X145733332Y-50638566D01*
X145733332Y-50638566D02*
X145699999Y-50505233D01*
X145699999Y-50505233D02*
X145633332Y-50438566D01*
X145633332Y-50438566D02*
X145566666Y-50405233D01*
D12*
X115288331Y-86912002D02*
X115288331Y-86262002D01*
X115288331Y-86262002D02*
X115071664Y-86726288D01*
X115071664Y-86726288D02*
X114854997Y-86262002D01*
X114854997Y-86262002D02*
X114854997Y-86912002D01*
X114545474Y-86912002D02*
X114545474Y-86262002D01*
X114266902Y-86881050D02*
X114174045Y-86912002D01*
X114174045Y-86912002D02*
X114019283Y-86912002D01*
X114019283Y-86912002D02*
X113957378Y-86881050D01*
X113957378Y-86881050D02*
X113926426Y-86850097D01*
X113926426Y-86850097D02*
X113895473Y-86788192D01*
X113895473Y-86788192D02*
X113895473Y-86726288D01*
X113895473Y-86726288D02*
X113926426Y-86664383D01*
X113926426Y-86664383D02*
X113957378Y-86633430D01*
X113957378Y-86633430D02*
X114019283Y-86602478D01*
X114019283Y-86602478D02*
X114143092Y-86571526D01*
X114143092Y-86571526D02*
X114204997Y-86540573D01*
X114204997Y-86540573D02*
X114235950Y-86509621D01*
X114235950Y-86509621D02*
X114266902Y-86447716D01*
X114266902Y-86447716D02*
X114266902Y-86385811D01*
X114266902Y-86385811D02*
X114235950Y-86323907D01*
X114235950Y-86323907D02*
X114204997Y-86292954D01*
X114204997Y-86292954D02*
X114143092Y-86262002D01*
X114143092Y-86262002D02*
X113988331Y-86262002D01*
X113988331Y-86262002D02*
X113895473Y-86292954D01*
X113493092Y-86262002D02*
X113369283Y-86262002D01*
X113369283Y-86262002D02*
X113307378Y-86292954D01*
X113307378Y-86292954D02*
X113245473Y-86354859D01*
X113245473Y-86354859D02*
X113214521Y-86478669D01*
X113214521Y-86478669D02*
X113214521Y-86695335D01*
X113214521Y-86695335D02*
X113245473Y-86819145D01*
X113245473Y-86819145D02*
X113307378Y-86881050D01*
X113307378Y-86881050D02*
X113369283Y-86912002D01*
X113369283Y-86912002D02*
X113493092Y-86912002D01*
X113493092Y-86912002D02*
X113554997Y-86881050D01*
X113554997Y-86881050D02*
X113616902Y-86819145D01*
X113616902Y-86819145D02*
X113647854Y-86695335D01*
X113647854Y-86695335D02*
X113647854Y-86478669D01*
X113647854Y-86478669D02*
X113616902Y-86354859D01*
X113616902Y-86354859D02*
X113554997Y-86292954D01*
X113554997Y-86292954D02*
X113493092Y-86262002D01*
X112569283Y-86881050D02*
X112476426Y-86912002D01*
X112476426Y-86912002D02*
X112321664Y-86912002D01*
X112321664Y-86912002D02*
X112259759Y-86881050D01*
X112259759Y-86881050D02*
X112228807Y-86850097D01*
X112228807Y-86850097D02*
X112197854Y-86788192D01*
X112197854Y-86788192D02*
X112197854Y-86726288D01*
X112197854Y-86726288D02*
X112228807Y-86664383D01*
X112228807Y-86664383D02*
X112259759Y-86633430D01*
X112259759Y-86633430D02*
X112321664Y-86602478D01*
X112321664Y-86602478D02*
X112445473Y-86571526D01*
X112445473Y-86571526D02*
X112507378Y-86540573D01*
X112507378Y-86540573D02*
X112538331Y-86509621D01*
X112538331Y-86509621D02*
X112569283Y-86447716D01*
X112569283Y-86447716D02*
X112569283Y-86385811D01*
X112569283Y-86385811D02*
X112538331Y-86323907D01*
X112538331Y-86323907D02*
X112507378Y-86292954D01*
X112507378Y-86292954D02*
X112445473Y-86262002D01*
X112445473Y-86262002D02*
X112290712Y-86262002D01*
X112290712Y-86262002D02*
X112197854Y-86292954D01*
X111547854Y-86850097D02*
X111578806Y-86881050D01*
X111578806Y-86881050D02*
X111671664Y-86912002D01*
X111671664Y-86912002D02*
X111733568Y-86912002D01*
X111733568Y-86912002D02*
X111826425Y-86881050D01*
X111826425Y-86881050D02*
X111888330Y-86819145D01*
X111888330Y-86819145D02*
X111919283Y-86757240D01*
X111919283Y-86757240D02*
X111950235Y-86633430D01*
X111950235Y-86633430D02*
X111950235Y-86540573D01*
X111950235Y-86540573D02*
X111919283Y-86416764D01*
X111919283Y-86416764D02*
X111888330Y-86354859D01*
X111888330Y-86354859D02*
X111826425Y-86292954D01*
X111826425Y-86292954D02*
X111733568Y-86262002D01*
X111733568Y-86262002D02*
X111671664Y-86262002D01*
X111671664Y-86262002D02*
X111578806Y-86292954D01*
X111578806Y-86292954D02*
X111547854Y-86323907D01*
X111269283Y-86912002D02*
X111269283Y-86262002D01*
X110897854Y-86912002D02*
X111176425Y-86540573D01*
X110897854Y-86262002D02*
X111269283Y-86633430D01*
D11*
X159633333Y-50405233D02*
X159233333Y-50405233D01*
X159433333Y-51105233D02*
X159433333Y-50405233D01*
X159066667Y-50405233D02*
X158600000Y-51105233D01*
X158600000Y-50405233D02*
X159066667Y-51105233D01*
X158946666Y-46405233D02*
X158946666Y-46971900D01*
X158946666Y-46971900D02*
X158913333Y-47038566D01*
X158913333Y-47038566D02*
X158879999Y-47071900D01*
X158879999Y-47071900D02*
X158813333Y-47105233D01*
X158813333Y-47105233D02*
X158679999Y-47105233D01*
X158679999Y-47105233D02*
X158613333Y-47071900D01*
X158613333Y-47071900D02*
X158579999Y-47038566D01*
X158579999Y-47038566D02*
X158546666Y-46971900D01*
X158546666Y-46971900D02*
X158546666Y-46405233D01*
X158246666Y-46905233D02*
X157913333Y-46905233D01*
X158313333Y-47105233D02*
X158080000Y-46405233D01*
X158080000Y-46405233D02*
X157846666Y-47105233D01*
X157213333Y-47105233D02*
X157446666Y-46771900D01*
X157613333Y-47105233D02*
X157613333Y-46405233D01*
X157613333Y-46405233D02*
X157346666Y-46405233D01*
X157346666Y-46405233D02*
X157280000Y-46438566D01*
X157280000Y-46438566D02*
X157246666Y-46471900D01*
X157246666Y-46471900D02*
X157213333Y-46538566D01*
X157213333Y-46538566D02*
X157213333Y-46638566D01*
X157213333Y-46638566D02*
X157246666Y-46705233D01*
X157246666Y-46705233D02*
X157280000Y-46738566D01*
X157280000Y-46738566D02*
X157346666Y-46771900D01*
X157346666Y-46771900D02*
X157613333Y-46771900D01*
X157013333Y-46405233D02*
X156613333Y-46405233D01*
X156813333Y-47105233D02*
X156813333Y-46405233D01*
X152579999Y-51105233D02*
X152579999Y-50405233D01*
X152579999Y-50405233D02*
X152346666Y-50905233D01*
X152346666Y-50905233D02*
X152113332Y-50405233D01*
X152113332Y-50405233D02*
X152113332Y-51105233D01*
X151646666Y-50405233D02*
X151513332Y-50405233D01*
X151513332Y-50405233D02*
X151446666Y-50438566D01*
X151446666Y-50438566D02*
X151379999Y-50505233D01*
X151379999Y-50505233D02*
X151346666Y-50638566D01*
X151346666Y-50638566D02*
X151346666Y-50871900D01*
X151346666Y-50871900D02*
X151379999Y-51005233D01*
X151379999Y-51005233D02*
X151446666Y-51071900D01*
X151446666Y-51071900D02*
X151513332Y-51105233D01*
X151513332Y-51105233D02*
X151646666Y-51105233D01*
X151646666Y-51105233D02*
X151713332Y-51071900D01*
X151713332Y-51071900D02*
X151779999Y-51005233D01*
X151779999Y-51005233D02*
X151813332Y-50871900D01*
X151813332Y-50871900D02*
X151813332Y-50638566D01*
X151813332Y-50638566D02*
X151779999Y-50505233D01*
X151779999Y-50505233D02*
X151713332Y-50438566D01*
X151713332Y-50438566D02*
X151646666Y-50405233D01*
X151079999Y-51071900D02*
X150979999Y-51105233D01*
X150979999Y-51105233D02*
X150813333Y-51105233D01*
X150813333Y-51105233D02*
X150746666Y-51071900D01*
X150746666Y-51071900D02*
X150713333Y-51038566D01*
X150713333Y-51038566D02*
X150679999Y-50971900D01*
X150679999Y-50971900D02*
X150679999Y-50905233D01*
X150679999Y-50905233D02*
X150713333Y-50838566D01*
X150713333Y-50838566D02*
X150746666Y-50805233D01*
X150746666Y-50805233D02*
X150813333Y-50771900D01*
X150813333Y-50771900D02*
X150946666Y-50738566D01*
X150946666Y-50738566D02*
X151013333Y-50705233D01*
X151013333Y-50705233D02*
X151046666Y-50671900D01*
X151046666Y-50671900D02*
X151079999Y-50605233D01*
X151079999Y-50605233D02*
X151079999Y-50538566D01*
X151079999Y-50538566D02*
X151046666Y-50471900D01*
X151046666Y-50471900D02*
X151013333Y-50438566D01*
X151013333Y-50438566D02*
X150946666Y-50405233D01*
X150946666Y-50405233D02*
X150779999Y-50405233D01*
X150779999Y-50405233D02*
X150679999Y-50438566D01*
X150379999Y-51105233D02*
X150379999Y-50405233D01*
D12*
X137016902Y-86912002D02*
X137233569Y-86602478D01*
X137388331Y-86912002D02*
X137388331Y-86262002D01*
X137388331Y-86262002D02*
X137140712Y-86262002D01*
X137140712Y-86262002D02*
X137078807Y-86292954D01*
X137078807Y-86292954D02*
X137047854Y-86323907D01*
X137047854Y-86323907D02*
X137016902Y-86385811D01*
X137016902Y-86385811D02*
X137016902Y-86478669D01*
X137016902Y-86478669D02*
X137047854Y-86540573D01*
X137047854Y-86540573D02*
X137078807Y-86571526D01*
X137078807Y-86571526D02*
X137140712Y-86602478D01*
X137140712Y-86602478D02*
X137388331Y-86602478D01*
X136397854Y-86292954D02*
X136459759Y-86262002D01*
X136459759Y-86262002D02*
X136552616Y-86262002D01*
X136552616Y-86262002D02*
X136645473Y-86292954D01*
X136645473Y-86292954D02*
X136707378Y-86354859D01*
X136707378Y-86354859D02*
X136738331Y-86416764D01*
X136738331Y-86416764D02*
X136769283Y-86540573D01*
X136769283Y-86540573D02*
X136769283Y-86633430D01*
X136769283Y-86633430D02*
X136738331Y-86757240D01*
X136738331Y-86757240D02*
X136707378Y-86819145D01*
X136707378Y-86819145D02*
X136645473Y-86881050D01*
X136645473Y-86881050D02*
X136552616Y-86912002D01*
X136552616Y-86912002D02*
X136490712Y-86912002D01*
X136490712Y-86912002D02*
X136397854Y-86881050D01*
X136397854Y-86881050D02*
X136366902Y-86850097D01*
X136366902Y-86850097D02*
X136366902Y-86633430D01*
X136366902Y-86633430D02*
X136490712Y-86633430D01*
X136088331Y-86912002D02*
X136088331Y-86262002D01*
X136088331Y-86571526D02*
X135716902Y-86571526D01*
X135716902Y-86912002D02*
X135716902Y-86262002D01*
X135500236Y-86262002D02*
X135128807Y-86262002D01*
X135314521Y-86912002D02*
X135314521Y-86262002D01*
D11*
X166853333Y-51105233D02*
X167253333Y-51105233D01*
X167053333Y-51105233D02*
X167053333Y-50405233D01*
X167053333Y-50405233D02*
X167120000Y-50505233D01*
X167120000Y-50505233D02*
X167186667Y-50571900D01*
X167186667Y-50571900D02*
X167253333Y-50605233D01*
X166520000Y-51105233D02*
X166386666Y-51105233D01*
X166386666Y-51105233D02*
X166320000Y-51071900D01*
X166320000Y-51071900D02*
X166286666Y-51038566D01*
X166286666Y-51038566D02*
X166220000Y-50938566D01*
X166220000Y-50938566D02*
X166186666Y-50805233D01*
X166186666Y-50805233D02*
X166186666Y-50538566D01*
X166186666Y-50538566D02*
X166220000Y-50471900D01*
X166220000Y-50471900D02*
X166253333Y-50438566D01*
X166253333Y-50438566D02*
X166320000Y-50405233D01*
X166320000Y-50405233D02*
X166453333Y-50405233D01*
X166453333Y-50405233D02*
X166520000Y-50438566D01*
X166520000Y-50438566D02*
X166553333Y-50471900D01*
X166553333Y-50471900D02*
X166586666Y-50538566D01*
X166586666Y-50538566D02*
X166586666Y-50705233D01*
X166586666Y-50705233D02*
X166553333Y-50771900D01*
X166553333Y-50771900D02*
X166520000Y-50805233D01*
X166520000Y-50805233D02*
X166453333Y-50838566D01*
X166453333Y-50838566D02*
X166320000Y-50838566D01*
X166320000Y-50838566D02*
X166253333Y-50805233D01*
X166253333Y-50805233D02*
X166220000Y-50771900D01*
X166220000Y-50771900D02*
X166186666Y-50705233D01*
X162173333Y-50471900D02*
X162140000Y-50438566D01*
X162140000Y-50438566D02*
X162073333Y-50405233D01*
X162073333Y-50405233D02*
X161906667Y-50405233D01*
X161906667Y-50405233D02*
X161840000Y-50438566D01*
X161840000Y-50438566D02*
X161806667Y-50471900D01*
X161806667Y-50471900D02*
X161773333Y-50538566D01*
X161773333Y-50538566D02*
X161773333Y-50605233D01*
X161773333Y-50605233D02*
X161806667Y-50705233D01*
X161806667Y-50705233D02*
X162206667Y-51105233D01*
X162206667Y-51105233D02*
X161773333Y-51105233D01*
X161106666Y-51105233D02*
X161506666Y-51105233D01*
X161306666Y-51105233D02*
X161306666Y-50405233D01*
X161306666Y-50405233D02*
X161373333Y-50505233D01*
X161373333Y-50505233D02*
X161440000Y-50571900D01*
X161440000Y-50571900D02*
X161506666Y-50605233D01*
D13*
X121597218Y-89460053D02*
X121597218Y-87960053D01*
X121597218Y-87960053D02*
X121025789Y-87960053D01*
X121025789Y-87960053D02*
X120882932Y-88031482D01*
X120882932Y-88031482D02*
X120811503Y-88102910D01*
X120811503Y-88102910D02*
X120740075Y-88245767D01*
X120740075Y-88245767D02*
X120740075Y-88460053D01*
X120740075Y-88460053D02*
X120811503Y-88602910D01*
X120811503Y-88602910D02*
X120882932Y-88674339D01*
X120882932Y-88674339D02*
X121025789Y-88745767D01*
X121025789Y-88745767D02*
X121597218Y-88745767D01*
X120097218Y-89460053D02*
X120097218Y-87960053D01*
X120097218Y-87960053D02*
X119240075Y-89460053D01*
X119240075Y-89460053D02*
X119240075Y-87960053D01*
X117811503Y-87960053D02*
X118525789Y-87960053D01*
X118525789Y-87960053D02*
X118597217Y-88674339D01*
X118597217Y-88674339D02*
X118525789Y-88602910D01*
X118525789Y-88602910D02*
X118382932Y-88531482D01*
X118382932Y-88531482D02*
X118025789Y-88531482D01*
X118025789Y-88531482D02*
X117882932Y-88602910D01*
X117882932Y-88602910D02*
X117811503Y-88674339D01*
X117811503Y-88674339D02*
X117740074Y-88817196D01*
X117740074Y-88817196D02*
X117740074Y-89174339D01*
X117740074Y-89174339D02*
X117811503Y-89317196D01*
X117811503Y-89317196D02*
X117882932Y-89388625D01*
X117882932Y-89388625D02*
X118025789Y-89460053D01*
X118025789Y-89460053D02*
X118382932Y-89460053D01*
X118382932Y-89460053D02*
X118525789Y-89388625D01*
X118525789Y-89388625D02*
X118597217Y-89317196D01*
X117240075Y-87960053D02*
X116311503Y-87960053D01*
X116311503Y-87960053D02*
X116811503Y-88531482D01*
X116811503Y-88531482D02*
X116597218Y-88531482D01*
X116597218Y-88531482D02*
X116454361Y-88602910D01*
X116454361Y-88602910D02*
X116382932Y-88674339D01*
X116382932Y-88674339D02*
X116311503Y-88817196D01*
X116311503Y-88817196D02*
X116311503Y-89174339D01*
X116311503Y-89174339D02*
X116382932Y-89317196D01*
X116382932Y-89317196D02*
X116454361Y-89388625D01*
X116454361Y-89388625D02*
X116597218Y-89460053D01*
X116597218Y-89460053D02*
X117025789Y-89460053D01*
X117025789Y-89460053D02*
X117168646Y-89388625D01*
X117168646Y-89388625D02*
X117240075Y-89317196D01*
X115740075Y-88102910D02*
X115668647Y-88031482D01*
X115668647Y-88031482D02*
X115525790Y-87960053D01*
X115525790Y-87960053D02*
X115168647Y-87960053D01*
X115168647Y-87960053D02*
X115025790Y-88031482D01*
X115025790Y-88031482D02*
X114954361Y-88102910D01*
X114954361Y-88102910D02*
X114882932Y-88245767D01*
X114882932Y-88245767D02*
X114882932Y-88388625D01*
X114882932Y-88388625D02*
X114954361Y-88602910D01*
X114954361Y-88602910D02*
X115811504Y-89460053D01*
X115811504Y-89460053D02*
X114882932Y-89460053D01*
D11*
X97073333Y-44105233D02*
X96840000Y-44805233D01*
X96840000Y-44805233D02*
X96606666Y-44105233D01*
X95973333Y-44738566D02*
X96006666Y-44771900D01*
X96006666Y-44771900D02*
X96106666Y-44805233D01*
X96106666Y-44805233D02*
X96173333Y-44805233D01*
X96173333Y-44805233D02*
X96273333Y-44771900D01*
X96273333Y-44771900D02*
X96340000Y-44705233D01*
X96340000Y-44705233D02*
X96373333Y-44638566D01*
X96373333Y-44638566D02*
X96406666Y-44505233D01*
X96406666Y-44505233D02*
X96406666Y-44405233D01*
X96406666Y-44405233D02*
X96373333Y-44271900D01*
X96373333Y-44271900D02*
X96340000Y-44205233D01*
X96340000Y-44205233D02*
X96273333Y-44138566D01*
X96273333Y-44138566D02*
X96173333Y-44105233D01*
X96173333Y-44105233D02*
X96106666Y-44105233D01*
X96106666Y-44105233D02*
X96006666Y-44138566D01*
X96006666Y-44138566D02*
X95973333Y-44171900D01*
X95273333Y-44738566D02*
X95306666Y-44771900D01*
X95306666Y-44771900D02*
X95406666Y-44805233D01*
X95406666Y-44805233D02*
X95473333Y-44805233D01*
X95473333Y-44805233D02*
X95573333Y-44771900D01*
X95573333Y-44771900D02*
X95640000Y-44705233D01*
X95640000Y-44705233D02*
X95673333Y-44638566D01*
X95673333Y-44638566D02*
X95706666Y-44505233D01*
X95706666Y-44505233D02*
X95706666Y-44405233D01*
X95706666Y-44405233D02*
X95673333Y-44271900D01*
X95673333Y-44271900D02*
X95640000Y-44205233D01*
X95640000Y-44205233D02*
X95573333Y-44138566D01*
X95573333Y-44138566D02*
X95473333Y-44105233D01*
X95473333Y-44105233D02*
X95406666Y-44105233D01*
X95406666Y-44105233D02*
X95306666Y-44138566D01*
X95306666Y-44138566D02*
X95273333Y-44171900D01*
X91735951Y-42937566D02*
X90974047Y-42937566D01*
X91354999Y-43318519D02*
X91354999Y-42556614D01*
X138193333Y-47105233D02*
X138193333Y-46405233D01*
X137893333Y-46471900D02*
X137860000Y-46438566D01*
X137860000Y-46438566D02*
X137793333Y-46405233D01*
X137793333Y-46405233D02*
X137626667Y-46405233D01*
X137626667Y-46405233D02*
X137560000Y-46438566D01*
X137560000Y-46438566D02*
X137526667Y-46471900D01*
X137526667Y-46471900D02*
X137493333Y-46538566D01*
X137493333Y-46538566D02*
X137493333Y-46605233D01*
X137493333Y-46605233D02*
X137526667Y-46705233D01*
X137526667Y-46705233D02*
X137926667Y-47105233D01*
X137926667Y-47105233D02*
X137493333Y-47105233D01*
X136793333Y-47038566D02*
X136826666Y-47071900D01*
X136826666Y-47071900D02*
X136926666Y-47105233D01*
X136926666Y-47105233D02*
X136993333Y-47105233D01*
X136993333Y-47105233D02*
X137093333Y-47071900D01*
X137093333Y-47071900D02*
X137160000Y-47005233D01*
X137160000Y-47005233D02*
X137193333Y-46938566D01*
X137193333Y-46938566D02*
X137226666Y-46805233D01*
X137226666Y-46805233D02*
X137226666Y-46705233D01*
X137226666Y-46705233D02*
X137193333Y-46571900D01*
X137193333Y-46571900D02*
X137160000Y-46505233D01*
X137160000Y-46505233D02*
X137093333Y-46438566D01*
X137093333Y-46438566D02*
X136993333Y-46405233D01*
X136993333Y-46405233D02*
X136926666Y-46405233D01*
X136926666Y-46405233D02*
X136826666Y-46438566D01*
X136826666Y-46438566D02*
X136793333Y-46471900D01*
X107799999Y-54231400D02*
X107699999Y-54264733D01*
X107699999Y-54264733D02*
X107533333Y-54264733D01*
X107533333Y-54264733D02*
X107466666Y-54231400D01*
X107466666Y-54231400D02*
X107433333Y-54198066D01*
X107433333Y-54198066D02*
X107399999Y-54131400D01*
X107399999Y-54131400D02*
X107399999Y-54064733D01*
X107399999Y-54064733D02*
X107433333Y-53998066D01*
X107433333Y-53998066D02*
X107466666Y-53964733D01*
X107466666Y-53964733D02*
X107533333Y-53931400D01*
X107533333Y-53931400D02*
X107666666Y-53898066D01*
X107666666Y-53898066D02*
X107733333Y-53864733D01*
X107733333Y-53864733D02*
X107766666Y-53831400D01*
X107766666Y-53831400D02*
X107799999Y-53764733D01*
X107799999Y-53764733D02*
X107799999Y-53698066D01*
X107799999Y-53698066D02*
X107766666Y-53631400D01*
X107766666Y-53631400D02*
X107733333Y-53598066D01*
X107733333Y-53598066D02*
X107666666Y-53564733D01*
X107666666Y-53564733D02*
X107499999Y-53564733D01*
X107499999Y-53564733D02*
X107399999Y-53598066D01*
X107166666Y-53564733D02*
X106999999Y-54264733D01*
X106999999Y-54264733D02*
X106866666Y-53764733D01*
X106866666Y-53764733D02*
X106733332Y-54264733D01*
X106733332Y-54264733D02*
X106566666Y-53564733D01*
D14*
X171976003Y-59569380D02*
X172023622Y-59617000D01*
X172023622Y-59617000D02*
X172166479Y-59664619D01*
X172166479Y-59664619D02*
X172261717Y-59664619D01*
X172261717Y-59664619D02*
X172404574Y-59617000D01*
X172404574Y-59617000D02*
X172499812Y-59521761D01*
X172499812Y-59521761D02*
X172547431Y-59426523D01*
X172547431Y-59426523D02*
X172595050Y-59236047D01*
X172595050Y-59236047D02*
X172595050Y-59093190D01*
X172595050Y-59093190D02*
X172547431Y-58902714D01*
X172547431Y-58902714D02*
X172499812Y-58807476D01*
X172499812Y-58807476D02*
X172404574Y-58712238D01*
X172404574Y-58712238D02*
X172261717Y-58664619D01*
X172261717Y-58664619D02*
X172166479Y-58664619D01*
X172166479Y-58664619D02*
X172023622Y-58712238D01*
X172023622Y-58712238D02*
X171976003Y-58759857D01*
X171356955Y-58664619D02*
X171166479Y-58664619D01*
X171166479Y-58664619D02*
X171071241Y-58712238D01*
X171071241Y-58712238D02*
X170976003Y-58807476D01*
X170976003Y-58807476D02*
X170928384Y-58997952D01*
X170928384Y-58997952D02*
X170928384Y-59331285D01*
X170928384Y-59331285D02*
X170976003Y-59521761D01*
X170976003Y-59521761D02*
X171071241Y-59617000D01*
X171071241Y-59617000D02*
X171166479Y-59664619D01*
X171166479Y-59664619D02*
X171356955Y-59664619D01*
X171356955Y-59664619D02*
X171452193Y-59617000D01*
X171452193Y-59617000D02*
X171547431Y-59521761D01*
X171547431Y-59521761D02*
X171595050Y-59331285D01*
X171595050Y-59331285D02*
X171595050Y-58997952D01*
X171595050Y-58997952D02*
X171547431Y-58807476D01*
X171547431Y-58807476D02*
X171452193Y-58712238D01*
X171452193Y-58712238D02*
X171356955Y-58664619D01*
X170499812Y-59664619D02*
X170499812Y-58664619D01*
X170499812Y-58664619D02*
X170166479Y-59378904D01*
X170166479Y-59378904D02*
X169833146Y-58664619D01*
X169833146Y-58664619D02*
X169833146Y-59664619D01*
X105338622Y-46564619D02*
X105338622Y-45564619D01*
X105338622Y-45564619D02*
X105100527Y-45564619D01*
X105100527Y-45564619D02*
X104957670Y-45612238D01*
X104957670Y-45612238D02*
X104862432Y-45707476D01*
X104862432Y-45707476D02*
X104814813Y-45802714D01*
X104814813Y-45802714D02*
X104767194Y-45993190D01*
X104767194Y-45993190D02*
X104767194Y-46136047D01*
X104767194Y-46136047D02*
X104814813Y-46326523D01*
X104814813Y-46326523D02*
X104862432Y-46421761D01*
X104862432Y-46421761D02*
X104957670Y-46517000D01*
X104957670Y-46517000D02*
X105100527Y-46564619D01*
X105100527Y-46564619D02*
X105338622Y-46564619D01*
X104338622Y-46564619D02*
X104338622Y-45564619D01*
X103910051Y-46517000D02*
X103767194Y-46564619D01*
X103767194Y-46564619D02*
X103529099Y-46564619D01*
X103529099Y-46564619D02*
X103433861Y-46517000D01*
X103433861Y-46517000D02*
X103386242Y-46469380D01*
X103386242Y-46469380D02*
X103338623Y-46374142D01*
X103338623Y-46374142D02*
X103338623Y-46278904D01*
X103338623Y-46278904D02*
X103386242Y-46183666D01*
X103386242Y-46183666D02*
X103433861Y-46136047D01*
X103433861Y-46136047D02*
X103529099Y-46088428D01*
X103529099Y-46088428D02*
X103719575Y-46040809D01*
X103719575Y-46040809D02*
X103814813Y-45993190D01*
X103814813Y-45993190D02*
X103862432Y-45945571D01*
X103862432Y-45945571D02*
X103910051Y-45850333D01*
X103910051Y-45850333D02*
X103910051Y-45755095D01*
X103910051Y-45755095D02*
X103862432Y-45659857D01*
X103862432Y-45659857D02*
X103814813Y-45612238D01*
X103814813Y-45612238D02*
X103719575Y-45564619D01*
X103719575Y-45564619D02*
X103481480Y-45564619D01*
X103481480Y-45564619D02*
X103338623Y-45612238D01*
X102910051Y-46564619D02*
X102910051Y-45564619D01*
X102910051Y-45564619D02*
X102529099Y-45564619D01*
X102529099Y-45564619D02*
X102433861Y-45612238D01*
X102433861Y-45612238D02*
X102386242Y-45659857D01*
X102386242Y-45659857D02*
X102338623Y-45755095D01*
X102338623Y-45755095D02*
X102338623Y-45897952D01*
X102338623Y-45897952D02*
X102386242Y-45993190D01*
X102386242Y-45993190D02*
X102433861Y-46040809D01*
X102433861Y-46040809D02*
X102529099Y-46088428D01*
X102529099Y-46088428D02*
X102910051Y-46088428D01*
X101433861Y-46564619D02*
X101910051Y-46564619D01*
X101910051Y-46564619D02*
X101910051Y-45564619D01*
X101148146Y-46278904D02*
X100671956Y-46278904D01*
X101243384Y-46564619D02*
X100910051Y-45564619D01*
X100910051Y-45564619D02*
X100576718Y-46564619D01*
X100052908Y-46088428D02*
X100052908Y-46564619D01*
X100386241Y-45564619D02*
X100052908Y-46088428D01*
X100052908Y-46088428D02*
X99719575Y-45564619D01*
D11*
X169393333Y-76355233D02*
X169726666Y-76355233D01*
X169726666Y-76355233D02*
X169759999Y-76688566D01*
X169759999Y-76688566D02*
X169726666Y-76655233D01*
X169726666Y-76655233D02*
X169659999Y-76621900D01*
X169659999Y-76621900D02*
X169493333Y-76621900D01*
X169493333Y-76621900D02*
X169426666Y-76655233D01*
X169426666Y-76655233D02*
X169393333Y-76688566D01*
X169393333Y-76688566D02*
X169359999Y-76755233D01*
X169359999Y-76755233D02*
X169359999Y-76921900D01*
X169359999Y-76921900D02*
X169393333Y-76988566D01*
X169393333Y-76988566D02*
X169426666Y-77021900D01*
X169426666Y-77021900D02*
X169493333Y-77055233D01*
X169493333Y-77055233D02*
X169659999Y-77055233D01*
X169659999Y-77055233D02*
X169726666Y-77021900D01*
X169726666Y-77021900D02*
X169759999Y-76988566D01*
X169159999Y-76355233D02*
X168926666Y-77055233D01*
X168926666Y-77055233D02*
X168693332Y-76355233D01*
X169393333Y-50405233D02*
X169726666Y-50405233D01*
X169726666Y-50405233D02*
X169759999Y-50738566D01*
X169759999Y-50738566D02*
X169726666Y-50705233D01*
X169726666Y-50705233D02*
X169659999Y-50671900D01*
X169659999Y-50671900D02*
X169493333Y-50671900D01*
X169493333Y-50671900D02*
X169426666Y-50705233D01*
X169426666Y-50705233D02*
X169393333Y-50738566D01*
X169393333Y-50738566D02*
X169359999Y-50805233D01*
X169359999Y-50805233D02*
X169359999Y-50971900D01*
X169359999Y-50971900D02*
X169393333Y-51038566D01*
X169393333Y-51038566D02*
X169426666Y-51071900D01*
X169426666Y-51071900D02*
X169493333Y-51105233D01*
X169493333Y-51105233D02*
X169659999Y-51105233D01*
X169659999Y-51105233D02*
X169726666Y-51071900D01*
X169726666Y-51071900D02*
X169759999Y-51038566D01*
X169159999Y-50405233D02*
X168926666Y-51105233D01*
X168926666Y-51105233D02*
X168693332Y-50405233D01*
X172333332Y-76388566D02*
X172399999Y-76355233D01*
X172399999Y-76355233D02*
X172499999Y-76355233D01*
X172499999Y-76355233D02*
X172599999Y-76388566D01*
X172599999Y-76388566D02*
X172666666Y-76455233D01*
X172666666Y-76455233D02*
X172699999Y-76521900D01*
X172699999Y-76521900D02*
X172733332Y-76655233D01*
X172733332Y-76655233D02*
X172733332Y-76755233D01*
X172733332Y-76755233D02*
X172699999Y-76888566D01*
X172699999Y-76888566D02*
X172666666Y-76955233D01*
X172666666Y-76955233D02*
X172599999Y-77021900D01*
X172599999Y-77021900D02*
X172499999Y-77055233D01*
X172499999Y-77055233D02*
X172433332Y-77055233D01*
X172433332Y-77055233D02*
X172333332Y-77021900D01*
X172333332Y-77021900D02*
X172299999Y-76988566D01*
X172299999Y-76988566D02*
X172299999Y-76755233D01*
X172299999Y-76755233D02*
X172433332Y-76755233D01*
X171999999Y-77055233D02*
X171999999Y-76355233D01*
X171999999Y-76355233D02*
X171599999Y-77055233D01*
X171599999Y-77055233D02*
X171599999Y-76355233D01*
X171266666Y-77055233D02*
X171266666Y-76355233D01*
X171266666Y-76355233D02*
X171099999Y-76355233D01*
X171099999Y-76355233D02*
X170999999Y-76388566D01*
X170999999Y-76388566D02*
X170933333Y-76455233D01*
X170933333Y-76455233D02*
X170899999Y-76521900D01*
X170899999Y-76521900D02*
X170866666Y-76655233D01*
X170866666Y-76655233D02*
X170866666Y-76755233D01*
X170866666Y-76755233D02*
X170899999Y-76888566D01*
X170899999Y-76888566D02*
X170933333Y-76955233D01*
X170933333Y-76955233D02*
X170999999Y-77021900D01*
X170999999Y-77021900D02*
X171099999Y-77055233D01*
X171099999Y-77055233D02*
X171266666Y-77055233D01*
X108956666Y-44738566D02*
X108989999Y-44771900D01*
X108989999Y-44771900D02*
X109089999Y-44805233D01*
X109089999Y-44805233D02*
X109156666Y-44805233D01*
X109156666Y-44805233D02*
X109256666Y-44771900D01*
X109256666Y-44771900D02*
X109323333Y-44705233D01*
X109323333Y-44705233D02*
X109356666Y-44638566D01*
X109356666Y-44638566D02*
X109389999Y-44505233D01*
X109389999Y-44505233D02*
X109389999Y-44405233D01*
X109389999Y-44405233D02*
X109356666Y-44271900D01*
X109356666Y-44271900D02*
X109323333Y-44205233D01*
X109323333Y-44205233D02*
X109256666Y-44138566D01*
X109256666Y-44138566D02*
X109156666Y-44105233D01*
X109156666Y-44105233D02*
X109089999Y-44105233D01*
X109089999Y-44105233D02*
X108989999Y-44138566D01*
X108989999Y-44138566D02*
X108956666Y-44171900D01*
X108689999Y-44771900D02*
X108589999Y-44805233D01*
X108589999Y-44805233D02*
X108423333Y-44805233D01*
X108423333Y-44805233D02*
X108356666Y-44771900D01*
X108356666Y-44771900D02*
X108323333Y-44738566D01*
X108323333Y-44738566D02*
X108289999Y-44671900D01*
X108289999Y-44671900D02*
X108289999Y-44605233D01*
X108289999Y-44605233D02*
X108323333Y-44538566D01*
X108323333Y-44538566D02*
X108356666Y-44505233D01*
X108356666Y-44505233D02*
X108423333Y-44471900D01*
X108423333Y-44471900D02*
X108556666Y-44438566D01*
X108556666Y-44438566D02*
X108623333Y-44405233D01*
X108623333Y-44405233D02*
X108656666Y-44371900D01*
X108656666Y-44371900D02*
X108689999Y-44305233D01*
X108689999Y-44305233D02*
X108689999Y-44238566D01*
X108689999Y-44238566D02*
X108656666Y-44171900D01*
X108656666Y-44171900D02*
X108623333Y-44138566D01*
X108623333Y-44138566D02*
X108556666Y-44105233D01*
X108556666Y-44105233D02*
X108389999Y-44105233D01*
X108389999Y-44105233D02*
X108289999Y-44138566D01*
X144060000Y-50638566D02*
X144060000Y-51105233D01*
X144226667Y-50371900D02*
X144393333Y-50871900D01*
X144393333Y-50871900D02*
X143960000Y-50871900D01*
X143360000Y-50405233D02*
X143693333Y-50405233D01*
X143693333Y-50405233D02*
X143726666Y-50738566D01*
X143726666Y-50738566D02*
X143693333Y-50705233D01*
X143693333Y-50705233D02*
X143626666Y-50671900D01*
X143626666Y-50671900D02*
X143460000Y-50671900D01*
X143460000Y-50671900D02*
X143393333Y-50705233D01*
X143393333Y-50705233D02*
X143360000Y-50738566D01*
X143360000Y-50738566D02*
X143326666Y-50805233D01*
X143326666Y-50805233D02*
X143326666Y-50971900D01*
X143326666Y-50971900D02*
X143360000Y-51038566D01*
X143360000Y-51038566D02*
X143393333Y-51071900D01*
X143393333Y-51071900D02*
X143460000Y-51105233D01*
X143460000Y-51105233D02*
X143626666Y-51105233D01*
X143626666Y-51105233D02*
X143693333Y-51071900D01*
X143693333Y-51071900D02*
X143726666Y-51038566D01*
D12*
X122771188Y-86262002D02*
X122554521Y-86912002D01*
X122554521Y-86912002D02*
X122337854Y-86262002D01*
X121749759Y-86850097D02*
X121780711Y-86881050D01*
X121780711Y-86881050D02*
X121873569Y-86912002D01*
X121873569Y-86912002D02*
X121935473Y-86912002D01*
X121935473Y-86912002D02*
X122028330Y-86881050D01*
X122028330Y-86881050D02*
X122090235Y-86819145D01*
X122090235Y-86819145D02*
X122121188Y-86757240D01*
X122121188Y-86757240D02*
X122152140Y-86633430D01*
X122152140Y-86633430D02*
X122152140Y-86540573D01*
X122152140Y-86540573D02*
X122121188Y-86416764D01*
X122121188Y-86416764D02*
X122090235Y-86354859D01*
X122090235Y-86354859D02*
X122028330Y-86292954D01*
X122028330Y-86292954D02*
X121935473Y-86262002D01*
X121935473Y-86262002D02*
X121873569Y-86262002D01*
X121873569Y-86262002D02*
X121780711Y-86292954D01*
X121780711Y-86292954D02*
X121749759Y-86323907D01*
X121099759Y-86850097D02*
X121130711Y-86881050D01*
X121130711Y-86881050D02*
X121223569Y-86912002D01*
X121223569Y-86912002D02*
X121285473Y-86912002D01*
X121285473Y-86912002D02*
X121378330Y-86881050D01*
X121378330Y-86881050D02*
X121440235Y-86819145D01*
X121440235Y-86819145D02*
X121471188Y-86757240D01*
X121471188Y-86757240D02*
X121502140Y-86633430D01*
X121502140Y-86633430D02*
X121502140Y-86540573D01*
X121502140Y-86540573D02*
X121471188Y-86416764D01*
X121471188Y-86416764D02*
X121440235Y-86354859D01*
X121440235Y-86354859D02*
X121378330Y-86292954D01*
X121378330Y-86292954D02*
X121285473Y-86262002D01*
X121285473Y-86262002D02*
X121223569Y-86262002D01*
X121223569Y-86262002D02*
X121130711Y-86292954D01*
X121130711Y-86292954D02*
X121099759Y-86323907D01*
D11*
X131360000Y-50638566D02*
X131360000Y-51105233D01*
X131526667Y-50371900D02*
X131693333Y-50871900D01*
X131693333Y-50871900D02*
X131260000Y-50871900D01*
X130860000Y-50405233D02*
X130793333Y-50405233D01*
X130793333Y-50405233D02*
X130726666Y-50438566D01*
X130726666Y-50438566D02*
X130693333Y-50471900D01*
X130693333Y-50471900D02*
X130660000Y-50538566D01*
X130660000Y-50538566D02*
X130626666Y-50671900D01*
X130626666Y-50671900D02*
X130626666Y-50838566D01*
X130626666Y-50838566D02*
X130660000Y-50971900D01*
X130660000Y-50971900D02*
X130693333Y-51038566D01*
X130693333Y-51038566D02*
X130726666Y-51071900D01*
X130726666Y-51071900D02*
X130793333Y-51105233D01*
X130793333Y-51105233D02*
X130860000Y-51105233D01*
X130860000Y-51105233D02*
X130926666Y-51071900D01*
X130926666Y-51071900D02*
X130960000Y-51038566D01*
X130960000Y-51038566D02*
X130993333Y-50971900D01*
X130993333Y-50971900D02*
X131026666Y-50838566D01*
X131026666Y-50838566D02*
X131026666Y-50671900D01*
X131026666Y-50671900D02*
X130993333Y-50538566D01*
X130993333Y-50538566D02*
X130960000Y-50471900D01*
X130960000Y-50471900D02*
X130926666Y-50438566D01*
X130926666Y-50438566D02*
X130860000Y-50405233D01*
D12*
X134147854Y-86292954D02*
X134209759Y-86262002D01*
X134209759Y-86262002D02*
X134302616Y-86262002D01*
X134302616Y-86262002D02*
X134395473Y-86292954D01*
X134395473Y-86292954D02*
X134457378Y-86354859D01*
X134457378Y-86354859D02*
X134488331Y-86416764D01*
X134488331Y-86416764D02*
X134519283Y-86540573D01*
X134519283Y-86540573D02*
X134519283Y-86633430D01*
X134519283Y-86633430D02*
X134488331Y-86757240D01*
X134488331Y-86757240D02*
X134457378Y-86819145D01*
X134457378Y-86819145D02*
X134395473Y-86881050D01*
X134395473Y-86881050D02*
X134302616Y-86912002D01*
X134302616Y-86912002D02*
X134240712Y-86912002D01*
X134240712Y-86912002D02*
X134147854Y-86881050D01*
X134147854Y-86881050D02*
X134116902Y-86850097D01*
X134116902Y-86850097D02*
X134116902Y-86633430D01*
X134116902Y-86633430D02*
X134240712Y-86633430D01*
X133838331Y-86912002D02*
X133838331Y-86262002D01*
X133838331Y-86262002D02*
X133466902Y-86912002D01*
X133466902Y-86912002D02*
X133466902Y-86262002D01*
X133157379Y-86912002D02*
X133157379Y-86262002D01*
X133157379Y-86262002D02*
X133002617Y-86262002D01*
X133002617Y-86262002D02*
X132909760Y-86292954D01*
X132909760Y-86292954D02*
X132847855Y-86354859D01*
X132847855Y-86354859D02*
X132816902Y-86416764D01*
X132816902Y-86416764D02*
X132785950Y-86540573D01*
X132785950Y-86540573D02*
X132785950Y-86633430D01*
X132785950Y-86633430D02*
X132816902Y-86757240D01*
X132816902Y-86757240D02*
X132847855Y-86819145D01*
X132847855Y-86819145D02*
X132909760Y-86881050D01*
X132909760Y-86881050D02*
X133002617Y-86912002D01*
X133002617Y-86912002D02*
X133157379Y-86912002D01*
D10*
X99830326Y-89882171D02*
X99906517Y-89844076D01*
X99906517Y-89844076D02*
X100058898Y-89844076D01*
X100058898Y-89844076D02*
X100135088Y-89882171D01*
X100135088Y-89882171D02*
X100211279Y-89958361D01*
X100211279Y-89958361D02*
X100249374Y-90034552D01*
X100249374Y-90034552D02*
X100249374Y-90186933D01*
X100249374Y-90186933D02*
X100211279Y-90263123D01*
X100211279Y-90263123D02*
X100135088Y-90339314D01*
X100135088Y-90339314D02*
X100058898Y-90377409D01*
X100058898Y-90377409D02*
X99906517Y-90377409D01*
X99906517Y-90377409D02*
X99830326Y-90339314D01*
X99982707Y-89577409D02*
X100173183Y-89615504D01*
X100173183Y-89615504D02*
X100363660Y-89729790D01*
X100363660Y-89729790D02*
X100477945Y-89920266D01*
X100477945Y-89920266D02*
X100516041Y-90110742D01*
X100516041Y-90110742D02*
X100477945Y-90301219D01*
X100477945Y-90301219D02*
X100363660Y-90491695D01*
X100363660Y-90491695D02*
X100173183Y-90605980D01*
X100173183Y-90605980D02*
X99982707Y-90644076D01*
X99982707Y-90644076D02*
X99792231Y-90605980D01*
X99792231Y-90605980D02*
X99601755Y-90491695D01*
X99601755Y-90491695D02*
X99487469Y-90301219D01*
X99487469Y-90301219D02*
X99449374Y-90110742D01*
X99449374Y-90110742D02*
X99487469Y-89920266D01*
X99487469Y-89920266D02*
X99601755Y-89729790D01*
X99601755Y-89729790D02*
X99792231Y-89615504D01*
X99792231Y-89615504D02*
X99982707Y-89577409D01*
X98154135Y-90491695D02*
X98154135Y-89691695D01*
X98154135Y-90453600D02*
X98230326Y-90491695D01*
X98230326Y-90491695D02*
X98382707Y-90491695D01*
X98382707Y-90491695D02*
X98458897Y-90453600D01*
X98458897Y-90453600D02*
X98496992Y-90415504D01*
X98496992Y-90415504D02*
X98535088Y-90339314D01*
X98535088Y-90339314D02*
X98535088Y-90110742D01*
X98535088Y-90110742D02*
X98496992Y-90034552D01*
X98496992Y-90034552D02*
X98458897Y-89996457D01*
X98458897Y-89996457D02*
X98382707Y-89958361D01*
X98382707Y-89958361D02*
X98230326Y-89958361D01*
X98230326Y-89958361D02*
X98154135Y-89996457D01*
X97849373Y-89958361D02*
X97658897Y-90491695D01*
X97468420Y-89958361D02*
X97658897Y-90491695D01*
X97658897Y-90491695D02*
X97735087Y-90682171D01*
X97735087Y-90682171D02*
X97773182Y-90720266D01*
X97773182Y-90720266D02*
X97849373Y-90758361D01*
X97049373Y-90491695D02*
X97125563Y-90453600D01*
X97125563Y-90453600D02*
X97163658Y-90377409D01*
X97163658Y-90377409D02*
X97163658Y-89691695D01*
X96401753Y-90491695D02*
X96401753Y-90072647D01*
X96401753Y-90072647D02*
X96439848Y-89996457D01*
X96439848Y-89996457D02*
X96516039Y-89958361D01*
X96516039Y-89958361D02*
X96668420Y-89958361D01*
X96668420Y-89958361D02*
X96744610Y-89996457D01*
X96401753Y-90453600D02*
X96477944Y-90491695D01*
X96477944Y-90491695D02*
X96668420Y-90491695D01*
X96668420Y-90491695D02*
X96744610Y-90453600D01*
X96744610Y-90453600D02*
X96782706Y-90377409D01*
X96782706Y-90377409D02*
X96782706Y-90301219D01*
X96782706Y-90301219D02*
X96744610Y-90225028D01*
X96744610Y-90225028D02*
X96668420Y-90186933D01*
X96668420Y-90186933D02*
X96477944Y-90186933D01*
X96477944Y-90186933D02*
X96401753Y-90148838D01*
X96020800Y-89958361D02*
X96020800Y-90491695D01*
X96020800Y-90034552D02*
X95982705Y-89996457D01*
X95982705Y-89996457D02*
X95906515Y-89958361D01*
X95906515Y-89958361D02*
X95792229Y-89958361D01*
X95792229Y-89958361D02*
X95716038Y-89996457D01*
X95716038Y-89996457D02*
X95677943Y-90072647D01*
X95677943Y-90072647D02*
X95677943Y-90491695D01*
X94687466Y-90491695D02*
X94687466Y-89691695D01*
X94344609Y-90491695D02*
X94344609Y-90072647D01*
X94344609Y-90072647D02*
X94382704Y-89996457D01*
X94382704Y-89996457D02*
X94458895Y-89958361D01*
X94458895Y-89958361D02*
X94573181Y-89958361D01*
X94573181Y-89958361D02*
X94649371Y-89996457D01*
X94649371Y-89996457D02*
X94687466Y-90034552D01*
X93620799Y-90491695D02*
X93620799Y-90072647D01*
X93620799Y-90072647D02*
X93658894Y-89996457D01*
X93658894Y-89996457D02*
X93735085Y-89958361D01*
X93735085Y-89958361D02*
X93887466Y-89958361D01*
X93887466Y-89958361D02*
X93963656Y-89996457D01*
X93620799Y-90453600D02*
X93696990Y-90491695D01*
X93696990Y-90491695D02*
X93887466Y-90491695D01*
X93887466Y-90491695D02*
X93963656Y-90453600D01*
X93963656Y-90453600D02*
X94001752Y-90377409D01*
X94001752Y-90377409D02*
X94001752Y-90301219D01*
X94001752Y-90301219D02*
X93963656Y-90225028D01*
X93963656Y-90225028D02*
X93887466Y-90186933D01*
X93887466Y-90186933D02*
X93696990Y-90186933D01*
X93696990Y-90186933D02*
X93620799Y-90148838D01*
X93239846Y-90491695D02*
X93239846Y-89958361D01*
X93239846Y-89691695D02*
X93277942Y-89729790D01*
X93277942Y-89729790D02*
X93239846Y-89767885D01*
X93239846Y-89767885D02*
X93201751Y-89729790D01*
X93201751Y-89729790D02*
X93239846Y-89691695D01*
X93239846Y-89691695D02*
X93239846Y-89767885D01*
X92858894Y-89958361D02*
X92858894Y-90491695D01*
X92858894Y-90034552D02*
X92820799Y-89996457D01*
X92820799Y-89996457D02*
X92744609Y-89958361D01*
X92744609Y-89958361D02*
X92630323Y-89958361D01*
X92630323Y-89958361D02*
X92554132Y-89996457D01*
X92554132Y-89996457D02*
X92516037Y-90072647D01*
X92516037Y-90072647D02*
X92516037Y-90491695D01*
X91830322Y-90453600D02*
X91906513Y-90491695D01*
X91906513Y-90491695D02*
X92058894Y-90491695D01*
X92058894Y-90491695D02*
X92135084Y-90453600D01*
X92135084Y-90453600D02*
X92173180Y-90377409D01*
X92173180Y-90377409D02*
X92173180Y-90072647D01*
X92173180Y-90072647D02*
X92135084Y-89996457D01*
X92135084Y-89996457D02*
X92058894Y-89958361D01*
X92058894Y-89958361D02*
X91906513Y-89958361D01*
X91906513Y-89958361D02*
X91830322Y-89996457D01*
X91830322Y-89996457D02*
X91792227Y-90072647D01*
X91792227Y-90072647D02*
X91792227Y-90148838D01*
X91792227Y-90148838D02*
X92173180Y-90225028D01*
X91487466Y-90453600D02*
X91411275Y-90491695D01*
X91411275Y-90491695D02*
X91258894Y-90491695D01*
X91258894Y-90491695D02*
X91182704Y-90453600D01*
X91182704Y-90453600D02*
X91144608Y-90377409D01*
X91144608Y-90377409D02*
X91144608Y-90339314D01*
X91144608Y-90339314D02*
X91182704Y-90263123D01*
X91182704Y-90263123D02*
X91258894Y-90225028D01*
X91258894Y-90225028D02*
X91373180Y-90225028D01*
X91373180Y-90225028D02*
X91449370Y-90186933D01*
X91449370Y-90186933D02*
X91487466Y-90110742D01*
X91487466Y-90110742D02*
X91487466Y-90072647D01*
X91487466Y-90072647D02*
X91449370Y-89996457D01*
X91449370Y-89996457D02*
X91373180Y-89958361D01*
X91373180Y-89958361D02*
X91258894Y-89958361D01*
X91258894Y-89958361D02*
X91182704Y-89996457D01*
X90230323Y-89767885D02*
X90192227Y-89729790D01*
X90192227Y-89729790D02*
X90116037Y-89691695D01*
X90116037Y-89691695D02*
X89925561Y-89691695D01*
X89925561Y-89691695D02*
X89849370Y-89729790D01*
X89849370Y-89729790D02*
X89811275Y-89767885D01*
X89811275Y-89767885D02*
X89773180Y-89844076D01*
X89773180Y-89844076D02*
X89773180Y-89920266D01*
X89773180Y-89920266D02*
X89811275Y-90034552D01*
X89811275Y-90034552D02*
X90268418Y-90491695D01*
X90268418Y-90491695D02*
X89773180Y-90491695D01*
X89277941Y-89691695D02*
X89201751Y-89691695D01*
X89201751Y-89691695D02*
X89125560Y-89729790D01*
X89125560Y-89729790D02*
X89087465Y-89767885D01*
X89087465Y-89767885D02*
X89049370Y-89844076D01*
X89049370Y-89844076D02*
X89011275Y-89996457D01*
X89011275Y-89996457D02*
X89011275Y-90186933D01*
X89011275Y-90186933D02*
X89049370Y-90339314D01*
X89049370Y-90339314D02*
X89087465Y-90415504D01*
X89087465Y-90415504D02*
X89125560Y-90453600D01*
X89125560Y-90453600D02*
X89201751Y-90491695D01*
X89201751Y-90491695D02*
X89277941Y-90491695D01*
X89277941Y-90491695D02*
X89354132Y-90453600D01*
X89354132Y-90453600D02*
X89392227Y-90415504D01*
X89392227Y-90415504D02*
X89430322Y-90339314D01*
X89430322Y-90339314D02*
X89468418Y-90186933D01*
X89468418Y-90186933D02*
X89468418Y-89996457D01*
X89468418Y-89996457D02*
X89430322Y-89844076D01*
X89430322Y-89844076D02*
X89392227Y-89767885D01*
X89392227Y-89767885D02*
X89354132Y-89729790D01*
X89354132Y-89729790D02*
X89277941Y-89691695D01*
X88706513Y-89767885D02*
X88668417Y-89729790D01*
X88668417Y-89729790D02*
X88592227Y-89691695D01*
X88592227Y-89691695D02*
X88401751Y-89691695D01*
X88401751Y-89691695D02*
X88325560Y-89729790D01*
X88325560Y-89729790D02*
X88287465Y-89767885D01*
X88287465Y-89767885D02*
X88249370Y-89844076D01*
X88249370Y-89844076D02*
X88249370Y-89920266D01*
X88249370Y-89920266D02*
X88287465Y-90034552D01*
X88287465Y-90034552D02*
X88744608Y-90491695D01*
X88744608Y-90491695D02*
X88249370Y-90491695D01*
X87525560Y-89691695D02*
X87906512Y-89691695D01*
X87906512Y-89691695D02*
X87944608Y-90072647D01*
X87944608Y-90072647D02*
X87906512Y-90034552D01*
X87906512Y-90034552D02*
X87830322Y-89996457D01*
X87830322Y-89996457D02*
X87639846Y-89996457D01*
X87639846Y-89996457D02*
X87563655Y-90034552D01*
X87563655Y-90034552D02*
X87525560Y-90072647D01*
X87525560Y-90072647D02*
X87487465Y-90148838D01*
X87487465Y-90148838D02*
X87487465Y-90339314D01*
X87487465Y-90339314D02*
X87525560Y-90415504D01*
X87525560Y-90415504D02*
X87563655Y-90453600D01*
X87563655Y-90453600D02*
X87639846Y-90491695D01*
X87639846Y-90491695D02*
X87830322Y-90491695D01*
X87830322Y-90491695D02*
X87906512Y-90453600D01*
X87906512Y-90453600D02*
X87944608Y-90415504D01*
D11*
X156676666Y-51105233D02*
X156909999Y-50771900D01*
X157076666Y-51105233D02*
X157076666Y-50405233D01*
X157076666Y-50405233D02*
X156809999Y-50405233D01*
X156809999Y-50405233D02*
X156743333Y-50438566D01*
X156743333Y-50438566D02*
X156709999Y-50471900D01*
X156709999Y-50471900D02*
X156676666Y-50538566D01*
X156676666Y-50538566D02*
X156676666Y-50638566D01*
X156676666Y-50638566D02*
X156709999Y-50705233D01*
X156709999Y-50705233D02*
X156743333Y-50738566D01*
X156743333Y-50738566D02*
X156809999Y-50771900D01*
X156809999Y-50771900D02*
X157076666Y-50771900D01*
X156443333Y-50405233D02*
X155976666Y-51105233D01*
X155976666Y-50405233D02*
X156443333Y-51105233D01*
X134266667Y-50405233D02*
X133833333Y-50405233D01*
X133833333Y-50405233D02*
X134066667Y-50671900D01*
X134066667Y-50671900D02*
X133966667Y-50671900D01*
X133966667Y-50671900D02*
X133900000Y-50705233D01*
X133900000Y-50705233D02*
X133866667Y-50738566D01*
X133866667Y-50738566D02*
X133833333Y-50805233D01*
X133833333Y-50805233D02*
X133833333Y-50971900D01*
X133833333Y-50971900D02*
X133866667Y-51038566D01*
X133866667Y-51038566D02*
X133900000Y-51071900D01*
X133900000Y-51071900D02*
X133966667Y-51105233D01*
X133966667Y-51105233D02*
X134166667Y-51105233D01*
X134166667Y-51105233D02*
X134233333Y-51071900D01*
X134233333Y-51071900D02*
X134266667Y-51038566D01*
X133500000Y-51105233D02*
X133366666Y-51105233D01*
X133366666Y-51105233D02*
X133300000Y-51071900D01*
X133300000Y-51071900D02*
X133266666Y-51038566D01*
X133266666Y-51038566D02*
X133200000Y-50938566D01*
X133200000Y-50938566D02*
X133166666Y-50805233D01*
X133166666Y-50805233D02*
X133166666Y-50538566D01*
X133166666Y-50538566D02*
X133200000Y-50471900D01*
X133200000Y-50471900D02*
X133233333Y-50438566D01*
X133233333Y-50438566D02*
X133300000Y-50405233D01*
X133300000Y-50405233D02*
X133433333Y-50405233D01*
X133433333Y-50405233D02*
X133500000Y-50438566D01*
X133500000Y-50438566D02*
X133533333Y-50471900D01*
X133533333Y-50471900D02*
X133566666Y-50538566D01*
X133566666Y-50538566D02*
X133566666Y-50705233D01*
X133566666Y-50705233D02*
X133533333Y-50771900D01*
X133533333Y-50771900D02*
X133500000Y-50805233D01*
X133500000Y-50805233D02*
X133433333Y-50838566D01*
X133433333Y-50838566D02*
X133300000Y-50838566D01*
X133300000Y-50838566D02*
X133233333Y-50805233D01*
X133233333Y-50805233D02*
X133200000Y-50771900D01*
X133200000Y-50771900D02*
X133166666Y-50705233D01*
X139613333Y-51071900D02*
X139513333Y-51105233D01*
X139513333Y-51105233D02*
X139346667Y-51105233D01*
X139346667Y-51105233D02*
X139280000Y-51071900D01*
X139280000Y-51071900D02*
X139246667Y-51038566D01*
X139246667Y-51038566D02*
X139213333Y-50971900D01*
X139213333Y-50971900D02*
X139213333Y-50905233D01*
X139213333Y-50905233D02*
X139246667Y-50838566D01*
X139246667Y-50838566D02*
X139280000Y-50805233D01*
X139280000Y-50805233D02*
X139346667Y-50771900D01*
X139346667Y-50771900D02*
X139480000Y-50738566D01*
X139480000Y-50738566D02*
X139546667Y-50705233D01*
X139546667Y-50705233D02*
X139580000Y-50671900D01*
X139580000Y-50671900D02*
X139613333Y-50605233D01*
X139613333Y-50605233D02*
X139613333Y-50538566D01*
X139613333Y-50538566D02*
X139580000Y-50471900D01*
X139580000Y-50471900D02*
X139546667Y-50438566D01*
X139546667Y-50438566D02*
X139480000Y-50405233D01*
X139480000Y-50405233D02*
X139313333Y-50405233D01*
X139313333Y-50405233D02*
X139213333Y-50438566D01*
X138513333Y-51038566D02*
X138546666Y-51071900D01*
X138546666Y-51071900D02*
X138646666Y-51105233D01*
X138646666Y-51105233D02*
X138713333Y-51105233D01*
X138713333Y-51105233D02*
X138813333Y-51071900D01*
X138813333Y-51071900D02*
X138880000Y-51005233D01*
X138880000Y-51005233D02*
X138913333Y-50938566D01*
X138913333Y-50938566D02*
X138946666Y-50805233D01*
X138946666Y-50805233D02*
X138946666Y-50705233D01*
X138946666Y-50705233D02*
X138913333Y-50571900D01*
X138913333Y-50571900D02*
X138880000Y-50505233D01*
X138880000Y-50505233D02*
X138813333Y-50438566D01*
X138813333Y-50438566D02*
X138713333Y-50405233D01*
X138713333Y-50405233D02*
X138646666Y-50405233D01*
X138646666Y-50405233D02*
X138546666Y-50438566D01*
X138546666Y-50438566D02*
X138513333Y-50471900D01*
X137880000Y-51105233D02*
X138213333Y-51105233D01*
X138213333Y-51105233D02*
X138213333Y-50405233D01*
X102069999Y-44771900D02*
X101969999Y-44805233D01*
X101969999Y-44805233D02*
X101803333Y-44805233D01*
X101803333Y-44805233D02*
X101736666Y-44771900D01*
X101736666Y-44771900D02*
X101703333Y-44738566D01*
X101703333Y-44738566D02*
X101669999Y-44671900D01*
X101669999Y-44671900D02*
X101669999Y-44605233D01*
X101669999Y-44605233D02*
X101703333Y-44538566D01*
X101703333Y-44538566D02*
X101736666Y-44505233D01*
X101736666Y-44505233D02*
X101803333Y-44471900D01*
X101803333Y-44471900D02*
X101936666Y-44438566D01*
X101936666Y-44438566D02*
X102003333Y-44405233D01*
X102003333Y-44405233D02*
X102036666Y-44371900D01*
X102036666Y-44371900D02*
X102069999Y-44305233D01*
X102069999Y-44305233D02*
X102069999Y-44238566D01*
X102069999Y-44238566D02*
X102036666Y-44171900D01*
X102036666Y-44171900D02*
X102003333Y-44138566D01*
X102003333Y-44138566D02*
X101936666Y-44105233D01*
X101936666Y-44105233D02*
X101769999Y-44105233D01*
X101769999Y-44105233D02*
X101669999Y-44138566D01*
X101369999Y-44805233D02*
X101369999Y-44105233D01*
X101369999Y-44105233D02*
X101203332Y-44105233D01*
X101203332Y-44105233D02*
X101103332Y-44138566D01*
X101103332Y-44138566D02*
X101036666Y-44205233D01*
X101036666Y-44205233D02*
X101003332Y-44271900D01*
X101003332Y-44271900D02*
X100969999Y-44405233D01*
X100969999Y-44405233D02*
X100969999Y-44505233D01*
X100969999Y-44505233D02*
X101003332Y-44638566D01*
X101003332Y-44638566D02*
X101036666Y-44705233D01*
X101036666Y-44705233D02*
X101103332Y-44771900D01*
X101103332Y-44771900D02*
X101203332Y-44805233D01*
X101203332Y-44805233D02*
X101369999Y-44805233D01*
X100703332Y-44605233D02*
X100369999Y-44605233D01*
X100769999Y-44805233D02*
X100536666Y-44105233D01*
X100536666Y-44105233D02*
X100303332Y-44805233D01*
D15*
X156647712Y-67531125D02*
X156647712Y-66273982D01*
X156647712Y-66273982D02*
X156761997Y-66045411D01*
X156761997Y-66045411D02*
X156990569Y-65931125D01*
X156990569Y-65931125D02*
X157447712Y-65931125D01*
X157447712Y-65931125D02*
X157676283Y-66045411D01*
X156647712Y-67416840D02*
X156876283Y-67531125D01*
X156876283Y-67531125D02*
X157447712Y-67531125D01*
X157447712Y-67531125D02*
X157676283Y-67416840D01*
X157676283Y-67416840D02*
X157790569Y-67188268D01*
X157790569Y-67188268D02*
X157790569Y-66959697D01*
X157790569Y-66959697D02*
X157676283Y-66731125D01*
X157676283Y-66731125D02*
X157447712Y-66616840D01*
X157447712Y-66616840D02*
X156876283Y-66616840D01*
X156876283Y-66616840D02*
X156647712Y-66502554D01*
X154476283Y-65931125D02*
X154476283Y-67873982D01*
X154476283Y-67873982D02*
X154590568Y-68102554D01*
X154590568Y-68102554D02*
X154704854Y-68216840D01*
X154704854Y-68216840D02*
X154933425Y-68331125D01*
X154933425Y-68331125D02*
X155276283Y-68331125D01*
X155276283Y-68331125D02*
X155504854Y-68216840D01*
X154476283Y-67416840D02*
X154704854Y-67531125D01*
X154704854Y-67531125D02*
X155161997Y-67531125D01*
X155161997Y-67531125D02*
X155390568Y-67416840D01*
X155390568Y-67416840D02*
X155504854Y-67302554D01*
X155504854Y-67302554D02*
X155619140Y-67073982D01*
X155619140Y-67073982D02*
X155619140Y-66388268D01*
X155619140Y-66388268D02*
X155504854Y-66159697D01*
X155504854Y-66159697D02*
X155390568Y-66045411D01*
X155390568Y-66045411D02*
X155161997Y-65931125D01*
X155161997Y-65931125D02*
X154704854Y-65931125D01*
X154704854Y-65931125D02*
X154476283Y-66045411D01*
X152419139Y-67416840D02*
X152647711Y-67531125D01*
X152647711Y-67531125D02*
X153104854Y-67531125D01*
X153104854Y-67531125D02*
X153333425Y-67416840D01*
X153333425Y-67416840D02*
X153447711Y-67188268D01*
X153447711Y-67188268D02*
X153447711Y-66273982D01*
X153447711Y-66273982D02*
X153333425Y-66045411D01*
X153333425Y-66045411D02*
X153104854Y-65931125D01*
X153104854Y-65931125D02*
X152647711Y-65931125D01*
X152647711Y-65931125D02*
X152419139Y-66045411D01*
X152419139Y-66045411D02*
X152304854Y-66273982D01*
X152304854Y-66273982D02*
X152304854Y-66502554D01*
X152304854Y-66502554D02*
X153447711Y-66731125D01*
X151276282Y-67531125D02*
X151276282Y-65131125D01*
X151047711Y-66616840D02*
X150361996Y-67531125D01*
X150361996Y-65931125D02*
X151276282Y-66845411D01*
X148990568Y-67531125D02*
X149219139Y-67416840D01*
X149219139Y-67416840D02*
X149333425Y-67302554D01*
X149333425Y-67302554D02*
X149447711Y-67073982D01*
X149447711Y-67073982D02*
X149447711Y-66388268D01*
X149447711Y-66388268D02*
X149333425Y-66159697D01*
X149333425Y-66159697D02*
X149219139Y-66045411D01*
X149219139Y-66045411D02*
X148990568Y-65931125D01*
X148990568Y-65931125D02*
X148647711Y-65931125D01*
X148647711Y-65931125D02*
X148419139Y-66045411D01*
X148419139Y-66045411D02*
X148304854Y-66159697D01*
X148304854Y-66159697D02*
X148190568Y-66388268D01*
X148190568Y-66388268D02*
X148190568Y-67073982D01*
X148190568Y-67073982D02*
X148304854Y-67302554D01*
X148304854Y-67302554D02*
X148419139Y-67416840D01*
X148419139Y-67416840D02*
X148647711Y-67531125D01*
X148647711Y-67531125D02*
X148990568Y-67531125D01*
X146133425Y-67531125D02*
X146133425Y-65131125D01*
X146133425Y-67416840D02*
X146361996Y-67531125D01*
X146361996Y-67531125D02*
X146819139Y-67531125D01*
X146819139Y-67531125D02*
X147047710Y-67416840D01*
X147047710Y-67416840D02*
X147161996Y-67302554D01*
X147161996Y-67302554D02*
X147276282Y-67073982D01*
X147276282Y-67073982D02*
X147276282Y-66388268D01*
X147276282Y-66388268D02*
X147161996Y-66159697D01*
X147161996Y-66159697D02*
X147047710Y-66045411D01*
X147047710Y-66045411D02*
X146819139Y-65931125D01*
X146819139Y-65931125D02*
X146361996Y-65931125D01*
X146361996Y-65931125D02*
X146133425Y-66045411D01*
X143961996Y-67531125D02*
X143961996Y-66273982D01*
X143961996Y-66273982D02*
X144076281Y-66045411D01*
X144076281Y-66045411D02*
X144304853Y-65931125D01*
X144304853Y-65931125D02*
X144761996Y-65931125D01*
X144761996Y-65931125D02*
X144990567Y-66045411D01*
X143961996Y-67416840D02*
X144190567Y-67531125D01*
X144190567Y-67531125D02*
X144761996Y-67531125D01*
X144761996Y-67531125D02*
X144990567Y-67416840D01*
X144990567Y-67416840D02*
X145104853Y-67188268D01*
X145104853Y-67188268D02*
X145104853Y-66959697D01*
X145104853Y-66959697D02*
X144990567Y-66731125D01*
X144990567Y-66731125D02*
X144761996Y-66616840D01*
X144761996Y-66616840D02*
X144190567Y-66616840D01*
X144190567Y-66616840D02*
X143961996Y-66502554D01*
X142819138Y-67302554D02*
X142704852Y-67416840D01*
X142704852Y-67416840D02*
X142819138Y-67531125D01*
X142819138Y-67531125D02*
X142933424Y-67416840D01*
X142933424Y-67416840D02*
X142819138Y-67302554D01*
X142819138Y-67302554D02*
X142819138Y-67531125D01*
X140647710Y-65931125D02*
X140647710Y-67873982D01*
X140647710Y-67873982D02*
X140761995Y-68102554D01*
X140761995Y-68102554D02*
X140876281Y-68216840D01*
X140876281Y-68216840D02*
X141104852Y-68331125D01*
X141104852Y-68331125D02*
X141447710Y-68331125D01*
X141447710Y-68331125D02*
X141676281Y-68216840D01*
X140647710Y-67416840D02*
X140876281Y-67531125D01*
X140876281Y-67531125D02*
X141333424Y-67531125D01*
X141333424Y-67531125D02*
X141561995Y-67416840D01*
X141561995Y-67416840D02*
X141676281Y-67302554D01*
X141676281Y-67302554D02*
X141790567Y-67073982D01*
X141790567Y-67073982D02*
X141790567Y-66388268D01*
X141790567Y-66388268D02*
X141676281Y-66159697D01*
X141676281Y-66159697D02*
X141561995Y-66045411D01*
X141561995Y-66045411D02*
X141333424Y-65931125D01*
X141333424Y-65931125D02*
X140876281Y-65931125D01*
X140876281Y-65931125D02*
X140647710Y-66045411D01*
X139504852Y-67531125D02*
X139504852Y-65931125D01*
X139504852Y-65131125D02*
X139619138Y-65245411D01*
X139619138Y-65245411D02*
X139504852Y-65359697D01*
X139504852Y-65359697D02*
X139390566Y-65245411D01*
X139390566Y-65245411D02*
X139504852Y-65131125D01*
X139504852Y-65131125D02*
X139504852Y-65359697D01*
X138704852Y-65931125D02*
X137790566Y-65931125D01*
X138361995Y-65131125D02*
X138361995Y-67188268D01*
X138361995Y-67188268D02*
X138247709Y-67416840D01*
X138247709Y-67416840D02*
X138019138Y-67531125D01*
X138019138Y-67531125D02*
X137790566Y-67531125D01*
X136990566Y-67531125D02*
X136990566Y-65131125D01*
X135961995Y-67531125D02*
X135961995Y-66273982D01*
X135961995Y-66273982D02*
X136076280Y-66045411D01*
X136076280Y-66045411D02*
X136304852Y-65931125D01*
X136304852Y-65931125D02*
X136647709Y-65931125D01*
X136647709Y-65931125D02*
X136876280Y-66045411D01*
X136876280Y-66045411D02*
X136990566Y-66159697D01*
X133790566Y-65931125D02*
X133790566Y-67531125D01*
X134819137Y-65931125D02*
X134819137Y-67188268D01*
X134819137Y-67188268D02*
X134704851Y-67416840D01*
X134704851Y-67416840D02*
X134476280Y-67531125D01*
X134476280Y-67531125D02*
X134133423Y-67531125D01*
X134133423Y-67531125D02*
X133904851Y-67416840D01*
X133904851Y-67416840D02*
X133790566Y-67302554D01*
X132647708Y-67531125D02*
X132647708Y-65131125D01*
X132647708Y-66045411D02*
X132419137Y-65931125D01*
X132419137Y-65931125D02*
X131961994Y-65931125D01*
X131961994Y-65931125D02*
X131733422Y-66045411D01*
X131733422Y-66045411D02*
X131619137Y-66159697D01*
X131619137Y-66159697D02*
X131504851Y-66388268D01*
X131504851Y-66388268D02*
X131504851Y-67073982D01*
X131504851Y-67073982D02*
X131619137Y-67302554D01*
X131619137Y-67302554D02*
X131733422Y-67416840D01*
X131733422Y-67416840D02*
X131961994Y-67531125D01*
X131961994Y-67531125D02*
X132419137Y-67531125D01*
X132419137Y-67531125D02*
X132647708Y-67416840D01*
X130476279Y-67302554D02*
X130361993Y-67416840D01*
X130361993Y-67416840D02*
X130476279Y-67531125D01*
X130476279Y-67531125D02*
X130590565Y-67416840D01*
X130590565Y-67416840D02*
X130476279Y-67302554D01*
X130476279Y-67302554D02*
X130476279Y-67531125D01*
X129333422Y-67531125D02*
X129333422Y-65931125D01*
X129333422Y-65131125D02*
X129447708Y-65245411D01*
X129447708Y-65245411D02*
X129333422Y-65359697D01*
X129333422Y-65359697D02*
X129219136Y-65245411D01*
X129219136Y-65245411D02*
X129333422Y-65131125D01*
X129333422Y-65131125D02*
X129333422Y-65359697D01*
X127847708Y-67531125D02*
X128076279Y-67416840D01*
X128076279Y-67416840D02*
X128190565Y-67302554D01*
X128190565Y-67302554D02*
X128304851Y-67073982D01*
X128304851Y-67073982D02*
X128304851Y-66388268D01*
X128304851Y-66388268D02*
X128190565Y-66159697D01*
X128190565Y-66159697D02*
X128076279Y-66045411D01*
X128076279Y-66045411D02*
X127847708Y-65931125D01*
X127847708Y-65931125D02*
X127504851Y-65931125D01*
X127504851Y-65931125D02*
X127276279Y-66045411D01*
X127276279Y-66045411D02*
X127161994Y-66159697D01*
X127161994Y-66159697D02*
X127047708Y-66388268D01*
X127047708Y-66388268D02*
X127047708Y-67073982D01*
X127047708Y-67073982D02*
X127161994Y-67302554D01*
X127161994Y-67302554D02*
X127276279Y-67416840D01*
X127276279Y-67416840D02*
X127504851Y-67531125D01*
X127504851Y-67531125D02*
X127847708Y-67531125D01*
X124304850Y-65016840D02*
X126361993Y-68102554D01*
X123504850Y-65931125D02*
X123504850Y-68331125D01*
X123504850Y-66045411D02*
X123276279Y-65931125D01*
X123276279Y-65931125D02*
X122819136Y-65931125D01*
X122819136Y-65931125D02*
X122590564Y-66045411D01*
X122590564Y-66045411D02*
X122476279Y-66159697D01*
X122476279Y-66159697D02*
X122361993Y-66388268D01*
X122361993Y-66388268D02*
X122361993Y-67073982D01*
X122361993Y-67073982D02*
X122476279Y-67302554D01*
X122476279Y-67302554D02*
X122590564Y-67416840D01*
X122590564Y-67416840D02*
X122819136Y-67531125D01*
X122819136Y-67531125D02*
X123276279Y-67531125D01*
X123276279Y-67531125D02*
X123504850Y-67416840D01*
X121333421Y-67531125D02*
X121333421Y-65131125D01*
X120304850Y-67531125D02*
X120304850Y-66273982D01*
X120304850Y-66273982D02*
X120419135Y-66045411D01*
X120419135Y-66045411D02*
X120647707Y-65931125D01*
X120647707Y-65931125D02*
X120990564Y-65931125D01*
X120990564Y-65931125D02*
X121219135Y-66045411D01*
X121219135Y-66045411D02*
X121333421Y-66159697D01*
X118133421Y-67531125D02*
X118133421Y-66273982D01*
X118133421Y-66273982D02*
X118247706Y-66045411D01*
X118247706Y-66045411D02*
X118476278Y-65931125D01*
X118476278Y-65931125D02*
X118933421Y-65931125D01*
X118933421Y-65931125D02*
X119161992Y-66045411D01*
X118133421Y-67416840D02*
X118361992Y-67531125D01*
X118361992Y-67531125D02*
X118933421Y-67531125D01*
X118933421Y-67531125D02*
X119161992Y-67416840D01*
X119161992Y-67416840D02*
X119276278Y-67188268D01*
X119276278Y-67188268D02*
X119276278Y-66959697D01*
X119276278Y-66959697D02*
X119161992Y-66731125D01*
X119161992Y-66731125D02*
X118933421Y-66616840D01*
X118933421Y-66616840D02*
X118361992Y-66616840D01*
X118361992Y-66616840D02*
X118133421Y-66502554D01*
X116990563Y-65931125D02*
X116990563Y-67531125D01*
X116990563Y-66159697D02*
X116876277Y-66045411D01*
X116876277Y-66045411D02*
X116647706Y-65931125D01*
X116647706Y-65931125D02*
X116304849Y-65931125D01*
X116304849Y-65931125D02*
X116076277Y-66045411D01*
X116076277Y-66045411D02*
X115961992Y-66273982D01*
X115961992Y-66273982D02*
X115961992Y-67531125D01*
X115161991Y-65931125D02*
X114247705Y-65931125D01*
X114819134Y-65131125D02*
X114819134Y-67188268D01*
X114819134Y-67188268D02*
X114704848Y-67416840D01*
X114704848Y-67416840D02*
X114476277Y-67531125D01*
X114476277Y-67531125D02*
X114247705Y-67531125D01*
X113104848Y-67531125D02*
X113333419Y-67416840D01*
X113333419Y-67416840D02*
X113447705Y-67302554D01*
X113447705Y-67302554D02*
X113561991Y-67073982D01*
X113561991Y-67073982D02*
X113561991Y-66388268D01*
X113561991Y-66388268D02*
X113447705Y-66159697D01*
X113447705Y-66159697D02*
X113333419Y-66045411D01*
X113333419Y-66045411D02*
X113104848Y-65931125D01*
X113104848Y-65931125D02*
X112761991Y-65931125D01*
X112761991Y-65931125D02*
X112533419Y-66045411D01*
X112533419Y-66045411D02*
X112419134Y-66159697D01*
X112419134Y-66159697D02*
X112304848Y-66388268D01*
X112304848Y-66388268D02*
X112304848Y-67073982D01*
X112304848Y-67073982D02*
X112419134Y-67302554D01*
X112419134Y-67302554D02*
X112533419Y-67416840D01*
X112533419Y-67416840D02*
X112761991Y-67531125D01*
X112761991Y-67531125D02*
X113104848Y-67531125D01*
X111276276Y-67531125D02*
X111276276Y-65931125D01*
X111276276Y-66159697D02*
X111161990Y-66045411D01*
X111161990Y-66045411D02*
X110933419Y-65931125D01*
X110933419Y-65931125D02*
X110590562Y-65931125D01*
X110590562Y-65931125D02*
X110361990Y-66045411D01*
X110361990Y-66045411D02*
X110247705Y-66273982D01*
X110247705Y-66273982D02*
X110247705Y-67531125D01*
X110247705Y-66273982D02*
X110133419Y-66045411D01*
X110133419Y-66045411D02*
X109904847Y-65931125D01*
X109904847Y-65931125D02*
X109561990Y-65931125D01*
X109561990Y-65931125D02*
X109333419Y-66045411D01*
X109333419Y-66045411D02*
X109219133Y-66273982D01*
X109219133Y-66273982D02*
X109219133Y-67531125D01*
X108304847Y-65931125D02*
X107847705Y-67531125D01*
X107847705Y-67531125D02*
X107390562Y-66388268D01*
X107390562Y-66388268D02*
X106933419Y-67531125D01*
X106933419Y-67531125D02*
X106476276Y-65931125D01*
X104533419Y-67531125D02*
X104533419Y-66273982D01*
X104533419Y-66273982D02*
X104647704Y-66045411D01*
X104647704Y-66045411D02*
X104876276Y-65931125D01*
X104876276Y-65931125D02*
X105333419Y-65931125D01*
X105333419Y-65931125D02*
X105561990Y-66045411D01*
X104533419Y-67416840D02*
X104761990Y-67531125D01*
X104761990Y-67531125D02*
X105333419Y-67531125D01*
X105333419Y-67531125D02*
X105561990Y-67416840D01*
X105561990Y-67416840D02*
X105676276Y-67188268D01*
X105676276Y-67188268D02*
X105676276Y-66959697D01*
X105676276Y-66959697D02*
X105561990Y-66731125D01*
X105561990Y-66731125D02*
X105333419Y-66616840D01*
X105333419Y-66616840D02*
X104761990Y-66616840D01*
X104761990Y-66616840D02*
X104533419Y-66502554D01*
X103390561Y-67531125D02*
X103390561Y-65931125D01*
X103390561Y-66388268D02*
X103276275Y-66159697D01*
X103276275Y-66159697D02*
X103161990Y-66045411D01*
X103161990Y-66045411D02*
X102933418Y-65931125D01*
X102933418Y-65931125D02*
X102704847Y-65931125D01*
X100990561Y-67416840D02*
X101219133Y-67531125D01*
X101219133Y-67531125D02*
X101676276Y-67531125D01*
X101676276Y-67531125D02*
X101904847Y-67416840D01*
X101904847Y-67416840D02*
X102019133Y-67188268D01*
X102019133Y-67188268D02*
X102019133Y-66273982D01*
X102019133Y-66273982D02*
X101904847Y-66045411D01*
X101904847Y-66045411D02*
X101676276Y-65931125D01*
X101676276Y-65931125D02*
X101219133Y-65931125D01*
X101219133Y-65931125D02*
X100990561Y-66045411D01*
X100990561Y-66045411D02*
X100876276Y-66273982D01*
X100876276Y-66273982D02*
X100876276Y-66502554D01*
X100876276Y-66502554D02*
X102019133Y-66731125D01*
D14*
X172397431Y-71764619D02*
X172397431Y-72574142D01*
X172397431Y-72574142D02*
X172349812Y-72669380D01*
X172349812Y-72669380D02*
X172302193Y-72717000D01*
X172302193Y-72717000D02*
X172206955Y-72764619D01*
X172206955Y-72764619D02*
X172016479Y-72764619D01*
X172016479Y-72764619D02*
X171921241Y-72717000D01*
X171921241Y-72717000D02*
X171873622Y-72669380D01*
X171873622Y-72669380D02*
X171826003Y-72574142D01*
X171826003Y-72574142D02*
X171826003Y-71764619D01*
X171397431Y-72717000D02*
X171254574Y-72764619D01*
X171254574Y-72764619D02*
X171016479Y-72764619D01*
X171016479Y-72764619D02*
X170921241Y-72717000D01*
X170921241Y-72717000D02*
X170873622Y-72669380D01*
X170873622Y-72669380D02*
X170826003Y-72574142D01*
X170826003Y-72574142D02*
X170826003Y-72478904D01*
X170826003Y-72478904D02*
X170873622Y-72383666D01*
X170873622Y-72383666D02*
X170921241Y-72336047D01*
X170921241Y-72336047D02*
X171016479Y-72288428D01*
X171016479Y-72288428D02*
X171206955Y-72240809D01*
X171206955Y-72240809D02*
X171302193Y-72193190D01*
X171302193Y-72193190D02*
X171349812Y-72145571D01*
X171349812Y-72145571D02*
X171397431Y-72050333D01*
X171397431Y-72050333D02*
X171397431Y-71955095D01*
X171397431Y-71955095D02*
X171349812Y-71859857D01*
X171349812Y-71859857D02*
X171302193Y-71812238D01*
X171302193Y-71812238D02*
X171206955Y-71764619D01*
X171206955Y-71764619D02*
X170968860Y-71764619D01*
X170968860Y-71764619D02*
X170826003Y-71812238D01*
X170064098Y-72240809D02*
X169921241Y-72288428D01*
X169921241Y-72288428D02*
X169873622Y-72336047D01*
X169873622Y-72336047D02*
X169826003Y-72431285D01*
X169826003Y-72431285D02*
X169826003Y-72574142D01*
X169826003Y-72574142D02*
X169873622Y-72669380D01*
X169873622Y-72669380D02*
X169921241Y-72717000D01*
X169921241Y-72717000D02*
X170016479Y-72764619D01*
X170016479Y-72764619D02*
X170397431Y-72764619D01*
X170397431Y-72764619D02*
X170397431Y-71764619D01*
X170397431Y-71764619D02*
X170064098Y-71764619D01*
X170064098Y-71764619D02*
X169968860Y-71812238D01*
X169968860Y-71812238D02*
X169921241Y-71859857D01*
X169921241Y-71859857D02*
X169873622Y-71955095D01*
X169873622Y-71955095D02*
X169873622Y-72050333D01*
X169873622Y-72050333D02*
X169921241Y-72145571D01*
X169921241Y-72145571D02*
X169968860Y-72193190D01*
X169968860Y-72193190D02*
X170064098Y-72240809D01*
X170064098Y-72240809D02*
X170397431Y-72240809D01*
D11*
X141353333Y-50405233D02*
X141286666Y-50405233D01*
X141286666Y-50405233D02*
X141219999Y-50438566D01*
X141219999Y-50438566D02*
X141186666Y-50471900D01*
X141186666Y-50471900D02*
X141153333Y-50538566D01*
X141153333Y-50538566D02*
X141119999Y-50671900D01*
X141119999Y-50671900D02*
X141119999Y-50838566D01*
X141119999Y-50838566D02*
X141153333Y-50971900D01*
X141153333Y-50971900D02*
X141186666Y-51038566D01*
X141186666Y-51038566D02*
X141219999Y-51071900D01*
X141219999Y-51071900D02*
X141286666Y-51105233D01*
X141286666Y-51105233D02*
X141353333Y-51105233D01*
X141353333Y-51105233D02*
X141419999Y-51071900D01*
X141419999Y-51071900D02*
X141453333Y-51038566D01*
X141453333Y-51038566D02*
X141486666Y-50971900D01*
X141486666Y-50971900D02*
X141519999Y-50838566D01*
X141519999Y-50838566D02*
X141519999Y-50671900D01*
X141519999Y-50671900D02*
X141486666Y-50538566D01*
X141486666Y-50538566D02*
X141453333Y-50471900D01*
X141453333Y-50471900D02*
X141419999Y-50438566D01*
X141419999Y-50438566D02*
X141353333Y-50405233D01*
D12*
X149771664Y-86571526D02*
X149678807Y-86602478D01*
X149678807Y-86602478D02*
X149647854Y-86633430D01*
X149647854Y-86633430D02*
X149616902Y-86695335D01*
X149616902Y-86695335D02*
X149616902Y-86788192D01*
X149616902Y-86788192D02*
X149647854Y-86850097D01*
X149647854Y-86850097D02*
X149678807Y-86881050D01*
X149678807Y-86881050D02*
X149740712Y-86912002D01*
X149740712Y-86912002D02*
X149988331Y-86912002D01*
X149988331Y-86912002D02*
X149988331Y-86262002D01*
X149988331Y-86262002D02*
X149771664Y-86262002D01*
X149771664Y-86262002D02*
X149709759Y-86292954D01*
X149709759Y-86292954D02*
X149678807Y-86323907D01*
X149678807Y-86323907D02*
X149647854Y-86385811D01*
X149647854Y-86385811D02*
X149647854Y-86447716D01*
X149647854Y-86447716D02*
X149678807Y-86509621D01*
X149678807Y-86509621D02*
X149709759Y-86540573D01*
X149709759Y-86540573D02*
X149771664Y-86571526D01*
X149771664Y-86571526D02*
X149988331Y-86571526D01*
X149369283Y-86726288D02*
X149059759Y-86726288D01*
X149431188Y-86912002D02*
X149214521Y-86262002D01*
X149214521Y-86262002D02*
X148997854Y-86912002D01*
X148409759Y-86850097D02*
X148440711Y-86881050D01*
X148440711Y-86881050D02*
X148533569Y-86912002D01*
X148533569Y-86912002D02*
X148595473Y-86912002D01*
X148595473Y-86912002D02*
X148688330Y-86881050D01*
X148688330Y-86881050D02*
X148750235Y-86819145D01*
X148750235Y-86819145D02*
X148781188Y-86757240D01*
X148781188Y-86757240D02*
X148812140Y-86633430D01*
X148812140Y-86633430D02*
X148812140Y-86540573D01*
X148812140Y-86540573D02*
X148781188Y-86416764D01*
X148781188Y-86416764D02*
X148750235Y-86354859D01*
X148750235Y-86354859D02*
X148688330Y-86292954D01*
X148688330Y-86292954D02*
X148595473Y-86262002D01*
X148595473Y-86262002D02*
X148533569Y-86262002D01*
X148533569Y-86262002D02*
X148440711Y-86292954D01*
X148440711Y-86292954D02*
X148409759Y-86323907D01*
X148131188Y-86912002D02*
X148131188Y-86262002D01*
X147759759Y-86912002D02*
X148038330Y-86540573D01*
X147759759Y-86262002D02*
X148131188Y-86633430D01*
D11*
X172333332Y-54338566D02*
X172399999Y-54305233D01*
X172399999Y-54305233D02*
X172499999Y-54305233D01*
X172499999Y-54305233D02*
X172599999Y-54338566D01*
X172599999Y-54338566D02*
X172666666Y-54405233D01*
X172666666Y-54405233D02*
X172699999Y-54471900D01*
X172699999Y-54471900D02*
X172733332Y-54605233D01*
X172733332Y-54605233D02*
X172733332Y-54705233D01*
X172733332Y-54705233D02*
X172699999Y-54838566D01*
X172699999Y-54838566D02*
X172666666Y-54905233D01*
X172666666Y-54905233D02*
X172599999Y-54971900D01*
X172599999Y-54971900D02*
X172499999Y-55005233D01*
X172499999Y-55005233D02*
X172433332Y-55005233D01*
X172433332Y-55005233D02*
X172333332Y-54971900D01*
X172333332Y-54971900D02*
X172299999Y-54938566D01*
X172299999Y-54938566D02*
X172299999Y-54705233D01*
X172299999Y-54705233D02*
X172433332Y-54705233D01*
X171999999Y-55005233D02*
X171999999Y-54305233D01*
X171999999Y-54305233D02*
X171599999Y-55005233D01*
X171599999Y-55005233D02*
X171599999Y-54305233D01*
X171266666Y-55005233D02*
X171266666Y-54305233D01*
X171266666Y-54305233D02*
X171099999Y-54305233D01*
X171099999Y-54305233D02*
X170999999Y-54338566D01*
X170999999Y-54338566D02*
X170933333Y-54405233D01*
X170933333Y-54405233D02*
X170899999Y-54471900D01*
X170899999Y-54471900D02*
X170866666Y-54605233D01*
X170866666Y-54605233D02*
X170866666Y-54705233D01*
X170866666Y-54705233D02*
X170899999Y-54838566D01*
X170899999Y-54838566D02*
X170933333Y-54905233D01*
X170933333Y-54905233D02*
X170999999Y-54971900D01*
X170999999Y-54971900D02*
X171099999Y-55005233D01*
X171099999Y-55005233D02*
X171266666Y-55005233D01*
D12*
X124937854Y-86292954D02*
X124999759Y-86262002D01*
X124999759Y-86262002D02*
X125092616Y-86262002D01*
X125092616Y-86262002D02*
X125185473Y-86292954D01*
X125185473Y-86292954D02*
X125247378Y-86354859D01*
X125247378Y-86354859D02*
X125278331Y-86416764D01*
X125278331Y-86416764D02*
X125309283Y-86540573D01*
X125309283Y-86540573D02*
X125309283Y-86633430D01*
X125309283Y-86633430D02*
X125278331Y-86757240D01*
X125278331Y-86757240D02*
X125247378Y-86819145D01*
X125247378Y-86819145D02*
X125185473Y-86881050D01*
X125185473Y-86881050D02*
X125092616Y-86912002D01*
X125092616Y-86912002D02*
X125030712Y-86912002D01*
X125030712Y-86912002D02*
X124937854Y-86881050D01*
X124937854Y-86881050D02*
X124906902Y-86850097D01*
X124906902Y-86850097D02*
X124906902Y-86633430D01*
X124906902Y-86633430D02*
X125030712Y-86633430D01*
X124628331Y-86912002D02*
X124628331Y-86262002D01*
X124628331Y-86262002D02*
X124256902Y-86912002D01*
X124256902Y-86912002D02*
X124256902Y-86262002D01*
X123947379Y-86912002D02*
X123947379Y-86262002D01*
X123947379Y-86262002D02*
X123792617Y-86262002D01*
X123792617Y-86262002D02*
X123699760Y-86292954D01*
X123699760Y-86292954D02*
X123637855Y-86354859D01*
X123637855Y-86354859D02*
X123606902Y-86416764D01*
X123606902Y-86416764D02*
X123575950Y-86540573D01*
X123575950Y-86540573D02*
X123575950Y-86633430D01*
X123575950Y-86633430D02*
X123606902Y-86757240D01*
X123606902Y-86757240D02*
X123637855Y-86819145D01*
X123637855Y-86819145D02*
X123699760Y-86881050D01*
X123699760Y-86881050D02*
X123792617Y-86912002D01*
X123792617Y-86912002D02*
X123947379Y-86912002D01*
D11*
X104143333Y-44805233D02*
X104376666Y-44471900D01*
X104543333Y-44805233D02*
X104543333Y-44105233D01*
X104543333Y-44105233D02*
X104276666Y-44105233D01*
X104276666Y-44105233D02*
X104210000Y-44138566D01*
X104210000Y-44138566D02*
X104176666Y-44171900D01*
X104176666Y-44171900D02*
X104143333Y-44238566D01*
X104143333Y-44238566D02*
X104143333Y-44338566D01*
X104143333Y-44338566D02*
X104176666Y-44405233D01*
X104176666Y-44405233D02*
X104210000Y-44438566D01*
X104210000Y-44438566D02*
X104276666Y-44471900D01*
X104276666Y-44471900D02*
X104543333Y-44471900D01*
X103876666Y-44771900D02*
X103776666Y-44805233D01*
X103776666Y-44805233D02*
X103610000Y-44805233D01*
X103610000Y-44805233D02*
X103543333Y-44771900D01*
X103543333Y-44771900D02*
X103510000Y-44738566D01*
X103510000Y-44738566D02*
X103476666Y-44671900D01*
X103476666Y-44671900D02*
X103476666Y-44605233D01*
X103476666Y-44605233D02*
X103510000Y-44538566D01*
X103510000Y-44538566D02*
X103543333Y-44505233D01*
X103543333Y-44505233D02*
X103610000Y-44471900D01*
X103610000Y-44471900D02*
X103743333Y-44438566D01*
X103743333Y-44438566D02*
X103810000Y-44405233D01*
X103810000Y-44405233D02*
X103843333Y-44371900D01*
X103843333Y-44371900D02*
X103876666Y-44305233D01*
X103876666Y-44305233D02*
X103876666Y-44238566D01*
X103876666Y-44238566D02*
X103843333Y-44171900D01*
X103843333Y-44171900D02*
X103810000Y-44138566D01*
X103810000Y-44138566D02*
X103743333Y-44105233D01*
X103743333Y-44105233D02*
X103576666Y-44105233D01*
X103576666Y-44105233D02*
X103476666Y-44138566D01*
X103276666Y-44105233D02*
X102876666Y-44105233D01*
X103076666Y-44805233D02*
X103076666Y-44105233D01*
X111613333Y-44438566D02*
X111513333Y-44471900D01*
X111513333Y-44471900D02*
X111479999Y-44505233D01*
X111479999Y-44505233D02*
X111446666Y-44571900D01*
X111446666Y-44571900D02*
X111446666Y-44671900D01*
X111446666Y-44671900D02*
X111479999Y-44738566D01*
X111479999Y-44738566D02*
X111513333Y-44771900D01*
X111513333Y-44771900D02*
X111579999Y-44805233D01*
X111579999Y-44805233D02*
X111846666Y-44805233D01*
X111846666Y-44805233D02*
X111846666Y-44105233D01*
X111846666Y-44105233D02*
X111613333Y-44105233D01*
X111613333Y-44105233D02*
X111546666Y-44138566D01*
X111546666Y-44138566D02*
X111513333Y-44171900D01*
X111513333Y-44171900D02*
X111479999Y-44238566D01*
X111479999Y-44238566D02*
X111479999Y-44305233D01*
X111479999Y-44305233D02*
X111513333Y-44371900D01*
X111513333Y-44371900D02*
X111546666Y-44405233D01*
X111546666Y-44405233D02*
X111613333Y-44438566D01*
X111613333Y-44438566D02*
X111846666Y-44438566D01*
X110813333Y-44805233D02*
X111146666Y-44805233D01*
X111146666Y-44805233D02*
X111146666Y-44105233D01*
X118983332Y-54338566D02*
X119049999Y-54305233D01*
X119049999Y-54305233D02*
X119149999Y-54305233D01*
X119149999Y-54305233D02*
X119249999Y-54338566D01*
X119249999Y-54338566D02*
X119316666Y-54405233D01*
X119316666Y-54405233D02*
X119349999Y-54471900D01*
X119349999Y-54471900D02*
X119383332Y-54605233D01*
X119383332Y-54605233D02*
X119383332Y-54705233D01*
X119383332Y-54705233D02*
X119349999Y-54838566D01*
X119349999Y-54838566D02*
X119316666Y-54905233D01*
X119316666Y-54905233D02*
X119249999Y-54971900D01*
X119249999Y-54971900D02*
X119149999Y-55005233D01*
X119149999Y-55005233D02*
X119083332Y-55005233D01*
X119083332Y-55005233D02*
X118983332Y-54971900D01*
X118983332Y-54971900D02*
X118949999Y-54938566D01*
X118949999Y-54938566D02*
X118949999Y-54705233D01*
X118949999Y-54705233D02*
X119083332Y-54705233D01*
X118649999Y-55005233D02*
X118649999Y-54305233D01*
X118649999Y-54305233D02*
X118249999Y-55005233D01*
X118249999Y-55005233D02*
X118249999Y-54305233D01*
X117916666Y-55005233D02*
X117916666Y-54305233D01*
X117916666Y-54305233D02*
X117749999Y-54305233D01*
X117749999Y-54305233D02*
X117649999Y-54338566D01*
X117649999Y-54338566D02*
X117583333Y-54405233D01*
X117583333Y-54405233D02*
X117549999Y-54471900D01*
X117549999Y-54471900D02*
X117516666Y-54605233D01*
X117516666Y-54605233D02*
X117516666Y-54705233D01*
X117516666Y-54705233D02*
X117549999Y-54838566D01*
X117549999Y-54838566D02*
X117583333Y-54905233D01*
X117583333Y-54905233D02*
X117649999Y-54971900D01*
X117649999Y-54971900D02*
X117749999Y-55005233D01*
X117749999Y-55005233D02*
X117916666Y-55005233D01*
D12*
X119486902Y-86850097D02*
X119517854Y-86881050D01*
X119517854Y-86881050D02*
X119610712Y-86912002D01*
X119610712Y-86912002D02*
X119672616Y-86912002D01*
X119672616Y-86912002D02*
X119765473Y-86881050D01*
X119765473Y-86881050D02*
X119827378Y-86819145D01*
X119827378Y-86819145D02*
X119858331Y-86757240D01*
X119858331Y-86757240D02*
X119889283Y-86633430D01*
X119889283Y-86633430D02*
X119889283Y-86540573D01*
X119889283Y-86540573D02*
X119858331Y-86416764D01*
X119858331Y-86416764D02*
X119827378Y-86354859D01*
X119827378Y-86354859D02*
X119765473Y-86292954D01*
X119765473Y-86292954D02*
X119672616Y-86262002D01*
X119672616Y-86262002D02*
X119610712Y-86262002D01*
X119610712Y-86262002D02*
X119517854Y-86292954D01*
X119517854Y-86292954D02*
X119486902Y-86323907D01*
X119239283Y-86881050D02*
X119146426Y-86912002D01*
X119146426Y-86912002D02*
X118991664Y-86912002D01*
X118991664Y-86912002D02*
X118929759Y-86881050D01*
X118929759Y-86881050D02*
X118898807Y-86850097D01*
X118898807Y-86850097D02*
X118867854Y-86788192D01*
X118867854Y-86788192D02*
X118867854Y-86726288D01*
X118867854Y-86726288D02*
X118898807Y-86664383D01*
X118898807Y-86664383D02*
X118929759Y-86633430D01*
X118929759Y-86633430D02*
X118991664Y-86602478D01*
X118991664Y-86602478D02*
X119115473Y-86571526D01*
X119115473Y-86571526D02*
X119177378Y-86540573D01*
X119177378Y-86540573D02*
X119208331Y-86509621D01*
X119208331Y-86509621D02*
X119239283Y-86447716D01*
X119239283Y-86447716D02*
X119239283Y-86385811D01*
X119239283Y-86385811D02*
X119208331Y-86323907D01*
X119208331Y-86323907D02*
X119177378Y-86292954D01*
X119177378Y-86292954D02*
X119115473Y-86262002D01*
X119115473Y-86262002D02*
X118960712Y-86262002D01*
X118960712Y-86262002D02*
X118867854Y-86292954D01*
D11*
X137089999Y-51071900D02*
X136989999Y-51105233D01*
X136989999Y-51105233D02*
X136823333Y-51105233D01*
X136823333Y-51105233D02*
X136756666Y-51071900D01*
X136756666Y-51071900D02*
X136723333Y-51038566D01*
X136723333Y-51038566D02*
X136689999Y-50971900D01*
X136689999Y-50971900D02*
X136689999Y-50905233D01*
X136689999Y-50905233D02*
X136723333Y-50838566D01*
X136723333Y-50838566D02*
X136756666Y-50805233D01*
X136756666Y-50805233D02*
X136823333Y-50771900D01*
X136823333Y-50771900D02*
X136956666Y-50738566D01*
X136956666Y-50738566D02*
X137023333Y-50705233D01*
X137023333Y-50705233D02*
X137056666Y-50671900D01*
X137056666Y-50671900D02*
X137089999Y-50605233D01*
X137089999Y-50605233D02*
X137089999Y-50538566D01*
X137089999Y-50538566D02*
X137056666Y-50471900D01*
X137056666Y-50471900D02*
X137023333Y-50438566D01*
X137023333Y-50438566D02*
X136956666Y-50405233D01*
X136956666Y-50405233D02*
X136789999Y-50405233D01*
X136789999Y-50405233D02*
X136689999Y-50438566D01*
X136389999Y-51105233D02*
X136389999Y-50405233D01*
X136389999Y-50405233D02*
X136223332Y-50405233D01*
X136223332Y-50405233D02*
X136123332Y-50438566D01*
X136123332Y-50438566D02*
X136056666Y-50505233D01*
X136056666Y-50505233D02*
X136023332Y-50571900D01*
X136023332Y-50571900D02*
X135989999Y-50705233D01*
X135989999Y-50705233D02*
X135989999Y-50805233D01*
X135989999Y-50805233D02*
X136023332Y-50938566D01*
X136023332Y-50938566D02*
X136056666Y-51005233D01*
X136056666Y-51005233D02*
X136123332Y-51071900D01*
X136123332Y-51071900D02*
X136223332Y-51105233D01*
X136223332Y-51105233D02*
X136389999Y-51105233D01*
X135723332Y-50905233D02*
X135389999Y-50905233D01*
X135789999Y-51105233D02*
X135556666Y-50405233D01*
X135556666Y-50405233D02*
X135323332Y-51105233D01*
X164713333Y-50471900D02*
X164680000Y-50438566D01*
X164680000Y-50438566D02*
X164613333Y-50405233D01*
X164613333Y-50405233D02*
X164446667Y-50405233D01*
X164446667Y-50405233D02*
X164380000Y-50438566D01*
X164380000Y-50438566D02*
X164346667Y-50471900D01*
X164346667Y-50471900D02*
X164313333Y-50538566D01*
X164313333Y-50538566D02*
X164313333Y-50605233D01*
X164313333Y-50605233D02*
X164346667Y-50705233D01*
X164346667Y-50705233D02*
X164746667Y-51105233D01*
X164746667Y-51105233D02*
X164313333Y-51105233D01*
X163880000Y-50405233D02*
X163813333Y-50405233D01*
X163813333Y-50405233D02*
X163746666Y-50438566D01*
X163746666Y-50438566D02*
X163713333Y-50471900D01*
X163713333Y-50471900D02*
X163680000Y-50538566D01*
X163680000Y-50538566D02*
X163646666Y-50671900D01*
X163646666Y-50671900D02*
X163646666Y-50838566D01*
X163646666Y-50838566D02*
X163680000Y-50971900D01*
X163680000Y-50971900D02*
X163713333Y-51038566D01*
X163713333Y-51038566D02*
X163746666Y-51071900D01*
X163746666Y-51071900D02*
X163813333Y-51105233D01*
X163813333Y-51105233D02*
X163880000Y-51105233D01*
X163880000Y-51105233D02*
X163946666Y-51071900D01*
X163946666Y-51071900D02*
X163980000Y-51038566D01*
X163980000Y-51038566D02*
X164013333Y-50971900D01*
X164013333Y-50971900D02*
X164046666Y-50838566D01*
X164046666Y-50838566D02*
X164046666Y-50671900D01*
X164046666Y-50671900D02*
X164013333Y-50538566D01*
X164013333Y-50538566D02*
X163980000Y-50471900D01*
X163980000Y-50471900D02*
X163946666Y-50438566D01*
X163946666Y-50438566D02*
X163880000Y-50405233D01*
D12*
X145038331Y-86912002D02*
X145038331Y-86262002D01*
X145038331Y-86262002D02*
X144883569Y-86262002D01*
X144883569Y-86262002D02*
X144790712Y-86292954D01*
X144790712Y-86292954D02*
X144728807Y-86354859D01*
X144728807Y-86354859D02*
X144697854Y-86416764D01*
X144697854Y-86416764D02*
X144666902Y-86540573D01*
X144666902Y-86540573D02*
X144666902Y-86633430D01*
X144666902Y-86633430D02*
X144697854Y-86757240D01*
X144697854Y-86757240D02*
X144728807Y-86819145D01*
X144728807Y-86819145D02*
X144790712Y-86881050D01*
X144790712Y-86881050D02*
X144883569Y-86912002D01*
X144883569Y-86912002D02*
X145038331Y-86912002D01*
X144264521Y-86262002D02*
X144140712Y-86262002D01*
X144140712Y-86262002D02*
X144078807Y-86292954D01*
X144078807Y-86292954D02*
X144016902Y-86354859D01*
X144016902Y-86354859D02*
X143985950Y-86478669D01*
X143985950Y-86478669D02*
X143985950Y-86695335D01*
X143985950Y-86695335D02*
X144016902Y-86819145D01*
X144016902Y-86819145D02*
X144078807Y-86881050D01*
X144078807Y-86881050D02*
X144140712Y-86912002D01*
X144140712Y-86912002D02*
X144264521Y-86912002D01*
X144264521Y-86912002D02*
X144326426Y-86881050D01*
X144326426Y-86881050D02*
X144388331Y-86819145D01*
X144388331Y-86819145D02*
X144419283Y-86695335D01*
X144419283Y-86695335D02*
X144419283Y-86478669D01*
X144419283Y-86478669D02*
X144388331Y-86354859D01*
X144388331Y-86354859D02*
X144326426Y-86292954D01*
X144326426Y-86292954D02*
X144264521Y-86262002D01*
X143769283Y-86262002D02*
X143614521Y-86912002D01*
X143614521Y-86912002D02*
X143490712Y-86447716D01*
X143490712Y-86447716D02*
X143366902Y-86912002D01*
X143366902Y-86912002D02*
X143212141Y-86262002D01*
X142964522Y-86912002D02*
X142964522Y-86262002D01*
X142964522Y-86262002D02*
X142593093Y-86912002D01*
X142593093Y-86912002D02*
X142593093Y-86262002D01*
X117838331Y-86912002D02*
X117838331Y-86262002D01*
X117838331Y-86262002D02*
X117621664Y-86726288D01*
X117621664Y-86726288D02*
X117404997Y-86262002D01*
X117404997Y-86262002D02*
X117404997Y-86912002D01*
X116971664Y-86262002D02*
X116847855Y-86262002D01*
X116847855Y-86262002D02*
X116785950Y-86292954D01*
X116785950Y-86292954D02*
X116724045Y-86354859D01*
X116724045Y-86354859D02*
X116693093Y-86478669D01*
X116693093Y-86478669D02*
X116693093Y-86695335D01*
X116693093Y-86695335D02*
X116724045Y-86819145D01*
X116724045Y-86819145D02*
X116785950Y-86881050D01*
X116785950Y-86881050D02*
X116847855Y-86912002D01*
X116847855Y-86912002D02*
X116971664Y-86912002D01*
X116971664Y-86912002D02*
X117033569Y-86881050D01*
X117033569Y-86881050D02*
X117095474Y-86819145D01*
X117095474Y-86819145D02*
X117126426Y-86695335D01*
X117126426Y-86695335D02*
X117126426Y-86478669D01*
X117126426Y-86478669D02*
X117095474Y-86354859D01*
X117095474Y-86354859D02*
X117033569Y-86292954D01*
X117033569Y-86292954D02*
X116971664Y-86262002D01*
X116445474Y-86881050D02*
X116352617Y-86912002D01*
X116352617Y-86912002D02*
X116197855Y-86912002D01*
X116197855Y-86912002D02*
X116135950Y-86881050D01*
X116135950Y-86881050D02*
X116104998Y-86850097D01*
X116104998Y-86850097D02*
X116074045Y-86788192D01*
X116074045Y-86788192D02*
X116074045Y-86726288D01*
X116074045Y-86726288D02*
X116104998Y-86664383D01*
X116104998Y-86664383D02*
X116135950Y-86633430D01*
X116135950Y-86633430D02*
X116197855Y-86602478D01*
X116197855Y-86602478D02*
X116321664Y-86571526D01*
X116321664Y-86571526D02*
X116383569Y-86540573D01*
X116383569Y-86540573D02*
X116414522Y-86509621D01*
X116414522Y-86509621D02*
X116445474Y-86447716D01*
X116445474Y-86447716D02*
X116445474Y-86385811D01*
X116445474Y-86385811D02*
X116414522Y-86323907D01*
X116414522Y-86323907D02*
X116383569Y-86292954D01*
X116383569Y-86292954D02*
X116321664Y-86262002D01*
X116321664Y-86262002D02*
X116166903Y-86262002D01*
X116166903Y-86262002D02*
X116074045Y-86292954D01*
X115795474Y-86912002D02*
X115795474Y-86262002D01*
D11*
X119493333Y-76355233D02*
X119059999Y-76355233D01*
X119059999Y-76355233D02*
X119293333Y-76621900D01*
X119293333Y-76621900D02*
X119193333Y-76621900D01*
X119193333Y-76621900D02*
X119126666Y-76655233D01*
X119126666Y-76655233D02*
X119093333Y-76688566D01*
X119093333Y-76688566D02*
X119059999Y-76755233D01*
X119059999Y-76755233D02*
X119059999Y-76921900D01*
X119059999Y-76921900D02*
X119093333Y-76988566D01*
X119093333Y-76988566D02*
X119126666Y-77021900D01*
X119126666Y-77021900D02*
X119193333Y-77055233D01*
X119193333Y-77055233D02*
X119393333Y-77055233D01*
X119393333Y-77055233D02*
X119459999Y-77021900D01*
X119459999Y-77021900D02*
X119493333Y-76988566D01*
X118759999Y-76988566D02*
X118726666Y-77021900D01*
X118726666Y-77021900D02*
X118759999Y-77055233D01*
X118759999Y-77055233D02*
X118793332Y-77021900D01*
X118793332Y-77021900D02*
X118759999Y-76988566D01*
X118759999Y-76988566D02*
X118759999Y-77055233D01*
X118493333Y-76355233D02*
X118059999Y-76355233D01*
X118059999Y-76355233D02*
X118293333Y-76621900D01*
X118293333Y-76621900D02*
X118193333Y-76621900D01*
X118193333Y-76621900D02*
X118126666Y-76655233D01*
X118126666Y-76655233D02*
X118093333Y-76688566D01*
X118093333Y-76688566D02*
X118059999Y-76755233D01*
X118059999Y-76755233D02*
X118059999Y-76921900D01*
X118059999Y-76921900D02*
X118093333Y-76988566D01*
X118093333Y-76988566D02*
X118126666Y-77021900D01*
X118126666Y-77021900D02*
X118193333Y-77055233D01*
X118193333Y-77055233D02*
X118393333Y-77055233D01*
X118393333Y-77055233D02*
X118459999Y-77021900D01*
X118459999Y-77021900D02*
X118493333Y-76988566D01*
X117859999Y-76355233D02*
X117626666Y-77055233D01*
X117626666Y-77055233D02*
X117393332Y-76355233D01*
X150023333Y-46405233D02*
X149790000Y-47105233D01*
X149790000Y-47105233D02*
X149556666Y-46405233D01*
X149356666Y-47071900D02*
X149256666Y-47105233D01*
X149256666Y-47105233D02*
X149090000Y-47105233D01*
X149090000Y-47105233D02*
X149023333Y-47071900D01*
X149023333Y-47071900D02*
X148990000Y-47038566D01*
X148990000Y-47038566D02*
X148956666Y-46971900D01*
X148956666Y-46971900D02*
X148956666Y-46905233D01*
X148956666Y-46905233D02*
X148990000Y-46838566D01*
X148990000Y-46838566D02*
X149023333Y-46805233D01*
X149023333Y-46805233D02*
X149090000Y-46771900D01*
X149090000Y-46771900D02*
X149223333Y-46738566D01*
X149223333Y-46738566D02*
X149290000Y-46705233D01*
X149290000Y-46705233D02*
X149323333Y-46671900D01*
X149323333Y-46671900D02*
X149356666Y-46605233D01*
X149356666Y-46605233D02*
X149356666Y-46538566D01*
X149356666Y-46538566D02*
X149323333Y-46471900D01*
X149323333Y-46471900D02*
X149290000Y-46438566D01*
X149290000Y-46438566D02*
X149223333Y-46405233D01*
X149223333Y-46405233D02*
X149056666Y-46405233D01*
X149056666Y-46405233D02*
X148956666Y-46438566D01*
X148656666Y-47105233D02*
X148656666Y-46405233D01*
X148656666Y-46405233D02*
X148389999Y-46405233D01*
X148389999Y-46405233D02*
X148323333Y-46438566D01*
X148323333Y-46438566D02*
X148289999Y-46471900D01*
X148289999Y-46471900D02*
X148256666Y-46538566D01*
X148256666Y-46538566D02*
X148256666Y-46638566D01*
X148256666Y-46638566D02*
X148289999Y-46705233D01*
X148289999Y-46705233D02*
X148323333Y-46738566D01*
X148323333Y-46738566D02*
X148389999Y-46771900D01*
X148389999Y-46771900D02*
X148656666Y-46771900D01*
X147956666Y-47105233D02*
X147956666Y-46405233D01*
D12*
X141838331Y-86262002D02*
X141838331Y-86788192D01*
X141838331Y-86788192D02*
X141807378Y-86850097D01*
X141807378Y-86850097D02*
X141776426Y-86881050D01*
X141776426Y-86881050D02*
X141714521Y-86912002D01*
X141714521Y-86912002D02*
X141590712Y-86912002D01*
X141590712Y-86912002D02*
X141528807Y-86881050D01*
X141528807Y-86881050D02*
X141497854Y-86850097D01*
X141497854Y-86850097D02*
X141466902Y-86788192D01*
X141466902Y-86788192D02*
X141466902Y-86262002D01*
X141157379Y-86912002D02*
X141157379Y-86262002D01*
X141157379Y-86262002D02*
X140909760Y-86262002D01*
X140909760Y-86262002D02*
X140847855Y-86292954D01*
X140847855Y-86292954D02*
X140816902Y-86323907D01*
X140816902Y-86323907D02*
X140785950Y-86385811D01*
X140785950Y-86385811D02*
X140785950Y-86478669D01*
X140785950Y-86478669D02*
X140816902Y-86540573D01*
X140816902Y-86540573D02*
X140847855Y-86571526D01*
X140847855Y-86571526D02*
X140909760Y-86602478D01*
X140909760Y-86602478D02*
X141157379Y-86602478D01*
D11*
X169783332Y-54338566D02*
X169849999Y-54305233D01*
X169849999Y-54305233D02*
X169949999Y-54305233D01*
X169949999Y-54305233D02*
X170049999Y-54338566D01*
X170049999Y-54338566D02*
X170116666Y-54405233D01*
X170116666Y-54405233D02*
X170149999Y-54471900D01*
X170149999Y-54471900D02*
X170183332Y-54605233D01*
X170183332Y-54605233D02*
X170183332Y-54705233D01*
X170183332Y-54705233D02*
X170149999Y-54838566D01*
X170149999Y-54838566D02*
X170116666Y-54905233D01*
X170116666Y-54905233D02*
X170049999Y-54971900D01*
X170049999Y-54971900D02*
X169949999Y-55005233D01*
X169949999Y-55005233D02*
X169883332Y-55005233D01*
X169883332Y-55005233D02*
X169783332Y-54971900D01*
X169783332Y-54971900D02*
X169749999Y-54938566D01*
X169749999Y-54938566D02*
X169749999Y-54705233D01*
X169749999Y-54705233D02*
X169883332Y-54705233D01*
X169449999Y-55005233D02*
X169449999Y-54305233D01*
X169449999Y-54305233D02*
X169049999Y-55005233D01*
X169049999Y-55005233D02*
X169049999Y-54305233D01*
X168716666Y-55005233D02*
X168716666Y-54305233D01*
X168716666Y-54305233D02*
X168549999Y-54305233D01*
X168549999Y-54305233D02*
X168449999Y-54338566D01*
X168449999Y-54338566D02*
X168383333Y-54405233D01*
X168383333Y-54405233D02*
X168349999Y-54471900D01*
X168349999Y-54471900D02*
X168316666Y-54605233D01*
X168316666Y-54605233D02*
X168316666Y-54705233D01*
X168316666Y-54705233D02*
X168349999Y-54838566D01*
X168349999Y-54838566D02*
X168383333Y-54905233D01*
X168383333Y-54905233D02*
X168449999Y-54971900D01*
X168449999Y-54971900D02*
X168549999Y-55005233D01*
X168549999Y-55005233D02*
X168716666Y-55005233D01*
X99513333Y-44771900D02*
X99413333Y-44805233D01*
X99413333Y-44805233D02*
X99246667Y-44805233D01*
X99246667Y-44805233D02*
X99180000Y-44771900D01*
X99180000Y-44771900D02*
X99146667Y-44738566D01*
X99146667Y-44738566D02*
X99113333Y-44671900D01*
X99113333Y-44671900D02*
X99113333Y-44605233D01*
X99113333Y-44605233D02*
X99146667Y-44538566D01*
X99146667Y-44538566D02*
X99180000Y-44505233D01*
X99180000Y-44505233D02*
X99246667Y-44471900D01*
X99246667Y-44471900D02*
X99380000Y-44438566D01*
X99380000Y-44438566D02*
X99446667Y-44405233D01*
X99446667Y-44405233D02*
X99480000Y-44371900D01*
X99480000Y-44371900D02*
X99513333Y-44305233D01*
X99513333Y-44305233D02*
X99513333Y-44238566D01*
X99513333Y-44238566D02*
X99480000Y-44171900D01*
X99480000Y-44171900D02*
X99446667Y-44138566D01*
X99446667Y-44138566D02*
X99380000Y-44105233D01*
X99380000Y-44105233D02*
X99213333Y-44105233D01*
X99213333Y-44105233D02*
X99113333Y-44138566D01*
X98413333Y-44738566D02*
X98446666Y-44771900D01*
X98446666Y-44771900D02*
X98546666Y-44805233D01*
X98546666Y-44805233D02*
X98613333Y-44805233D01*
X98613333Y-44805233D02*
X98713333Y-44771900D01*
X98713333Y-44771900D02*
X98780000Y-44705233D01*
X98780000Y-44705233D02*
X98813333Y-44638566D01*
X98813333Y-44638566D02*
X98846666Y-44505233D01*
X98846666Y-44505233D02*
X98846666Y-44405233D01*
X98846666Y-44405233D02*
X98813333Y-44271900D01*
X98813333Y-44271900D02*
X98780000Y-44205233D01*
X98780000Y-44205233D02*
X98713333Y-44138566D01*
X98713333Y-44138566D02*
X98613333Y-44105233D01*
X98613333Y-44105233D02*
X98546666Y-44105233D01*
X98546666Y-44105233D02*
X98446666Y-44138566D01*
X98446666Y-44138566D02*
X98413333Y-44171900D01*
X97780000Y-44805233D02*
X98113333Y-44805233D01*
X98113333Y-44805233D02*
X98113333Y-44105233D01*
D16*
G36*
X87585107Y-77608156D02*
G01*
X87585107Y-77833333D01*
X87337412Y-77833333D01*
X87089717Y-77833333D01*
X87089717Y-77608156D01*
X87089717Y-77382978D01*
X87337412Y-77382978D01*
X87585107Y-77382978D01*
X87585107Y-77608156D01*
G37*
G36*
X87585107Y-79454610D02*
G01*
X87585107Y-79679787D01*
X87337412Y-79679787D01*
X87089717Y-79679787D01*
X87089717Y-79454610D01*
X87089717Y-79229432D01*
X87337412Y-79229432D01*
X87585107Y-79229432D01*
X87585107Y-79454610D01*
G37*
G36*
X87585107Y-81301063D02*
G01*
X87585107Y-81526241D01*
X87337412Y-81526241D01*
X87089717Y-81526241D01*
X87089717Y-81301063D01*
X87089717Y-81075886D01*
X87337412Y-81075886D01*
X87585107Y-81075886D01*
X87585107Y-81301063D01*
G37*
G36*
X88035461Y-77157801D02*
G01*
X88035461Y-77382978D01*
X87810284Y-77382978D01*
X87585107Y-77382978D01*
X87585107Y-77157801D01*
X87585107Y-76932624D01*
X87810284Y-76932624D01*
X88035461Y-76932624D01*
X88035461Y-77157801D01*
G37*
G36*
X89431561Y-74838475D02*
G01*
X89431561Y-75536524D01*
X88733511Y-75536524D01*
X88035461Y-75536524D01*
X88035461Y-74838475D01*
X88035461Y-74140425D01*
X88733511Y-74140425D01*
X89431561Y-74140425D01*
X89431561Y-74838475D01*
G37*
G36*
X90332270Y-83642907D02*
G01*
X90332270Y-83868085D01*
X90107093Y-83868085D01*
X89881915Y-83868085D01*
X89881915Y-83642907D01*
X89881915Y-83417730D01*
X90107093Y-83417730D01*
X90332270Y-83417730D01*
X90332270Y-83642907D01*
G37*
G36*
X92223759Y-81999113D02*
G01*
X92223759Y-82471985D01*
X91976064Y-82471985D01*
X91728369Y-82471985D01*
X91728369Y-81999113D01*
X91728369Y-81526241D01*
X91976064Y-81526241D01*
X92223759Y-81526241D01*
X92223759Y-81999113D01*
G37*
G36*
X92674114Y-86412588D02*
G01*
X92674114Y-86660283D01*
X92448937Y-86660283D01*
X92223759Y-86660283D01*
X92223759Y-86412588D01*
X92223759Y-86164893D01*
X92448937Y-86164893D01*
X92674114Y-86164893D01*
X92674114Y-86412588D01*
G37*
G36*
X93124468Y-85939716D02*
G01*
X93124468Y-86164893D01*
X92899291Y-86164893D01*
X92674114Y-86164893D01*
X92674114Y-85939716D01*
X92674114Y-85714539D01*
X92899291Y-85714539D01*
X93124468Y-85714539D01*
X93124468Y-85939716D01*
G37*
G36*
X94070213Y-82697163D02*
G01*
X94070213Y-82922340D01*
X93822518Y-82922340D01*
X93574823Y-82922340D01*
X93574823Y-82697163D01*
X93574823Y-82471985D01*
X93822518Y-82471985D01*
X94070213Y-82471985D01*
X94070213Y-82697163D01*
G37*
G36*
X94070213Y-86412588D02*
G01*
X94070213Y-86660283D01*
X93822518Y-86660283D01*
X93574823Y-86660283D01*
X93574823Y-86412588D01*
X93574823Y-86164893D01*
X93822518Y-86164893D01*
X94070213Y-86164893D01*
X94070213Y-86412588D01*
G37*
G36*
X94970922Y-73464893D02*
G01*
X94970922Y-73690071D01*
X94745745Y-73690071D01*
X94520568Y-73690071D01*
X94520568Y-73464893D01*
X94520568Y-73239716D01*
X94745745Y-73239716D01*
X94970922Y-73239716D01*
X94970922Y-73464893D01*
G37*
G36*
X95916667Y-73690071D02*
G01*
X95916667Y-74140425D01*
X95668972Y-74140425D01*
X95421277Y-74140425D01*
X95421277Y-73690071D01*
X95421277Y-73239716D01*
X95668972Y-73239716D01*
X95916667Y-73239716D01*
X95916667Y-73690071D01*
G37*
G36*
X96817376Y-73915248D02*
G01*
X96817376Y-74140425D01*
X96592199Y-74140425D01*
X96367022Y-74140425D01*
X96367022Y-73915248D01*
X96367022Y-73690071D01*
X96592199Y-73690071D01*
X96817376Y-73690071D01*
X96817376Y-73915248D01*
G37*
G36*
X97763121Y-82697163D02*
G01*
X97763121Y-82922340D01*
X97537944Y-82922340D01*
X97312766Y-82922340D01*
X97312766Y-82697163D01*
X97312766Y-82471985D01*
X97537944Y-82471985D01*
X97763121Y-82471985D01*
X97763121Y-82697163D01*
G37*
G36*
X99609575Y-74838475D02*
G01*
X99609575Y-75536524D01*
X98911525Y-75536524D01*
X98213476Y-75536524D01*
X98213476Y-74838475D01*
X98213476Y-74140425D01*
X98911525Y-74140425D01*
X99609575Y-74140425D01*
X99609575Y-74838475D01*
G37*
G36*
X99609575Y-85016489D02*
G01*
X99609575Y-85714539D01*
X98911525Y-85714539D01*
X98213476Y-85714539D01*
X98213476Y-85016489D01*
X98213476Y-84318439D01*
X98911525Y-84318439D01*
X99609575Y-84318439D01*
X99609575Y-85016489D01*
G37*
G36*
X96817376Y-81999113D02*
G01*
X96817376Y-82471985D01*
X96367022Y-82471985D01*
X95916667Y-82471985D01*
X95916667Y-82697163D01*
X95916667Y-82922340D01*
X95668972Y-82922340D01*
X95421277Y-82922340D01*
X95421277Y-82224290D01*
X95421277Y-81526241D01*
X96119327Y-81526241D01*
X96817376Y-81526241D01*
X96817376Y-81999113D01*
G37*
G36*
X98686348Y-82021631D02*
G01*
X99159220Y-82021631D01*
X99159220Y-82471985D01*
X99159220Y-82922340D01*
X98686348Y-82922340D01*
X98213476Y-82922340D01*
X98213476Y-82471985D01*
X98213476Y-82021631D01*
X98686348Y-82021631D01*
G37*
G36*
X98213476Y-81773936D02*
G01*
X98213476Y-82021631D01*
X97763121Y-82021631D01*
X97312766Y-82021631D01*
X97312766Y-81773936D01*
X97312766Y-81526241D01*
X97763121Y-81526241D01*
X98213476Y-81526241D01*
X98213476Y-81773936D01*
G37*
G36*
X90332270Y-76437234D02*
G01*
X88710993Y-76437234D01*
X87089717Y-76437234D01*
X87089717Y-74838475D01*
X87089717Y-73690071D01*
X87585107Y-73690071D01*
X87585107Y-74838475D01*
X87585107Y-75986879D01*
X88733511Y-75986879D01*
X89881915Y-75986879D01*
X89881915Y-74838475D01*
X89881915Y-73690071D01*
X88733511Y-73690071D01*
X87585107Y-73690071D01*
X87089717Y-73690071D01*
X87089717Y-73239716D01*
X88710993Y-73239716D01*
X90332270Y-73239716D01*
X90332270Y-74838475D01*
X90332270Y-76437234D01*
G37*
G36*
X100510284Y-76437234D02*
G01*
X98911525Y-76437234D01*
X97312766Y-76437234D01*
X97312766Y-74838475D01*
X97312766Y-73690071D01*
X97763121Y-73690071D01*
X97763121Y-74838475D01*
X97763121Y-75986879D01*
X98911525Y-75986879D01*
X100059929Y-75986879D01*
X100059929Y-74838475D01*
X100059929Y-73690071D01*
X98911525Y-73690071D01*
X97763121Y-73690071D01*
X97312766Y-73690071D01*
X97312766Y-73239716D01*
X98911525Y-73239716D01*
X100510284Y-73239716D01*
X100510284Y-74838475D01*
X100510284Y-76437234D01*
G37*
G36*
X100510284Y-85039007D02*
G01*
X100510284Y-86660283D01*
X98911525Y-86660283D01*
X97312766Y-86660283D01*
X97312766Y-85039007D01*
X97312766Y-83868085D01*
X97763121Y-83868085D01*
X97763121Y-85016489D01*
X97763121Y-86164893D01*
X98911525Y-86164893D01*
X100059929Y-86164893D01*
X100059929Y-85016489D01*
X100059929Y-83868085D01*
X98911525Y-83868085D01*
X97763121Y-83868085D01*
X97312766Y-83868085D01*
X97312766Y-83417730D01*
X98911525Y-83417730D01*
X100510284Y-83417730D01*
X100510284Y-85016489D01*
X100510284Y-85039007D01*
G37*
G36*
X92899291Y-81075886D02*
G01*
X93124468Y-81075886D01*
X93124468Y-81301063D01*
X93124468Y-81526241D01*
X93349646Y-81526241D01*
X93574823Y-81526241D01*
X93574823Y-81301063D01*
X93574823Y-81075886D01*
X94272873Y-81075886D01*
X94970922Y-81075886D01*
X94970922Y-81301063D01*
X94970922Y-81526241D01*
X94745745Y-81526241D01*
X94520568Y-81526241D01*
X94520568Y-81773936D01*
X94520568Y-82021631D01*
X94745745Y-82021631D01*
X94970922Y-82021631D01*
X94970922Y-82471985D01*
X94970922Y-82922340D01*
X94745745Y-82922340D01*
X94520568Y-82922340D01*
X94520568Y-82697163D01*
X94520568Y-82471985D01*
X94295390Y-82471985D01*
X94070213Y-82471985D01*
X94070213Y-82246808D01*
X94070213Y-82021631D01*
X93597341Y-82021631D01*
X93124468Y-82021631D01*
X93124468Y-82246808D01*
X93124468Y-82471985D01*
X92899291Y-82471985D01*
X92674114Y-82471985D01*
X92674114Y-81773936D01*
X92674114Y-81075886D01*
X92899291Y-81075886D01*
G37*
G36*
X92674114Y-80850709D02*
G01*
X92674114Y-81075886D01*
X92448937Y-81075886D01*
X92223759Y-81075886D01*
X92223759Y-80850709D01*
X92223759Y-80625532D01*
X92448937Y-80625532D01*
X92674114Y-80625532D01*
X92674114Y-80850709D01*
G37*
G36*
X100510284Y-78081028D02*
G01*
X100510284Y-79229432D01*
X100285107Y-79229432D01*
X100059929Y-79229432D01*
X100059929Y-79454610D01*
X100059929Y-79679787D01*
X100285107Y-79679787D01*
X100510284Y-79679787D01*
X100510284Y-80400354D01*
X100510284Y-81301063D01*
X100510284Y-82922340D01*
X100285107Y-82922340D01*
X100059929Y-82922340D01*
X100059929Y-81999113D01*
X100059929Y-81075886D01*
X99834752Y-81075886D01*
X99609575Y-81075886D01*
X99609575Y-81301063D01*
X99609575Y-81526241D01*
X98911525Y-81526241D01*
X98213476Y-81526241D01*
X98213476Y-81075886D01*
X98213476Y-80625532D01*
X98686348Y-80625532D01*
X99159220Y-80625532D01*
X99159220Y-80175177D01*
X99609575Y-80175177D01*
X99609575Y-80400354D01*
X99609575Y-80625532D01*
X99834752Y-80625532D01*
X100059929Y-80625532D01*
X100059929Y-80400354D01*
X100059929Y-80175177D01*
X99834752Y-80175177D01*
X99609575Y-80175177D01*
X99159220Y-80175177D01*
X99159220Y-79927482D01*
X99159220Y-79229432D01*
X98911525Y-79229432D01*
X98663830Y-79229432D01*
X98663830Y-79702305D01*
X98663830Y-80175177D01*
X97988298Y-80175177D01*
X97312766Y-80175177D01*
X97312766Y-80400354D01*
X97312766Y-80625532D01*
X96839894Y-80625532D01*
X96367022Y-80625532D01*
X96367022Y-80400354D01*
X96367022Y-80175177D01*
X96141844Y-80175177D01*
X95916667Y-80175177D01*
X95916667Y-80400354D01*
X95916667Y-80625532D01*
X95668972Y-80625532D01*
X95421277Y-80625532D01*
X95421277Y-80850709D01*
X95421277Y-81075886D01*
X95196100Y-81075886D01*
X94970922Y-81075886D01*
X94970922Y-80625532D01*
X94970922Y-80175177D01*
X94745745Y-80175177D01*
X94520568Y-80175177D01*
X94520568Y-79927482D01*
X94520568Y-79679787D01*
X95218617Y-79679787D01*
X95916667Y-79679787D01*
X95916667Y-79454610D01*
X95916667Y-79229432D01*
X95668972Y-79229432D01*
X95421277Y-79229432D01*
X95421277Y-79004255D01*
X95421277Y-78779078D01*
X95894149Y-78779078D01*
X96367022Y-78779078D01*
X96367022Y-79229432D01*
X96367022Y-79679787D01*
X97065071Y-79679787D01*
X97763121Y-79679787D01*
X97763121Y-79454610D01*
X97763121Y-79229432D01*
X97290249Y-79229432D01*
X96817376Y-79229432D01*
X96817376Y-79004255D01*
X96817376Y-78779078D01*
X96592199Y-78779078D01*
X96367022Y-78779078D01*
X96367022Y-78553900D01*
X96367022Y-78328723D01*
X96592199Y-78328723D01*
X96817376Y-78328723D01*
X96817376Y-78553900D01*
X96817376Y-78779078D01*
X97290249Y-78779078D01*
X97763121Y-78779078D01*
X97763121Y-78553900D01*
X97763121Y-78328723D01*
X97290249Y-78328723D01*
X96817376Y-78328723D01*
X96817376Y-78081028D01*
X96817376Y-77833333D01*
X97515426Y-77833333D01*
X98213476Y-77833333D01*
X98213476Y-78531383D01*
X98213476Y-79229432D01*
X98438653Y-79229432D01*
X98663830Y-79229432D01*
X98663830Y-79004255D01*
X98663830Y-78779078D01*
X99361880Y-78779078D01*
X100059929Y-78779078D01*
X100059929Y-78553900D01*
X100059929Y-78328723D01*
X99834752Y-78328723D01*
X99609575Y-78328723D01*
X99609575Y-78081028D01*
X99609575Y-77833333D01*
X99384398Y-77833333D01*
X99159220Y-77833333D01*
X99159220Y-77608156D01*
X99159220Y-77382978D01*
X99609575Y-77382978D01*
X99609575Y-77608156D01*
X99609575Y-77833333D01*
X99834752Y-77833333D01*
X100059929Y-77833333D01*
X100059929Y-77608156D01*
X100059929Y-77382978D01*
X99834752Y-77382978D01*
X99609575Y-77382978D01*
X99159220Y-77382978D01*
X98686348Y-77382978D01*
X98213476Y-77382978D01*
X98213476Y-77157801D01*
X98213476Y-76932624D01*
X99361880Y-76932624D01*
X100510284Y-76932624D01*
X100510284Y-77608156D01*
X100510284Y-78081028D01*
G37*
G36*
X97537944Y-80625532D02*
G01*
X97763121Y-80625532D01*
X97763121Y-80850709D01*
X97763121Y-81075886D01*
X97537944Y-81075886D01*
X97312766Y-81075886D01*
X97312766Y-80850709D01*
X97312766Y-80625532D01*
X97537944Y-80625532D01*
G37*
G36*
X96817376Y-76437234D02*
G01*
X96592199Y-76437234D01*
X96367022Y-76437234D01*
X96367022Y-76684929D01*
X96367022Y-76932624D01*
X97065071Y-76932624D01*
X97763121Y-76932624D01*
X97763121Y-77157801D01*
X97763121Y-77382978D01*
X96839894Y-77382978D01*
X95916667Y-77382978D01*
X95916667Y-77855851D01*
X95916667Y-78328723D01*
X95668972Y-78328723D01*
X95421277Y-78328723D01*
X95421277Y-77855851D01*
X95421277Y-77382978D01*
X95196100Y-77382978D01*
X94970922Y-77382978D01*
X94970922Y-76932624D01*
X95421277Y-76932624D01*
X95421277Y-77157801D01*
X95421277Y-77382978D01*
X95668972Y-77382978D01*
X95916667Y-77382978D01*
X95916667Y-77157801D01*
X95916667Y-76932624D01*
X95668972Y-76932624D01*
X95421277Y-76932624D01*
X94970922Y-76932624D01*
X94970922Y-76910106D01*
X94970922Y-76437234D01*
X95196100Y-76437234D01*
X95421277Y-76437234D01*
X95421277Y-76212056D01*
X95421277Y-75986879D01*
X95196100Y-75986879D01*
X94970922Y-75986879D01*
X94970922Y-76212056D01*
X94970922Y-76437234D01*
X94745745Y-76437234D01*
X94520568Y-76437234D01*
X94520568Y-76212056D01*
X94520568Y-75986879D01*
X94295390Y-75986879D01*
X94070213Y-75986879D01*
X94070213Y-76459751D01*
X94070213Y-76932624D01*
X93822518Y-76932624D01*
X93574823Y-76932624D01*
X93574823Y-77157801D01*
X93574823Y-77382978D01*
X93349646Y-77382978D01*
X93124468Y-77382978D01*
X93124468Y-76910106D01*
X93124468Y-76437234D01*
X93349646Y-76437234D01*
X93574823Y-76437234D01*
X93574823Y-76212056D01*
X93574823Y-75986879D01*
X93349646Y-75986879D01*
X93124468Y-75986879D01*
X93124468Y-76212056D01*
X93124468Y-76437234D01*
X92899291Y-76437234D01*
X92674114Y-76437234D01*
X92674114Y-75986879D01*
X92674114Y-75536524D01*
X92448937Y-75536524D01*
X92223759Y-75536524D01*
X92223759Y-75986879D01*
X92223759Y-76437234D01*
X91976064Y-76437234D01*
X91728369Y-76437234D01*
X91728369Y-75986879D01*
X91728369Y-75536524D01*
X91503192Y-75536524D01*
X91278015Y-75536524D01*
X91278015Y-76459751D01*
X91278015Y-77382978D01*
X91750887Y-77382978D01*
X92223759Y-77382978D01*
X92223759Y-77157801D01*
X92223759Y-76932624D01*
X92448937Y-76932624D01*
X92674114Y-76932624D01*
X92674114Y-77157801D01*
X92674114Y-77382978D01*
X92899291Y-77382978D01*
X93124468Y-77382978D01*
X93124468Y-77608156D01*
X93124468Y-77833333D01*
X93597341Y-77833333D01*
X94070213Y-77833333D01*
X94070213Y-77608156D01*
X94070213Y-77382978D01*
X94520568Y-77382978D01*
X94970922Y-77382978D01*
X94970922Y-77608156D01*
X94970922Y-77833333D01*
X94745745Y-77833333D01*
X94520568Y-77833333D01*
X94520568Y-78081028D01*
X94520568Y-78328723D01*
X94745745Y-78328723D01*
X94970922Y-78328723D01*
X94970922Y-78553900D01*
X94970922Y-78779078D01*
X94970922Y-79229432D01*
X94745745Y-79229432D01*
X94520568Y-79229432D01*
X94520568Y-79004255D01*
X94520568Y-78779078D01*
X94295390Y-78779078D01*
X94070213Y-78779078D01*
X94070213Y-79004255D01*
X94070213Y-79229432D01*
X93597341Y-79229432D01*
X93124468Y-79229432D01*
X93124468Y-79454610D01*
X93124468Y-79679787D01*
X93349646Y-79679787D01*
X93574823Y-79679787D01*
X93574823Y-79927482D01*
X93574823Y-80175177D01*
X93822518Y-80175177D01*
X94070213Y-80175177D01*
X94070213Y-80400354D01*
X94070213Y-80625532D01*
X93372163Y-80625532D01*
X92674114Y-80625532D01*
X92674114Y-80400354D01*
X92674114Y-80175177D01*
X92448937Y-80175177D01*
X92223759Y-80175177D01*
X92223759Y-79927482D01*
X92223759Y-79679787D01*
X91052837Y-79679787D01*
X89881915Y-79679787D01*
X89881915Y-80152659D01*
X89881915Y-80625532D01*
X89431561Y-80625532D01*
X88981206Y-80625532D01*
X88981206Y-80400354D01*
X88981206Y-80175177D01*
X88508334Y-80175177D01*
X88035461Y-80175177D01*
X88035461Y-79927482D01*
X88035461Y-79679787D01*
X88508334Y-79679787D01*
X88981206Y-79679787D01*
X88981206Y-79454610D01*
X88981206Y-79229432D01*
X88508334Y-79229432D01*
X88035461Y-79229432D01*
X88035461Y-79004255D01*
X88035461Y-78779078D01*
X87810284Y-78779078D01*
X87585107Y-78779078D01*
X87585107Y-78553900D01*
X87585107Y-78328723D01*
X87810284Y-78328723D01*
X88035461Y-78328723D01*
X88035461Y-78553900D01*
X88035461Y-78779078D01*
X88260639Y-78779078D01*
X88485816Y-78779078D01*
X88485816Y-78553900D01*
X88485816Y-78328723D01*
X88733511Y-78328723D01*
X88981206Y-78328723D01*
X88981206Y-78779078D01*
X88981206Y-79229432D01*
X90129610Y-79229432D01*
X91278015Y-79229432D01*
X91278015Y-79004255D01*
X91278015Y-78779078D01*
X91976064Y-78779078D01*
X92674114Y-78779078D01*
X92674114Y-78553900D01*
X92674114Y-78328723D01*
X93124468Y-78328723D01*
X93124468Y-78553900D01*
X93124468Y-78779078D01*
X93597341Y-78779078D01*
X94070213Y-78779078D01*
X94070213Y-78553900D01*
X94070213Y-78328723D01*
X93597341Y-78328723D01*
X93124468Y-78328723D01*
X92674114Y-78328723D01*
X92448937Y-78328723D01*
X92223759Y-78328723D01*
X92223759Y-78081028D01*
X92223759Y-77833333D01*
X91278015Y-77833333D01*
X90332270Y-77833333D01*
X90332270Y-78306205D01*
X90332270Y-78779078D01*
X90107093Y-78779078D01*
X89881915Y-78779078D01*
X89881915Y-78553900D01*
X89881915Y-78328723D01*
X89656738Y-78328723D01*
X89431561Y-78328723D01*
X89431561Y-78081028D01*
X89431561Y-77833333D01*
X89206383Y-77833333D01*
X88981206Y-77833333D01*
X88981206Y-77608156D01*
X88981206Y-77382978D01*
X88733511Y-77382978D01*
X88485816Y-77382978D01*
X88485816Y-77157801D01*
X88485816Y-76932624D01*
X88733511Y-76932624D01*
X88981206Y-76932624D01*
X88981206Y-77157801D01*
X88981206Y-77382978D01*
X89206383Y-77382978D01*
X89431561Y-77382978D01*
X89431561Y-77157801D01*
X89431561Y-76932624D01*
X89656738Y-76932624D01*
X89881915Y-76932624D01*
X89881915Y-77157801D01*
X89881915Y-77382978D01*
X90107093Y-77382978D01*
X90332270Y-77382978D01*
X90332270Y-77157801D01*
X90332270Y-76932624D01*
X90579965Y-76932624D01*
X90827660Y-76932624D01*
X90827660Y-76009397D01*
X90827660Y-75086170D01*
X91525710Y-75086170D01*
X92223759Y-75086170D01*
X93124468Y-75086170D01*
X93124468Y-75311347D01*
X93124468Y-75536524D01*
X93597341Y-75536524D01*
X94070213Y-75536524D01*
X94070213Y-75063652D01*
X94070213Y-74590780D01*
X93822518Y-74590780D01*
X93574823Y-74590780D01*
X93574823Y-74838475D01*
X93574823Y-75086170D01*
X93349646Y-75086170D01*
X93124468Y-75086170D01*
X92223759Y-75086170D01*
X92223759Y-74838475D01*
X92223759Y-74590780D01*
X92899291Y-74590780D01*
X93574823Y-74590780D01*
X93574823Y-74365602D01*
X93574823Y-74140425D01*
X93349646Y-74140425D01*
X93124468Y-74140425D01*
X93124468Y-73915248D01*
X93124468Y-73690071D01*
X93597341Y-73690071D01*
X94070213Y-73690071D01*
X94070213Y-74140425D01*
X94070213Y-74590780D01*
X94295390Y-74590780D01*
X94520568Y-74590780D01*
X94520568Y-74365602D01*
X94520568Y-74140425D01*
X94745745Y-74140425D01*
X94970922Y-74140425D01*
X94970922Y-74613298D01*
X94970922Y-75086170D01*
X94745745Y-75086170D01*
X94520568Y-75086170D01*
X94520568Y-75311347D01*
X94520568Y-75536524D01*
X94970922Y-75536524D01*
X95421277Y-75536524D01*
X95421277Y-75761702D01*
X95421277Y-75986879D01*
X95668972Y-75986879D01*
X95916667Y-75986879D01*
X95916667Y-76212056D01*
X95916667Y-76437234D01*
X96141844Y-76437234D01*
X96367022Y-76437234D01*
X96367022Y-76212056D01*
X96367022Y-75986879D01*
X96141844Y-75986879D01*
X95916667Y-75986879D01*
X95916667Y-75536524D01*
X95916667Y-75086170D01*
X95668972Y-75086170D01*
X95421277Y-75086170D01*
X95421277Y-74838475D01*
X95421277Y-74590780D01*
X96119327Y-74590780D01*
X96817376Y-74590780D01*
X96817376Y-74838475D01*
X96817376Y-75086170D01*
X96592199Y-75086170D01*
X96367022Y-75086170D01*
X96367022Y-75311347D01*
X96367022Y-75536524D01*
X96592199Y-75536524D01*
X96817376Y-75536524D01*
X96817376Y-75986879D01*
X96817376Y-76212056D01*
X96817376Y-76437234D01*
G37*
G36*
X92223759Y-74365602D02*
G01*
X92223759Y-74590780D01*
X91750887Y-74590780D01*
X91278015Y-74590780D01*
X91278015Y-74365602D01*
X91278015Y-74140425D01*
X91750887Y-74140425D01*
X92223759Y-74140425D01*
X92223759Y-74365602D01*
G37*
G36*
X93124468Y-73464893D02*
G01*
X93124468Y-73690071D01*
X92899291Y-73690071D01*
X92674114Y-73690071D01*
X92674114Y-73915248D01*
X92674114Y-74140425D01*
X92448937Y-74140425D01*
X92223759Y-74140425D01*
X92223759Y-73915248D01*
X92223759Y-73690071D01*
X91750887Y-73690071D01*
X91278015Y-73690071D01*
X91278015Y-73464893D01*
X91278015Y-73239716D01*
X92201241Y-73239716D01*
X93124468Y-73239716D01*
X93124468Y-73464893D01*
G37*
G36*
X93124468Y-83417730D02*
G01*
X92674114Y-83417730D01*
X92223759Y-83417730D01*
X92223759Y-83620390D01*
X92223759Y-83868085D01*
X92223759Y-84318439D01*
X92448937Y-84318439D01*
X92674114Y-84318439D01*
X92674114Y-84093262D01*
X92674114Y-83868085D01*
X92899291Y-83868085D01*
X93124468Y-83868085D01*
X93124468Y-83642907D01*
X93124468Y-83417730D01*
X93349646Y-83417730D01*
X93574823Y-83417730D01*
X93574823Y-83642907D01*
X93574823Y-83868085D01*
X93822518Y-83868085D01*
X94070213Y-83868085D01*
X94070213Y-84093262D01*
X94070213Y-84318439D01*
X93822518Y-84318439D01*
X93574823Y-84318439D01*
X93574823Y-84543617D01*
X93574823Y-84768794D01*
X94272873Y-84768794D01*
X94970922Y-84768794D01*
X94970922Y-84318439D01*
X94970922Y-83868085D01*
X94745745Y-83868085D01*
X94520568Y-83868085D01*
X94520568Y-83642907D01*
X94520568Y-83417730D01*
X95443795Y-83417730D01*
X96367022Y-83417730D01*
X96367022Y-83170035D01*
X96367022Y-82922340D01*
X96592199Y-82922340D01*
X96817376Y-82922340D01*
X96817376Y-83395212D01*
X96817376Y-83868085D01*
X96367022Y-83868085D01*
X95916667Y-83868085D01*
X95916667Y-84093262D01*
X95916667Y-84318439D01*
X95668972Y-84318439D01*
X95421277Y-84318439D01*
X95421277Y-84543617D01*
X95421277Y-84768794D01*
X95196100Y-84768794D01*
X94970922Y-84768794D01*
X94970922Y-85016489D01*
X94970922Y-85264184D01*
X94745745Y-85264184D01*
X94520568Y-85264184D01*
X94520568Y-85489361D01*
X94520568Y-85714539D01*
X94745745Y-85714539D01*
X94970922Y-85714539D01*
X94970922Y-86187411D01*
X94970922Y-86660283D01*
X94745745Y-86660283D01*
X94520568Y-86660283D01*
X94520568Y-86412588D01*
X94520568Y-86164893D01*
X94295390Y-86164893D01*
X94070213Y-86164893D01*
X94070213Y-85939716D01*
X94070213Y-85714539D01*
X93597341Y-85714539D01*
X93124468Y-85714539D01*
X93124468Y-85489361D01*
X93124468Y-85264184D01*
X92899291Y-85264184D01*
X92674114Y-85264184D01*
X92674114Y-85016489D01*
X92674114Y-84768794D01*
X93124468Y-84768794D01*
X93124468Y-85016489D01*
X93124468Y-85264184D01*
X93349646Y-85264184D01*
X93574823Y-85264184D01*
X93574823Y-85016489D01*
X93574823Y-84768794D01*
X93349646Y-84768794D01*
X93124468Y-84768794D01*
X92674114Y-84768794D01*
X92448937Y-84768794D01*
X92223759Y-84768794D01*
X92223759Y-85241666D01*
X92223759Y-85489361D01*
X92223759Y-85714539D01*
X91750887Y-85714539D01*
X91278015Y-85714539D01*
X91278015Y-85939716D01*
X91278015Y-86164893D01*
X91052837Y-86164893D01*
X90827660Y-86164893D01*
X90827660Y-86412588D01*
X90827660Y-86660283D01*
X90354788Y-86660283D01*
X89881915Y-86660283D01*
X89881915Y-86412588D01*
X89881915Y-86164893D01*
X90332270Y-86164893D01*
X90579965Y-86164893D01*
X90827660Y-86164893D01*
X90827660Y-85939716D01*
X90827660Y-85714539D01*
X90579965Y-85714539D01*
X90332270Y-85714539D01*
X90332270Y-85939716D01*
X90332270Y-86164893D01*
X89881915Y-86164893D01*
X89656738Y-86164893D01*
X89431561Y-86164893D01*
X89431561Y-86412588D01*
X89431561Y-86660283D01*
X89206383Y-86660283D01*
X88981206Y-86660283D01*
X88981206Y-86412588D01*
X88981206Y-86164893D01*
X88733511Y-86164893D01*
X88485816Y-86164893D01*
X88485816Y-86412588D01*
X88485816Y-86660283D01*
X88260639Y-86660283D01*
X88035461Y-86660283D01*
X88035461Y-86412588D01*
X88035461Y-86164893D01*
X87810284Y-86164893D01*
X87585107Y-86164893D01*
X87585107Y-85714539D01*
X88035461Y-85714539D01*
X88035461Y-85939716D01*
X88035461Y-86164893D01*
X88260639Y-86164893D01*
X88485816Y-86164893D01*
X88485816Y-85939716D01*
X88485816Y-85714539D01*
X88260639Y-85714539D01*
X88035461Y-85714539D01*
X87585107Y-85714539D01*
X87585107Y-85264184D01*
X87337412Y-85264184D01*
X87089717Y-85264184D01*
X87089717Y-85016489D01*
X88981206Y-85016489D01*
X88981206Y-85264184D01*
X89656738Y-85264184D01*
X90332270Y-85264184D01*
X90827660Y-85264184D01*
X90827660Y-85489361D01*
X90827660Y-85714539D01*
X91052837Y-85714539D01*
X91278015Y-85714539D01*
X91278015Y-85489361D01*
X91278015Y-85264184D01*
X91052837Y-85264184D01*
X90827660Y-85264184D01*
X90332270Y-85264184D01*
X90332270Y-85016489D01*
X90332270Y-84768794D01*
X89656738Y-84768794D01*
X88981206Y-84768794D01*
X88981206Y-85016489D01*
X87089717Y-85016489D01*
X87089717Y-84768794D01*
X87562589Y-84768794D01*
X88035461Y-84768794D01*
X88035461Y-84543617D01*
X88035461Y-84318439D01*
X88260639Y-84318439D01*
X88485816Y-84318439D01*
X88485816Y-84543617D01*
X88485816Y-84768794D01*
X88733511Y-84768794D01*
X88981206Y-84768794D01*
X88981206Y-84318439D01*
X88981206Y-83868085D01*
X88508334Y-83868085D01*
X88035461Y-83868085D01*
X88035461Y-83642907D01*
X88035461Y-83417730D01*
X87562589Y-83417730D01*
X87089717Y-83417730D01*
X87089717Y-82944858D01*
X87089717Y-82471985D01*
X87337412Y-82471985D01*
X87585107Y-82471985D01*
X87585107Y-82246808D01*
X87585107Y-82021631D01*
X87810284Y-82021631D01*
X88035461Y-82021631D01*
X88035461Y-82246808D01*
X88035461Y-82471985D01*
X88260639Y-82471985D01*
X88485816Y-82471985D01*
X88485816Y-82697163D01*
X88485816Y-82922340D01*
X88733511Y-82922340D01*
X88981206Y-82922340D01*
X89431561Y-82922340D01*
X89431561Y-83620390D01*
X89431561Y-84318439D01*
X90129610Y-84318439D01*
X90827660Y-84318439D01*
X91278015Y-84318439D01*
X91278015Y-84543617D01*
X91278015Y-84768794D01*
X91750887Y-84768794D01*
X92223759Y-84768794D01*
X92223759Y-84543617D01*
X92223759Y-84318439D01*
X91750887Y-84318439D01*
X91278015Y-84318439D01*
X90827660Y-84318439D01*
X90827660Y-83620390D01*
X90827660Y-82922340D01*
X91278015Y-82922340D01*
X91278015Y-83170035D01*
X91278015Y-83417730D01*
X91503192Y-83417730D01*
X91728369Y-83417730D01*
X91728369Y-83170035D01*
X91728369Y-82922340D01*
X91503192Y-82922340D01*
X91278015Y-82922340D01*
X90827660Y-82922340D01*
X90129610Y-82922340D01*
X89431561Y-82922340D01*
X88981206Y-82922340D01*
X88981206Y-82471985D01*
X88981206Y-82021631D01*
X89206383Y-82021631D01*
X89431561Y-82021631D01*
X89431561Y-81773936D01*
X89431561Y-81526241D01*
X89206383Y-81526241D01*
X88981206Y-81526241D01*
X88981206Y-81301063D01*
X88981206Y-81075886D01*
X88733511Y-81075886D01*
X88485816Y-81075886D01*
X88485816Y-81548759D01*
X88485816Y-82021631D01*
X88260639Y-82021631D01*
X88035461Y-82021631D01*
X88035461Y-81323581D01*
X88035461Y-80625532D01*
X88508334Y-80625532D01*
X88981206Y-80625532D01*
X88981206Y-80850709D01*
X88981206Y-81075886D01*
X89904433Y-81075886D01*
X90827660Y-81075886D01*
X90827660Y-80850709D01*
X90827660Y-80625532D01*
X90579965Y-80625532D01*
X90332270Y-80625532D01*
X90332270Y-80400354D01*
X90332270Y-80175177D01*
X90805142Y-80175177D01*
X91278015Y-80175177D01*
X91278015Y-80625532D01*
X91278015Y-81075886D01*
X91503192Y-81075886D01*
X91728369Y-81075886D01*
X91728369Y-81301063D01*
X91728369Y-81526241D01*
X91503192Y-81526241D01*
X91278015Y-81526241D01*
X91278015Y-81773936D01*
X91278015Y-82021631D01*
X90805142Y-82021631D01*
X90332270Y-82021631D01*
X90332270Y-81773936D01*
X90332270Y-81526241D01*
X90107093Y-81526241D01*
X89881915Y-81526241D01*
X89881915Y-81999113D01*
X89881915Y-82471985D01*
X90805142Y-82471985D01*
X91728369Y-82471985D01*
X91728369Y-82697163D01*
X91728369Y-82922340D01*
X91976064Y-82922340D01*
X92223759Y-82922340D01*
X92223759Y-82697163D01*
X92223759Y-82471985D01*
X92448937Y-82471985D01*
X92674114Y-82471985D01*
X92674114Y-82697163D01*
X92674114Y-82922340D01*
X92899291Y-82922340D01*
X93124468Y-82922340D01*
X93124468Y-83170035D01*
X93124468Y-83417730D01*
G37*
G36*
X91503192Y-86164893D02*
G01*
X91728369Y-86164893D01*
X91728369Y-86412588D01*
X91728369Y-86660283D01*
X91503192Y-86660283D01*
X91278015Y-86660283D01*
X91278015Y-86412588D01*
X91278015Y-86164893D01*
X91503192Y-86164893D01*
G37*
G36*
X96367022Y-84318439D02*
G01*
X96817376Y-84318439D01*
X96817376Y-85489361D01*
X96817376Y-86660283D01*
X96119327Y-86660283D01*
X95421277Y-86660283D01*
X95421277Y-86412588D01*
X95421277Y-86164893D01*
X95668972Y-86164893D01*
X95916667Y-86164893D01*
X95916667Y-85939716D01*
X95916667Y-85714539D01*
X95668972Y-85714539D01*
X95421277Y-85714539D01*
X95421277Y-85489361D01*
X95421277Y-85264184D01*
X95668972Y-85264184D01*
X95916667Y-85264184D01*
X95916667Y-84791312D01*
X95916667Y-84318439D01*
X96367022Y-84318439D01*
G37*
G36*
X88035461Y-84093262D02*
G01*
X88035461Y-84318439D01*
X87562589Y-84318439D01*
X87089717Y-84318439D01*
X87089717Y-84093262D01*
X87089717Y-83868085D01*
X87562589Y-83868085D01*
X88035461Y-83868085D01*
X88035461Y-84093262D01*
G37*
G36*
X88035461Y-80400354D02*
G01*
X88035461Y-80625532D01*
X87810284Y-80625532D01*
X87585107Y-80625532D01*
X87585107Y-80400354D01*
X87585107Y-80175177D01*
X87810284Y-80175177D01*
X88035461Y-80175177D01*
X88035461Y-80400354D01*
G37*
%LPC*%
D17*
X124840000Y-46600000D03*
X124840000Y-42800000D03*
X116200000Y-46600000D03*
X116200000Y-42800000D03*
D18*
X89775000Y-88000000D03*
X97775000Y-88000000D03*
D19*
X123540000Y-52900000D03*
X121000000Y-52900000D03*
X169260000Y-52900000D03*
D20*
X171800000Y-49000000D03*
X133700000Y-85000000D03*
D19*
X171800000Y-78500000D03*
X118460000Y-52900000D03*
D20*
X124460000Y-85000000D03*
D19*
X171800000Y-52900000D03*
D20*
X93600000Y-42750000D03*
D21*
X91355000Y-44645000D03*
D19*
X105650000Y-52700000D03*
X126080000Y-52900000D03*
X164180000Y-78500000D03*
D20*
X148940000Y-85000000D03*
X108840000Y-42750000D03*
D19*
X156560000Y-78500000D03*
X161640000Y-78500000D03*
D20*
X98680000Y-42750000D03*
D19*
X128620000Y-52900000D03*
D20*
X101220000Y-42750000D03*
D19*
X159100000Y-78500000D03*
D20*
X119380000Y-85000000D03*
D19*
X141320000Y-52900000D03*
D20*
X111380000Y-42750000D03*
X154020000Y-49000000D03*
D19*
X118460000Y-78500000D03*
D20*
X96140000Y-42750000D03*
X121920000Y-85000000D03*
D19*
X108700000Y-52700000D03*
X121000000Y-78500000D03*
X143860000Y-52900000D03*
D20*
X114300000Y-85000000D03*
X146400000Y-49000000D03*
X148940000Y-49000000D03*
X111760000Y-85000000D03*
D19*
X146400000Y-52900000D03*
X148940000Y-52900000D03*
D20*
X116840000Y-85000000D03*
X151480000Y-49000000D03*
D19*
X136240000Y-78500000D03*
X166720000Y-78500000D03*
X148940000Y-78500000D03*
D20*
X136240000Y-85000000D03*
X103760000Y-42750000D03*
D19*
X141320000Y-78500000D03*
X138780000Y-78500000D03*
D20*
X106300000Y-42750000D03*
X146400000Y-85000000D03*
D19*
X133700000Y-78500000D03*
D20*
X143860000Y-85000000D03*
D19*
X131160000Y-78500000D03*
D20*
X141320000Y-85000000D03*
D19*
X128620000Y-78500000D03*
X126080000Y-78500000D03*
D20*
X138780000Y-85000000D03*
D19*
X143860000Y-78500000D03*
X151480000Y-78500000D03*
D20*
X136240000Y-49000000D03*
D19*
X146400000Y-78500000D03*
D20*
X138780000Y-49000000D03*
D19*
X154020000Y-78500000D03*
D21*
X88835000Y-44665000D03*
D19*
X136240000Y-52900000D03*
D20*
X131160000Y-49000000D03*
D19*
X133700000Y-52900000D03*
X131160000Y-52900000D03*
D20*
X166720000Y-49000000D03*
D19*
X166720000Y-52900000D03*
X164180000Y-52900000D03*
D20*
X164180000Y-49000000D03*
D19*
X161640000Y-52900000D03*
D20*
X161640000Y-49000000D03*
X159100000Y-49000000D03*
D19*
X159100000Y-52900000D03*
X156560000Y-52900000D03*
D20*
X156560000Y-49000000D03*
X143860000Y-49000000D03*
D19*
X154020000Y-52900000D03*
D20*
X141320000Y-49000000D03*
D19*
X151480000Y-52900000D03*
D20*
X133700000Y-49000000D03*
D19*
X138780000Y-52900000D03*
D20*
X169260000Y-49000000D03*
D19*
X169260000Y-78500000D03*
X123540000Y-78500000D03*
%LPD*%
M02*
