G04 #@! TF.GenerationSoftware,KiCad,Pcbnew,9.0.3*
G04 #@! TF.CreationDate,2026-04-27T13:40:57+08:00*
G04 #@! TF.ProjectId,phantomware,7068616e-746f-46d7-9761-72652e6b6963,rev?*
G04 #@! TF.SameCoordinates,Original*
G04 #@! TF.FileFunction,Soldermask,Top*
G04 #@! TF.FilePolarity,Negative*
%FSLAX46Y46*%
G04 Gerber Fmt 4.6, Leading zero omitted, Abs format (unit mm)*
G04 Created by KiCad (PCBNEW 9.0.3) date 2026-04-27 13:40:57*
%MOMM*%
%LPD*%
G01*
G04 APERTURE LIST*
G04 Aperture macros list*
%AMRoundRect*
0 Rectangle with rounded corners*
0 $1 Rounding radius*
0 $2 $3 $4 $5 $6 $7 $8 $9 X,Y pos of 4 corners*
0 Add a 4 corners polygon primitive as box body*
4,1,4,$2,$3,$4,$5,$6,$7,$8,$9,$2,$3,0*
0 Add four circle primitives for the rounded corners*
1,1,$1+$1,$2,$3*
1,1,$1+$1,$4,$5*
1,1,$1+$1,$6,$7*
1,1,$1+$1,$8,$9*
0 Add four rect primitives between the rounded corners*
20,1,$1+$1,$2,$3,$4,$5,0*
20,1,$1+$1,$4,$5,$6,$7,0*
20,1,$1+$1,$6,$7,$8,$9,0*
20,1,$1+$1,$8,$9,$2,$3,0*%
G04 Aperture macros list end*
%ADD10RoundRect,0.218750X0.256250X-0.218750X0.256250X0.218750X-0.256250X0.218750X-0.256250X-0.218750X0*%
%ADD11R,1.070000X0.600000*%
%ADD12RoundRect,0.135000X-0.185000X0.135000X-0.185000X-0.135000X0.185000X-0.135000X0.185000X0.135000X0*%
%ADD13C,1.500000*%
%ADD14RoundRect,0.135000X-0.135000X-0.185000X0.135000X-0.185000X0.135000X0.185000X-0.135000X0.185000X0*%
%ADD15RoundRect,0.135000X0.135000X0.185000X-0.135000X0.185000X-0.135000X-0.185000X0.135000X-0.185000X0*%
%ADD16R,1.250000X0.650000*%
%ADD17R,1.200000X0.600000*%
%ADD18R,2.400000X3.300000*%
%ADD19RoundRect,0.135000X0.185000X-0.135000X0.185000X0.135000X-0.185000X0.135000X-0.185000X-0.135000X0*%
%ADD20RoundRect,0.225000X-0.225000X-0.250000X0.225000X-0.250000X0.225000X0.250000X-0.225000X0.250000X0*%
%ADD21O,0.685000X0.200000*%
%ADD22R,1.300000X1.400000*%
%ADD23R,1.800000X0.800000*%
%ADD24O,1.100000X1.700000*%
%ADD25R,0.700000X1.200000*%
%ADD26R,0.800000X1.200000*%
%ADD27RoundRect,0.150000X0.587500X0.150000X-0.587500X0.150000X-0.587500X-0.150000X0.587500X-0.150000X0*%
%ADD28R,1.193800X1.346200*%
%ADD29RoundRect,0.140000X-0.170000X0.140000X-0.170000X-0.140000X0.170000X-0.140000X0.170000X0.140000X0*%
%ADD30R,1.230000X1.360000*%
%ADD31RoundRect,0.250000X-0.250000X-1.450000X0.250000X-1.450000X0.250000X1.450000X-0.250000X1.450000X0*%
%ADD32R,1.000000X1.900000*%
%ADD33RoundRect,0.225000X-0.250000X0.225000X-0.250000X-0.225000X0.250000X-0.225000X0.250000X0.225000X0*%
%ADD34C,0.900000*%
%ADD35R,0.700000X1.400000*%
%ADD36R,1.600000X1.400000*%
%ADD37R,1.200000X2.200000*%
%ADD38C,1.700000*%
%ADD39C,1.600000*%
%ADD40C,1.800000*%
G04 APERTURE END LIST*
D10*
X128500000Y-46037500D03*
X128500000Y-44462500D03*
D11*
X106885000Y-70250000D03*
X106885000Y-68350000D03*
X104415000Y-69300000D03*
D12*
X128500000Y-42160000D03*
X128500000Y-43180000D03*
D13*
X109350000Y-68400000D03*
D14*
X112290000Y-66250000D03*
X113310000Y-66250000D03*
D15*
X112800000Y-61870000D03*
X111780000Y-61870000D03*
D14*
X105240000Y-49750000D03*
X106260000Y-49750000D03*
D15*
X89010000Y-70500000D03*
X87990000Y-70500000D03*
D16*
X96950000Y-60550000D03*
X96950000Y-62450000D03*
X99050000Y-61500000D03*
D15*
X112800000Y-63040000D03*
X111780000Y-63040000D03*
D17*
X103108500Y-50005000D03*
X103108500Y-48735000D03*
X103108500Y-47465000D03*
X103108500Y-46195000D03*
X97291500Y-46195000D03*
X97291500Y-47465000D03*
X97291500Y-48735000D03*
X97291500Y-50005000D03*
D18*
X100200000Y-48100000D03*
D19*
X119950000Y-49210000D03*
X119950000Y-48190000D03*
D15*
X89010000Y-59900000D03*
X87990000Y-59900000D03*
D19*
X91000000Y-67010000D03*
X91000000Y-65990000D03*
D15*
X89010000Y-65900000D03*
X87990000Y-65900000D03*
D20*
X106975000Y-46195000D03*
X108525000Y-46195000D03*
D19*
X158950000Y-87260000D03*
X158950000Y-86240000D03*
D21*
X106067500Y-61350000D03*
X106067500Y-60950000D03*
X106067500Y-60550000D03*
X106067500Y-60150000D03*
X106067500Y-59750000D03*
X103632500Y-59750000D03*
X103632500Y-60150000D03*
X103632500Y-60550000D03*
X103632500Y-60950000D03*
X103632500Y-61350000D03*
D22*
X104850000Y-60550000D03*
D12*
X109850000Y-64490000D03*
X109850000Y-65510000D03*
D13*
X90750000Y-69500000D03*
D20*
X96225000Y-57400000D03*
X97775000Y-57400000D03*
D19*
X126750000Y-43180000D03*
X126750000Y-42160000D03*
D23*
X87900000Y-54000000D03*
X87900000Y-52730000D03*
X87900000Y-51460000D03*
X87900000Y-50190000D03*
D24*
X124840000Y-46600000D03*
X124840000Y-42800000D03*
X116200000Y-46600000D03*
X116200000Y-42800000D03*
D25*
X121020000Y-46850000D03*
X119020000Y-46850000D03*
D26*
X117820000Y-46850000D03*
D25*
X120020000Y-46850000D03*
X122020000Y-46850000D03*
D26*
X123220000Y-46850000D03*
D27*
X90937500Y-64450000D03*
X90937500Y-62550000D03*
X89062500Y-63500000D03*
D13*
X96350000Y-64550000D03*
D28*
X86500000Y-60181100D03*
X86500000Y-57818900D03*
D15*
X116010000Y-81200000D03*
X114990000Y-81200000D03*
D10*
X158950000Y-90037500D03*
X158950000Y-88462500D03*
D29*
X92250000Y-53770000D03*
X92250000Y-54730000D03*
D19*
X90600000Y-54010000D03*
X90600000Y-52990000D03*
D30*
X89800000Y-74450000D03*
X85430000Y-74450000D03*
D28*
X86500000Y-65181100D03*
X86500000Y-62818900D03*
D14*
X92990000Y-64500000D03*
X94010000Y-64500000D03*
D31*
X104309000Y-57100000D03*
X105809000Y-57100000D03*
D32*
X101650000Y-72850000D03*
X101650000Y-69350000D03*
X98150000Y-72850000D03*
D19*
X160950000Y-87260000D03*
X160950000Y-86240000D03*
D33*
X98050000Y-53275000D03*
X98050000Y-54825000D03*
D10*
X160950000Y-90037500D03*
X160950000Y-88462500D03*
D13*
X90900000Y-56700000D03*
D34*
X89775000Y-88000000D03*
X97775000Y-88000000D03*
D35*
X96975000Y-77400000D03*
X95875000Y-77400000D03*
X94775000Y-77400000D03*
X93675000Y-77400000D03*
X92575000Y-77400000D03*
X91475000Y-77400000D03*
X90375000Y-77400000D03*
X89275000Y-77400000D03*
X88175000Y-77400000D03*
D36*
X86725000Y-78000000D03*
X101575000Y-78000000D03*
D37*
X86975000Y-87600000D03*
X102475000Y-87600000D03*
D13*
X101750000Y-61550000D03*
D28*
X86500000Y-70181100D03*
X86500000Y-67818900D03*
D12*
X121100000Y-48190000D03*
X121100000Y-49210000D03*
D10*
X126750000Y-46037500D03*
X126750000Y-44462500D03*
D38*
X123540000Y-52900000D03*
X121000000Y-52900000D03*
X169260000Y-52900000D03*
D39*
X171800000Y-49000000D03*
X133700000Y-85000000D03*
D38*
X171800000Y-78500000D03*
X118460000Y-52900000D03*
D39*
X124460000Y-85000000D03*
D38*
X171800000Y-52900000D03*
D39*
X93600000Y-42750000D03*
D40*
X91355000Y-44645000D03*
D38*
X105650000Y-52700000D03*
X126080000Y-52900000D03*
X164180000Y-78500000D03*
D39*
X148940000Y-85000000D03*
X108840000Y-42750000D03*
D38*
X156560000Y-78500000D03*
X161640000Y-78500000D03*
D39*
X98680000Y-42750000D03*
D38*
X128620000Y-52900000D03*
D39*
X101220000Y-42750000D03*
D38*
X159100000Y-78500000D03*
D39*
X119380000Y-85000000D03*
D38*
X141320000Y-52900000D03*
D39*
X111380000Y-42750000D03*
X154020000Y-49000000D03*
D38*
X118460000Y-78500000D03*
D39*
X96140000Y-42750000D03*
X121920000Y-85000000D03*
D38*
X108700000Y-52700000D03*
X121000000Y-78500000D03*
X143860000Y-52900000D03*
D39*
X114300000Y-85000000D03*
X146400000Y-49000000D03*
X148940000Y-49000000D03*
X111760000Y-85000000D03*
D38*
X146400000Y-52900000D03*
X148940000Y-52900000D03*
D39*
X116840000Y-85000000D03*
X151480000Y-49000000D03*
D38*
X136240000Y-78500000D03*
X166720000Y-78500000D03*
X148940000Y-78500000D03*
D39*
X136240000Y-85000000D03*
X103760000Y-42750000D03*
D38*
X141320000Y-78500000D03*
X138780000Y-78500000D03*
D39*
X106300000Y-42750000D03*
X146400000Y-85000000D03*
D38*
X133700000Y-78500000D03*
D39*
X143860000Y-85000000D03*
D38*
X131160000Y-78500000D03*
D39*
X141320000Y-85000000D03*
D38*
X128620000Y-78500000D03*
X126080000Y-78500000D03*
D39*
X138780000Y-85000000D03*
D38*
X143860000Y-78500000D03*
X151480000Y-78500000D03*
D39*
X136240000Y-49000000D03*
D38*
X146400000Y-78500000D03*
D39*
X138780000Y-49000000D03*
D38*
X154020000Y-78500000D03*
D40*
X88835000Y-44665000D03*
D38*
X136240000Y-52900000D03*
D39*
X131160000Y-49000000D03*
D38*
X133700000Y-52900000D03*
X131160000Y-52900000D03*
D39*
X166720000Y-49000000D03*
D38*
X166720000Y-52900000D03*
X164180000Y-52900000D03*
D39*
X164180000Y-49000000D03*
D38*
X161640000Y-52900000D03*
D39*
X161640000Y-49000000D03*
X159100000Y-49000000D03*
D38*
X159100000Y-52900000D03*
X156560000Y-52900000D03*
D39*
X156560000Y-49000000D03*
X143860000Y-49000000D03*
D38*
X154020000Y-52900000D03*
D39*
X141320000Y-49000000D03*
D38*
X151480000Y-52900000D03*
D39*
X133700000Y-49000000D03*
D38*
X138780000Y-52900000D03*
D39*
X169260000Y-49000000D03*
D38*
X169260000Y-78500000D03*
X123540000Y-78500000D03*
M02*
