M48
; DRILL file {KiCad 9.0.2} date 2025-06-24T15:24:45+0800
; FORMAT={-:-/ absolute / metric / decimal}
; #@! TF.CreationDate,2025-06-24T15:24:45+08:00
; #@! TF.GenerationSoftware,Kicad,Pcbnew,9.0.2
; #@! TF.FileFunction,Plated,1,2,PTH
FMAT,2
METRIC
; #@! TA.AperFunction,Plated,PTH,ViaDrill
T1C0.300
; #@! TA.AperFunction,Plated,PTH,ViaDrill
T2C0.900
; #@! TA.AperFunction,Plated,PTH,ViaDrill
T3C1.000
%
G90
G05
T1
X131.253Y-95.4
X136.0Y-99.8
T2
X124.33Y-107.93
X126.87Y-107.93
X129.41Y-107.93
X131.95Y-107.93
X134.49Y-107.93
X137.03Y-107.93
X139.57Y-107.93
T3
X126.173Y-86.36
X126.173Y-91.44
X131.253Y-86.36
X131.253Y-91.44
X133.793Y-78.74
X133.793Y-83.82
X133.793Y-86.36
X133.793Y-91.44
X133.793Y-93.98
X133.793Y-99.06
X138.873Y-91.44
X138.873Y-93.98
X138.873Y-99.06
X138.945Y-78.74
X138.945Y-83.82
X138.945Y-86.358
X141.413Y-78.74
X141.413Y-83.82
X141.413Y-86.36
X141.413Y-91.44
X146.493Y-78.74
X146.493Y-83.82
X146.493Y-86.36
X146.493Y-91.44
M30
