%TF.GenerationSoftware,KiCad,Pcbnew,9.0.2*%
%TF.CreationDate,2025-06-24T15:24:31+08:00*%
%TF.ProjectId,buttons,62757474-6f6e-4732-9e6b-696361645f70,rev?*%
%TF.SameCoordinates,Original*%
%TF.FileFunction,Copper,L1,Top*%
%TF.FilePolarity,Positive*%
%FSLAX46Y46*%
G04 Gerber Fmt 4.6, Leading zero omitted, Abs format (unit mm)*
G04 Created by KiCad (PCBNEW 9.0.2) date 2025-06-24 15:24:31*
%MOMM*%
%LPD*%
G01*
G04 APERTURE LIST*
%TA.AperFunction,ViaPad*%
%ADD10C,2.000000*%
%TD*%
%TA.AperFunction,ViaPad*%
%ADD11C,1.600000*%
%TD*%
%TA.AperFunction,ViaPad*%
%ADD12C,0.600000*%
%TD*%
%TA.AperFunction,Conductor*%
%ADD13C,0.300000*%
%TD*%
%TA.AperFunction,Conductor*%
%ADD14C,0.200000*%
%TD*%
G04 APERTURE END LIST*
D10*
%TO.N,GND*%
X133792620Y-78740000D03*
X141412620Y-78740000D03*
X133792620Y-83820000D03*
X141412620Y-86360000D03*
X133792620Y-91440000D03*
X133792620Y-93980000D03*
X141412620Y-91440000D03*
X133792620Y-86360000D03*
X141412620Y-83820000D03*
X126172620Y-91440000D03*
D11*
X124330000Y-107930000D03*
D10*
X126172620Y-86360000D03*
X133792620Y-99060000D03*
%TO.N,Net-(U1-IO13)*%
X146492620Y-78740000D03*
X146492620Y-83820000D03*
D11*
X139570000Y-107930000D03*
D10*
%TO.N,Net-(U1-IO5)*%
X131252620Y-91440000D03*
D11*
X131950000Y-107930000D03*
D10*
X131252620Y-86360000D03*
D12*
X131252620Y-95400000D03*
D10*
%TO.N,Net-(U1-IO4)*%
X138872620Y-93980000D03*
X138872620Y-99060000D03*
D11*
X129410000Y-107930000D03*
D12*
X136000000Y-99800000D03*
D11*
%TO.N,Net-(U1-IO3)*%
X126870000Y-107930000D03*
D10*
X138945222Y-83820000D03*
X138945222Y-78740000D03*
%TO.N,Net-(U1-IO7)*%
X138872620Y-91440000D03*
D11*
X137030000Y-107930000D03*
D10*
X138945222Y-86357875D03*
D11*
%TO.N,Net-(U1-IO6)*%
X134490000Y-107930000D03*
D10*
X146492620Y-91440000D03*
X146492620Y-86360000D03*
%TD*%
D13*
%TO.N,GND*%
X141412620Y-86360000D02*
X141412620Y-83820000D01*
X126172620Y-86360000D02*
X126172620Y-91440000D01*
X141412620Y-91440000D02*
X141412620Y-86360000D01*
X133792620Y-83820000D02*
X133792620Y-78740000D01*
X133792620Y-86360000D02*
X133792620Y-91440000D01*
X141412620Y-83820000D02*
X141412620Y-78740000D01*
X133792620Y-83820000D02*
X133792620Y-86360000D01*
X133792620Y-93980000D02*
X133792620Y-99060000D01*
X133792620Y-91440000D02*
X133792620Y-93980000D01*
%TO.N,Net-(U1-IO13)*%
X146492620Y-83820000D02*
X146492620Y-78740000D01*
X147070000Y-83820000D02*
X146492620Y-83820000D01*
X139570000Y-107930000D02*
X148200000Y-99300000D01*
X148200000Y-84950000D02*
X147070000Y-83820000D01*
X148200000Y-99300000D02*
X148200000Y-84950000D01*
%TO.N,Net-(U1-IO5)*%
X131252620Y-91440000D02*
X131252620Y-95400000D01*
X131252620Y-91440000D02*
X131252620Y-86360000D01*
%TO.N,Net-(U1-IO4)*%
X129410000Y-106390000D02*
X129410000Y-107930000D01*
X136000000Y-99800000D02*
X129410000Y-106390000D01*
X138872620Y-93980000D02*
X138872620Y-99060000D01*
%TO.N,Net-(U1-IO3)*%
X137205222Y-77000000D02*
X132200000Y-77000000D01*
X138945222Y-83820000D02*
X138945222Y-78740000D01*
X123600000Y-104200000D02*
X126870000Y-107470000D01*
X138945222Y-78740000D02*
X137205222Y-77000000D01*
D14*
X126870000Y-107470000D02*
X126870000Y-107930000D01*
D13*
X123600000Y-85600000D02*
X123600000Y-104200000D01*
X132200000Y-77000000D02*
X123600000Y-85600000D01*
D14*
%TO.N,Net-(U1-IO7)*%
X138945222Y-91367398D02*
X138872620Y-91440000D01*
D13*
X137030000Y-93282620D02*
X137030000Y-107930000D01*
X138945222Y-86357875D02*
X138945222Y-91367398D01*
X138872620Y-91440000D02*
X137030000Y-93282620D01*
%TO.N,Net-(U1-IO6)*%
X146492620Y-91440000D02*
X146492620Y-86360000D01*
%TD*%
M02*
